<?xml version="1.0" encoding="iso-8859-1"?>
<!-- Generator: Adobe Illustrator 19.0.0, SVG Export Plug-In . SVG Version: 6.00 Build 0)  -->
<svg version="1.1" id="Layer_1" xmlns="http://www.w3.org/2000/svg" xmlns:xlink="http://www.w3.org/1999/xlink" x="0px" y="0px"
	 viewBox="0 0 512 512" style="enable-background:new 0 0 512 512;" xml:space="preserve">
<path style="fill:#32BEA6;" d="M256,157.264c-66.288,0-120.224,53.792-120.224,119.904S189.712,397.072,256,397.072
	s120.224-53.792,120.224-119.904S322.288,157.264,256,157.264z M256,381.072c-57.472,0-104.224-46.608-104.224-103.904
	S198.528,173.264,256,173.264s104.224,46.608,104.224,103.904S313.472,381.072,256,381.072z"/>
<g>
	<path style="fill:#E04F5F;" d="M256,235.424c-6.672,0-12.896,1.696-18.496,4.48c1.456-0.432,2.912-0.912,4.512-0.912
		c9.008,0,16.32,7.264,16.32,16.24c0,8.96-7.312,16.24-16.32,16.24s-16.32-7.264-16.32-16.24c0-3.936,1.584-7.424,3.936-10.224
		c-9.376,7.648-15.488,19.136-15.488,32.176c0,23.056,18.736,41.744,41.856,41.744s41.856-18.688,41.856-41.744
		S279.12,235.424,256,235.424z"/>
	<rect x="39.952" y="149.792" style="fill:#E04F5F;" width="71.472" height="30.928"/>
</g>
<path style="fill:#FFFFFF;" d="M242.016,238.992c-1.6,0-3.056,0.48-4.512,0.912c-3.152,0.928-5.824,2.656-7.872,5.104
	c-2.352,2.816-3.936,6.288-3.936,10.224c0,8.96,7.312,16.24,16.32,16.24s16.32-7.264,16.32-16.24
	C258.336,246.256,251.024,238.992,242.016,238.992z"/>
<g>
	<path style="fill:#2C3E50;" d="M256,173.264c-57.472,0-104.224,46.608-104.224,103.904S198.528,381.072,256,381.072
		s104.224-46.608,104.224-103.904S313.472,173.264,256,173.264z M256,318.912c-23.12,0-41.856-18.688-41.856-41.744
		c0-13.024,6.112-24.512,15.488-32.176c2.048-2.448,4.72-4.176,7.872-5.104c5.6-2.768,11.824-4.48,18.496-4.48
		c23.12,0,41.856,18.688,41.856,41.744S279.12,318.912,256,318.912z"/>
	<path style="fill:#2C3E50;" d="M480.064,109.84H345.456V99.392c0-17.536-14.384-31.888-31.984-31.888H198.544
		c-17.584,0-31.984,14.352-31.984,31.888v10.432H31.936C14.368,109.84,0,124.208,0,141.776V412.56
		c0,17.568,14.368,31.936,31.936,31.936h448.128c17.568,0,31.936-14.368,31.936-31.936V141.776
		C512,124.208,497.632,109.84,480.064,109.84z M111.424,180.72H39.952v-30.928h71.472
		C111.424,149.792,111.424,180.72,111.424,180.72z M256,397.072c-66.288,0-120.224-53.792-120.224-119.904
		S189.712,157.264,256,157.264s120.224,53.792,120.224,119.904S322.288,397.072,256,397.072z"/>
</g>
<g>
</g>
<g>
</g>
<g>
</g>
<g>
</g>
<g>
</g>
<g>
</g>
<g>
</g>
<g>
</g>
<g>
</g>
<g>
</g>
<g>
</g>
<g>
</g>
<g>
</g>
<g>
</g>
<g>
</g>
</svg>
