<?xml version="1.0" encoding="iso-8859-1"?>
<!-- Generator: Adobe Illustrator 19.0.0, SVG Export Plug-In . SVG Version: 6.00 Build 0)  -->
<svg version="1.1" id="Layer_1" xmlns="http://www.w3.org/2000/svg" xmlns:xlink="http://www.w3.org/1999/xlink" x="0px" y="0px"
	 viewBox="0 0 512 512" style="enable-background:new 0 0 512 512;" xml:space="preserve">
<path style="fill:#999999;" d="M97.98,141.071c0,2.964-2.424,5.39-5.389,5.39H36.332c-2.964,0-5.39-2.425-5.39-5.39v-27.895
	c0-2.964,2.425-5.39,5.39-5.39h56.259c2.964,0,5.389,2.425,5.389,5.39V141.071z"/>
<path style="opacity:0.1;enable-background:new    ;" d="M53.356,141.071v-27.895c0-2.964,2.424-5.39,5.389-5.39H36.331
	c-2.964,0-5.39,2.425-5.39,5.39v27.895c0,2.964,2.425,5.39,5.39,5.39h22.413C55.781,146.46,53.356,144.035,53.356,141.071z"/>
<path style="fill:#114B7F;" d="M474.907,141.071c0,2.964-2.425,5.39-5.389,5.39h-23.202c-2.965,0-5.39-2.425-5.39-5.39v-27.895
	c0-2.964,2.424-5.39,5.39-5.39h23.202c2.963,0,5.389,2.425,5.389,5.39V141.071z"/>
<path style="opacity:0.1;enable-background:new    ;" d="M458.078,141.071v-27.895c0-2.964,2.425-5.39,5.39-5.39h-17.151
	c-2.965,0-5.39,2.425-5.39,5.39v27.895c0,2.964,2.424,5.39,5.39,5.39h17.151C460.503,146.46,458.078,144.035,458.078,141.071z"/>
<path style="fill:#999999;" d="M373.081,160.629c0.838,2.843-0.902,5.17-3.866,5.17H142.785c-2.964,0-4.705-2.327-3.866-5.17
	l23.917-81.192c0.838-2.843,3.948-5.17,6.913-5.17h172.502c2.965,0,6.076,2.327,6.913,5.17L373.081,160.629z"/>
<path style="opacity:0.1;enable-background:new    ;" d="M172.533,160.629l23.917-81.192c0.839-2.843,3.949-5.17,6.913-5.17h-33.613
	c-2.965,0-6.075,2.327-6.913,5.17l-23.917,81.192c-0.839,2.843,0.902,5.17,3.866,5.17h33.613
	C173.434,165.798,171.694,163.472,172.533,160.629z"/>
<path style="fill:#114B7F;" d="M292.742,144.939c0,2.964-2.425,5.39-5.389,5.39h-62.706c-2.963,0-5.389-2.425-5.389-5.39v-35.632
	c0-2.963,2.425-5.39,5.389-5.39h62.706c2.963,0,5.389,2.425,5.389,5.39V144.939z"/>
<path style="opacity:0.1;enable-background:new    ;" d="M247.189,144.939v-35.632c0-2.963,2.424-5.39,5.389-5.39h-27.932
	c-2.963,0-5.389,2.425-5.389,5.39v35.632c0,2.964,2.425,5.39,5.389,5.39h27.932C249.615,150.329,247.189,147.903,247.189,144.939z"
	/>
<path style="fill:#D6D5D6;" d="M512,426.954c0,5.929-4.851,10.779-10.778,10.779H10.778C4.851,437.733,0,432.882,0,426.954V144.712
	c0-5.929,4.851-10.779,10.778-10.779h490.443c5.928,0,10.778,4.85,10.778,10.779v282.242H512z"/>
<rect y="239.094" style="fill:#FF9B4B;" width="512" height="179.952"/>
<path style="fill:#E86436;" d="M0,426.954c0,5.929,4.851,10.779,10.778,10.779h490.443c5.928,0,10.778-4.85,10.778-10.779v-12.168H0
	V426.954z"/>
<path style="opacity:0.1;enable-background:new    ;" d="M32.876,426.954V144.712c0-5.929,4.851-10.779,10.779-10.779H10.778
	C4.851,133.933,0,138.783,0,144.712v282.242c0,5.929,4.851,10.779,10.778,10.779h32.877
	C37.726,437.733,32.876,432.882,32.876,426.954z"/>
<circle style="fill:#E86436;" cx="358.348" cy="287.89" r="25.82"/>
<circle style="fill:#FFFFFF;" cx="256" cy="287.89" r="105.336"/>
<circle style="fill:#554141;" cx="256" cy="287.89" r="69.632"/>
<path style="opacity:0.1;enable-background:new    ;" d="M215.04,287.893c0-33.541,23.718-61.536,55.296-68.146
	c-4.628-0.969-9.422-1.484-14.336-1.484c-38.457,0-69.632,31.173-69.632,69.631c0,38.455,31.175,69.629,69.632,69.629
	c4.914,0,9.708-0.516,14.336-1.485C238.758,349.428,215.04,321.434,215.04,287.893z"/>
<path style="fill:#FFFFFF;" d="M473.168,199.105c0,1.778-1.456,3.234-3.234,3.234h-63.348c-1.779,0-3.234-1.456-3.234-3.234V168.97
	c0-1.778,1.454-3.234,3.234-3.234h63.348c1.778,0,3.234,1.456,3.234,3.234V199.105z"/>
<path style="opacity:0.1;enable-background:new    ;" d="M429.541,199.105V168.97c0-1.778,1.456-3.234,3.234-3.234h-26.188
	c-1.779,0-3.234,1.456-3.234,3.234v30.136c0,1.778,1.454,3.234,3.234,3.234h26.188C430.996,202.339,429.541,200.884,429.541,199.105
	z"/>
<g>
	<circle style="fill:#FFFFFF;" cx="62.626" cy="179.722" r="16.6"/>
	<circle style="fill:#FFFFFF;" cx="279.176" cy="307.534" r="22.1"/>
</g>
<g>
</g>
<g>
</g>
<g>
</g>
<g>
</g>
<g>
</g>
<g>
</g>
<g>
</g>
<g>
</g>
<g>
</g>
<g>
</g>
<g>
</g>
<g>
</g>
<g>
</g>
<g>
</g>
<g>
</g>
</svg>
