<?xml version="1.0" encoding="iso-8859-1"?>
<!-- Generator: Adobe Illustrator 19.0.0, SVG Export Plug-In . SVG Version: 6.00 Build 0)  -->
<svg version="1.1" id="Capa_1" xmlns="http://www.w3.org/2000/svg" xmlns:xlink="http://www.w3.org/1999/xlink" x="0px" y="0px"
	 viewBox="0 0 512.579 512.579" style="enable-background:new 0 0 512.579 512.579;" xml:space="preserve">
<path style="fill:#66C6B9;" d="M224.579,14.659l97.067,200.533c6.4,11.733,1.067,26.667-11.733,33.067l-177.067,86.4
	c-11.733,6.4-26.667,1.067-33.067-11.733L2.712,122.392c-6.4-11.733-1.067-26.667,11.733-33.067l177.067-86.4
	C204.312-2.408,218.179,2.925,224.579,14.659z"/>
<rect x="72.777" y="56.275" transform="matrix(-0.4375 -0.8992 0.8992 -0.4375 85.9516 347.6465)" style="fill:#FFFFFF;" width="157.864" height="181.33"/>
<path style="fill:#F05540;" d="M120.045,118.125c11.733,24.533,60.8,26.667,60.8,26.667s27.733-39.467,16-64
	c-5.333-10.667-19.2-16-29.867-10.667c-8.533,4.267-12.8,12.8-12.8,21.333c-6.4-5.333-16-7.467-24.533-3.2
	C118.979,93.592,114.712,107.459,120.045,118.125z"/>
<path style="fill:#F3705A;" d="M90.179,177.859c13.867,29.867,72.533,32,72.533,32s34.133-46.933,19.2-76.8
	c-6.4-12.8-22.4-19.2-35.2-11.733c-9.6,5.333-14.933,14.933-14.933,25.6c-7.467-6.4-19.2-8.533-28.8-4.267
	C89.112,149.059,83.779,165.059,90.179,177.859z"/>
<path style="fill:#E8EAE9;" d="M478.445,237.592H131.779c-19.2,0-34.133,16-34.133,34.133v205.867c0,19.2,16,34.133,34.133,34.133
	h345.6c19.2,0,34.133-16,34.133-34.133V271.725C512.579,252.525,496.579,237.592,478.445,237.592z"/>
<rect x="97.645" y="319.725" style="fill:#8AD7F8;" width="414.933" height="110.933"/>
<rect x="137.112" y="273.859" style="fill:#FFD15C;" width="57.6" height="26.667"/>
<g>
	<path style="fill:#415A6B;" d="M201.112,208.792h-38.4c-4.267,0-8.533,4.267-8.533,8.533v20.267h56.533v-20.267
		C209.645,211.992,205.379,208.792,201.112,208.792z"/>
	<circle style="fill:#415A6B;" cx="354.712" cy="375.192" r="109.867"/>
</g>
<circle style="fill:#FFFFFF;" cx="354.712" cy="375.192" r="76.8"/>
<circle style="fill:#55C0EB;" cx="354.712" cy="375.192" r="46.933"/>
<circle style="fill:#FFFFFF;" cx="374.979" cy="362.392" r="16"/>
<polygon style="fill:#E8EAE9;" points="299.245,182.125 272.579,237.592 436.845,237.592 411.245,182.125 "/>
<g>
</g>
<g>
</g>
<g>
</g>
<g>
</g>
<g>
</g>
<g>
</g>
<g>
</g>
<g>
</g>
<g>
</g>
<g>
</g>
<g>
</g>
<g>
</g>
<g>
</g>
<g>
</g>
<g>
</g>
</svg>
