<?xml version="1.0" encoding="iso-8859-1"?>
<!-- Generator: Adobe Illustrator 19.0.0, SVG Export Plug-In . SVG Version: 6.00 Build 0)  -->
<svg version="1.1" id="Layer_1" xmlns="http://www.w3.org/2000/svg" xmlns:xlink="http://www.w3.org/1999/xlink" x="0px" y="0px"
	 viewBox="0 0 512 512" style="enable-background:new 0 0 512 512;" xml:space="preserve">
<path style="fill:#58595B;" d="M20.74,201.477V404.47c0,2.936,2.403,5.339,5.342,5.339h372.416c2.937,0,5.34-2.403,5.34-5.339
	V201.477H20.74z"/>
<path style="fill:#E0E0E0;" d="M156.054,236.144h-98.14c-2.938,0-5.34,2.403-5.34,5.34v35.077c0,2.938,2.402,5.34,5.34,5.34h98.14
	V236.144z"/>
<path style="opacity:0.1;enable-background:new    ;" d="M40.657,404.471V201.478H20.74v202.992c0,2.936,2.403,5.339,5.342,5.339
	h19.917C43.06,409.81,40.657,407.407,40.657,404.471z"/>
<path style="opacity:0.1;enable-background:new    ;" d="M86.525,276.563v-35.077c0-2.938,2.403-5.34,5.342-5.34H57.914
	c-2.938,0-5.34,2.403-5.34,5.34v35.077c0,2.938,2.402,5.34,5.34,5.34h33.952C88.928,281.903,86.525,279.5,86.525,276.563z"/>
<g>
	<rect x="171.582" y="236.145" style="fill:#E0E0E0;" width="105.148" height="45.759"/>
	<path style="fill:#E0E0E0;" d="M366.664,236.144h-74.396v45.759h74.396c2.937,0,5.34-2.403,5.34-5.34v-35.077
		C372.004,238.547,369.601,236.144,366.664,236.144z"/>
	<path style="fill:#E0E0E0;" d="M258.362,354.894H135.665c-4.289,0-7.767-3.476-7.767-7.766c0-4.289,3.476-7.767,7.767-7.767
		h122.697c4.289,0,7.766,3.476,7.766,7.767C266.128,351.418,262.652,354.894,258.362,354.894z"/>
	<path style="fill:#E0E0E0;" d="M258.362,323.194H135.665c-4.289,0-7.767-3.476-7.767-7.766s3.476-7.767,7.767-7.767h122.697
		c4.289,0,7.766,3.476,7.766,7.767C266.128,319.718,262.652,323.194,258.362,323.194z"/>
	<path style="fill:#E0E0E0;" d="M107.275,354.894H60.34c-4.289,0-7.767-3.476-7.767-7.766c0-4.289,3.476-7.767,7.767-7.767h46.935
		c4.289,0,7.766,3.476,7.766,7.767C115.041,351.418,111.564,354.894,107.275,354.894z"/>
	<path style="fill:#E0E0E0;" d="M107.275,323.194H60.34c-4.289,0-7.767-3.476-7.767-7.766s3.476-7.767,7.767-7.767h46.935
		c4.289,0,7.766,3.476,7.766,7.767C115.041,319.718,111.564,323.194,107.275,323.194z"/>
</g>
<path style="fill:#414042;" d="M18.713,152.641c-2.937,0-5.34,2.403-5.34,5.34v43.634c0,2.938,2.403,5.342,5.34,5.342H36.43
	l5.368-4.914l25.887-44.526l0.188-4.875H18.713z"/>
<path style="opacity:0.1;enable-background:new    ;" d="M31.443,201.615v-43.634c0-2.938,2.404-5.34,5.342-5.34H18.713
	c-2.937,0-5.34,2.403-5.34,5.34v43.634c0,2.938,2.403,5.342,5.34,5.342H36.43l0.036-0.032
	C33.678,206.755,31.443,204.444,31.443,201.615z"/>
<polygon style="fill:#414042;" points="109.798,152.641 105.998,154.411 77.004,205.149 78.353,206.957 126.658,206.957 
	129.814,205.149 159.843,154.41 158.101,152.641 "/>
<polygon style="fill:#E0E0E0;" points="36.431,206.957 78.353,206.957 109.798,152.641 67.873,152.641 "/>
<polygon style="fill:#414042;" points="200.025,152.641 196.085,154.41 168.127,204.114 168.582,206.957 216.886,206.957 
	220.936,204.114 249.93,154.41 248.329,152.641 "/>
<polygon style="fill:#E0E0E0;" points="126.658,206.957 168.582,206.957 200.025,152.641 158.101,152.641 "/>
<polygon style="fill:#414042;" points="290.253,152.641 286.171,154.41 257.178,205.149 258.81,206.957 307.115,206.957 
	311.023,204.114 340.017,154.41 338.557,152.641 "/>
<polygon style="fill:#E0E0E0;" points="216.886,206.957 258.81,206.957 290.253,152.641 248.329,152.641 "/>
<path style="fill:#414042;" d="M405.864,152.641h-25.383l-3.187,1.769l-28.993,49.704l0.738,2.843h56.825
	c2.937,0,5.34-2.404,5.34-5.342v-43.634C411.205,155.044,408.801,152.641,405.864,152.641z"/>
<polygon style="fill:#E0E0E0;" points="307.115,206.957 349.038,206.957 380.482,152.641 338.557,152.641 "/>
<g>
	<path style="fill:#414042;" d="M3.959,102.799c-2.837,0.761-4.538,3.704-3.777,6.542l11.293,42.147
		c0.761,2.838,3.704,4.537,6.542,3.776l17.113-4.586l3.912-6.136l13.48-49.709l-1.08-4.758L3.959,102.799z"/>
	<polygon style="fill:#414042;" points="91.938,79.224 88.727,81.917 73.854,138.43 75.624,139.828 122.283,127.326 
		124.863,124.762 140.737,67.98 138.596,66.723 	"/>
</g>
<polygon style="fill:#E0E0E0;" points="35.131,150.678 75.624,139.828 91.938,79.224 51.443,90.075 "/>
<polygon style="fill:#414042;" points="179.092,55.872 175.744,58.601 161.604,113.847 162.78,116.476 209.437,103.974 
	212.613,100.178 227.754,44.665 225.75,43.371 "/>
<polygon style="fill:#E0E0E0;" points="122.283,127.326 162.78,116.476 179.092,55.872 138.596,66.723 "/>
<polygon style="fill:#414042;" points="266.245,32.519 262.761,35.284 247.888,91.797 249.932,93.122 296.592,80.62 299.63,76.862 
	314.771,21.348 312.905,20.017 "/>
<polygon style="fill:#E0E0E0;" points="209.437,103.974 249.932,93.122 266.245,32.519 225.75,43.371 "/>
<path style="fill:#414042;" d="M377.917,2.597L353.4,9.167l-2.621,2.533l-15.141,55.514l1.449,2.555l54.888-14.706
	c2.838-0.762,4.536-3.704,3.776-6.542L384.457,6.373C383.698,3.537,380.754,1.837,377.917,2.597z"/>
<polygon style="fill:#E0E0E0;" points="296.592,80.62 337.087,69.769 353.4,9.167 312.905,20.017 "/>
<path style="fill:#58595B;" d="M503.987,509.58H373.741c-4.424,0-8.011-3.587-8.011-8.011c0-4.424,3.587-8.011,8.011-8.011h130.248
	c4.425,0,8.011,3.587,8.011,8.011C512,505.994,508.413,509.58,503.987,509.58z"/>
<ellipse style="fill:#AAB0B5;" cx="373.739" cy="388.449" rx="121.448" ry="121.135"/>
<g>
	<ellipse style="fill:#58595B;" cx="373.749" cy="319.946" rx="29.875" ry="29.795"/>
	<path style="fill:#58595B;" d="M448.281,395.594c-15.692,5.088-32.549-3.475-37.649-19.125
		c-5.098-15.65,3.487-32.461,19.178-37.548c15.691-5.086,32.544,3.477,37.646,19.127
		C472.556,373.697,463.971,390.508,448.281,395.594z"/>
	<path style="fill:#58595B;" d="M389.951,461.336c-9.701-13.31-6.746-31.945,6.6-41.62c13.346-9.676,32.03-6.728,41.731,6.584
		c9.702,13.31,6.746,31.944-6.601,41.618C418.335,477.594,399.653,474.648,389.951,461.336z"/>
	<path style="fill:#58595B;" d="M309.233,426.335c9.694-13.318,28.374-16.274,41.727-6.606c13.353,9.666,16.318,28.3,6.624,41.616
		s-28.374,16.273-41.726,6.604C302.506,458.284,299.541,439.652,309.233,426.335z"/>
	<path style="fill:#58595B;" d="M317.66,338.953c15.693,5.077,24.287,21.882,19.196,37.536
		c-5.09,15.653-21.943,24.225-37.636,19.147c-15.694-5.078-24.29-21.885-19.196-37.537
		C285.113,342.447,301.964,333.876,317.66,338.953z"/>
</g>
<path style="opacity:0.1;enable-background:new    ;" d="M365.522,319.95c0-12.646,7.904-23.446,19.049-27.771
	c-3.357-1.303-7.005-2.025-10.825-2.025c-16.499,0-29.874,13.339-29.874,29.796c0,16.455,13.375,29.795,29.874,29.795
	c3.82,0,7.468-0.722,10.825-2.025C373.425,343.393,365.522,332.595,365.522,319.95z"/>
<path style="opacity:0.1;enable-background:new    ;" d="M337.507,467.95c-13.352-9.666-16.317-28.298-6.625-41.614
	c3.505-4.815,8.186-8.267,13.362-10.266c-12.35-4.803-26.859-0.935-35.011,10.266c-9.692,13.316-6.728,31.948,6.625,41.614
	c8.525,6.174,19.22,7.192,28.364,3.661C341.886,470.703,339.629,469.487,337.507,467.95z"/>
<path style="opacity:0.1;enable-background:new    ;" d="M301.672,358.1c2.879-8.854,9.522-15.439,17.59-18.573
	c-0.527-0.203-1.06-0.397-1.603-0.573c-15.695-5.077-32.546,3.493-37.636,19.146c-5.093,15.652,3.501,32.458,19.196,37.537
	c6.816,2.206,13.85,1.833,20.045-0.574C304.597,389.391,296.756,373.209,301.672,358.1z"/>
<path style="fill:#58595B;" d="M365.36,404.461c-9.597-4.874-13.413-16.585-8.526-26.155c4.889-9.571,16.632-13.377,26.228-8.502
	c9.594,4.874,13.411,16.585,8.523,26.156C386.697,405.53,374.955,409.339,365.36,404.461z"/>
<g>
</g>
<g>
</g>
<g>
</g>
<g>
</g>
<g>
</g>
<g>
</g>
<g>
</g>
<g>
</g>
<g>
</g>
<g>
</g>
<g>
</g>
<g>
</g>
<g>
</g>
<g>
</g>
<g>
</g>
</svg>
