<?xml version="1.0" encoding="iso-8859-1"?>
<!-- Generator: Adobe Illustrator 19.0.0, SVG Export Plug-In . SVG Version: 6.00 Build 0)  -->
<svg version="1.1" id="Layer_1" xmlns="http://www.w3.org/2000/svg" xmlns:xlink="http://www.w3.org/1999/xlink" x="0px" y="0px"
	 viewBox="0 0 512 512" style="enable-background:new 0 0 512 512;" xml:space="preserve">
<g>
	<path style="fill:#E65C7B;" d="M17.86,178.601c-9.864,0-17.86-7.997-17.86-17.86V17.86C0,7.997,7.997,0,17.86,0h142.879
		c9.864,0,17.86,7.997,17.86,17.86s-7.997,17.86-17.86,17.86H35.721v125.02C35.721,170.604,27.724,178.601,17.86,178.601z"/>
	<path style="fill:#E65C7B;" d="M160.739,512H17.86C7.997,512,0,504.003,0,494.14v-142.88c0-9.864,7.997-17.86,17.86-17.86
		s17.86,7.997,17.86,17.86v125.02h125.018c9.864,0,17.86,7.997,17.86,17.86S170.603,512,160.739,512z"/>
</g>
<path style="fill:#FEE856;" d="M320.614,255.125c22.342-18.581,36.595-46.572,36.595-77.834
	c0-55.807-45.402-101.209-101.209-101.209s-101.209,45.402-101.209,101.209c0,31.262,14.253,59.253,36.595,77.832
	c-64.764,25.774-110.663,89.093-110.663,162.933c0,9.865,7.997,17.86,17.86,17.86h314.835c9.864,0,17.86-7.996,17.86-17.86
	C431.278,344.216,385.379,280.899,320.614,255.125z"/>
<g>
	<path style="fill:#834496;" d="M494.14,178.601c-9.864,0-17.86-7.997-17.86-17.86V35.721H351.261c-9.864,0-17.86-7.997-17.86-17.86
		S341.397,0,351.261,0H494.14C504.003,0,512,7.997,512,17.86v142.88C512,170.604,504.003,178.601,494.14,178.601z"/>
	<path style="fill:#834496;" d="M494.14,512H351.261c-9.864,0-17.86-7.997-17.86-17.86s7.997-17.86,17.86-17.86h125.018v-125.02
		c0-9.864,7.997-17.86,17.86-17.86s17.86,7.997,17.86,17.86v142.88C512,504.003,504.003,512,494.14,512z"/>
</g>
<path style="fill:#FFCE3E;" d="M320.614,255.125c22.342-18.581,36.595-46.572,36.595-77.834
	c0-55.807-45.402-101.209-101.209-101.209v359.835h157.417c9.864,0,17.86-7.996,17.86-17.86
	C431.278,344.216,385.379,280.899,320.614,255.125z"/>
<g>
</g>
<g>
</g>
<g>
</g>
<g>
</g>
<g>
</g>
<g>
</g>
<g>
</g>
<g>
</g>
<g>
</g>
<g>
</g>
<g>
</g>
<g>
</g>
<g>
</g>
<g>
</g>
<g>
</g>
</svg>
