<?xml version="1.0" encoding="iso-8859-1"?>
<!-- Generator: Adobe Illustrator 19.0.0, SVG Export Plug-In . SVG Version: 6.00 Build 0)  -->
<svg version="1.1" id="Layer_1" xmlns="http://www.w3.org/2000/svg" xmlns:xlink="http://www.w3.org/1999/xlink" x="0px" y="0px"
	 viewBox="0 0 511.982 511.982" style="enable-background:new 0 0 511.982 511.982;" xml:space="preserve">
<polygon style="fill:#4A89DC;" points="13.406,181.708 410.549,54.807 498.577,330.274 101.434,457.177 "/>
<path style="fill:#CCD1D9;" d="M417.455,41.401L0,174.803l94.52,295.778l417.462-133.4L417.455,41.401z M26.811,188.615
	L403.642,68.212l81.529,255.156L108.348,443.77L26.811,188.615z"/>
<rect x="53.331" y="117.331" style="fill:#5D9CEC;" width="405.31" height="277.31"/>
<path style="fill:#E6E9ED;" d="M42.662,106.664v298.668h426.666V106.664H42.662z M447.984,383.991H63.998V128.007h383.986
	L447.984,383.991L447.984,383.991z"/>
<path style="fill:#CCD1D9;" d="M348.707,168.006c-92.849,0-78.959,136.112-78.959,136.112s13.273,15.875,79.271,15.875
	s79.357-16,79.357-16S441.548,168.006,348.707,168.006z"/>
<path style="fill:#E6E9ED;" d="M431.735,332.774l-0.641-0.188c-10.78-2.906-18.687-5.719-23.452-7.531
	c-16.844-6.5-21.25-11.188-22.359-13.375c-0.047-0.094-0.078-0.188-0.109-0.25l-0.156-20.625l-72.013,0.812l-0.141,19.812
	c-0.031,0.062-0.062,0.156-0.109,0.25c-1.108,2.188-5.515,6.875-22.358,13.375c-4.766,1.812-12.688,4.625-23.358,7.5l-0.734,0.219
	c-9.719,3.25-16.257,12.375-16.257,22.654v28.564h197.938v-28.562C447.984,345.149,441.454,336.024,431.735,332.774z"/>
<path style="fill:#EAC6BB;" d="M405.111,253.144c0,36.445-34.748,71.474-56.092,71.474s-56.092-35.029-56.092-71.474
	c0-36.452,25.124-60.498,56.092-60.498S405.111,216.692,405.111,253.144z"/>
<path style="fill:#434A54;" d="M284.271,321.899l-0.766-0.25c-13.07-3.531-22.655-6.906-28.421-9.125
	c-20.444-7.875-25.772-13.531-27.124-16.219c-0.055-0.094-0.086-0.219-0.133-0.312l-0.188-24.99l-87.31,0.992l-0.172,23.998
	c-0.047,0.094-0.086,0.219-0.133,0.312c-1.359,2.688-6.679,8.344-27.124,16.219c-5.757,2.219-15.359,5.594-28.304,9.125l-0.891,0.25
	c-11.781,3.938-19.71,14.969-19.71,27.436v34.656h239.992v-34.656C303.99,336.868,296.068,325.837,284.271,321.899z"/>
<polygon style="fill:#DA4453;" points="195.993,335.993 171.986,335.993 160.002,383.991 208.001,383.991 "/>
<path style="fill:#F6BB42;" d="M353.769,192.849c-5.281,1.641-10.406,3.312-12.281,3.75c-4.344,1-17.249,13.999-17.249,13.999
	l19.374,16.25c0,0,23.781,15.608,60.936,17.14C400.924,214.489,379.893,194.958,353.769,192.849z"/>
<polygon style="fill:#ED5564;" points="195.993,335.993 171.986,335.993 155.987,293.493 211.992,293.493 "/>
<g>
	<polygon style="fill:#656D78;" points="141.557,281.557 132.472,303.212 156.565,332.93 183.314,311.993 	"/>
	<polygon style="fill:#656D78;" points="225.062,281.557 234.148,303.212 210.063,332.93 183.314,311.993 	"/>
</g>
<path style="fill:#EAC6BB;" d="M251.992,225.332c0,44.186-42.124,86.661-67.999,86.661c-25.882,0-68.005-42.475-68.005-86.661
	s30.444-73.326,68.005-73.326C221.547,152.007,251.992,181.146,251.992,225.332z"/>
<path style="fill:#434A54;" d="M227.812,144.007c-11.57-10.484-50.334-23.343-89.005,0c-19.577,11.812-33.834,63.998-33.834,63.998
	s38.202,21.64,87.919-1.75c29.749-14,29.084-6.671,37.584,6.078c5.039,7.562,21.516,13,21.516,13S264.811,177.506,227.812,144.007z"
	/>
<path style="fill:#FFCE54;" d="M293.349,245.175c46.873-7.546,71.217-38.592,77.669-48.123c-6.749-2.859-14.187-4.406-21.999-4.406
	C320.364,192.646,296.709,213.239,293.349,245.175z"/>
<g>
</g>
<g>
</g>
<g>
</g>
<g>
</g>
<g>
</g>
<g>
</g>
<g>
</g>
<g>
</g>
<g>
</g>
<g>
</g>
<g>
</g>
<g>
</g>
<g>
</g>
<g>
</g>
<g>
</g>
</svg>
