<?xml version="1.0" encoding="iso-8859-1"?>
<!-- Generator: Adobe Illustrator 19.0.0, SVG Export Plug-In . SVG Version: 6.00 Build 0)  -->
<svg version="1.1" id="Capa_1" xmlns="http://www.w3.org/2000/svg" xmlns:xlink="http://www.w3.org/1999/xlink" x="0px" y="0px"
	 viewBox="0 0 512 512" style="enable-background:new 0 0 512 512;" xml:space="preserve">
<path style="fill:#E5E5E5;" d="M512,10v320c0,5.523-4.477,10-10,10h-91v76c0,5.523-4.477,10-10,10h-91v76c0,5.523-4.477,10-10,10H10
	c-5.523,0-10-4.477-10-10V182c0-5.523,4.477-10,10-10h91V96c0-5.523,4.477-10,10-10h91V10c0-5.523,4.477-10,10-10h290
	C507.523,0,512,4.477,512,10z"/>
<path style="fill:#F5F5F5;" d="M502,340H242.501c-5.523,0-10-4.477-10-10V10c0-5.523,4.477-10,10-10H502c5.523,0,10,4.477,10,10v320
	C512,335.523,507.523,340,502,340z"/>
<path style="fill:#FFDC64;" d="M477,260H237c-2.761,0-5-2.239-5-5V35c0-2.761,2.239-5,5-5h240c2.761,0,5,2.239,5,5v220
	C482,257.761,479.761,260,477,260z"/>
<path style="fill:#F5F5F5;" d="M401,426H141.501c-5.523,0-10-4.477-10-10V96c0-5.523,4.477-10,10-10H401c5.523,0,10,4.477,10,10v320
	C411,421.523,406.523,426,401,426z"/>
<path style="fill:#CC74AE;" d="M376,346H136c-2.761,0-5-2.239-5-5V121c0-2.761,2.239-5,5-5h240c2.761,0,5,2.239,5,5v220
	C381,343.761,378.761,346,376,346z"/>
<path style="fill:#F5F5F5;" d="M300,512H40.501c-5.523,0-10-4.477-10-10V182c0-5.523,4.477-10,10-10H300c5.523,0,10,4.477,10,10v320
	C310,507.523,305.523,512,300,512z"/>
<path style="fill:#FFA7A9;" d="M275,432H35c-2.761,0-5-2.239-5-5V207c0-2.761,2.239-5,5-5h240c2.761,0,5,2.239,5,5v220
	C280,429.761,277.761,432,275,432z"/>
<path style="fill:#FF748D;" d="M158.34,318.389L158.34,318.389c-9.158,13.175-20.84,24.402-34.368,33.029l-7.561,4.822
	c-1.518,0.968-3.458,0.968-4.976,0l-7.561-4.822c-13.528-8.627-25.21-19.854-34.368-33.029l0,0
	c-7.09-10.635-5.688-24.796,3.35-33.835l0,0c10.027-10.027,26.285-10.027,36.313,0l1.483,1.483c1.807,1.807,4.737,1.807,6.544,0
	l1.483-1.483c10.027-10.027,26.285-10.027,36.313,0l0,0C164.027,293.593,165.43,307.754,158.34,318.389z"/>
<path style="fill:#FF4040;" d="M240.496,318.389L240.496,318.389c-9.158,13.175-20.84,24.402-34.368,33.029l-7.561,4.822
	c-1.518,0.968-3.458,0.968-4.976,0l-7.561-4.822c-13.528-8.627-25.21-19.854-34.368-33.029l0,0
	c-7.09-10.635-5.688-24.796,3.35-33.835l0,0c10.027-10.027,26.285-10.027,36.313,0l1.483,1.483c1.807,1.807,4.737,1.807,6.544,0
	l1.483-1.483c10.027-10.027,26.285-10.027,36.313,0l0,0C246.184,293.593,247.586,307.754,240.496,318.389z"/>
<g>
</g>
<g>
</g>
<g>
</g>
<g>
</g>
<g>
</g>
<g>
</g>
<g>
</g>
<g>
</g>
<g>
</g>
<g>
</g>
<g>
</g>
<g>
</g>
<g>
</g>
<g>
</g>
<g>
</g>
</svg>
