<?xml version="1.0" encoding="iso-8859-1"?>
<!-- Generator: Adobe Illustrator 19.0.0, SVG Export Plug-In . SVG Version: 6.00 Build 0)  -->
<svg version="1.1" id="Capa_1" xmlns="http://www.w3.org/2000/svg" xmlns:xlink="http://www.w3.org/1999/xlink" x="0px" y="0px"
	 viewBox="0 0 512 512" style="enable-background:new 0 0 512 512;" xml:space="preserve">
<path style="fill:#823264;" d="M512,256c0,32.141-5.925,62.903-16.739,91.251c-10.188,26.687-24.712,51.242-42.715,72.777
	c-7.732,9.258-16.102,17.962-25.057,26.039c-7.92,7.158-16.29,13.824-25.067,19.947c-13.155,9.195-27.22,17.178-42.036,23.803
	C328.516,504.069,293.188,512,256,512c-54.46,0-104.929-17-146.422-45.986c-9.237-6.447-18.024-13.49-26.311-21.076
	c-29.926-27.366-53.332-61.753-67.594-100.561C5.538,316.834,0,287.065,0,256s5.538-60.834,15.673-88.377
	c10.219-27.805,25.14-53.342,43.781-75.651c7.377-8.829,15.339-17.157,23.824-24.91c8.286-7.586,17.063-14.629,26.3-21.076
	c12.831-8.965,26.53-16.792,40.939-23.312C182.68,8.108,218.394,0,256,0c54.46,0,104.929,17,146.422,45.986
	c8.777,6.123,17.147,12.79,25.067,19.947c29.78,26.875,53.206,60.656,67.772,98.816C506.075,193.097,512,223.859,512,256z"/>
<path style="fill:#D8D8D8;" d="M495.261,24.148v323.103c-10.188,26.687-24.712,51.242-42.715,72.777H174.613
	c-13.343,0-24.148-10.804-24.148-24.148V24.148c0-0.491,0.01-0.982,0.052-1.473C151.27,10.031,161.761,0,174.613,0h296.5
	C484.456,0,495.261,10.815,495.261,24.148z"/>
<rect x="176.588" y="26.122" style="fill:#FFAA50;" width="292.551" height="284.139"/>
<path style="fill:#F2F2F2;" d="M427.865,70.134v371.733c0,1.432-0.125,2.842-0.376,4.201c-7.92,7.158-16.29,13.824-25.067,19.947
	H161.959c-12.298,0-77.187-46.331-78.691-58.222c-0.136-1.003-0.199,1.045-0.199,0V70.134c0-1.045,0.063-2.069,0.209-3.072
	c1.494-11.88,11.64-21.076,23.939-21.076h296.5c11.912,0,21.797,8.62,23.771,19.947C427.739,67.302,427.865,68.702,427.865,70.134z"
	/>
<rect x="109.192" y="72.108" style="fill:#FF82AA;" width="292.551" height="284.139"/>
<path style="fill:#F2F2F2;" d="M360.469,116.119v371.733c0,0.658-0.031,1.317-0.084,1.964C328.516,504.069,293.188,512,256,512
	c-54.46,0-104.929-17-146.422-45.986c-9.237-6.447-18.024-13.49-26.311-21.076c-29.926-27.366-53.332-61.753-67.594-100.561V116.119
	c0-13.333,10.804-24.148,24.148-24.148h296.5C349.665,91.972,360.469,102.787,360.469,116.119z"/>
<rect x="41.796" y="118.094" style="fill:#50D1DD;" width="292.551" height="284.139"/>
<path style="fill:#FF6196;" d="M179.389,402.233H53.646c9.477-19.592,29.55-33.102,52.778-33.102h20.187
	C149.839,369.131,169.912,382.642,179.389,402.233z"/>
<path style="fill:#F93E86;" d="M123.142,369.131c-23.228,0-43.301,13.511-52.778,33.102H53.646
	c9.477-19.592,29.55-33.102,52.778-33.102H123.142z"/>
<path style="fill:#D38B65;" d="M142.495,354.666v17.753c0,13.94-11.304,25.244-25.244,25.244c-4.318,0-8.383-1.084-11.935-2.996
	c-2.187-1.172-4.178-2.659-5.916-4.397c-2.351-2.351-4.238-5.168-5.514-8.294c-1.215-2.949-1.879-6.173-1.879-9.557v-10.865
	l13.514,8.379h21.182l3.85-3.72L142.495,354.666z"/>
<g>
	<path style="fill:#D37B50;" d="M142.49,360.511v7.047c-7.79,4.085-16.664,6.397-26.07,6.397c-0.902,0-1.794-0.019-2.682-0.061
		c-0.131-0.004-0.257-0.009-0.388-0.009c-4.416,0-8.033,3.622-8.033,8.089h-11.43c-1.215-2.949-1.879-6.173-1.879-9.557v-10.865
		c7.253,4.365,15.57,6.846,24.412,6.846c4.907,0,9.65-0.762,14.135-2.187C134.785,364.871,138.789,362.941,142.49,360.511z"/>
	<path style="fill:#D37B50;" d="M105.316,381.974v12.691c-2.187-1.172-4.178-2.659-5.916-4.397
		c-2.351-2.351-4.238-5.168-5.514-8.294H105.316z"/>
	<circle style="fill:#D37B50;" cx="67.385" cy="299.865" r="15.665"/>
	<circle style="fill:#D37B50;" cx="165.658" cy="299.865" r="15.665"/>
</g>
<path style="fill:#D38B65;" d="M172.95,255.152l-112.863-6.008v62.955c0,31.166,25.266,56.432,56.432,56.432l0,0
	c31.166,0,56.432-25.266,56.432-56.432v-56.947H172.95z"/>
<path style="fill:#D37B50;" d="M124.56,223.483l-34.573,2.993c-5.274,0-10.136,1.76-14.036,4.72h-2.338v2.032
	c-4.239,4.21-6.865,10.043-6.865,16.488l-8.869,31.578c0,4.111-1.695,7.524,2.209,8.232V312.1c0,31.166,25.266,56.432,56.432,56.432
	l0,0c2.103,0,4.179-0.119,6.222-0.343c-28.237-3.098-50.209-27.025-50.209-56.088V278.8c0-5.208,4.053-9.615,9.257-9.82
	c0.164-0.006,0.328-0.009,0.493-0.009l0,0c5.31,0,10.478,1.783,14.616,5.112c5.37,4.32,12.248,7.809,19.621,6.905
	c14.684-1.801,14.251-11.501,19.621-15.821c4.138-3.328,9.306-5.112,14.616-5.112h0.229c6.788,0,12.086-2.535,12.097,4.253
	c0.007,4.569,3.607,25.421,8.176,25.524c2.384,0.053,4.554-0.891,6.108-2.45c1.513-1.513-0.412-3.605-0.412-5.916l-2.059-7.716"/>
<path style="fill:#501E0F;" d="M179.816,253.043v28.428c0,2.311-0.935,4.403-2.449,5.916c-1.557,1.559-3.725,2.504-6.108,2.449
	c-4.575-0.103-8.177-3.96-8.177-8.535v-4.298c0-3.404-1.379-6.484-3.611-8.714c-2.232-2.232-5.31-3.61-8.714-3.61
	c-5.31,0-10.477,1.783-14.617,5.113c-5.368,4.318-12.191,6.904-19.621,6.904c-7.427,0-14.251-2.586-19.618-6.904
	c-0.709-0.573-1.45-1.096-2.217-1.574c-0.008-0.008-0.02-0.015-0.028-0.02c-1.459-0.91-3.01-1.648-4.624-2.212
	c-2.477-0.861-5.096-1.307-7.753-1.307c-6.803,0-12.319,5.524-12.319,12.331v4.463c0,2.309-0.935,4.403-2.452,5.916
	c-1.513,1.513-3.605,2.449-5.916,2.449c-4.621,0-8.365-3.745-8.365-8.369v-28.426c0-24.892,20.176-45.071,45.067-45.071h36.455
	C159.637,207.972,179.816,228.151,179.816,253.043z"/>
<path style="fill:#3C190A;" d="M81.125,253.043c0-24.892,20.176-45.071,45.067-45.071H98.29c-24.892,0-45.067,20.179-45.067,45.071
	v28.428c0,4.624,3.745,8.369,8.365,8.369c2.311,0,4.403-0.935,5.916-2.449c1.516-1.513,2.452-3.608,2.452-5.916v-4.463
	c0-6.418,4.904-11.693,11.167-12.275v-11.692H81.125z"/>
<path style="fill:#501E0F;" d="M155.685,281.105h-22.641c-1.603,0-2.903,1.3-2.903,2.903l0,0c0,1.603,1.3,2.903,2.903,2.903h22.641
	c1.603,0,2.903-1.3,2.903-2.903l0,0C158.587,282.404,157.288,281.105,155.685,281.105z"/>
<path style="fill:#D37B50;" d="M102.462,297.181c-0.315,2.601-2.61,4.51-5.23,4.51H83.617c-1.422,0-2.709-0.575-3.643-1.508
	c-1.068-1.071-1.671-2.609-1.469-4.282c0.315-2.601,2.61-4.51,5.23-4.51h13.614c1.422,0,2.709,0.575,3.643,1.508
	C102.06,293.971,102.663,295.509,102.462,297.181z"/>
<path style="fill:#FFFFFF;" d="M102.462,300.793c-0.315,2.601-2.61,4.51-5.23,4.51H83.617c-1.422,0-2.709-0.575-3.643-1.508
	c-1.068-1.071-1.671-2.609-1.469-4.282c0.315-2.601,2.61-4.51,5.23-4.51h13.614c1.422,0,2.709,0.575,3.643,1.508
	C102.06,297.582,102.663,299.12,102.462,300.793z"/>
<path style="fill:#D37B50;" d="M149.421,291.392h-13.732c-2.844,0-5.149,2.306-5.149,5.149l0,0c0,2.844,2.306,5.149,5.149,5.149
	h13.732c2.844,0,5.149-2.306,5.149-5.149l0,0C154.571,293.698,152.266,291.392,149.421,291.392z"/>
<path style="fill:#FFFFFF;" d="M149.421,295.003h-13.732c-2.844,0-5.149,2.306-5.149,5.149l0,0c0,2.844,2.306,5.149,5.149,5.149
	h13.732c2.844,0,5.149-2.306,5.149-5.149l0,0C154.571,297.309,152.266,295.003,149.421,295.003z"/>
<g>
	<path style="fill:#965028;" d="M101.33,298.453c0,3.783-3.067,6.849-6.849,6.849s-6.849-3.067-6.849-6.849
		c0-1.259,0.341-2.438,0.935-3.45h11.827C100.989,296.016,101.33,297.195,101.33,298.453z"/>
	<path style="fill:#965028;" d="M153.401,298.453c0,3.783-3.067,6.849-6.849,6.849c-3.783,0-6.849-3.067-6.849-6.849
		c0-1.259,0.341-2.438,0.935-3.45h11.827C153.061,296.016,153.401,297.195,153.401,298.453z"/>
</g>
<path style="fill:#D37B50;" d="M81.068,281.105c-1.598,0-2.969,1.251-2.998,2.848c-0.029,1.628,1.281,2.957,2.902,2.957h15.906
	c6.315,0,11.435,5.12,11.435,11.435v28.332h2.882c3.702,0,6.703-3.001,6.703-6.703v-30.138c0-4.823-3.91-8.733-8.733-8.733H81.068
	V281.105z"/>
<path style="fill:#965028;" d="M126.2,336.999c-6.286,2.071-13.076,2.071-19.362,0c-1.68-0.548-3.599,0.108-4.346,1.68l0,0
	c-0.747,1.566,0.284,3.61,2.376,4.298c7.565,2.492,15.736,2.492,23.3,0c2.092-0.688,3.123-2.731,2.376-4.298l0,0
	C129.799,337.108,127.88,336.452,126.2,336.999z"/>
<path style="fill:#D37B50;" d="M119.174,348.029h-5.308c-1.353,0-2.451,1.097-2.451,2.451l0,0c0,1.353,1.097,2.451,2.451,2.451
	h5.308c1.353,0,2.451-1.097,2.451-2.451l0,0C121.624,349.127,120.527,348.029,119.174,348.029z"/>
<path style="fill:#501E0F;" d="M103.06,281.105H80.418c-1.603,0-2.903,1.3-2.903,2.903l0,0c0,1.603,1.3,2.903,2.903,2.903h22.641
	c1.603,0,2.903-1.3,2.903-2.903l0,0C105.963,282.404,104.663,281.105,103.06,281.105z"/>
<g>
	<ellipse style="fill:#D77369;" cx="150.821" cy="317.534" rx="7.91" ry="4.52"/>
	<ellipse style="fill:#D77369;" cx="82.213" cy="317.534" rx="7.91" ry="4.52"/>
</g>
<rect x="192.397" y="256.857" style="fill:#FFAA50;" width="121.386" height="145.377"/>
<path style="fill:#FFC8B4;" d="M306.946,260.179l-102.007-5.984v62.702c0,31.041,22.835,56.205,51.004,56.205l0,0
	c28.168,0,51.004-25.163,51.004-56.205V260.179z"/>
<g>
	<path style="fill:#FFB49B;" d="M218.514,316.897v-61.906l-13.575-0.796v62.702c0,31.041,22.835,56.205,51.004,56.205l0,0
		c2.302,0,4.566-0.171,6.788-0.496C237.771,368.947,218.514,345.401,218.514,316.897z"/>
	<path style="fill:#FFB49B;" d="M226.441,276.001c0,0,31.744,10.108,61.895,6.382c30.151-3.726-5.325-23.814-5.325-23.814
		l-51.29-3.419l-7.266,3.419"/>
</g>
<path style="fill:#FFAA50;" d="M294.951,287.451h-22.55c-1.597,0-2.891,1.295-2.891,2.891l0,0c0,1.597,1.295,2.891,2.891,2.891
	h22.55c1.597,0,2.891-1.295,2.891-2.891l0,0C297.842,288.746,296.547,287.451,294.951,287.451z"/>
<path style="fill:#FFB49B;" d="M220.634,287.451c-1.591,0-2.957,1.246-2.986,2.837c-0.029,1.622,1.276,2.944,2.89,2.944h15.843
	c6.29,0,11.389,5.099,11.389,11.389v22.52h2.87c3.687,0,6.676-2.988,6.676-6.676v-24.318c0-4.803-3.894-8.698-8.698-8.698h-27.984
	V287.451z"/>
<path style="fill:#F5876E;" d="M263.412,343.841c-4.616,2.212-10.324,2.212-14.94,0c-1.231-0.574-2.747-0.316-3.565,0.757l0,0
	c-0.816,1.063-0.325,2.77,1.336,3.564c5.955,2.899,13.444,2.899,19.399,0c1.66-0.794,2.152-2.5,1.336-3.564l0,0
	C266.161,343.526,264.643,343.269,263.412,343.841z"/>
<path style="fill:#FFB49B;" d="M258.562,353.707h-5.239c-1.335,0-2.419,1.083-2.419,2.419l0,0c0,1.336,1.083,2.419,2.419,2.419
	h5.239c1.335,0,2.419-1.083,2.419-2.419l0,0C260.981,354.791,259.897,353.707,258.562,353.707z"/>
<path style="fill:#FFDC64;" d="M324.421,268.507v133.726h-14.535v-69.517c0-14.085,6.395-49.737-32.925-52.308
	c-20.198-1.317-34.91-9.624-44.44-17.398c0,0.01-0.01,0.042-0.021,0.104c-0.157,0.867-1.411,6.865-6.092,12.936
	c-4.692,6.06-12.8,12.204-26.676,13.354v110.498l-1.055-0.052l-6.28-0.282l-4.911-0.219V268.507c0-30.48,19.926-56.32,47.47-65.17
	c3.302-1.076,6.719-1.891,10.23-2.445c3.5-0.543,7.095-0.836,10.752-0.836h0.021C293.764,200.056,324.421,230.703,324.421,268.507z"
	/>
<path style="fill:#FAC855;" d="M273.691,202.376c-1.097,0.293-2.184,0.606-3.26,0.961c-27.544,8.861-47.47,34.691-47.47,65.17
	v11.348c-4.921,4.629-12.278,8.641-23.218,9.55v110.498l-0.993,2.33h-11.264V268.507c0-30.48,19.926-56.31,47.47-65.17
	c3.312-1.076,6.719-1.891,10.23-2.445c3.5-0.554,7.105-0.836,10.762-0.836h0.01C262.093,200.056,268.038,200.861,273.691,202.376z"
	/>
<path style="fill:#FFFFFF;" d="M293.781,305.74c0,2.457-1.989,4.448-4.445,4.448h-15.042c-1.228,0-2.34-0.498-3.143-1.302
	c-0.807-0.807-1.302-1.917-1.302-3.146c0-0.755,0.189-1.468,0.521-2.091c0.748-1.4,0.946-3.632,2.646-3.632l17.327-0.23
	c1.228,0,2.186,2.602,2.446,1.496c0.309-1.313,0.263,1.977,0.471,2.366C293.592,304.272,293.781,304.984,293.781,305.74z"/>
<path style="fill:#1C9585;" d="M284.024,304.732c0,2.231-1.071,4.214-2.73,5.456h-8.184c-1.658-1.242-2.73-3.226-2.73-5.456
	c0-1.254,0.34-2.428,0.932-3.437l6.256-1.11l5.523,1.11C283.685,302.304,284.024,303.478,284.024,304.732z"/>
<path style="fill:#FFB49B;" d="M274.293,301.295h15.042c1.228,0,2.34,0.498,3.143,1.302c0.308,0.309,0.572,0.664,0.78,1.052
	c0.332-0.679,0.523-1.44,0.523-2.248c0-2.833-2.297-5.129-5.129-5.129h-13.678c-2.833,0-5.129,2.297-5.129,5.129
	c0,0.808,0.191,1.568,0.523,2.248C271.119,302.249,272.594,301.295,274.293,301.295z"/>
<path style="fill:#FFFFFF;" d="M242.037,305.74c0,2.457-1.99,4.448-4.445,4.448H222.55c-1.228,0-2.34-0.498-3.143-1.302
	c-0.807-0.807-1.302-1.917-1.302-3.146c0-0.755,0.189-1.468,0.521-2.091c0.748-1.4,0.946-3.632,2.646-3.632l17.326-0.23
	c1.228,0,2.186,2.603,2.446,1.496c0.309-1.313,0.263,1.977,0.471,2.366C241.848,304.272,242.037,304.984,242.037,305.74z"/>
<path style="fill:#1C9585;" d="M232.28,304.732c0,2.231-1.071,4.214-2.73,5.456h-8.184c-1.658-1.242-2.73-3.226-2.73-5.456
	c0-1.254,0.34-2.428,0.932-3.437l6.256-1.11l5.524,1.11C231.94,302.304,232.28,303.478,232.28,304.732z"/>
<path style="fill:#FFB49B;" d="M222.549,301.295h15.042c1.228,0,2.34,0.498,3.143,1.302c0.308,0.309,0.572,0.664,0.779,1.052
	c0.332-0.679,0.524-1.44,0.524-2.248c0-2.833-2.297-5.129-5.129-5.129H223.23c-2.833,0-5.129,2.297-5.129,5.129
	c0,0.808,0.191,1.568,0.524,2.248C219.374,302.249,220.85,301.295,222.549,301.295z"/>
<path style="fill:#FF4057;" d="M316.448,402.233H197.1c10.376-16.436,28.703-27.355,49.58-27.355h20.187
	C287.745,374.878,306.073,385.797,316.448,402.233z"/>
<path style="fill:#E20A39;" d="M263.399,374.878c-20.877,0-39.205,10.919-49.58,27.355H197.1c0.502-0.815,1.034-1.599,1.578-2.382
	c0.345-0.491,0.7-0.982,1.055-1.463c10.689-14.273,27.742-23.51,46.947-23.51H263.399z"/>
<path style="fill:#FFC8B4;" d="M282.016,359.367v17.753c0,13.939-11.304,25.244-25.244,25.244c-4.318,0-8.383-1.084-11.935-2.996
	c-2.187-1.173-4.177-2.659-5.916-4.397c-2.351-2.351-4.238-5.168-5.514-8.294c-1.215-2.949-1.879-6.173-1.879-9.557v-10.865
	l13.514,8.379h21.182l3.85-3.72L282.016,359.367z"/>
<g>
	<path style="fill:#FFB49B;" d="M282.012,365.213v7.047c-7.79,4.085-16.664,6.397-26.07,6.397c-0.902,0-1.794-0.019-2.682-0.061
		c-0.131-0.004-0.257-0.009-0.388-0.009c-4.416,0-8.033,3.622-8.033,8.089h-11.43c-1.215-2.949-1.879-6.173-1.879-9.557v-10.865
		c7.253,4.365,15.57,6.846,24.412,6.846c4.907,0,9.65-0.762,14.135-2.187C274.306,369.573,278.311,367.643,282.012,365.213z"/>
	<path style="fill:#FFB49B;" d="M244.838,386.676v12.691c-2.187-1.173-4.178-2.659-5.916-4.397
		c-2.351-2.351-4.238-5.168-5.514-8.294H244.838z"/>
</g>
<g>
	<ellipse style="fill:#FA968C;" cx="289.04" cy="320.199" rx="7.633" ry="4.361"/>
	<ellipse style="fill:#FA968C;" cx="222.845" cy="320.199" rx="7.633" ry="4.361"/>
</g>
<path style="fill:#FFAA50;" d="M243.089,287.451h-22.55c-1.597,0-2.891,1.295-2.891,2.891l0,0c0,1.597,1.295,2.891,2.891,2.891
	h22.55c1.597,0,2.891-1.295,2.891-2.891l0,0C245.98,288.746,244.686,287.451,243.089,287.451z"/>
<path style="fill:#F7C97F;" d="M334.347,118.094v52.893c-12.33,12.236-29.299,19.79-48.044,19.79
	c-37.689,0-68.242-30.553-68.242-68.242c0-1.494,0.052-2.978,0.146-4.441C218.207,118.094,334.347,118.094,334.347,118.094z"/>
<path style="fill:#DCE2DC;" d="M148.027,142.911L148.027,142.911c0-3.367-2.729-6.096-6.095-6.096H81.501
	c-6.732,0-12.191,5.458-12.191,12.191l0,0c0,6.732,5.458,12.191,12.191,12.191h21.072c3.367,0,6.095,2.729,6.095,6.095l0,0
	c0,3.367,2.729,6.095,6.095,6.095h60.43c6.732,0,12.191-5.458,12.191-12.191l0,0c0-6.732-5.458-12.191-12.191-12.191H154.12
	C150.756,149.006,148.027,146.276,148.027,142.911z"/>
<g>
</g>
<g>
</g>
<g>
</g>
<g>
</g>
<g>
</g>
<g>
</g>
<g>
</g>
<g>
</g>
<g>
</g>
<g>
</g>
<g>
</g>
<g>
</g>
<g>
</g>
<g>
</g>
<g>
</g>
</svg>
