<?xml version="1.0" encoding="iso-8859-1"?>
<!-- Generator: Adobe Illustrator 19.0.0, SVG Export Plug-In . SVG Version: 6.00 Build 0)  -->
<svg xmlns="http://www.w3.org/2000/svg" xmlns:xlink="http://www.w3.org/1999/xlink" version="1.1" id="Layer_1" x="0px" y="0px" viewBox="0 0 318 318" style="enable-background:new 0 0 318 318;" xml:space="preserve" width="512" height="512">
<g>
	<g>
		<path style="fill:#32A5B9;" d="M310,273.448H8c-4.418,0-8-3.582-8-8V52.552c0-4.418,3.582-8,8-8h302c4.418,0,8,3.582,8,8v212.895    C318,269.866,314.418,273.448,310,273.448z"/>
	</g>
	<g>
		<path style="fill:#2B8A9A;" d="M159,273.448H8c-4.418,0-8-3.582-8-8V52.552c0-4.418,3.582-8,8-8h151V273.448z"/>
	</g>
	<g>
		<g>
			<polygon style="fill:#E45527;" points="49.602,217.348 138.97,127.98 228.337,217.348    "/>
			<polygon style="fill:#B7461D;" points="49.602,217.348 138.97,127.98 158.998,148.008 159,217.348    "/>
			<polygon style="fill:#F8B242;" points="149.171,217.348 208.784,157.734 268.398,217.348    "/>
			<polygon style="fill:#D09838;" points="159,207.519 149.171,217.348 159,217.348    "/>
		</g>
		<circle style="fill:#F8B242;" cx="209.196" cy="96.651" r="19.402"/>
	</g>
</g>















</svg>
