<?xml version="1.0" encoding="iso-8859-1"?>
<!-- Generator: Adobe Illustrator 19.0.0, SVG Export Plug-In . SVG Version: 6.00 Build 0)  -->
<svg version="1.1" id="Capa_1" xmlns="http://www.w3.org/2000/svg" xmlns:xlink="http://www.w3.org/1999/xlink" x="0px" y="0px"
	 viewBox="0 0 308.8 308.8" style="enable-background:new 0 0 308.8 308.8;" xml:space="preserve">
<g>
	<path style="fill:#4A566E;" d="M35.6,18.8h180c19.6,0,35.6,16,35.6,35.6v185.2c0,19.6-16,35.6-35.6,35.6h-180
		C16,275.2,0,259.2,0,239.6V54C0,34.8,16,18.8,35.6,18.8z"/>
	<path style="fill:#00B594;" d="M116.4,186.4l-52.8-52.8L0,197.2v13.2v28.8c0,19.6,16,35.6,35.6,35.6h180c19.6,0,35.6-16,35.6-35.6
		v-28.8v-39.6l-59.6-60L116.4,186.4z"/>
	<circle style="fill:#FFCC03;" cx="114.8" cy="103.6" r="22.4"/>
	<circle style="fill:#FFFFFF;" cx="251.2" cy="232.4" r="57.6"/>
	<path style="fill:#00B594;" d="M265.6,222.8c2.8,0,5.2,0.8,7.2,2.4s2.8,4,2.8,6.8c0,6.8-3.6,10.4-11.2,10.4H264h-0.4c0,0,0,0-0.4,0
		h-0.4l0,0l0,0c0,0,0,0,0-0.4c0,0,0,0,0-0.4v-0.4v-18.4C263.6,222.8,264.4,222.8,265.6,222.8z M254,219.6v17.2v9.2
		c0,0.8,0.4,1.6,0.8,2.4c0.8,0.8,1.2,1.2,2,1.2s3.2,0,7.6,0c12.8,0,19.6-6.4,19.6-18.4c0-5.2-2-9.2-5.6-12s-8-4.4-13.2-4.4
		c-0.4,0-0.8,0-2,0s-2,0-2.4,0c-0.8,0-2,0-2.4,0c-0.8,0-1.6,0.4-2.4,0.4c-0.8,0.4-1.2,0.8-1.6,1.2C254.4,218,254,218.8,254,219.6z
		 M247.6,232.8c0-4.8,0-9.6,0-14c0-1.2-0.4-2-1.2-2.8c-0.8-0.8-1.6-0.8-3.2-0.8c-2.8,0-4.4,1.2-4.4,3.2c0,0.8,0,2.4,0,4.8
		s0,4.4,0,6.4h-1.6c-0.8,0-2,0-3.6,0s-3.2,0-3.6,0s-0.8,0-1.6,0c-0.8,0-1.2,0-1.6,0v-11.2c0-1.2-0.4-2-1.2-2.4
		c-0.8-0.4-1.6-0.8-3.2-0.8s-2.8,0.4-3.2,0.8c-0.8,0.8-1.2,1.6-1.2,2.8l0.4,10.8c0,2.4,0,5.2,0,9.2s0,6.8,0,8c0,2.4,1.2,3.6,4,3.6
		c3.2,0,4.4-1.2,4.4-3.2v-10h12.4v6.4v2.8c0,1.2,0.4,2,1.2,2.8c0.8,0.4,2,0.8,3.2,0.8c1.6,0,2.8-0.4,3.2-0.8
		c0.8-0.4,1.2-1.6,1.2-2.8L247.6,232.8z"/>
</g>
<g>
</g>
<g>
</g>
<g>
</g>
<g>
</g>
<g>
</g>
<g>
</g>
<g>
</g>
<g>
</g>
<g>
</g>
<g>
</g>
<g>
</g>
<g>
</g>
<g>
</g>
<g>
</g>
<g>
</g>
</svg>
