<?xml version="1.0" encoding="iso-8859-1"?>
<!-- Generator: Adobe Illustrator 19.0.0, SVG Export Plug-In . SVG Version: 6.00 Build 0)  -->
<svg version="1.1" id="Layer_1" xmlns="http://www.w3.org/2000/svg" xmlns:xlink="http://www.w3.org/1999/xlink" x="0px" y="0px"
	 viewBox="0 0 512 512" style="enable-background:new 0 0 512 512;" xml:space="preserve">
<circle style="fill:#FF7F4F;" cx="256" cy="256" r="256"/>
<path style="fill:#FF5419;" d="M510.099,224.759l-89.055-89.055L60.03,316.028L256,512c141.384,0,256-114.616,256-256
	C512,245.424,511.345,234.999,510.099,224.759z"/>
<path style="fill:#366695;" d="M293.574,320.333h-53.6c-5.236,0-9.481,4.246-9.481,9.481v53.598c0,5.236,4.246,9.481,9.481,9.481
	h53.6c5.236,0,9.481-4.246,9.481-9.481v-53.598C303.056,324.579,298.81,320.333,293.574,320.333z"/>
<path style="fill:#273B7A;" d="M293.574,320.333h-26.655v72.561h26.655c5.236,0,9.481-4.246,9.481-9.481v-53.598
	C303.056,324.579,298.81,320.333,293.574,320.333z"/>
<rect x="119.38" y="142.222" style="fill:#366695;" width="294.788" height="187.595"/>
<g>
	<rect x="266.912" y="142.222" style="fill:#273B7A;" width="147.256" height="187.595"/>
	<path style="fill:#273B7A;" d="M414.168,339.296H119.38c-5.236,0-9.481-4.246-9.481-9.481V142.222c0-5.236,4.246-9.481,9.481-9.481
		h294.788c5.236,0,9.481,4.246,9.481,9.481v187.592C423.65,335.05,419.404,339.296,414.168,339.296z M128.862,320.333h275.825
		V151.704H128.862V320.333z"/>
</g>
<path style="fill:#121149;" d="M414.168,132.741H266.919v18.963h137.768v168.629H266.919v18.963h147.249
	c5.236,0,9.481-4.246,9.481-9.481V142.222C423.65,136.987,419.404,132.741,414.168,132.741z"/>
<circle style="fill:#FFFFFF;" cx="311.165" cy="225.763" r="58.613"/>
<g>
	<circle style="fill:#386895;" cx="287.185" cy="218.057" r="5.329"/>
	<circle style="fill:#386895;" cx="336.472" cy="218.057" r="5.329"/>
	<path style="fill:#386895;" d="M295.317,249.806c3.746,4.603,9.45,7.549,15.848,7.549s12.102-2.944,15.848-7.549H295.317z"/>
</g>
<circle style="fill:#FFFFFF;" cx="112.054" cy="250.759" r="83.609"/>
<g>
	<circle style="fill:#386895;" cx="121.087" cy="231.624" r="7.601"/>
	<circle style="fill:#386895;" cx="163.064" cy="231.624" r="7.601"/>
	<path style="fill:#386895;" d="M113.778,270.15c5.342,6.566,13.481,10.768,22.607,10.768s17.265-4.201,22.607-10.768H113.778z"/>
</g>
<g>
</g>
<g>
</g>
<g>
</g>
<g>
</g>
<g>
</g>
<g>
</g>
<g>
</g>
<g>
</g>
<g>
</g>
<g>
</g>
<g>
</g>
<g>
</g>
<g>
</g>
<g>
</g>
<g>
</g>
</svg>
