<?xml version="1.0" encoding="iso-8859-1"?>
<!-- Generator: Adobe Illustrator 19.0.0, SVG Export Plug-In . SVG Version: 6.00 Build 0)  -->
<svg version="1.1" id="Layer_1" xmlns="http://www.w3.org/2000/svg" xmlns:xlink="http://www.w3.org/1999/xlink" x="0px" y="0px"
	 viewBox="0 0 512 512" style="enable-background:new 0 0 512 512;" xml:space="preserve">
<path style="fill:#00D7DF;" d="M305.349,0c-34.295,0-64.21,18.673-80.193,46.391C209.174,18.673,179.259,0,144.964,0
	c-51.104,0-92.53,41.428-92.53,92.53s41.426,92.53,92.53,92.53c34.295,0,126.09,0,160.386,0c51.104,0,92.53-41.428,92.53-92.53
	S356.453,0,305.349,0z"/>
<g>
	<path style="fill:#00A1A7;" d="M144.964,148.048c-30.613,0-55.518-24.905-55.518-55.518s24.905-55.518,55.518-55.518
		s55.518,24.905,55.518,55.518S175.577,148.048,144.964,148.048z"/>
	<path style="fill:#00A1A7;" d="M305.349,148.048c-30.613,0-55.518-24.905-55.518-55.518s24.905-55.518,55.518-55.518
		s55.518,24.905,55.518,55.518S335.962,148.048,305.349,148.048z"/>
</g>
<polygon style="fill:#00D7DF;" points="280.675,341.745 169.639,341.745 167.24,363.952 92.83,512 134.254,512 206.651,367.958 
	206.651,512 243.663,512 243.663,367.958 316.059,512 357.482,512 283.073,363.952 "/>
<polygon style="fill:#003638;" points="360.867,166.554 360.803,166.554 89.51,166.554 89.446,166.554 89.446,363.952 
	360.867,363.952 360.867,323.793 373.205,260.518 360.867,206.714 "/>
<polygon style="fill:#FFDA44;" points="360.867,206.714 360.867,323.793 459.566,364.447 459.566,166.059 "/>
<rect x="169.639" y="240.578" style="fill:#00D7DF;" width="111.036" height="37.012"/>
<g>
</g>
<g>
</g>
<g>
</g>
<g>
</g>
<g>
</g>
<g>
</g>
<g>
</g>
<g>
</g>
<g>
</g>
<g>
</g>
<g>
</g>
<g>
</g>
<g>
</g>
<g>
</g>
<g>
</g>
</svg>
