<?xml version="1.0" encoding="iso-8859-1"?>
<!-- Generator: Adobe Illustrator 19.0.0, SVG Export Plug-In . SVG Version: 6.00 Build 0)  -->
<svg version="1.1" id="Layer_1" xmlns="http://www.w3.org/2000/svg" xmlns:xlink="http://www.w3.org/1999/xlink" x="0px" y="0px"
	 viewBox="0 0 510.008 510.008" style="enable-background:new 0 0 510.008 510.008;" xml:space="preserve">
<path style="fill:#5C5F66;" d="M495.065,461.198c-2.223,0-4.454-0.496-6.518-1.497l-65.743-31.875
	c-5.152-2.497-8.423-7.719-8.423-13.444V286.879c0-5.726,3.271-10.947,8.423-13.444l65.743-31.875
	c4.63-2.245,10.092-1.95,14.452,0.783c4.361,2.731,7.009,7.516,7.009,12.662v191.253c0,5.146-2.648,9.93-7.009,12.662
	C500.583,460.432,497.828,461.198,495.065,461.198z"/>
<path style="fill:#53565C;" d="M414.381,414.381c0,5.726,3.271,10.947,8.423,13.444l65.743,31.875
	c2.064,1.001,4.294,1.497,6.518,1.497c2.763,0,5.517-0.766,7.934-2.28c4.361-2.731,7.009-7.516,7.009-12.662v-95.566h-95.626
	V414.381z"/>
<path style="fill:#7F838C;" d="M429.323,271.999h-63.751c-8.252,0-14.942,6.69-14.942,14.942v127.502
	c0,8.252,6.69,14.942,14.942,14.942h63.751V271.999z"/>
<path style="fill:#757982;" d="M429.323,350.691H350.63v63.751c0,8.252,6.69,14.942,14.942,14.942h63.751V350.691z"/>
<path style="fill:#5C5F66;" d="M333.697,493.074H78.693c-25.815,0-46.817-21.002-46.817-46.817V255.004
	c0-25.815,21.002-46.817,46.817-46.817h255.004c25.815,0,46.817,21.002,46.817,46.817v191.253
	C380.514,472.072,359.512,493.074,333.697,493.074z"/>
<path style="fill:#53565C;" d="M31.875,350.691v95.566c0,25.815,21.002,46.817,46.817,46.817h255.004
	c25.815,0,46.817-21.002,46.817-46.817v-95.566H31.875z"/>
<path style="fill:#757982;" d="M301.821,238.07c-29.582,0-57.362-11.488-78.221-32.348c-20.859-20.86-32.347-48.638-32.347-78.22
	S202.741,70.14,223.6,49.28c20.86-20.859,48.639-32.347,78.221-32.347c29.582,0,57.362,11.488,78.22,32.347
	c20.861,20.86,32.348,48.639,32.348,78.221s-11.487,57.361-32.348,78.22C359.183,226.582,331.403,238.07,301.821,238.07z"/>
<path style="fill:#53565C;" d="M301.821,174.319c-25.815,0-46.817-21.002-46.817-46.817s21.002-46.817,46.817-46.817
	s46.817,21.002,46.817,46.817S327.636,174.319,301.821,174.319z"/>
<path style="fill:#7F838C;" d="M110.568,238.07c-29.582,0-57.362-11.488-78.221-32.348C11.488,184.863,0,157.084,0,127.502
	S11.488,70.14,32.347,49.28c20.86-20.859,48.639-32.347,78.221-32.347S167.93,28.422,188.79,49.28
	c20.859,20.86,32.347,48.639,32.347,78.221s-11.488,57.361-32.347,78.22C167.93,226.582,140.151,238.07,110.568,238.07z"/>
<path style="fill:#5C5F66;" d="M110.568,174.319c-25.815,0-46.817-21.002-46.817-46.817s21.002-46.817,46.817-46.817
	s46.817,21.002,46.817,46.817S136.383,174.319,110.568,174.319z"/>
<path style="fill:#2EE6C7;" d="M238.07,429.384H110.568c-8.252,0-14.942-6.69-14.942-14.942V286.94
	c0-8.252,6.69-14.942,14.942-14.942H238.07c8.252,0,14.942,6.69,14.942,14.942v127.502
	C253.012,422.694,246.322,429.384,238.07,429.384z"/>
<path style="fill:#29CCB1;" d="M95.626,350.691v63.751c0,8.252,6.69,14.942,14.942,14.942H238.07c8.252,0,14.942-6.69,14.942-14.942
	v-63.751H95.626z"/>
<circle style="fill:#E6EEFF;" cx="301.821" cy="318.815" r="15.938"/>
<circle style="fill:#DAE2F2;" cx="301.821" cy="382.566" r="15.938"/>
<g>
</g>
<g>
</g>
<g>
</g>
<g>
</g>
<g>
</g>
<g>
</g>
<g>
</g>
<g>
</g>
<g>
</g>
<g>
</g>
<g>
</g>
<g>
</g>
<g>
</g>
<g>
</g>
<g>
</g>
</svg>
