<?xml version="1.0" encoding="iso-8859-1"?>
<!-- Generator: Adobe Illustrator 19.0.0, SVG Export Plug-In . SVG Version: 6.00 Build 0)  -->
<svg version="1.1" id="Layer_1" xmlns="http://www.w3.org/2000/svg" xmlns:xlink="http://www.w3.org/1999/xlink" x="0px" y="0px"
	 viewBox="0 0 512 512" style="enable-background:new 0 0 512 512;" xml:space="preserve">
<path style="fill:#B3B3B3;" d="M434.44,110.654C401.18,45.876,334.359,0.003,255.98,0v101.329
	c55.478,0.004,100.593,43.67,100.594,99.15c0.001,54.805-45.49,102.048-100.594,102.052V512
	c70.645-73.617,151.953-154.542,187.529-251.428C461.297,212.121,457.979,156.5,434.44,110.654z"/>
<path style="fill:#979797;" d="M68.492,260.572C104.066,357.458,185.374,438.383,256.02,512V302.531
	c-55.104-0.004-100.595-47.247-100.594-102.052c0.001-55.479,45.116-99.146,100.594-99.15V0
	c-78.379,0.003-145.2,45.876-178.46,110.654C54.021,156.5,50.703,212.121,68.492,260.572z"/>
<circle style="fill:#F0F0F0;" cx="256" cy="198.773" r="160"/>
<g>
	<path style="fill:#6DA544;" d="M367.961,84.487C339.104,56.212,299.591,38.773,256,38.773c-13.914,0-54.621,17.44-83.478,45.714
		H367.961z"/>
	<path style="fill:#6DA544;" d="M256,175.915h158.368c-2.309-16.14-7.023-31.502-13.774-45.712H249.043L256,175.915z"/>
	<path style="fill:#6DA544;" d="M111.407,267.344h289.186c6.751-14.21,11.466-29.573,13.774-45.714H97.632
		C99.941,237.771,104.656,253.134,111.407,267.344z"/>
	<path style="fill:#6DA544;" d="M144.039,313.058c28.857,28.273,68.369,45.715,111.961,45.715s83.104-17.442,111.961-45.714H144.039
		V313.058z"/>
</g>
<path style="fill:#D80027;" d="M256,38.773c-80.604,0-147.275,59.606-158.368,137.141H256V38.773z"/>
<g>
	<polygon style="fill:#F0F0F0;" points="176,161.44 169.043,147.527 169.043,119.7 186.435,105.788 203.826,119.7 203.826,140.571 
		210.783,133.613 210.783,147.527 196.869,161.44 	"/>
	<polygon style="fill:#F0F0F0;" points="138.585,118.773 140.426,124.442 146.386,124.442 141.565,127.946 143.407,133.613 
		138.585,130.111 133.762,133.613 135.604,127.946 130.782,124.442 136.742,124.442 	"/>
	<polygon style="fill:#F0F0F0;" points="152.498,104.861 154.339,110.529 160.3,110.529 155.477,114.031 157.319,119.7 
		152.498,116.198 147.676,119.7 149.518,114.031 144.695,110.529 150.656,110.529 	"/>
	<polygon style="fill:#F0F0F0;" points="166.411,90.946 168.252,96.614 174.212,96.614 169.391,100.118 171.232,105.788 
		166.411,102.284 161.588,105.788 163.43,100.118 158.609,96.614 164.568,96.614 	"/>
	<polygon style="fill:#F0F0F0;" points="234.285,118.773 232.443,124.442 226.483,124.442 231.306,127.946 229.463,133.613 
		234.285,130.111 239.107,133.613 237.265,127.946 242.086,124.442 236.127,124.442 	"/>
	<polygon style="fill:#F0F0F0;" points="220.372,104.861 218.53,110.529 212.571,110.529 217.392,114.031 215.55,119.7 
		220.372,116.198 225.195,119.7 223.353,114.031 228.174,110.529 222.214,110.529 	"/>
	<polygon style="fill:#F0F0F0;" points="206.46,90.946 204.618,96.614 198.657,96.614 203.479,100.118 201.637,105.788 
		206.46,102.284 211.281,105.788 209.439,100.118 214.261,96.614 208.301,96.614 	"/>
	<polygon style="fill:#F0F0F0;" points="186.435,83.989 184.593,89.659 178.634,89.659 183.455,93.163 181.613,98.831 
		186.435,95.327 191.257,98.831 189.415,93.163 194.237,89.659 188.277,89.659 	"/>
</g>
<path style="fill:#C7C7C7;" d="M255.928,21.707c-73.745,0-141.451,47.552-166.61,116.806
	c-25.343,69.773-3.142,149.836,53.974,197.071c57.236,47.338,140.369,53.625,203.978,15.148
	c63.626-38.49,97.228-114.681,82.271-187.573C414.888,91.771,355.517,35.121,283.472,23.843
	C274.361,22.416,265.141,21.707,255.928,21.707 M398.59,263.184c-30.241,67.009-105.732,104.802-177.479,88.399
	c-55.215-12.621-100.384-55.764-115.778-110.195c-15.749-55.658,1.328-116.804,43.417-156.425
	c45.534-42.867,114.172-54.571,171.321-28.799c68.228,30.767,105.971,108.144,87.651,180.844
	C405.459,245.986,402.37,254.739,398.59,263.184C396.502,267.81,400.132,259.739,398.59,263.184"/>
<g>
</g>
<g>
</g>
<g>
</g>
<g>
</g>
<g>
</g>
<g>
</g>
<g>
</g>
<g>
</g>
<g>
</g>
<g>
</g>
<g>
</g>
<g>
</g>
<g>
</g>
<g>
</g>
<g>
</g>
</svg>
