<?xml version="1.0" encoding="iso-8859-1"?>
<!-- Generator: Adobe Illustrator 19.0.0, SVG Export Plug-In . SVG Version: 6.00 Build 0)  -->
<svg version="1.1" id="Layer_1" xmlns="http://www.w3.org/2000/svg" xmlns:xlink="http://www.w3.org/1999/xlink" x="0px" y="0px"
	 viewBox="0 0 512 512" style="enable-background:new 0 0 512 512;" xml:space="preserve">
<path style="fill:#B3B3B3;" d="M434.44,110.654C401.18,45.876,334.359,0.003,255.98,0v101.329
	c55.478,0.004,100.593,43.67,100.594,99.15c0.001,54.805-45.491,102.048-100.594,102.052V512
	c70.645-73.617,151.953-154.542,187.529-251.428C461.297,212.121,457.979,156.5,434.44,110.654z"/>
<path style="fill:#979797;" d="M68.492,260.572C104.067,357.458,185.374,438.383,256.02,512V302.531
	c-55.104-0.004-100.595-47.247-100.594-102.052c0.001-55.479,45.116-99.146,100.594-99.15V0
	c-78.379,0.003-145.2,45.876-178.46,110.654C54.021,156.5,50.703,212.121,68.492,260.572z"/>
<circle style="fill:#D80027;" cx="256" cy="198.773" r="160"/>
<path d="M346.435,157.527h-57.953c3.578-3.746,5.779-8.817,5.779-14.406c0-11.527-9.344-20.87-20.869-20.87
	c-7.261,0-13.652,3.711-17.391,9.335c-3.739-5.625-10.13-9.335-17.391-9.335c-11.526,0-20.869,9.344-20.869,20.87
	c0,5.589,2.202,10.66,5.779,14.406h-57.953c0,15.369,13.386,27.827,28.753,27.827h-0.927c0,15.369,12.458,27.825,27.826,27.825
	c0,4.979,1.312,9.646,3.603,13.685l-23.082,23.082l17.709,17.707l25.12-25.119c0.983,0.361,2.002,0.65,3.053,0.846l-15.179,34.273
	L256,303.121l23.559-25.469l-15.179-34.273c1.052-0.196,2.069-0.485,3.053-0.846l25.12,25.119l17.709-17.707l-23.082-23.082
	c2.29-4.039,3.603-8.706,3.603-13.685c15.368,0,27.826-12.457,27.826-27.825h-0.927
	C333.049,185.355,346.435,172.896,346.435,157.527z"/>
<path style="fill:#C7C7C7;" d="M255.928,21.707c-73.745,0-141.451,47.552-166.61,116.806
	c-25.343,69.773-3.142,149.836,53.974,197.071c57.236,47.338,140.369,53.625,203.978,15.148
	c63.626-38.49,97.228-114.681,82.271-187.573C414.888,91.771,355.517,35.121,283.472,23.843
	C274.361,22.416,265.141,21.707,255.928,21.707 M398.59,263.184c-30.241,67.009-105.732,104.802-177.479,88.399
	c-55.215-12.621-100.384-55.764-115.778-110.195c-15.749-55.658,1.328-116.804,43.417-156.425
	c45.534-42.867,114.172-54.571,171.321-28.799c68.228,30.767,105.971,108.144,87.651,180.844
	C405.459,245.986,402.37,254.739,398.59,263.184C396.502,267.81,400.132,259.739,398.59,263.184"/>
<g>
</g>
<g>
</g>
<g>
</g>
<g>
</g>
<g>
</g>
<g>
</g>
<g>
</g>
<g>
</g>
<g>
</g>
<g>
</g>
<g>
</g>
<g>
</g>
<g>
</g>
<g>
</g>
<g>
</g>
</svg>
