<?xml version="1.0" encoding="iso-8859-1"?>
<!-- Generator: Adobe Illustrator 19.0.0, SVG Export Plug-In . SVG Version: 6.00 Build 0)  -->
<svg version="1.1" id="Layer_1" xmlns="http://www.w3.org/2000/svg" xmlns:xlink="http://www.w3.org/1999/xlink" x="0px" y="0px"
	 viewBox="0 0 512 512" style="enable-background:new 0 0 512 512;" xml:space="preserve">
<path style="fill:#B3B3B3;" d="M434.439,110.654C401.178,45.876,334.359,0.003,255.98,0v101.329
	c55.478,0.004,100.593,43.671,100.595,99.151c0,54.805-45.491,102.048-100.595,102.051V512
	c70.645-73.617,151.953-154.542,187.529-251.428C461.298,212.121,457.979,156.5,434.439,110.654z"/>
<path style="fill:#979797;" d="M68.492,260.572C104.066,357.458,185.374,438.383,256.019,512V302.531
	c-55.104-0.003-100.595-47.246-100.594-102.051c0.001-55.478,45.116-99.147,100.594-99.151V0
	c-78.379,0.003-145.2,45.876-178.46,110.654C54.021,156.5,50.703,212.121,68.492,260.572z"/>
<path style="fill:#F0F0F0;" d="M256,38.772c88.366,0,160,71.634,160,160s-71.634,160-160,160c0-6.956-20.869-160-20.869-160
	L256,38.772z"/>
<path style="fill:#496E2D;" d="M256,358.772c-88.366,0-160-71.634-160-160s71.634-160,160-160"/>
<g>
	<polygon style="fill:#D80027;" points="290.376,168.082 277.249,186.173 255.989,179.279 269.137,197.354 256.01,215.444 
		277.264,208.524 290.413,226.598 290.399,204.247 311.652,197.328 290.391,190.434 	"/>
	<path style="fill:#D80027;" d="M269.272,243.989c-24.973,0-45.217-20.244-45.217-45.217s20.244-45.218,45.217-45.218
		c7.788,0,15.113,1.969,21.509,5.435c-10.034-9.812-23.758-15.869-38.9-15.869c-30.736,0-55.652,24.916-55.652,55.652
		c0,30.735,24.916,55.652,55.652,55.652c15.143,0,28.866-6.058,38.9-15.87C284.385,242.021,277.06,243.989,269.272,243.989z"/>
</g>
<path style="fill:#C7C7C7;" d="M255.927,21.706c-73.745,0-141.451,47.553-166.61,116.807
	c-25.343,69.773-3.142,149.835,53.974,197.07c57.236,47.338,140.369,53.625,203.979,15.148
	c63.626-38.489,97.228-114.681,82.271-187.573C414.888,91.77,355.517,35.12,283.472,23.842
	C274.36,22.416,265.141,21.706,255.927,21.706 M398.59,263.184c-30.241,67.01-105.732,104.802-177.479,88.399
	c-55.215-12.621-100.384-55.764-115.778-110.195c-15.749-55.658,1.328-116.804,43.417-156.425
	c45.535-42.867,114.172-54.571,171.321-28.799c68.228,30.767,105.971,108.144,87.651,180.845
	C405.459,245.986,402.37,254.739,398.59,263.184C396.502,267.811,400.132,259.739,398.59,263.184"/>
<g>
</g>
<g>
</g>
<g>
</g>
<g>
</g>
<g>
</g>
<g>
</g>
<g>
</g>
<g>
</g>
<g>
</g>
<g>
</g>
<g>
</g>
<g>
</g>
<g>
</g>
<g>
</g>
<g>
</g>
</svg>
