<?xml version="1.0" encoding="iso-8859-1"?>
<!-- Generator: Adobe Illustrator 19.0.0, SVG Export Plug-In . SVG Version: 6.00 Build 0)  -->
<svg version="1.1" id="Layer_1" xmlns="http://www.w3.org/2000/svg" xmlns:xlink="http://www.w3.org/1999/xlink" x="0px" y="0px"
	 viewBox="0 0 512 512" style="enable-background:new 0 0 512 512;" xml:space="preserve">
<path style="fill:#B3B3B3;" d="M434.439,110.654C401.179,45.876,334.359,0.003,255.98,0v101.329
	c55.478,0.004,100.593,43.67,100.595,99.15c0,54.805-45.491,102.048-100.595,102.052V512
	c70.646-73.617,151.953-154.542,187.529-251.428C461.298,212.121,457.979,156.5,434.439,110.654z"/>
<path style="fill:#979797;" d="M68.492,260.572C104.067,357.458,185.374,438.383,256.02,512V302.531
	c-55.103-0.004-100.595-47.247-100.595-102.052c0.002-55.479,45.117-99.146,100.595-99.15V0
	c-78.379,0.003-145.199,45.876-178.46,110.654C54.021,156.5,50.702,212.121,68.492,260.572z"/>
<circle style="fill:#F0F0F0;" cx="256" cy="198.773" r="160"/>
<g>
	<path style="fill:#0052B4;" d="M333.623,58.842C310.633,46.063,284.169,38.773,256,38.773c-88.358,0-159.989,71.622-160,159.981
		l111.305-55.633L333.623,58.842z"/>
	<path style="fill:#0052B4;" d="M96,198.791c0.011,88.356,71.642,159.981,160,159.981c28.169,0,54.633-7.29,77.623-20.07
		l-126.319-84.277L96,198.791z"/>
</g>
<path style="fill:#D80027;" d="M346.957,67.137c-4.298-2.975-8.75-5.742-13.339-8.291L96,198.754c0,0.006,0,0.013,0,0.019
	c0,0.006,0,0.013,0,0.019l237.618,139.908c4.589-2.553,9.041-5.316,13.339-8.291L123.389,198.773L346.957,67.137z"/>
<path style="fill:#A2001D;" d="M374.26,192.806h-19.058c4.955-5.95,4.649-14.802-0.933-20.383c5.915-5.915,5.915-15.502,0-21.417
	l-0.356,0.356c5.914-5.913,6.271-15.858,0.356-21.771l-85.661,85.661c5.915,5.915,15.333,5.844,21.247-0.07l1.649-1.506
	l41.018-3.729v17.642h13.914v-18.907l20.868-1.895L374.26,192.806z"/>
<polygon style="fill:#FFDA44;" points="269.918,233.554 256,226.598 269.918,219.642 360.352,219.642 360.352,233.554 "/>
<path style="fill:#C7C7C7;" d="M255.929,21.707c-73.745,0-141.451,47.552-166.61,116.806
	c-25.343,69.773-3.142,149.836,53.974,197.071c57.236,47.338,140.369,53.625,203.978,15.148
	c63.626-38.49,97.228-114.681,82.271-187.573C414.889,91.771,355.517,35.121,283.472,23.843
	C274.361,22.416,265.141,21.707,255.929,21.707 M398.59,263.184c-30.241,67.009-105.732,104.802-177.479,88.399
	c-55.215-12.621-100.384-55.764-115.778-110.195c-15.749-55.658,1.328-116.804,43.417-156.425
	c45.534-42.867,114.172-54.571,171.321-28.799c68.228,30.767,105.971,108.144,87.651,180.844
	C405.459,245.986,402.37,254.739,398.59,263.184C396.502,267.81,400.132,259.739,398.59,263.184"/>
<g>
</g>
<g>
</g>
<g>
</g>
<g>
</g>
<g>
</g>
<g>
</g>
<g>
</g>
<g>
</g>
<g>
</g>
<g>
</g>
<g>
</g>
<g>
</g>
<g>
</g>
<g>
</g>
<g>
</g>
</svg>
