<?xml version="1.0" encoding="iso-8859-1"?>
<!-- Generator: Adobe Illustrator 19.0.0, SVG Export Plug-In . SVG Version: 6.00 Build 0)  -->
<svg version="1.1" id="Layer_1" xmlns="http://www.w3.org/2000/svg" xmlns:xlink="http://www.w3.org/1999/xlink" x="0px" y="0px"
	 viewBox="0 0 512 512" style="enable-background:new 0 0 512 512;" xml:space="preserve">
<path style="fill:#B3B3B3;" d="M434.439,110.654C401.179,45.876,334.359,0.003,255.98,0v101.329
	c55.478,0.004,100.593,43.67,100.595,99.15c0,54.805-45.491,102.048-100.595,102.052V512
	c70.646-73.617,151.953-154.542,187.529-251.428C461.298,212.121,457.979,156.5,434.439,110.654z"/>
<path style="fill:#979797;" d="M68.492,260.572C104.067,357.458,185.374,438.383,256.02,512V302.531
	c-55.103-0.004-100.595-47.247-100.595-102.052c0.002-55.479,45.117-99.146,100.595-99.15V0
	c-78.379,0.003-145.199,45.876-178.46,110.654C54.021,156.5,50.702,212.121,68.492,260.572z"/>
<path style="fill:#FFDA44;" d="M186.435,342.896c21.035,10.171,44.633,15.877,69.565,15.877c24.932,0,48.53-5.707,69.565-15.877
	l13.914-144.123L325.565,54.647C304.53,44.477,280.932,38.773,256,38.773c-24.932,0-48.53,5.705-69.565,15.875l-13.914,144.125
	L186.435,342.896z"/>
<path style="fill:#D80027;" d="M325.565,342.892C379.085,317.012,416,262.206,416,198.773c0-63.434-36.915-118.24-90.435-144.118
	V342.892z"/>
<path style="fill:#0052B4;" d="M186.435,342.892V54.654C132.915,80.533,96,135.34,96,198.773
	C96,262.206,132.915,317.012,186.435,342.892z"/>
<g>
	<path style="fill:#D80027;" d="M256,254.425c0-25.532,0-55.652,0-55.652h41.74v20.868c0,3.627-6.957,16.911-24.127,27.827
		C267.109,251.604,260.378,252.933,256,254.425z"/>
	<rect x="214.261" y="157.035" style="fill:#D80027;" width="41.739" height="41.739"/>
</g>
<path style="fill:#FF9811;" d="M276.869,143.121c0-7.685-6.23-13.913-13.914-13.913c-2.538,0-4.909,0.689-6.956,1.875
	c-2.048-1.185-4.419-1.875-6.956-1.875c-7.683,0-13.914,6.227-13.914,13.913h-34.782v69.565c0,25.898,20.566,40.873,36.693,48.638
	c-1.206,2.061-1.911,4.452-1.911,7.014c0,7.685,6.23,13.913,13.914,13.913c2.538,0,4.909-0.69,6.956-1.875
	c2.048,1.185,4.419,1.875,6.956,1.875c7.683,0,13.914-6.227,13.914-13.913c0-2.562-0.705-4.955-1.913-7.014
	c16.128-7.764,36.694-22.739,36.694-48.638v-69.565H276.869z M290.782,212.686c0,3.625,0,14.656-17.17,25.573
	c-6.503,4.135-13.235,6.817-17.613,8.306c-4.378-1.489-11.108-4.171-17.613-8.306c-17.171-10.916-17.171-21.948-17.171-25.573
	v-48.697h69.566v48.697H290.782z"/>
<path style="fill:#C7C7C7;" d="M255.929,21.707c-73.745,0-141.451,47.552-166.61,116.806
	c-25.343,69.773-3.142,149.836,53.974,197.071c57.236,47.338,140.369,53.625,203.978,15.148
	c63.626-38.49,97.228-114.681,82.271-187.573C414.889,91.771,355.517,35.121,283.472,23.843
	C274.361,22.416,265.141,21.707,255.929,21.707 M398.59,263.184c-30.241,67.009-105.732,104.802-177.479,88.399
	c-55.215-12.621-100.384-55.764-115.778-110.195c-15.749-55.658,1.328-116.804,43.417-156.425
	c45.534-42.867,114.172-54.571,171.321-28.799c68.228,30.767,105.971,108.144,87.651,180.844
	C405.459,245.986,402.37,254.739,398.59,263.184C396.502,267.81,400.132,259.739,398.59,263.184"/>
<g>
</g>
<g>
</g>
<g>
</g>
<g>
</g>
<g>
</g>
<g>
</g>
<g>
</g>
<g>
</g>
<g>
</g>
<g>
</g>
<g>
</g>
<g>
</g>
<g>
</g>
<g>
</g>
<g>
</g>
</svg>
