<?xml version="1.0" encoding="iso-8859-1"?>
<!-- Generator: Adobe Illustrator 19.0.0, SVG Export Plug-In . SVG Version: 6.00 Build 0)  -->
<svg version="1.1" id="Layer_1" xmlns="http://www.w3.org/2000/svg" xmlns:xlink="http://www.w3.org/1999/xlink" x="0px" y="0px"
	 viewBox="0 0 512 512" style="enable-background:new 0 0 512 512;" xml:space="preserve">
<path style="fill:#B3B3B3;" d="M434.439,110.654C401.179,45.876,334.359,0.003,255.98,0v101.329
	c55.478,0.004,100.593,43.671,100.595,99.151c0,54.805-45.491,102.048-100.595,102.051V512
	c70.646-73.617,151.953-154.542,187.529-251.428C461.298,212.121,457.979,156.5,434.439,110.654z"/>
<path style="fill:#979797;" d="M68.492,260.572C104.067,357.458,185.374,438.383,256.02,512V302.531
	c-55.103-0.003-100.595-47.246-100.595-102.051c0.002-55.478,45.117-99.147,100.595-99.151V0
	c-78.379,0.003-145.199,45.876-178.46,110.654C54.021,156.5,50.702,212.121,68.492,260.572z"/>
<path style="fill:#D80027;" d="M96,198.772c0-88.366,71.634-160,160-160s160,71.634,160,160c-6.957,0-160,20.869-160,20.869
	L96,198.772z"/>
<path d="M416,198.772c0,88.366-71.634,160-160,160s-160-71.634-160-160"/>
<g>
	<polygon style="fill:#FFDA44;" points="234.061,166.03 247.625,175.873 242.457,191.817 256.01,181.957 269.575,191.799 
		264.385,175.863 277.938,166.003 261.179,166.014 255.99,150.077 250.821,166.019 	"/>
	<path style="fill:#FFDA44;" d="M296,129.49c-12.608-7.28-26.394-10.716-40-10.691v20.864c10.058-0.018,20.245,2.521,29.565,7.901
		c28.238,16.302,37.946,52.537,21.644,80.773c-16.302,28.237-52.538,37.946-80.773,21.643c-8.227-4.749-14.868-11.197-19.762-18.64
		l-17.423,11.503c6.623,10.068,15.621,18.785,26.75,25.21c38.202,22.057,87.225,8.921,109.281-29.282
		C347.338,200.57,334.203,151.547,296,129.49z"/>
	<path style="fill:#FFDA44;" d="M209.869,184.86c-5.532,10.112-1.819,22.794,8.292,28.324l67.78,37.038
		c-4.608,8.426-2.16,18.682,6.265,23.291l18.31,10.016c8.425,4.609,18.994,1.515,23.604-6.911l10.015-18.309L209.869,184.86z"/>
</g>
<path style="fill:#C7C7C7;" d="M255.929,21.706c-73.745,0-141.451,47.553-166.61,116.807
	c-25.343,69.773-3.142,149.835,53.974,197.07c57.236,47.338,140.369,53.625,203.978,15.148
	c63.626-38.489,97.228-114.681,82.271-187.573C414.889,91.77,355.517,35.12,283.472,23.842
	C274.361,22.416,265.141,21.706,255.929,21.706 M398.59,263.184c-30.241,67.01-105.732,104.802-177.479,88.399
	c-55.215-12.621-100.384-55.764-115.778-110.195c-15.749-55.658,1.328-116.804,43.417-156.425
	c45.534-42.867,114.172-54.571,171.321-28.799c68.228,30.767,105.971,108.144,87.651,180.845
	C405.459,245.986,402.37,254.739,398.59,263.184C396.502,267.811,400.132,259.739,398.59,263.184"/>
<g>
</g>
<g>
</g>
<g>
</g>
<g>
</g>
<g>
</g>
<g>
</g>
<g>
</g>
<g>
</g>
<g>
</g>
<g>
</g>
<g>
</g>
<g>
</g>
<g>
</g>
<g>
</g>
<g>
</g>
</svg>
