<?xml version="1.0" encoding="iso-8859-1"?>
<!-- Generator: Adobe Illustrator 19.0.0, SVG Export Plug-In . SVG Version: 6.00 Build 0)  -->
<svg version="1.1" id="Layer_1" xmlns="http://www.w3.org/2000/svg" xmlns:xlink="http://www.w3.org/1999/xlink" x="0px" y="0px"
	 viewBox="0 0 512 512" style="enable-background:new 0 0 512 512;" xml:space="preserve">
<path style="fill:#B3B3B3;" d="M434.439,110.654C401.179,45.876,334.359,0.003,255.98,0v101.329
	c55.478,0.004,100.593,43.67,100.595,99.15c0,54.805-45.491,102.048-100.595,102.052V512
	c70.646-73.617,151.953-154.542,187.529-251.428C461.298,212.121,457.979,156.5,434.439,110.654z"/>
<path style="fill:#979797;" d="M68.492,260.572C104.067,357.458,185.374,438.383,256.02,512V302.531
	c-55.103-0.004-100.595-47.247-100.595-102.052c0.002-55.479,45.117-99.146,100.595-99.15V0
	c-78.379,0.003-145.199,45.876-178.46,110.654C54.021,156.5,50.702,212.121,68.492,260.572z"/>
<path style="fill:#0052B4;" d="M416,198.773c0,88.365-71.634,160-160,160s-160-71.635-160-160c0,0.037,160-159.983,160-160
	C344.366,38.773,416,110.406,416,198.773z"/>
<g>
	<path style="fill:#F0F0F0;" d="M256,38.773c-0.01,0-0.018,0-0.027,0H256L256,38.773z"/>
	<path style="fill:#F0F0F0;" d="M255.572,198.773H256c0-0.144,0-0.286,0-0.429C255.857,198.487,255.714,198.629,255.572,198.773z"/>
	<path style="fill:#F0F0F0;" d="M256,122.25c0-28.153,0-46.601,0-83.477h-0.027C167.62,38.787,96,110.417,96,198.773h83.478v-47.006
		l47.007,47.006h29.087c0.143-0.144,0.286-0.286,0.428-0.429c0-10.779,0-20.396,0-29.086l-47.008-47.008H256V122.25z"/>
</g>
<g>
	<path style="fill:#D80027;" d="M176.947,59.642c-25.024,14.25-45.828,35.054-60.077,60.077v79.054h41.739v-97.389v-0.002H256
		c0-13.165,0-25.707,0-41.74C256,59.642,176.947,59.642,176.947,59.642z"/>
	<path style="fill:#D80027;" d="M256,179.095l-56.847-56.846h-19.675v0.002l76.521,76.521H256C256,198.773,256,185.206,256,179.095z
		"/>
</g>
<g>
	<path style="fill:#496E2D;" d="M374.26,198.773L374.26,198.773L374.26,198.773z"/>
	<path style="fill:#496E2D;" d="M276.869,198.773L276.869,198.773L276.869,198.773z"/>
</g>
<path style="fill:#F3F3F3;" d="M366.588,222.194c4.601-6.33,7.673-14.061,7.673-23.421v-69.567
	c-5.813,4.369-13.039,6.958-20.868,6.958c-11.379,0-21.482-5.465-27.827-13.913c-6.346,8.448-16.447,13.913-27.825,13.913
	c-7.831,0-15.056-2.59-20.869-6.956v69.565c0,9.36,3.073,17.091,7.674,23.421H366.588z"/>
<g>
	<path style="fill:#FF9811;" d="M352.115,185.867c2.214-5.404,3.937-13.302,3.937-17.233c0-6.315-8.235-11.436-8.235-11.436
		s-8.234,5.121-8.234,11.436c0,3.932,1.723,11.829,3.937,17.233l-4.754,10.732c2.794,1.137,5.847,1.769,9.05,1.769
		c3.203,0,6.256-0.631,9.051-1.769L352.115,185.867z"/>
	<path style="fill:#FF9811;" d="M319.935,151.117c-5.786,0.785-13.487,3.244-16.891,5.211c-5.47,3.158-5.788,12.846-5.788,12.846
		s8.551,4.571,14.021,1.412c3.404-1.965,9.381-7.406,12.953-12.025l11.673-1.25c-0.413-2.986-1.396-5.948-2.995-8.721
		c-1.602-2.773-3.674-5.102-6.055-6.955L319.935,151.117z"/>
	<path style="fill:#FF9811;" d="M305.932,196.363c3.571,4.619,9.55,10.059,12.956,12.025c5.47,3.156,14.021-1.412,14.021-1.412
		s-0.319-9.692-5.788-12.85c-3.406-1.965-11.106-4.421-16.893-5.204l-6.916-9.484c-2.381,1.852-4.453,4.181-6.055,6.955
		c-1.601,2.773-2.581,5.733-2.996,8.721L305.932,196.363z"/>
</g>
<path style="fill:#338AF3;" d="M282.822,219.644c12.994,20.846,42.742,27.825,42.742,27.825s29.75-6.979,42.743-27.825H282.822z"/>
<path style="fill:#C7C7C7;" d="M255.929,21.707c-73.745,0-141.451,47.552-166.61,116.806
	c-25.343,69.773-3.142,149.836,53.974,197.071c57.236,47.338,140.369,53.625,203.978,15.148
	c63.626-38.49,97.228-114.681,82.271-187.573C414.889,91.771,355.517,35.121,283.472,23.843
	C274.361,22.416,265.141,21.707,255.929,21.707 M398.59,263.184c-30.241,67.009-105.732,104.802-177.479,88.399
	c-55.215-12.621-100.384-55.764-115.778-110.195c-15.749-55.658,1.328-116.804,43.417-156.425
	c45.534-42.867,114.172-54.571,171.321-28.799c68.228,30.767,105.971,108.144,87.651,180.844
	C405.459,245.986,402.37,254.739,398.59,263.184C396.502,267.81,400.132,259.739,398.59,263.184"/>
<g>
</g>
<g>
</g>
<g>
</g>
<g>
</g>
<g>
</g>
<g>
</g>
<g>
</g>
<g>
</g>
<g>
</g>
<g>
</g>
<g>
</g>
<g>
</g>
<g>
</g>
<g>
</g>
<g>
</g>
</svg>
