<?xml version="1.0" encoding="iso-8859-1"?>
<!-- Generator: Adobe Illustrator 19.0.0, SVG Export Plug-In . SVG Version: 6.00 Build 0)  -->
<svg version="1.1" id="Layer_1" xmlns="http://www.w3.org/2000/svg" xmlns:xlink="http://www.w3.org/1999/xlink" x="0px" y="0px"
	 viewBox="0 0 512 512" style="enable-background:new 0 0 512 512;" xml:space="preserve">
<path style="fill:#B3B3B3;" d="M434.439,110.654C401.178,45.876,334.359,0.003,255.98,0v101.329
	c55.478,0.004,100.593,43.67,100.595,99.15c0,54.805-45.491,102.048-100.595,102.052V512
	c70.645-73.617,151.953-154.542,187.529-251.428C461.298,212.121,457.979,156.5,434.439,110.654z"/>
<path style="fill:#979797;" d="M68.492,260.572C104.066,357.458,185.374,438.383,256.019,512V302.531
	c-55.104-0.004-100.595-47.247-100.594-102.052c0.001-55.479,45.116-99.146,100.594-99.15V0
	c-78.379,0.003-145.2,45.876-178.46,110.654C54.021,156.5,50.703,212.121,68.492,260.572z"/>
<path style="fill:#0052B4;" d="M96,198.773c0,10.958,1.105,21.661,3.204,32L256,240.512l156.796-9.74
	c2.1-10.339,3.204-21.042,3.204-32c0-10.96-1.104-21.661-3.204-32L256,157.034l-156.796,9.74C97.104,177.113,96,187.812,96,198.773z
	"/>
<path style="fill:#F0F0F0;" d="M412.796,230.773H99.204c14.825,73.031,79.39,128,156.796,128S397.971,303.804,412.796,230.773z"/>
<path d="M99.204,166.773h313.591c-14.823-73.031-79.39-128-156.796-128S114.029,93.742,99.204,166.773z"/>
<polygon style="fill:#FFDA44;" points="325.566,166.773 186.435,166.773 214.86,153.402 199.724,125.873 230.589,131.777 
	234.501,100.596 256,123.53 277.5,100.596 281.41,131.777 312.277,125.873 297.141,153.402 "/>
<g>
	<path style="fill:#A2001D;" d="M96,198.773c0,88.365,71.634,160,160,160L127.997,102.767C107.907,129.51,96,162.75,96,198.773z"/>
	<path style="fill:#A2001D;" d="M256,358.773c88.366,0,160-71.635,160-160c0-36.022-11.907-69.263-31.997-96.006L256,358.773z"/>
</g>
<path style="fill:#C7C7C7;" d="M255.927,21.707c-73.745,0-141.451,47.552-166.61,116.806
	c-25.343,69.773-3.142,149.836,53.974,197.071c57.236,47.338,140.369,53.625,203.979,15.148
	c63.626-38.49,97.228-114.681,82.271-187.573C414.888,91.771,355.517,35.121,283.472,23.843
	C274.36,22.416,265.141,21.707,255.927,21.707 M398.59,263.184c-30.241,67.009-105.732,104.802-177.479,88.399
	c-55.215-12.621-100.384-55.764-115.778-110.195c-15.749-55.658,1.328-116.804,43.417-156.425
	c45.535-42.867,114.172-54.571,171.321-28.799c68.228,30.767,105.971,108.144,87.651,180.844
	C405.459,245.986,402.37,254.739,398.59,263.184C396.502,267.81,400.132,259.739,398.59,263.184"/>
<g>
</g>
<g>
</g>
<g>
</g>
<g>
</g>
<g>
</g>
<g>
</g>
<g>
</g>
<g>
</g>
<g>
</g>
<g>
</g>
<g>
</g>
<g>
</g>
<g>
</g>
<g>
</g>
<g>
</g>
</svg>
