<?xml version="1.0" encoding="iso-8859-1"?>
<!-- Generator: Adobe Illustrator 19.0.0, SVG Export Plug-In . SVG Version: 6.00 Build 0)  -->
<svg version="1.1" id="Layer_1" xmlns="http://www.w3.org/2000/svg" xmlns:xlink="http://www.w3.org/1999/xlink" x="0px" y="0px"
	 viewBox="0 0 512 512" style="enable-background:new 0 0 512 512;" xml:space="preserve">
<path style="fill:#B3B3B3;" d="M434.439,110.654C401.178,45.876,334.359,0.003,255.98,0v101.329
	c55.478,0.004,100.593,43.67,100.595,99.15c0,54.805-45.491,102.048-100.595,102.052V512
	c70.645-73.617,151.953-154.542,187.529-251.428C461.298,212.121,457.979,156.5,434.439,110.654z"/>
<path style="fill:#979797;" d="M68.492,260.572C104.066,357.458,185.374,438.383,256.019,512V302.531
	c-55.104-0.004-100.595-47.247-100.594-102.052c0.001-55.479,45.116-99.146,100.594-99.15V0
	c-78.379,0.003-145.2,45.876-178.46,110.654C54.021,156.5,50.703,212.121,68.492,260.572z"/>
<circle style="fill:#FFDA44;" cx="256" cy="198.773" r="160"/>
<g>
	<path style="fill:#338AF3;" d="M256,358.773c48.495,0,91.946-21.578,121.287-55.652H134.711
		C164.053,337.196,207.505,358.773,256,358.773z"/>
	<path style="fill:#338AF3;" d="M416,198.773c0-88.367-71.634-160-160-160s-160,71.633-160,160c0,14.442,1.924,28.431,5.511,41.74
		h308.977C414.074,227.204,416,213.215,416,198.773z"/>
	<path style="fill:#338AF3;" d="M108.718,261.381c3.085,7.248,6.689,14.217,10.766,20.868h273.033
		c4.076-6.652,7.681-13.621,10.766-20.868H108.718L108.718,261.381z"/>
</g>
<polygon style="fill:#F0F0F0;" points="169.322,139.687 138.063,125.891 169.322,112.094 183.119,80.835 196.914,112.094 
	228.174,125.891 196.914,139.687 183.119,170.946 "/>
<polygon style="fill:#D80027;" points="183.119,98.065 191.638,117.371 210.945,125.891 191.638,134.411 183.119,153.716 
	174.598,134.411 155.293,125.891 174.598,117.371 "/>
<path style="fill:#C7C7C7;" d="M255.927,21.707c-73.745,0-141.451,47.552-166.61,116.806
	c-25.343,69.773-3.142,149.836,53.974,197.071c57.236,47.338,140.369,53.625,203.979,15.148
	c63.626-38.49,97.228-114.681,82.271-187.573C414.888,91.771,355.517,35.121,283.472,23.843
	C274.36,22.416,265.141,21.707,255.927,21.707 M398.59,263.184c-30.241,67.009-105.732,104.802-177.479,88.399
	c-55.215-12.621-100.384-55.764-115.778-110.195c-15.749-55.658,1.328-116.804,43.417-156.425
	c45.535-42.867,114.172-54.571,171.321-28.799c68.228,30.767,105.971,108.144,87.651,180.844
	C405.459,245.986,402.37,254.739,398.59,263.184C396.502,267.81,400.132,259.739,398.59,263.184"/>
<g>
</g>
<g>
</g>
<g>
</g>
<g>
</g>
<g>
</g>
<g>
</g>
<g>
</g>
<g>
</g>
<g>
</g>
<g>
</g>
<g>
</g>
<g>
</g>
<g>
</g>
<g>
</g>
<g>
</g>
</svg>
