<?xml version="1.0" encoding="iso-8859-1"?>
<!-- Generator: Adobe Illustrator 19.0.0, SVG Export Plug-In . SVG Version: 6.00 Build 0)  -->
<svg version="1.1" id="Layer_1" xmlns="http://www.w3.org/2000/svg" xmlns:xlink="http://www.w3.org/1999/xlink" x="0px" y="0px"
	 viewBox="0 0 512 512" style="enable-background:new 0 0 512 512;" xml:space="preserve">
<path style="fill:#B3B3B3;" d="M434.44,110.654C401.18,45.876,334.359,0.003,255.98,0v101.329
	c55.478,0.004,100.593,43.671,100.594,99.151c0.001,54.805-45.49,102.048-100.594,102.051V512
	c70.645-73.617,151.953-154.542,187.529-251.428C461.297,212.121,457.979,156.5,434.44,110.654z"/>
<path style="fill:#979797;" d="M68.492,260.572C104.066,357.458,185.374,438.383,256.02,512V302.531
	c-55.104-0.003-100.595-47.246-100.594-102.051c0.001-55.478,45.116-99.147,100.594-99.151V0
	c-78.379,0.003-145.2,45.876-178.46,110.654C54.021,156.5,50.703,212.121,68.492,260.572z"/>
<path style="fill:#0052B4;" d="M416,198.772c0,88.366-71.634,160-160,160s-160-71.634-160-160c0,0.037,160-159.982,160-160
	C344.366,38.772,416,110.406,416,198.772z"/>
<g>
	<path style="fill:#F0F0F0;" d="M256,38.772c-0.009,0-0.018,0.001-0.027,0.001L256,38.772L256,38.772z"/>
	<path style="fill:#F0F0F0;" d="M255.572,198.772H256c0-0.145,0-0.284,0-0.428C255.858,198.487,255.715,198.629,255.572,198.772z"/>
	<path style="fill:#F0F0F0;" d="M256,122.251c0-28.154,0-46.601,0-83.478h-0.027C167.62,38.787,96,110.416,96,198.772h83.478
		v-47.007l47.007,47.007h29.087c0.143-0.143,0.286-0.285,0.428-0.428c0-10.779,0-20.398,0-29.085l-47.008-47.008H256V122.251z"/>
</g>
<g>
	<path style="fill:#D80027;" d="M176.947,59.643c-25.024,14.249-45.828,35.053-60.077,60.077v79.053h41.739v-97.391v-0.001H256
		c0-13.165,0-25.706,0-41.739h-79.053V59.643z"/>
	<path style="fill:#D80027;" d="M256,179.097l-56.846-56.845h-19.676l0,0L256,198.772l0,0C256,198.772,256,185.206,256,179.097z"/>
</g>
<g>
	<polygon style="fill:#F0F0F0;" points="192.497,226.598 201.278,244.96 221.108,240.377 212.227,258.69 228.174,271.337 
		208.32,275.811 208.374,296.163 192.497,283.43 176.62,296.163 176.674,275.811 156.82,271.337 172.767,258.69 163.887,240.377 
		183.716,244.96 	"/>
	<polygon style="fill:#F0F0F0;" points="335.553,261.381 339.943,270.562 349.858,268.27 345.418,277.427 353.391,283.75 
		343.464,285.987 343.491,296.163 335.553,289.797 327.614,296.163 327.642,285.987 317.714,283.75 325.687,277.427 321.247,268.27 
		331.162,270.562 	"/>
	<polygon style="fill:#F0F0F0;" points="294.708,163.989 299.099,173.171 309.013,170.879 304.574,180.035 312.546,186.358 
		302.62,188.596 302.646,198.772 294.708,192.405 286.769,198.772 286.797,188.596 276.869,186.358 284.843,180.035 
		280.402,170.879 290.317,173.171 	"/>
	<polygon style="fill:#F0F0F0;" points="335.553,108.337 339.943,117.519 349.858,115.227 345.419,124.383 353.391,130.707 
		343.464,132.944 343.491,143.12 335.553,136.753 327.614,143.12 327.642,132.944 317.714,130.707 325.686,124.383 321.247,115.227 
		331.162,117.519 	"/>
	<polygon style="fill:#F0F0F0;" points="371.23,150.077 375.62,159.258 385.535,156.965 381.095,166.123 389.068,172.446 
		379.141,174.683 379.168,184.86 371.23,178.493 363.291,184.86 363.318,174.683 353.391,172.446 361.364,166.123 356.925,156.965 
		366.839,159.258 	"/>
	<polygon style="fill:#F0F0F0;" points="345.718,198.772 349.172,209.402 360.348,209.402 351.307,215.97 354.761,226.598 
		345.718,220.03 336.677,226.598 340.131,215.97 331.089,209.402 342.264,209.402 	"/>
</g>
<path style="fill:#C7C7C7;" d="M255.928,21.706c-73.745,0-141.451,47.553-166.61,116.807
	c-25.343,69.773-3.142,149.835,53.974,197.07c57.236,47.338,140.369,53.625,203.978,15.148
	c63.626-38.489,97.228-114.681,82.271-187.573C414.888,91.77,355.517,35.12,283.472,23.842
	C274.361,22.416,265.141,21.706,255.928,21.706 M398.59,263.184c-30.241,67.01-105.732,104.802-177.479,88.399
	c-55.215-12.621-100.384-55.764-115.778-110.195c-15.749-55.658,1.328-116.804,43.417-156.425
	c45.534-42.867,114.172-54.571,171.321-28.799c68.228,30.767,105.971,108.144,87.651,180.845
	C405.459,245.986,402.37,254.739,398.59,263.184C396.502,267.811,400.132,259.739,398.59,263.184"/>
<g>
</g>
<g>
</g>
<g>
</g>
<g>
</g>
<g>
</g>
<g>
</g>
<g>
</g>
<g>
</g>
<g>
</g>
<g>
</g>
<g>
</g>
<g>
</g>
<g>
</g>
<g>
</g>
<g>
</g>
</svg>
