<?xml version="1.0" encoding="iso-8859-1"?>
<!-- Generator: Adobe Illustrator 19.0.0, SVG Export Plug-In . SVG Version: 6.00 Build 0)  -->
<svg version="1.1" id="Layer_1" xmlns="http://www.w3.org/2000/svg" xmlns:xlink="http://www.w3.org/1999/xlink" x="0px" y="0px"
	 viewBox="0 0 512 512" style="enable-background:new 0 0 512 512;" xml:space="preserve">
<path style="fill:#B3B3B3;" d="M434.439,110.654C401.179,45.876,334.359,0.003,255.98,0v101.329
	c55.478,0.004,100.593,43.671,100.595,99.151c0,54.805-45.491,102.048-100.595,102.051V512
	c70.646-73.617,151.953-154.542,187.529-251.428C461.298,212.121,457.979,156.5,434.439,110.654z"/>
<path style="fill:#979797;" d="M68.492,260.572C104.067,357.458,185.374,438.383,256.02,512V302.531
	c-55.103-0.003-100.595-47.246-100.595-102.051c0.002-55.478,45.117-99.147,100.595-99.151V0
	c-78.379,0.003-145.199,45.876-178.46,110.654C54.021,156.5,50.702,212.121,68.492,260.572z"/>
<path style="fill:#D80027;" d="M416,198.772c0-19.571-3.521-38.319-9.952-55.652L256,136.163l-150.048,6.957
	C99.521,160.453,96,179.201,96,198.772s3.521,38.319,9.952,55.652L256,261.381l150.048-6.957
	C412.479,237.091,416,218.343,416,198.772z"/>
<path style="fill:#6DA544;" d="M256,358.772c68.794,0,127.442-43.42,150.048-104.348H105.952
	C128.558,315.353,187.206,358.772,256,358.772z"/>
<path style="fill:#338AF3;" d="M105.952,143.12h300.096C383.442,82.192,324.794,38.772,256,38.772S128.558,82.192,105.952,143.12z"
	/>
<g>
	<path style="fill:#F0F0F0;" d="M259.478,243.989c-24.973,0-45.218-20.244-45.218-45.217s20.245-45.218,45.218-45.218
		c7.787,0,15.113,1.969,21.509,5.435c-10.034-9.812-23.758-15.869-38.9-15.869c-30.736,0-55.653,24.916-55.653,55.652
		c0,30.735,24.916,55.652,55.653,55.652c15.142,0,28.866-6.058,38.9-15.87C274.591,242.021,267.265,243.989,259.478,243.989z"/>
	<polygon style="fill:#F0F0F0;" points="294.26,167.468 300.25,184.313 316.397,176.636 308.721,192.782 325.565,198.772 
		308.721,204.763 316.397,220.909 300.25,213.232 294.26,230.077 288.272,213.232 272.125,220.909 279.802,204.763 262.956,198.772 
		279.802,192.782 272.125,176.636 288.272,184.313 	"/>
</g>
<path style="fill:#C7C7C7;" d="M255.929,21.706c-73.745,0-141.451,47.553-166.61,116.807
	c-25.343,69.773-3.142,149.835,53.974,197.07c57.236,47.338,140.369,53.625,203.978,15.148
	c63.626-38.489,97.228-114.681,82.271-187.573C414.889,91.77,355.517,35.12,283.472,23.842
	C274.361,22.416,265.141,21.706,255.929,21.706 M398.59,263.184c-30.241,67.01-105.732,104.802-177.479,88.399
	c-55.215-12.621-100.384-55.764-115.778-110.195c-15.749-55.658,1.328-116.804,43.417-156.425
	c45.534-42.867,114.172-54.571,171.321-28.799c68.228,30.767,105.971,108.144,87.651,180.845
	C405.459,245.986,402.37,254.739,398.59,263.184C396.502,267.811,400.132,259.739,398.59,263.184"/>
<g>
</g>
<g>
</g>
<g>
</g>
<g>
</g>
<g>
</g>
<g>
</g>
<g>
</g>
<g>
</g>
<g>
</g>
<g>
</g>
<g>
</g>
<g>
</g>
<g>
</g>
<g>
</g>
<g>
</g>
</svg>
