<?xml version="1.0" encoding="iso-8859-1"?>
<!-- Generator: Adobe Illustrator 19.0.0, SVG Export Plug-In . SVG Version: 6.00 Build 0)  -->
<svg version="1.1" id="Layer_1" xmlns="http://www.w3.org/2000/svg" xmlns:xlink="http://www.w3.org/1999/xlink" x="0px" y="0px"
	 viewBox="0 0 512 512" style="enable-background:new 0 0 512 512;" xml:space="preserve">
<path style="fill:#B3B3B3;" d="M434.439,110.654C401.179,45.876,334.359,0.003,255.98,0v101.329
	c55.478,0.004,100.593,43.671,100.595,99.15c0,54.805-45.491,102.048-100.595,102.052V512
	c70.646-73.617,151.953-154.542,187.529-251.428C461.298,212.121,457.979,156.5,434.439,110.654z"/>
<path style="fill:#979797;" d="M68.492,260.572C104.067,357.458,185.374,438.383,256.02,512V302.531
	c-55.103-0.004-100.595-47.247-100.595-102.052c0.002-55.478,45.117-99.146,100.595-99.15V0
	c-78.379,0.003-145.199,45.876-178.46,110.654C54.021,156.5,50.702,212.121,68.492,260.572z"/>
<circle style="fill:#F0F0F0;" cx="256" cy="198.773" r="160"/>
<path style="fill:#D80027;" d="M96,198.773c0,60.645,33.744,113.408,83.478,140.546V58.227C129.744,85.362,96,138.125,96,198.773z"
	/>
<path style="fill:#0052B4;" d="M96,198.773c0,73.923,50.139,136.127,118.26,154.49V44.286C146.139,62.644,96,124.848,96,198.773z"/>
<path style="fill:#D80027;" d="M153.392,94.425v26.087c0,12.966,10.511,23.477,23.478,23.477c12.966,0,23.478-10.511,23.478-23.477
	V94.425H153.392z"/>
<path style="fill:#F0F0F0;" d="M176.869,130.077c-5.275,0-9.566-4.292-9.566-9.565v-12.175h19.13v12.175
	C186.434,125.786,182.144,130.077,176.869,130.077z"/>
<g>
	<path style="fill:#FFDA44;" d="M269.913,205.729h-41.739c0-7.683-6.23-13.913-13.914-13.913c-7.683,0-13.913,6.229-13.913,13.913
		h-41.74c0,7.683,6.693,13.913,14.378,13.913h-0.463c0,7.685,6.228,13.913,13.913,13.913c0,7.685,6.228,13.915,13.914,13.915h27.826
		c7.683,0,13.914-6.229,13.914-13.915c7.683,0,13.913-6.227,13.913-13.913h-0.464C263.22,219.642,269.913,213.412,269.913,205.729z"
		/>
	<polygon style="fill:#FFDA44;" points="275.63,183.465 271.979,189.312 276.41,194.592 269.718,192.927 266.065,198.773 
		265.584,191.893 258.894,190.227 265.287,187.644 264.807,180.767 269.239,186.048 	"/>
	<polygon style="fill:#FFDA44;" points="254.317,165.581 252.884,172.325 258.854,175.771 251.997,176.494 250.563,183.237 
		247.759,176.94 240.902,177.659 246.027,173.045 243.222,166.748 249.193,170.196 	"/>
	<polygon style="fill:#FFDA44;" points="228.173,156.065 229.132,162.894 235.921,164.09 229.725,167.113 230.685,173.939 
		225.895,168.981 219.698,172.002 222.934,165.915 218.146,160.956 224.937,162.153 	"/>
	<polygon style="fill:#FFDA44;" points="200.349,156.065 203.587,162.153 210.375,160.956 205.587,165.917 208.822,172.004 
		202.628,168.981 197.838,173.939 198.798,167.113 192.601,164.092 199.39,162.894 	"/>
	<polygon style="fill:#FFDA44;" points="174.205,165.581 179.329,170.196 185.299,166.748 182.496,173.047 187.619,177.661 
		180.763,176.94 177.956,183.237 176.526,176.494 169.668,175.773 175.638,172.325 	"/>
	<polygon style="fill:#FFDA44;" points="152.892,183.465 159.285,186.048 163.714,180.767 163.236,187.646 169.628,190.229 
		162.938,191.895 162.455,198.773 158.804,192.927 152.114,194.594 156.546,189.312 	"/>
</g>
<path style="fill:#C7C7C7;" d="M255.929,21.707c-73.745,0-141.451,47.552-166.61,116.806
	c-25.343,69.773-3.142,149.836,53.974,197.071c57.236,47.338,140.369,53.625,203.978,15.148
	c63.626-38.49,97.228-114.681,82.271-187.573C414.889,91.771,355.517,35.121,283.472,23.843
	C274.361,22.416,265.141,21.707,255.929,21.707 M398.59,263.184c-30.241,67.009-105.732,104.802-177.479,88.399
	c-55.215-12.621-100.384-55.764-115.778-110.195c-15.749-55.658,1.328-116.804,43.417-156.425
	c45.534-42.867,114.172-54.571,171.321-28.799c68.228,30.767,105.971,108.144,87.651,180.844
	C405.459,245.986,402.37,254.739,398.59,263.184C396.502,267.81,400.132,259.739,398.59,263.184"/>
<g>
</g>
<g>
</g>
<g>
</g>
<g>
</g>
<g>
</g>
<g>
</g>
<g>
</g>
<g>
</g>
<g>
</g>
<g>
</g>
<g>
</g>
<g>
</g>
<g>
</g>
<g>
</g>
<g>
</g>
</svg>
