<?xml version="1.0" encoding="iso-8859-1"?>
<!-- Generator: Adobe Illustrator 19.0.0, SVG Export Plug-In . SVG Version: 6.00 Build 0)  -->
<svg version="1.1" id="Layer_1" xmlns="http://www.w3.org/2000/svg" xmlns:xlink="http://www.w3.org/1999/xlink" x="0px" y="0px"
	 viewBox="0 0 512 512" style="enable-background:new 0 0 512 512;" xml:space="preserve">
<path style="fill:#B3B3B3;" d="M434.44,110.654C401.18,45.876,334.359,0.003,255.98,0v101.329
	c55.478,0.004,100.593,43.67,100.594,99.15c0.001,54.805-45.491,102.048-100.594,102.052V512
	c70.645-73.617,151.953-154.542,187.529-251.428C461.297,212.121,457.979,156.5,434.44,110.654z"/>
<path style="fill:#979797;" d="M68.492,260.572C104.067,357.458,185.374,438.383,256.02,512V302.531
	c-55.104-0.004-100.595-47.247-100.594-102.052c0.001-55.479,45.116-99.146,100.594-99.15V0
	c-78.379,0.003-145.2,45.876-178.46,110.654C54.021,156.5,50.703,212.121,68.492,260.572z"/>
<path style="fill:#FFDA44;" d="M256,38.773c88.365,0,160,71.633,160,160c0,88.365-71.635,160-160,160c-88.366,0-160-71.635-160-160"
	/>
<g>
	<path style="fill:#D80027;" d="M252.522,109.884h136.527c-8.99-13.429-19.961-25.417-32.491-35.554H252.523v35.554H252.522z"/>
	<path style="fill:#D80027;" d="M252.522,180.996h162.49c-1.363-12.33-4.127-24.234-8.129-35.556H252.522V180.996z"/>
	<path style="fill:#D80027;" d="M105.117,252.107h301.765c4.003-11.321,6.766-23.227,8.129-35.556H96.988
		C98.351,228.879,101.115,240.785,105.117,252.107z"/>
	<path style="fill:#D80027;" d="M155.442,323.217h201.115c12.53-10.138,23.502-22.127,32.491-35.556H122.951
		C131.941,301.09,142.912,313.079,155.442,323.217z"/>
</g>
<path style="fill:#4A1F63;" d="M256,38.773c-88.366,0-160,71.635-160,160.002c36.515-0.002,71.634,0,159.999,0L256,38.773z"/>
<polygon style="fill:#F0F0F0;" points="228.174,122.25 228.174,136.164 221.217,136.164 221.217,122.25 207.305,122.25 
	207.305,136.164 200.348,136.164 200.348,108.337 172.522,108.337 172.522,136.164 165.565,136.164 165.565,122.25 151.652,122.25 
	151.652,136.164 144.695,136.164 144.695,122.25 130.783,122.25 130.783,163.989 242.086,163.989 242.086,122.25 "/>
<path style="fill:#C7C7C7;" d="M255.928,21.707c-73.745,0-141.451,47.552-166.61,116.806
	c-25.343,69.773-3.142,149.836,53.974,197.071c57.236,47.338,140.369,53.625,203.978,15.148
	c63.626-38.49,97.228-114.681,82.271-187.573C414.888,91.771,355.517,35.121,283.472,23.843
	C274.361,22.416,265.141,21.707,255.928,21.707 M398.59,263.184c-30.241,67.009-105.732,104.802-177.479,88.399
	c-55.215-12.621-100.384-55.764-115.778-110.195c-15.749-55.658,1.328-116.804,43.417-156.425
	c45.534-42.867,114.172-54.571,171.321-28.799c68.228,30.767,105.971,108.144,87.651,180.844
	C405.459,245.986,402.37,254.739,398.59,263.184C396.502,267.81,400.132,259.739,398.59,263.184"/>
<g>
</g>
<g>
</g>
<g>
</g>
<g>
</g>
<g>
</g>
<g>
</g>
<g>
</g>
<g>
</g>
<g>
</g>
<g>
</g>
<g>
</g>
<g>
</g>
<g>
</g>
<g>
</g>
<g>
</g>
</svg>
