<?xml version="1.0" encoding="iso-8859-1"?>
<!-- Generator: Adobe Illustrator 19.0.0, SVG Export Plug-In . SVG Version: 6.00 Build 0)  -->
<svg version="1.1" id="Layer_1" xmlns="http://www.w3.org/2000/svg" xmlns:xlink="http://www.w3.org/1999/xlink" x="0px" y="0px"
	 viewBox="0 0 512 512" style="enable-background:new 0 0 512 512;" xml:space="preserve">
<path style="fill:#B3B3B3;" d="M434.44,110.654C401.18,45.876,334.359,0.003,255.98,0v101.329
	c55.478,0.004,100.593,43.67,100.594,99.15c0.001,54.805-45.49,102.048-100.594,102.052V512
	c70.645-73.617,151.953-154.542,187.529-251.428C461.297,212.121,457.979,156.5,434.44,110.654z"/>
<path style="fill:#979797;" d="M68.492,260.572C104.066,357.458,185.374,438.383,256.02,512V302.531
	c-55.104-0.004-100.595-47.247-100.594-102.052c0.001-55.479,45.116-99.146,100.594-99.15V0
	c-78.379,0.003-145.2,45.876-178.46,110.654C54.021,156.5,50.703,212.121,68.492,260.572z"/>
<path style="fill:#FFDA44;" d="M325.565,54.647C304.53,44.477,280.931,38.773,256,38.773c-24.932,0-48.53,5.705-69.565,15.875
	l-13.914,144.125l13.913,144.123c21.036,10.171,44.634,15.877,69.566,15.877c24.931,0,48.53-5.707,69.565-15.877l13.913-144.123
	L325.565,54.647z"/>
<g>
	<path style="fill:#0052B4;" d="M186.435,54.654C132.916,80.533,96,135.34,96,198.773s36.916,118.24,90.435,144.118L186.435,54.654
		L186.435,54.654z"/>
	<path style="fill:#0052B4;" d="M325.565,54.654v288.238C379.084,317.012,416,262.206,416,198.773
		C416,135.34,379.084,80.533,325.565,54.654z"/>
</g>
<path d="M304.695,136.164l9.333,4.665L304.695,136.164l-9.333-4.667c-0.563,1.125-12.75,25.921-14.74,63.796h-14.187v-59.13
	L256,122.25l-10.435,13.915v59.13h-14.187c-1.991-37.875-14.178-62.671-14.74-63.796l-18.667,9.331
	c0.128,0.256,12.812,26.073,12.812,64.9v10.435h34.782v59.13h20.869v-59.13h34.782v-10.435c0-20.075,3.473-36.627,6.388-46.977
	c3.177-11.287,6.403-17.882,6.435-17.946L304.695,136.164z"/>
<path style="fill:#C7C7C7;" d="M255.928,21.707c-73.745,0-141.451,47.552-166.61,116.806
	c-25.343,69.773-3.142,149.836,53.974,197.071c57.236,47.338,140.369,53.625,203.978,15.148
	c63.626-38.49,97.228-114.681,82.271-187.573C414.888,91.771,355.517,35.121,283.472,23.843
	C274.361,22.416,265.141,21.707,255.928,21.707 M398.59,263.184c-30.241,67.009-105.732,104.802-177.479,88.399
	c-55.215-12.621-100.384-55.764-115.778-110.195c-15.749-55.658,1.328-116.804,43.417-156.425
	c45.534-42.867,114.172-54.571,171.321-28.799c68.228,30.767,105.971,108.144,87.651,180.844
	C405.459,245.986,402.37,254.739,398.59,263.184C396.502,267.81,400.132,259.739,398.59,263.184"/>
<g>
</g>
<g>
</g>
<g>
</g>
<g>
</g>
<g>
</g>
<g>
</g>
<g>
</g>
<g>
</g>
<g>
</g>
<g>
</g>
<g>
</g>
<g>
</g>
<g>
</g>
<g>
</g>
<g>
</g>
</svg>
