<?xml version="1.0" encoding="iso-8859-1"?>
<!-- Generator: Adobe Illustrator 19.0.0, SVG Export Plug-In . SVG Version: 6.00 Build 0)  -->
<svg version="1.1" id="Layer_1" xmlns="http://www.w3.org/2000/svg" xmlns:xlink="http://www.w3.org/1999/xlink" x="0px" y="0px"
	 viewBox="0 0 512 512" style="enable-background:new 0 0 512 512;" xml:space="preserve">
<path style="fill:#B3B3B3;" d="M434.439,110.654C401.179,45.876,334.359,0.003,255.98,0v101.329
	c55.478,0.004,100.593,43.671,100.595,99.151c0,54.805-45.491,102.048-100.595,102.051V512
	c70.646-73.617,151.953-154.542,187.529-251.428C461.298,212.121,457.979,156.5,434.439,110.654z"/>
<path style="fill:#979797;" d="M68.492,260.572C104.067,357.458,185.374,438.383,256.02,512V302.531
	c-55.103-0.003-100.595-47.246-100.595-102.051c0.002-55.478,45.117-99.147,100.595-99.151V0
	c-78.379,0.003-145.199,45.876-178.46,110.654C54.021,156.5,50.702,212.121,68.492,260.572z"/>
<circle style="fill:#F0F0F0;" cx="256" cy="198.773" r="160"/>
<g>
	<path style="fill:#D80027;" d="M97.355,219.642c3.723,28.571,14.987,54.767,31.722,76.541l85.184-76.541L97.355,219.642
		L97.355,219.642z"/>
	<path style="fill:#D80027;" d="M235.131,357.418V240.511l-76.54,85.184C180.364,342.431,206.559,353.696,235.131,357.418z"/>
	<path style="fill:#D80027;" d="M235.131,40.126c-28.571,3.723-54.767,14.988-76.54,31.722l76.54,85.185V40.126z"/>
	<path style="fill:#D80027;" d="M97.355,177.903h116.907l-85.184-76.541C112.34,123.135,101.077,149.332,97.355,177.903z"/>
	<path style="fill:#D80027;" d="M276.869,40.126v116.908L353.41,71.85C331.637,55.114,305.441,43.849,276.869,40.126z"/>
	<path style="fill:#D80027;" d="M414.645,177.903c-3.723-28.571-14.988-54.768-31.722-76.541l-85.184,76.541H414.645z"/>
	<path style="fill:#D80027;" d="M297.74,219.642l85.184,76.541c16.734-21.773,27.999-47.97,31.722-76.541L297.74,219.642
		L297.74,219.642z"/>
	<path style="fill:#D80027;" d="M276.869,357.418c28.571-3.722,54.768-14.987,76.541-31.722l-76.541-85.184V357.418z"/>
</g>
<path style="fill:#496E2D;" d="M382.935,296.195l-97.421-97.422v-0.001l97.421-97.422c-4.201-5.46-8.797-10.713-13.798-15.714
	c-5.002-5.002-10.255-9.598-15.714-13.799l-97.422,97.422H256l-97.422-97.422c-5.459,4.201-10.714,8.797-15.715,13.799
	c-5.001,5.002-9.598,10.255-13.798,15.714l97.422,97.422h0.001l-97.423,97.423c4.201,5.459,8.798,10.713,13.798,15.714
	c5.002,5.001,10.256,9.598,15.715,13.799L256,228.287l0,0l97.423,97.422c5.458-4.202,10.713-8.797,15.714-13.799
	C374.14,306.908,378.736,301.654,382.935,296.195z"/>
<path style="fill:#F0F0F0;" d="M276.869,357.418V219.643v-0.001h137.776c0.89-6.831,1.355-13.796,1.355-20.869
	c0-7.072-0.464-14.037-1.355-20.868H276.869l0,0V40.127c-6.831-0.89-13.796-1.356-20.869-1.356
	c-7.073,0.001-14.037,0.466-20.869,1.356l0.001,137.775v0.001H97.355c-0.89,6.83-1.355,13.796-1.355,20.868
	c0.001,7.074,0.465,14.038,1.356,20.869h137.775l0,0l0.001,137.776c6.831,0.89,13.795,1.356,20.868,1.356
	S270.038,358.307,276.869,357.418z"/>
<path style="fill:#C7C7C7;" d="M255.929,21.706c-73.745,0-141.451,47.553-166.61,116.807
	c-25.343,69.773-3.142,149.835,53.974,197.07c57.236,47.338,140.369,53.625,203.978,15.148
	c63.626-38.489,97.228-114.681,82.271-187.573C414.889,91.77,355.517,35.12,283.472,23.842
	C274.361,22.416,265.141,21.706,255.929,21.706 M398.59,263.184c-30.241,67.01-105.732,104.802-177.479,88.399
	c-55.215-12.621-100.384-55.764-115.778-110.195c-15.749-55.658,1.328-116.804,43.417-156.425
	c45.534-42.867,114.172-54.571,171.321-28.799c68.228,30.767,105.971,108.144,87.651,180.845
	C405.459,245.986,402.37,254.739,398.59,263.184C396.502,267.811,400.132,259.739,398.59,263.184"/>
<g>
</g>
<g>
</g>
<g>
</g>
<g>
</g>
<g>
</g>
<g>
</g>
<g>
</g>
<g>
</g>
<g>
</g>
<g>
</g>
<g>
</g>
<g>
</g>
<g>
</g>
<g>
</g>
<g>
</g>
</svg>
