<?xml version="1.0" encoding="iso-8859-1"?>
<!-- Generator: Adobe Illustrator 19.0.0, SVG Export Plug-In . SVG Version: 6.00 Build 0)  -->
<svg version="1.1" id="Layer_1" xmlns="http://www.w3.org/2000/svg" xmlns:xlink="http://www.w3.org/1999/xlink" x="0px" y="0px"
	 viewBox="0 0 512 512" style="enable-background:new 0 0 512 512;" xml:space="preserve">
<path style="fill:#B3B3B3;" d="M434.439,110.654C401.178,45.876,334.359,0.003,255.98,0v101.329
	c55.478,0.004,100.593,43.67,100.595,99.15c0,54.805-45.491,102.048-100.595,102.052V512
	c70.645-73.617,151.953-154.542,187.529-251.428C461.298,212.121,457.979,156.5,434.439,110.654z"/>
<path style="fill:#979797;" d="M68.492,260.572C104.066,357.458,185.374,438.383,256.019,512V302.531
	c-55.104-0.004-100.595-47.247-100.594-102.052c0.001-55.479,45.116-99.146,100.594-99.15V0
	c-78.379,0.003-145.2,45.876-178.46,110.654C54.021,156.5,50.703,212.121,68.492,260.572z"/>
<circle style="fill:#FCFCFC;" cx="256" cy="198.773" r="160"/>
<g>
	<polygon style="fill:#A2001D;" points="162.086,187.178 144.695,155.627 162.086,124.569 179.478,155.627 	"/>
	<polygon style="fill:#A2001D;" points="127.304,187.178 109.912,155.627 127.304,124.569 144.695,155.627 	"/>
	<polygon style="fill:#A2001D;" points="162.086,272.975 144.695,241.423 162.086,210.367 179.478,241.423 	"/>
	<polygon style="fill:#A2001D;" points="127.304,272.975 109.912,241.423 127.304,210.367 144.695,241.423 	"/>
	<path style="fill:#A2001D;" d="M179.478,69.829l-4.924-8.791c-8.831,5.233-17.115,11.292-24.747,18.068l12.278,22.275
		L179.478,69.829z"/>
	<path style="fill:#A2001D;" d="M162.086,296.164l-12.409,22.16c7.626,6.785,15.903,12.852,24.73,18.096l5.071-9.2L162.086,296.164z
		"/>
</g>
<path style="fill:#6DA544;" d="M193.392,240.512v105.537c19.23,8.188,40.388,12.723,62.608,12.723
	c68.794,0,127.442-43.421,150.048-104.348L193.392,240.512z"/>
<path style="fill:#A2001D;" d="M406.048,254.425c6.431-17.333,9.952-36.081,9.952-55.652c0-88.367-71.634-160-160-160
	c-22.219,0-43.378,4.531-62.608,12.717v202.935H406.048z"/>
<path style="fill:#C7C7C7;" d="M255.927,21.707c-73.745,0-141.451,47.552-166.61,116.806
	c-25.343,69.773-3.142,149.836,53.974,197.071c57.236,47.338,140.369,53.625,203.979,15.148
	c63.626-38.49,97.228-114.681,82.271-187.573C414.888,91.771,355.517,35.121,283.472,23.843
	C274.36,22.416,265.141,21.707,255.927,21.707 M398.59,263.184c-30.241,67.009-105.732,104.802-177.479,88.399
	c-55.215-12.621-100.384-55.764-115.778-110.195c-15.749-55.658,1.328-116.804,43.417-156.425
	c45.535-42.867,114.172-54.571,171.321-28.799c68.228,30.767,105.971,108.144,87.651,180.844
	C405.459,245.986,402.37,254.739,398.59,263.184C396.502,267.81,400.132,259.739,398.59,263.184"/>
<g>
</g>
<g>
</g>
<g>
</g>
<g>
</g>
<g>
</g>
<g>
</g>
<g>
</g>
<g>
</g>
<g>
</g>
<g>
</g>
<g>
</g>
<g>
</g>
<g>
</g>
<g>
</g>
<g>
</g>
</svg>
