<?xml version="1.0" encoding="iso-8859-1"?>
<!-- Generator: Adobe Illustrator 19.0.0, SVG Export Plug-In . SVG Version: 6.00 Build 0)  -->
<svg version="1.1" id="Layer_1" xmlns="http://www.w3.org/2000/svg" xmlns:xlink="http://www.w3.org/1999/xlink" x="0px" y="0px"
	 viewBox="0 0 512 512" style="enable-background:new 0 0 512 512;" xml:space="preserve">
<path style="fill:#B3B3B3;" d="M434.439,110.654C401.178,45.876,334.359,0.003,255.98,0v101.329
	c55.478,0.004,100.593,43.67,100.595,99.15c0,54.805-45.491,102.048-100.595,102.052V512
	c70.645-73.617,151.953-154.542,187.529-251.428C461.298,212.121,457.979,156.5,434.439,110.654z"/>
<path style="fill:#979797;" d="M68.492,260.572C104.066,357.458,185.374,438.383,256.019,512V302.531
	c-55.104-0.004-100.595-47.247-100.594-102.052c0.001-55.479,45.116-99.146,100.594-99.15V0
	c-78.379,0.003-145.2,45.876-178.46,110.654C54.021,156.5,50.703,212.121,68.492,260.572z"/>
<path style="fill:#0052B4;" d="M416,198.773c0-54.912-27.669-103.358-69.821-132.175L256,59.642l-90.18,6.956
	C123.668,95.414,96,143.86,96,198.773s27.669,103.358,69.82,132.173l90.18,6.956l90.179-6.957
	C388.331,302.131,416,253.685,416,198.773z"/>
<g>
	<path style="fill:#A2001D;" d="M346.179,66.598C320.501,49.045,289.452,38.773,256,38.773s-64.501,10.273-90.18,27.825
		C165.82,66.598,346.179,66.598,346.179,66.598z"/>
	<path style="fill:#A2001D;" d="M165.82,330.946c25.679,17.554,56.729,27.827,90.18,27.827s64.501-10.273,90.179-27.827H165.82z"/>
</g>
<circle style="fill:#F0F0F0;" cx="256" cy="198.773" r="76.523"/>
<circle style="fill:#6DA544;" cx="256" cy="198.773" r="62.608"/>
<circle style="fill:#F0F0F0;" cx="256" cy="198.773" r="41.739"/>
<polygon style="fill:#0052B4;" points="256,188.337 233.392,198.773 233.392,216.164 256,230.077 278.608,216.164 278.608,198.773 
	"/>
<rect x="233.397" y="177.899" style="fill:#FFDA44;" width="45.216" height="20.87"/>
<path style="fill:#C7C7C7;" d="M255.927,21.707c-73.745,0-141.451,47.552-166.61,116.806
	c-25.343,69.773-3.142,149.836,53.974,197.071c57.236,47.338,140.369,53.625,203.979,15.148
	c63.626-38.49,97.228-114.681,82.271-187.573C414.888,91.771,355.517,35.121,283.472,23.843
	C274.36,22.416,265.141,21.707,255.927,21.707 M398.59,263.184c-30.241,67.009-105.732,104.802-177.479,88.399
	c-55.215-12.621-100.384-55.764-115.778-110.195c-15.749-55.658,1.328-116.804,43.417-156.425
	c45.535-42.867,114.172-54.571,171.321-28.799c68.228,30.767,105.971,108.144,87.651,180.844
	C405.459,245.986,402.37,254.739,398.59,263.184C396.502,267.81,400.132,259.739,398.59,263.184"/>
<g>
</g>
<g>
</g>
<g>
</g>
<g>
</g>
<g>
</g>
<g>
</g>
<g>
</g>
<g>
</g>
<g>
</g>
<g>
</g>
<g>
</g>
<g>
</g>
<g>
</g>
<g>
</g>
<g>
</g>
</svg>
