<?xml version="1.0" encoding="iso-8859-1"?>
<!-- Generator: Adobe Illustrator 19.0.0, SVG Export Plug-In . SVG Version: 6.00 Build 0)  -->
<svg version="1.1" id="Layer_1" xmlns="http://www.w3.org/2000/svg" xmlns:xlink="http://www.w3.org/1999/xlink" x="0px" y="0px"
	 viewBox="0 0 512 512" style="enable-background:new 0 0 512 512;" xml:space="preserve">
<path style="fill:#B3B3B3;" d="M434.439,110.654C401.179,45.876,334.359,0.003,255.98,0v101.329
	c55.478,0.004,100.593,43.67,100.595,99.15c0,54.805-45.491,102.048-100.595,102.052V512
	c70.646-73.617,151.953-154.542,187.529-251.428C461.298,212.121,457.979,156.5,434.439,110.654z"/>
<path style="fill:#979797;" d="M68.492,260.572C104.067,357.458,185.374,438.383,256.02,512V302.531
	c-55.103-0.004-100.595-47.247-100.595-102.052c0.002-55.479,45.117-99.146,100.595-99.15V0
	c-78.379,0.003-145.199,45.876-178.46,110.654C54.021,156.5,50.702,212.121,68.492,260.572z"/>
<path style="fill:#D80027;" d="M416,198.773c0,88.365-71.634,160-160,160s-160-71.635-160-160c0,0.037,160-159.983,160-160
	C344.366,38.773,416,110.406,416,198.773z"/>
<g>
	<polygon style="fill:#0052B4;" points="256,115.294 256,169.259 200.348,115.294 	"/>
	<polygon style="fill:#0052B4;" points="179.478,198.773 226.485,198.773 179.478,136.164 172.522,184.861 	"/>
</g>
<g>
	<path style="fill:#F0F0F0;" d="M256,38.773c-0.01,0-0.018,0-0.027,0H256L256,38.773z"/>
	<path style="fill:#F0F0F0;" d="M255.572,198.773H256c0-0.144,0-0.284,0-0.429C255.857,198.487,255.714,198.629,255.572,198.773z"/>
	<path style="fill:#F0F0F0;" d="M256,122.25c0-28.153,0-46.601,0-83.477h-0.027C167.62,38.787,96,110.417,96,198.773h83.478v-47.006
		l47.007,47.006h29.087c0.143-0.144,0.286-0.286,0.428-0.429c0-10.779,0-20.396,0-29.086l-47.008-47.008H256V122.25z"/>
</g>
<g>
	<path style="fill:#D80027;" d="M176.947,59.642c-25.024,14.25-45.828,35.054-60.077,60.077v86.011h41.739V101.383v-0.002h104.348
		c0-13.165,0-25.707,0-41.74C262.957,59.642,176.947,59.642,176.947,59.642z"/>
	<path style="fill:#D80027;" d="M262.361,185.456l-63.207-63.206h-19.675v0.002l82.88,82.881h0.002
		C262.361,205.134,262.361,191.567,262.361,185.456z"/>
</g>
<path style="fill:#F3F3F3;" d="M276.869,122.25v76.521c0,37.277,97.391,37.277,97.391,0V122.25H276.869z"/>
<path style="fill:#6DA544;" d="M276.869,198.773v-0.002c0,37.277,48.694,48.698,48.694,48.698s48.695-11.421,48.695-48.698v0.002
	L276.869,198.773L276.869,198.773z"/>
<polygon style="fill:#A2001D;" points="325.565,168.164 302.957,177.902 302.957,198.773 325.565,212.686 348.174,198.773 
	348.174,177.902 "/>
<rect x="302.955" y="157.035" style="fill:#338AF3;" width="45.216" height="20.868"/>
<path style="fill:#C7C7C7;" d="M255.929,21.707c-73.745,0-141.451,47.552-166.61,116.806
	c-25.343,69.773-3.142,149.836,53.974,197.071c57.236,47.338,140.369,53.625,203.978,15.148
	c63.626-38.49,97.228-114.681,82.271-187.573C414.889,91.771,355.517,35.121,283.472,23.843
	C274.361,22.416,265.141,21.707,255.929,21.707 M398.59,263.184c-30.241,67.009-105.732,104.802-177.479,88.399
	c-55.215-12.621-100.384-55.764-115.778-110.195c-15.749-55.658,1.328-116.804,43.417-156.425
	c45.534-42.867,114.172-54.571,171.321-28.799c68.228,30.767,105.971,108.144,87.651,180.844
	C405.459,245.986,402.37,254.739,398.59,263.184C396.502,267.81,400.132,259.739,398.59,263.184"/>
<g>
</g>
<g>
</g>
<g>
</g>
<g>
</g>
<g>
</g>
<g>
</g>
<g>
</g>
<g>
</g>
<g>
</g>
<g>
</g>
<g>
</g>
<g>
</g>
<g>
</g>
<g>
</g>
<g>
</g>
</svg>
