<?xml version="1.0" encoding="iso-8859-1"?>
<!-- Generator: Adobe Illustrator 19.0.0, SVG Export Plug-In . SVG Version: 6.00 Build 0)  -->
<svg version="1.1" id="Layer_1" xmlns="http://www.w3.org/2000/svg" xmlns:xlink="http://www.w3.org/1999/xlink" x="0px" y="0px"
	 viewBox="0 0 512 512" style="enable-background:new 0 0 512 512;" xml:space="preserve">
<path style="fill:#B3B3B3;" d="M434.439,110.654C401.178,45.876,334.359,0.003,255.98,0v101.329
	c55.478,0.004,100.593,43.671,100.595,99.15c0,54.805-45.491,102.048-100.595,102.052V512
	c70.645-73.617,151.953-154.542,187.529-251.428C461.298,212.121,457.979,156.5,434.439,110.654z"/>
<path style="fill:#979797;" d="M68.492,260.572C104.066,357.458,185.374,438.383,256.019,512V302.531
	c-55.104-0.004-100.595-47.247-100.594-102.052c0.001-55.478,45.116-99.146,100.594-99.15V0
	C177.64,0.003,110.82,45.876,77.559,110.654C54.021,156.5,50.703,212.121,68.492,260.572z"/>
<path style="fill:#FFDA44;" d="M369.137,312.618c-62.484,62.483-163.79,62.483-226.274,0c-62.484-62.484-62.484-163.792,0-226.275
	c0.022,0,143.787-42.479,206.271,20.004C411.617,168.83,369.181,312.574,369.137,312.618z"/>
<path style="fill:#D80027;" d="M369.137,312.618c62.484-62.484,62.484-163.792,0-226.275s-163.79-62.483-226.274,0L369.137,312.618z
	"/>
<path style="fill:#FF9811;" d="M297.822,241.317c-6.573,2.581-14.21,2.308-20.835-1.41c-11.706-6.571-15.885-21.442-9.313-33.15
	l-1.996-1.119c20.045-4.833,34.874-23.027,34.613-44.497c-0.161-13.348-6.126-25.29-15.455-33.461l-14.608,14.966
	c5.523,4.401,9.103,11.152,9.196,18.748c0.163,13.424-10.626,24.479-24.05,24.641l0.028,2.287
	c-14.208-14.941-37.378-18.688-55.842-7.727c-11.478,6.816-18.837,17.95-21.251,30.115l20.266,5.17
	c1.051-6.986,5.106-13.461,11.638-17.34c11.545-6.852,26.512-3.037,33.365,8.509l1.968-1.167
	c-5.837,19.775,2.505,41.713,21.228,52.223c11.642,6.533,24.963,7.34,36.706,3.346L297.822,241.317z M255.542,199.947
	L255.542,199.947h-0.001H255.542z"/>
<path style="fill:#FFEACF;" d="M315.241,147.844l-11.309,40.356l-33.932-6.266l-21.842-45.022l-59.005,20.939l-4.654-13.113
	l-15.438-1.902l11.632,32.781l40.606-10.385l11.539,32.518l-28.07,41.425l47.635,40.629l-9.029,10.586l6.071,14.323l22.574-26.465
	l-29.296-29.973l22.391-26.252l49.911,3.596l11.367-61.569l13.682,2.527l9.369-12.42L315.241,147.844z M255.987,200.569
	L255.987,200.569L255.987,200.569L255.987,200.569z"/>
<path style="fill:#C7C7C7;" d="M255.927,21.707c-73.745,0-141.451,47.552-166.61,116.806
	c-25.343,69.773-3.142,149.836,53.974,197.071c57.236,47.338,140.369,53.625,203.979,15.148
	c63.626-38.49,97.228-114.681,82.271-187.573C414.888,91.771,355.517,35.121,283.472,23.843
	C274.36,22.416,265.141,21.707,255.927,21.707 M398.59,263.184c-30.241,67.009-105.732,104.802-177.479,88.399
	c-55.215-12.621-100.384-55.764-115.778-110.195c-15.749-55.658,1.328-116.804,43.417-156.425
	c45.535-42.867,114.172-54.571,171.321-28.799c68.228,30.767,105.971,108.144,87.651,180.844
	C405.459,245.986,402.37,254.739,398.59,263.184C396.502,267.81,400.132,259.739,398.59,263.184"/>
<g>
</g>
<g>
</g>
<g>
</g>
<g>
</g>
<g>
</g>
<g>
</g>
<g>
</g>
<g>
</g>
<g>
</g>
<g>
</g>
<g>
</g>
<g>
</g>
<g>
</g>
<g>
</g>
<g>
</g>
</svg>
