<?xml version="1.0" encoding="iso-8859-1"?>
<!-- Generator: Adobe Illustrator 19.0.0, SVG Export Plug-In . SVG Version: 6.00 Build 0)  -->
<svg version="1.1" id="Layer_1" xmlns="http://www.w3.org/2000/svg" xmlns:xlink="http://www.w3.org/1999/xlink" x="0px" y="0px"
	 viewBox="0 0 512 512" style="enable-background:new 0 0 512 512;" xml:space="preserve">
<path style="fill:#B3B3B3;" d="M434.439,110.654C401.179,45.876,334.359,0.003,255.98,0v101.329
	c55.478,0.004,100.593,43.67,100.595,99.15c0,54.805-45.491,102.048-100.595,102.052V512
	c70.646-73.617,151.953-154.542,187.529-251.428C461.298,212.121,457.979,156.5,434.439,110.654z"/>
<path style="fill:#979797;" d="M68.492,260.572C104.067,357.458,185.374,438.383,256.02,512V302.531
	c-55.103-0.004-100.595-47.247-100.595-102.052c0.002-55.479,45.117-99.146,100.595-99.15V0
	c-78.379,0.003-145.199,45.876-178.46,110.654C54.021,156.5,50.702,212.121,68.492,260.572z"/>
<circle style="fill:#F0F0F0;" cx="256" cy="198.773" r="160"/>
<path style="fill:#FFDA44;" d="M142.863,85.635c-34.29,34.289-49.758,80.273-46.412,125.115L267.979,39.222
	C223.135,35.877,177.153,51.344,142.863,85.635z"/>
<path style="fill:#0052B4;" d="M153.132,321.316c62.864,52.89,156.837,49.762,216.006-9.406s62.297-153.143,9.407-216.006
	L153.132,321.316z"/>
<path d="M255.429,192.33l13.789-7.469l-13.789-7.469c-3.219-20.914-19.743-37.438-40.656-40.656l-7.469-13.79l-7.469,13.79
	c-20.912,3.219-37.437,19.742-40.656,40.656l-13.788,7.469l13.788,7.469c3.219,20.912,19.744,37.438,40.656,40.656l7.469,13.788
	l7.469-13.788C235.686,229.766,252.21,213.242,255.429,192.33z M207.305,212.686c-15.367,0-27.826-12.459-27.826-27.825
	c0-15.369,12.459-27.827,27.826-27.827c15.369,0,27.826,12.459,27.826,27.827C235.131,200.227,222.673,212.686,207.305,212.686z"/>
<polygon style="fill:#D80027;" points="207.305,163.989 213.329,174.425 225.378,174.425 219.354,184.861 225.378,195.294 
	213.329,195.294 207.305,205.729 201.28,195.294 189.231,195.294 195.255,184.861 189.231,174.425 201.28,174.425 "/>
<path style="fill:#C7C7C7;" d="M255.929,21.707c-73.745,0-141.451,47.552-166.61,116.806
	c-25.343,69.773-3.142,149.836,53.974,197.071c57.236,47.338,140.369,53.625,203.978,15.148
	c63.626-38.49,97.228-114.681,82.271-187.573C414.889,91.771,355.517,35.121,283.472,23.843
	C274.361,22.416,265.141,21.707,255.929,21.707 M398.59,263.184c-30.241,67.009-105.732,104.802-177.479,88.399
	c-55.215-12.621-100.384-55.764-115.778-110.195c-15.749-55.658,1.328-116.804,43.417-156.425
	c45.534-42.867,114.172-54.571,171.321-28.799c68.228,30.767,105.971,108.144,87.651,180.844
	C405.459,245.986,402.37,254.739,398.59,263.184C396.502,267.81,400.132,259.739,398.59,263.184"/>
<g>
</g>
<g>
</g>
<g>
</g>
<g>
</g>
<g>
</g>
<g>
</g>
<g>
</g>
<g>
</g>
<g>
</g>
<g>
</g>
<g>
</g>
<g>
</g>
<g>
</g>
<g>
</g>
<g>
</g>
</svg>
