<?xml version="1.0" encoding="iso-8859-1"?>
<!-- Generator: Adobe Illustrator 19.0.0, SVG Export Plug-In . SVG Version: 6.00 Build 0)  -->
<svg version="1.1" id="Layer_1" xmlns="http://www.w3.org/2000/svg" xmlns:xlink="http://www.w3.org/1999/xlink" x="0px" y="0px"
	 viewBox="0 0 512 512" style="enable-background:new 0 0 512 512;" xml:space="preserve">
<path style="fill:#B3B3B3;" d="M434.439,110.654C401.179,45.876,334.359,0.003,255.98,0v101.329
	c55.478,0.004,100.593,43.67,100.595,99.15c0,54.805-45.491,102.048-100.595,102.052V512
	c70.646-73.617,151.953-154.542,187.529-251.428C461.298,212.121,457.979,156.5,434.439,110.654z"/>
<path style="fill:#979797;" d="M68.492,260.572C104.067,357.458,185.374,438.383,256.02,512V302.531
	c-55.103-0.004-100.595-47.247-100.595-102.052c0.002-55.479,45.117-99.146,100.595-99.15V0
	c-78.379,0.003-145.199,45.876-178.46,110.654C54.021,156.5,50.702,212.121,68.492,260.572z"/>
<circle style="fill:#F0F0F0;" cx="256" cy="198.773" r="160"/>
<path style="fill:#FFDA44;" d="M256,38.773c-56.732,0-106.562,29.527-134.973,74.05l216.975,223.356
	C384.717,308.24,416,257.163,416,198.773C416,110.406,344.366,38.773,256,38.773z"/>
<g>
	<path style="fill:#0052B4;" d="M416,198.773c0-41.515-15.812-79.331-41.74-107.769V306.54C400.188,278.105,416,240.286,416,198.773
		z"/>
	<path style="fill:#0052B4;" d="M295.869,339.943l16.758-0.011l5.171-15.943l5.188,15.937l8.406-0.004
		c5.154-2.761,10.14-5.794,14.938-9.082l-222.399-222.4c-3.665,5.348-7.008,10.931-10.014,16.719l1.977,6.07l16.761-0.011
		l-13.554,9.86l5.189,15.935l-13.566-9.842l-8.091,5.884C98.321,167.543,96,182.887,96,198.773c0,88.365,71.634,160,160,160
		c18.684,0,36.614-3.209,53.281-9.095L295.869,339.943z M131.687,191.817l5.168-15.943l-13.564-9.844l16.759-0.009l5.17-15.943
		l5.188,15.937l16.759-0.011l-13.552,9.858l5.188,15.937l-13.566-9.844L131.687,191.817z M166.202,226.598l5.169-15.941
		l-13.564-9.844l16.759-0.011l5.17-15.941l5.188,15.935l16.761-0.011l-13.554,9.86l5.189,15.937l-13.566-9.844L166.202,226.598z
		 M200.717,261.381l5.169-15.941l-13.564-9.844l16.759-0.011l5.17-15.943l5.188,15.937l16.761-0.011l-13.553,9.858l5.188,15.937
		l-13.565-9.844L200.717,261.381z M248.785,286.304l-13.553,9.86l5.169-15.943l-13.564-9.844l16.758-0.011l5.171-15.941
		l5.188,15.937l16.759-0.011l-13.553,9.858l5.188,15.937L248.785,286.304z M269.748,330.946l5.169-15.941l-13.565-9.844
		l16.761-0.011l5.169-15.941l5.189,15.935l16.759-0.011l-13.553,9.86l5.189,15.935l-13.566-9.842L269.748,330.946z"/>
</g>
<path style="fill:#C7C7C7;" d="M255.929,21.707c-73.745,0-141.451,47.552-166.61,116.806
	c-25.343,69.773-3.142,149.836,53.974,197.071c57.236,47.338,140.369,53.625,203.978,15.148
	c63.626-38.49,97.228-114.681,82.271-187.573C414.889,91.771,355.517,35.121,283.472,23.843
	C274.361,22.416,265.141,21.707,255.929,21.707 M398.59,263.184c-30.241,67.009-105.732,104.802-177.479,88.399
	c-55.215-12.621-100.384-55.764-115.778-110.195c-15.749-55.658,1.328-116.804,43.417-156.425
	c45.534-42.867,114.172-54.571,171.321-28.799c68.228,30.767,105.971,108.144,87.651,180.844
	C405.459,245.986,402.37,254.739,398.59,263.184C396.502,267.81,400.132,259.739,398.59,263.184"/>
<g>
</g>
<g>
</g>
<g>
</g>
<g>
</g>
<g>
</g>
<g>
</g>
<g>
</g>
<g>
</g>
<g>
</g>
<g>
</g>
<g>
</g>
<g>
</g>
<g>
</g>
<g>
</g>
<g>
</g>
</svg>
