<?xml version="1.0" encoding="iso-8859-1"?>
<!-- Generator: Adobe Illustrator 19.0.0, SVG Export Plug-In . SVG Version: 6.00 Build 0)  -->
<svg version="1.1" id="Layer_1" xmlns="http://www.w3.org/2000/svg" xmlns:xlink="http://www.w3.org/1999/xlink" x="0px" y="0px"
	 viewBox="0 0 512 512" style="enable-background:new 0 0 512 512;" xml:space="preserve">
<path style="fill:#B3B3B3;" d="M434.439,110.654C401.178,45.876,334.359,0.003,255.98,0v101.329
	c55.478,0.004,100.593,43.67,100.595,99.15c0,54.805-45.491,102.048-100.595,102.052V512
	c70.645-73.617,151.953-154.542,187.529-251.428C461.298,212.121,457.979,156.5,434.439,110.654z"/>
<path style="fill:#979797;" d="M68.492,260.572C104.066,357.458,185.374,438.383,256.019,512V302.531
	c-55.104-0.004-100.595-47.247-100.594-102.052c0.001-55.479,45.116-99.146,100.594-99.15V0
	c-78.379,0.003-145.2,45.876-178.46,110.654C54.021,156.5,50.703,212.121,68.492,260.572z"/>
<circle style="fill:#F0F0F0;" cx="256" cy="198.773" r="160"/>
<g>
	<path style="fill:#0052B4;" d="M389.331,217.921c-13.332,0-13.332-12.192-26.667-12.192c-13.333,0-13.333,12.192-26.666,12.192
		c-13.333,0-13.333-12.192-26.666-12.192c-13.333,0-13.333,12.192-26.668,12.192c-13.334,0-13.334-12.192-26.668-12.192
		s-13.333,12.192-26.667,12.192c-13.331,0-13.331-12.192-26.663-12.192c-13.334,0-13.334,12.192-26.668,12.192
		c-13.334,0-13.334-12.192-26.669-12.192c-13.331,0-13.331,12.192-26.665,12.192c-13.261,0-13.338-12.057-26.458-12.186
		c0.37,7.318,1.244,14.505,2.564,21.532c10.627,1.561,11.558,11.987,23.893,11.987c13.333,0,13.333-12.192,26.665-12.192
		c13.334,0,13.334,12.192,26.669,12.192c13.333,0,13.333-12.192,26.668-12.192c13.332,0,13.332,12.192,26.663,12.192
		c13.333,0,13.333-12.192,26.667-12.192c13.333,0,13.333,12.192,26.668,12.192c13.334,0,13.334-12.192,26.668-12.192
		c13.332,0,13.332,12.192,26.666,12.192c13.332,0,13.332-12.192,26.666-12.192c13.334,0,13.334,12.192,26.667,12.192
		c12.337,0,13.268-10.427,23.895-11.987c1.322-7.027,2.194-14.212,2.564-21.532C402.671,205.865,402.593,217.921,389.331,217.921z"
		/>
	<path style="fill:#0052B4;" d="M362.664,247.469c-13.333,0-13.333,12.192-26.666,12.192c-13.333,0-13.333-12.192-26.666-12.192
		c-13.333,0-13.333,12.192-26.668,12.192c-13.334,0-13.334-12.192-26.668-12.192s-13.333,12.192-26.667,12.192
		c-13.331,0-13.331-12.192-26.663-12.192c-13.334,0-13.334,12.192-26.668,12.192c-13.334,0-13.334-12.192-26.669-12.192
		c-13.331,0-13.331,12.192-26.665,12.192c-9.822,0-12.416-6.612-18.429-10.094c3.643,10.887,8.427,21.248,14.205,30.95
		c1.251,0.302,2.643,0.477,4.224,0.477c13.333,0,13.333-12.192,26.665-12.192c13.334,0,13.334,12.192,26.669,12.192
		c13.333,0,13.333-12.192,26.668-12.192c13.332,0,13.332,12.192,26.663,12.192c13.333,0,13.333-12.192,26.667-12.192
		c13.333,0,13.333,12.192,26.668,12.192c13.334,0,13.334-12.192,26.668-12.192c13.332,0,13.332,12.192,26.666,12.192
		c13.332,0,13.332-12.192,26.666-12.192c13.334,0,13.334,12.192,26.667,12.192c1.583,0,2.976-0.175,4.227-0.477
		c5.779-9.702,10.562-20.065,14.204-30.95c-6.014,3.482-8.607,10.094-18.431,10.094
		C375.999,259.661,375.999,247.469,362.664,247.469z"/>
	<path style="fill:#0052B4;" d="M412.278,164.361c-9.746,2.022-10.989,11.821-22.947,11.821c-13.332,0-13.332-12.192-26.667-12.192
		c-13.333,0-13.333,12.192-26.666,12.192c-13.333,0-13.333-12.192-26.666-12.192c-13.333,0-13.333,12.192-26.668,12.192
		c-13.334,0-13.334-12.192-26.668-12.192c-7.204,0-10.516,3.561-14.142,6.831v21.333c3.626-3.27,6.938-6.829,14.142-6.829
		c13.333,0,13.333,12.19,26.668,12.19c13.334,0,13.334-12.19,26.668-12.19c13.332,0,13.332,12.19,26.666,12.19
		c13.332,0,13.332-12.19,26.666-12.19c13.334,0,13.334,12.19,26.667,12.19c12.337,0,13.268-10.427,23.895-11.987
		c0.682,0,1.443-0.006,2.222-0.017C414.858,178.315,413.79,171.257,412.278,164.361z"/>
	<path style="fill:#0052B4;" d="M400.59,130.194c-2.763,2.321-5.956,4.247-11.259,4.247c-13.332,0-13.332-12.192-26.667-12.192
		c-13.333,0-13.333,12.192-26.666,12.192c-13.333,0-13.333-12.192-26.666-12.192c-13.333,0-13.333,12.192-26.668,12.192
		c-13.334,0-13.334-12.192-26.668-12.192c-7.204,0-10.516,3.561-14.142,6.833v21.331c3.626-3.27,6.938-6.829,14.142-6.829
		c13.333,0,13.333,12.19,26.668,12.19c13.334,0,13.334-12.19,26.668-12.19c13.332,0,13.332,12.19,26.666,12.19
		c13.332,0,13.332-12.19,26.666-12.19c13.334,0,13.334,12.19,26.667,12.19c9.46,0,12.217-6.127,17.779-9.692
		C405.215,140.647,403.038,135.344,400.59,130.194z"/>
	<path style="fill:#0052B4;" d="M363.802,80.544c-0.37-0.019-0.747-0.031-1.138-0.031c-13.333,0-13.333,12.192-26.666,12.192
		c-13.333,0-13.333-12.192-26.666-12.192C296,80.513,296,92.705,282.665,92.705c-13.334,0-13.334-12.192-26.668-12.192
		c-7.204,0-10.516,3.558-14.142,6.831v21.333c3.626-3.273,6.938-6.831,14.142-6.831c13.333,0,13.333,12.19,26.668,12.19
		c13.334,0,13.334-12.191,26.668-12.191c13.332,0,13.332,12.19,26.666,12.19c13.332,0,13.332-12.19,26.666-12.19
		c13.334,0,13.334,12.19,26.667,12.19c0.822,0,1.588-0.048,2.315-0.135C383.901,101.548,374.522,90.325,363.802,80.544z"/>
	<polygon style="fill:#0052B4;" points="255.997,38.773 255.996,38.773 255.998,38.773 	"/>
	<path style="fill:#0052B4;" d="M296.896,44.057c-3.661,3.292-6.967,6.909-14.23,6.909c-13.334,0-13.334-12.19-26.668-12.192h-0.002
		c-6.895,0.002-10.224,3.263-13.677,6.411v21.333c3.452-3.148,6.782-6.411,13.679-6.411c13.333,0,13.333,12.192,26.668,12.192
		c13.334,0,13.334-12.192,26.668-12.192c13.332,0,13.332,12.192,26.666,12.192c5.594,0,8.839-2.148,11.71-4.64
		C332.498,57.001,315.349,48.921,296.896,44.057z"/>
	<path style="fill:#0052B4;" d="M282.665,343.137c-13.334,0-13.334-12.192-26.668-12.192s-13.333,12.192-26.667,12.192
		c-13.331,0-13.331-12.192-26.663-12.192c-10.213,0-12.609,7.148-19.158,10.496c18.063,9.196,38.105,15.058,59.316,16.787
		c3.281-2.998,6.612-5.948,13.172-5.948c6.561,0,9.892,2.95,13.173,5.948c21.214-1.729,41.257-7.589,59.321-16.787
		c-6.551-3.348-8.947-10.496-19.158-10.496C296,330.946,296,343.137,282.665,343.137z"/>
	<path style="fill:#0052B4;" d="M335.999,301.401c-13.333,0-13.333-12.192-26.666-12.192c-13.333,0-13.333,12.192-26.668,12.192
		c-13.334,0-13.334-12.192-26.668-12.192s-13.333,12.192-26.667,12.192c-13.331,0-13.331-12.192-26.663-12.192
		c-13.334,0-13.334,12.192-26.668,12.192c-13.334,0-13.334-12.192-26.669-12.192c-9.588,0-12.281,6.304-17.997,9.845
		c3.583,4.448,7.392,8.708,11.422,12.746c1.806-0.773,3.924-1.259,6.574-1.259c13.334,0,13.334,12.19,26.669,12.19
		c13.333,0,13.333-12.19,26.668-12.19c13.332,0,13.332,12.19,26.663,12.19c13.333,0,13.333-12.19,26.667-12.19
		c13.333,0,13.333,12.19,26.668,12.19s13.335-12.189,26.669-12.189c13.332,0,13.332,12.19,26.666,12.19
		c13.332,0,13.332-12.19,26.666-12.19c2.652,0,4.772,0.487,6.578,1.261c4.031-4.039,7.84-8.298,11.422-12.746
		c-5.716-3.541-8.41-9.847-18-9.847C349.331,289.209,349.331,301.401,335.999,301.401z"/>
</g>
<g>
	<path style="fill:#F0F0F0;" d="M256,38.773c-0.01,0-0.018,0-0.027,0H256L256,38.773z"/>
	<path style="fill:#F0F0F0;" d="M255.571,198.773H256c0-0.144,0-0.284,0-0.429C255.857,198.487,255.714,198.629,255.571,198.773z"/>
</g>
<path style="fill:#496E2D;" d="M276.869,198.773L276.869,198.773L276.869,198.773z"/>
<g>
	<polygon style="fill:#0052B4;" points="256,122.25 256,169.259 200.348,115.294 	"/>
	<polygon style="fill:#0052B4;" points="179.478,198.773 226.485,198.773 179.478,136.164 172.521,184.861 	"/>
</g>
<path style="fill:#F0F0F0;" d="M256,122.25c0-28.153,0-46.601,0-83.477h-0.027C167.619,38.787,96,110.417,96,198.773h83.478v-47.006
	l47.007,47.006h29.086c0.143-0.144,0.286-0.286,0.428-0.429c0-10.779,0-20.396,0-29.086l-47.008-47.008H256V122.25z"/>
<g>
	<path style="fill:#D80027;" d="M176.947,59.642c-25.024,14.25-45.828,35.054-60.077,60.077v79.054h41.74v-97.389v-0.002H256
		c0-13.165,0-25.707,0-41.74C256,59.642,176.947,59.642,176.947,59.642z"/>
	<path style="fill:#D80027;" d="M256,179.095l-56.847-56.846h-19.675v0.002l76.521,76.521H256C256,198.773,256,185.206,256,179.095z
		"/>
</g>
<polygon style="fill:#6DA544;" points="304.695,122.25 367.304,122.25 336,153.556 "/>
<g>
	<rect x="329.045" y="146.603" style="fill:#A2001D;" width="13.909" height="38.262"/>
	<rect x="329.045" y="247.467" style="fill:#A2001D;" width="13.909" height="38.26"/>
</g>
<path style="fill:#FFDA44;" d="M377.74,226.598c0-11.525-9.344-20.868-20.869-20.868c-5.347,0-10.22,2.013-13.914,5.318v-12.275
	h6.957v-13.913h-6.957v-6.958h-13.913v6.958h-6.956v13.913h6.956v12.275c-3.694-3.307-8.566-5.318-13.914-5.318
	c-11.526,0-20.87,9.344-20.87,20.868c0,6.179,2.689,11.731,6.958,15.552v12.275h69.565V242.15
	C375.05,238.33,377.74,232.778,377.74,226.598z"/>
<path style="fill:#D80027;" d="M356.869,219.642c-2.195,0-3.731,0.964-4.635,1.771l-9.279,8.308h-13.913l-9.279-8.308
	c-0.903-0.806-2.439-1.771-4.635-1.771c-3.836,0-6.957,3.121-6.957,6.956c0,2.702,1.456,4.411,2.325,5.187l4.631,4.148v4.579h41.74
	v-4.579l4.631-4.148c0.868-0.778,2.325-2.485,2.325-5.187C363.826,222.763,360.705,219.642,356.869,219.642z"/>
<path style="fill:#C7C7C7;" d="M255.927,21.707c-73.745,0-141.451,47.552-166.61,116.806
	c-25.343,69.773-3.142,149.836,53.974,197.071c57.236,47.338,140.369,53.625,203.979,15.148
	c63.626-38.49,97.228-114.681,82.271-187.573C414.888,91.771,355.517,35.121,283.472,23.843
	C274.36,22.416,265.141,21.707,255.927,21.707 M398.59,263.184c-30.241,67.009-105.732,104.802-177.479,88.399
	c-55.215-12.621-100.384-55.764-115.778-110.195c-15.749-55.658,1.328-116.804,43.417-156.425
	c45.535-42.867,114.172-54.571,171.321-28.799c68.228,30.767,105.971,108.144,87.651,180.844
	C405.459,245.986,402.37,254.739,398.59,263.184C396.502,267.81,400.132,259.739,398.59,263.184"/>
<g>
</g>
<g>
</g>
<g>
</g>
<g>
</g>
<g>
</g>
<g>
</g>
<g>
</g>
<g>
</g>
<g>
</g>
<g>
</g>
<g>
</g>
<g>
</g>
<g>
</g>
<g>
</g>
<g>
</g>
</svg>
