<?xml version="1.0" encoding="iso-8859-1"?>
<!-- Generator: Adobe Illustrator 19.0.0, SVG Export Plug-In . SVG Version: 6.00 Build 0)  -->
<svg version="1.1" id="Layer_1" xmlns="http://www.w3.org/2000/svg" xmlns:xlink="http://www.w3.org/1999/xlink" x="0px" y="0px"
	 viewBox="0 0 512 512" style="enable-background:new 0 0 512 512;" xml:space="preserve">
<path style="fill:#B3B3B3;" d="M434.44,110.654C401.18,45.876,334.359,0.003,255.98,0v101.329
	c55.478,0.004,100.593,43.671,100.594,99.151c0.001,54.805-45.491,102.048-100.594,102.051V512
	c70.645-73.617,151.953-154.542,187.529-251.428C461.297,212.121,457.979,156.5,434.44,110.654z"/>
<path style="fill:#979797;" d="M68.492,260.572C104.067,357.458,185.374,438.383,256.02,512V302.531
	c-55.104-0.003-100.595-47.246-100.594-102.051c0.001-55.478,45.116-99.147,100.594-99.151V0
	c-78.379,0.003-145.2,45.876-178.46,110.654C54.021,156.5,50.703,212.121,68.492,260.572z"/>
<path style="fill:#F0F0F0;" d="M96,198.772c0-88.366,71.634-160,160-160s160,71.634,160,160H96z"/>
<g>
	<polygon style="fill:#0052B4;" points="214.261,190.025 205.514,198.772 214.261,198.772 	"/>
	<polygon style="fill:#0052B4;" points="297.739,190.026 297.739,198.772 306.485,198.772 	"/>
	<path style="fill:#0052B4;" d="M100.617,160.512C97.607,172.772,96,185.584,96,198.772h50.486l38.26-38.26H100.617z"/>
	<path style="fill:#0052B4;" d="M327.253,160.512l38.26,38.26H416c0-13.188-1.607-26-4.617-38.26H327.253z"/>
</g>
<g>
	<polygon style="fill:#D80027;" points="317.415,160.512 297.739,160.512 297.739,160.512 335.999,198.772 355.676,198.772 	"/>
	<polygon style="fill:#D80027;" points="214.261,180.187 214.261,160.512 214.26,160.512 175.999,198.772 195.676,198.772 	"/>
</g>
<g>
	<path style="fill:#0052B4;" d="M170.95,63.237c-6.594,4.147-12.865,8.761-18.766,13.797h32.562L170.95,63.237z"/>
	<path style="fill:#0052B4;" d="M359.815,77.034c-5.901-5.037-12.171-9.65-18.765-13.797l-13.797,13.797H359.815z"/>
</g>
<g>
	<path style="fill:#D80027;" d="M276.869,139.643h127.843c-6.048-15.2-14.363-29.248-24.521-41.74H276.869l0,0V40.127
		c-6.831-0.89-13.796-1.355-20.869-1.355c-7.074,0-14.038,0.465-20.869,1.355v57.776l0,0H131.808
		c-10.158,12.492-18.471,26.54-24.521,41.74h127.843h0.001v59.131h41.74v-59.131H276.869z"/>
	<path style="fill:#D80027;" d="M214.261,77.034L214.261,77.034l-24.121-24.122c-4.46,2.017-8.805,4.238-13.036,6.641l17.481,17.481
		H214.261z"/>
	<path style="fill:#D80027;" d="M297.739,77.034L297.739,77.034l24.121-24.121c-4.588-2.075-9.293-3.935-14.098-5.578
		l-10.022,10.022V77.034z"/>
</g>
<path style="fill:#F0F0F0;" d="M416,198.772c0,88.366-71.634,160-160,160s-160-71.634-160-160
	C102.957,198.772,416,198.772,416,198.772z"/>
<g>
	<path style="fill:#0052B4;" d="M389.332,219.179c-13.333,0-13.333-12.192-26.667-12.192c-13.333,0-13.333,12.192-26.667,12.192
		s-13.333-12.192-26.666-12.192c-13.332,0-13.332,12.192-26.667,12.192s-13.334-12.192-26.668-12.192
		c-13.333,0-13.333,12.192-26.666,12.192s-13.332-12.192-26.665-12.192c-13.334,0-13.334,12.192-26.669,12.192
		c-13.334,0-13.334-12.192-26.668-12.192c-13.332,0-13.332,12.192-26.665,12.192c-13.261,0-13.338-12.058-26.458-12.186
		c0.37,7.318,1.244,14.503,2.564,21.53c10.627,1.562,11.558,11.988,23.893,11.988c13.332,0,13.332-12.19,26.665-12.19
		c13.334,0,13.334,12.19,26.668,12.19c13.334,0,13.334-12.19,26.669-12.19c13.332,0,13.332,12.19,26.665,12.19
		c13.332,0,13.332-12.19,26.666-12.19c13.333,0,13.333,12.19,26.668,12.19s13.334-12.19,26.667-12.19
		c13.333,0,13.333,12.19,26.666,12.19c13.333,0,13.333-12.19,26.667-12.19c13.333,0,13.333,12.19,26.667,12.19
		c12.337,0,13.267-10.427,23.895-11.988c1.322-7.026,2.194-14.211,2.565-21.53C402.671,207.123,402.594,219.179,389.332,219.179z"/>
	<path style="fill:#0052B4;" d="M362.664,248.726c-13.333,0-13.333,12.192-26.667,12.192c-13.333,0-13.333-12.192-26.666-12.192
		c-13.332,0-13.332,12.192-26.667,12.192s-13.334-12.192-26.668-12.192s-13.333,12.192-26.666,12.192S216,248.726,202.668,248.726
		c-13.334,0-13.334,12.192-26.669,12.192s-13.334-12.192-26.668-12.192c-13.332,0-13.332,12.192-26.665,12.192
		c-9.527,0-12.249-6.223-17.889-9.777c3.756,10.849,8.64,21.17,14.524,30.817c1.023,0.189,2.138,0.293,3.365,0.293
		c13.332,0,13.332-12.19,26.665-12.19c13.334,0,13.334,12.19,26.668,12.19c13.334,0,13.334-12.19,26.669-12.19
		c13.332,0,13.332,12.19,26.665,12.19c13.332,0,13.332-12.19,26.666-12.19s13.333,12.19,26.668,12.19s13.334-12.19,26.667-12.19
		c13.333,0,13.333,12.19,26.666,12.19c13.333,0,13.333-12.19,26.667-12.19s13.333,12.19,26.667,12.19
		c1.229,0,2.343-0.105,3.366-0.293c5.884-9.647,10.768-19.967,14.525-30.816c-5.642,3.554-8.363,9.777-17.891,9.777
		C375.999,260.917,375.999,248.726,362.664,248.726z"/>
</g>
<g>
	<path style="fill:#F0F0F0;" d="M415.914,193.745c0.014,0.445,0.029,0.889,0.039,1.334
		C415.943,194.635,415.927,194.19,415.914,193.745z"/>
	<path style="fill:#F0F0F0;" d="M96.047,195.081c0.011-0.446,0.026-0.89,0.039-1.334C96.072,194.19,96.056,194.635,96.047,195.081z"
		/>
	<path style="fill:#F0F0F0;" d="M96,198.772c0-1.234,0.019-2.465,0.047-3.692C96.018,196.308,96,197.538,96,198.772z"/>
	<path style="fill:#F0F0F0;" d="M96,198.772c0,2.914,0.083,5.81,0.238,8.686c13.089,0.147,13.177,12.183,26.428,12.183
		c13.332,0,13.332-12.191,26.665-12.191c13.334,0,13.334,12.191,26.668,12.191c13.334,0,13.334-12.191,26.669-12.191
		c13.332,0,13.332,12.191,26.665,12.191c13.332,0,13.332-12.191,26.666-12.191c13.333,0,13.333,12.191,26.668,12.191
		s13.334-12.191,26.667-12.191c13.333,0,13.333,12.191,26.666,12.191c13.333,0,13.333-12.191,26.667-12.191
		s13.333,12.191,26.667,12.191c13.252,0,13.34-12.037,26.432-12.183c0.154-2.876,0.237-5.772,0.237-8.686H96z"/>
	<path style="fill:#F0F0F0;" d="M415.953,195.081c0.028,1.228,0.047,2.458,0.047,3.692C416,197.538,415.982,196.308,415.953,195.081
		z"/>
</g>
<path style="fill:#0052B4;" d="M362.664,290.465c-13.333,0-13.333,12.192-26.667,12.192c-13.333,0-13.333-12.192-26.666-12.192
	c-13.332,0-13.332,12.192-26.667,12.192s-13.334-12.192-26.668-12.192s-13.333,12.192-26.666,12.192S216,290.465,202.668,290.465
	c-13.334,0-13.334,12.192-26.669,12.192s-13.334-12.192-26.668-12.192c-9.21,0-12.059,5.815-17.333,9.413
	c13.993,17.141,31.474,31.318,51.353,41.47l72.651-3.66l72.65,3.66c19.877-10.153,37.358-24.329,51.351-41.469
	C374.724,296.282,371.875,290.465,362.664,290.465z"/>
<path style="fill:#FFDA44;" d="M344.739,294.282l-48.672,9.309l-6.166-49.166L256,290.585l-33.9-36.16l-6.169,49.166l-48.67-9.309
	l23.868,43.408l-7.795,3.666c21.806,11.135,46.501,17.418,72.666,17.418c26.164,0,50.86-6.282,72.666-17.418l-7.792-3.665
	L344.739,294.282z"/>
<path style="fill:#C7C7C7;" d="M255.928,21.706c-73.745,0-141.451,47.553-166.61,116.807
	c-25.343,69.773-3.142,149.835,53.974,197.07c57.236,47.338,140.369,53.625,203.978,15.148
	c63.626-38.489,97.228-114.681,82.271-187.573C414.888,91.77,355.517,35.12,283.472,23.842
	C274.361,22.416,265.141,21.706,255.928,21.706 M398.59,263.184c-30.241,67.01-105.732,104.802-177.479,88.399
	c-55.215-12.621-100.384-55.764-115.778-110.195c-15.749-55.658,1.328-116.804,43.417-156.425
	c45.534-42.867,114.172-54.571,171.321-28.799c68.228,30.767,105.971,108.144,87.651,180.845
	C405.459,245.986,402.37,254.739,398.59,263.184C396.502,267.811,400.132,259.739,398.59,263.184"/>
<g>
</g>
<g>
</g>
<g>
</g>
<g>
</g>
<g>
</g>
<g>
</g>
<g>
</g>
<g>
</g>
<g>
</g>
<g>
</g>
<g>
</g>
<g>
</g>
<g>
</g>
<g>
</g>
<g>
</g>
</svg>
