<?xml version="1.0" encoding="iso-8859-1"?>
<!-- Generator: Adobe Illustrator 19.0.0, SVG Export Plug-In . SVG Version: 6.00 Build 0)  -->
<svg version="1.1" id="Layer_1" xmlns="http://www.w3.org/2000/svg" xmlns:xlink="http://www.w3.org/1999/xlink" x="0px" y="0px"
	 viewBox="0 0 512 512" style="enable-background:new 0 0 512 512;" xml:space="preserve">
<path style="fill:#B3B3B3;" d="M434.439,110.654C401.179,45.876,334.359,0.003,255.98,0v101.329
	c55.478,0.004,100.593,43.67,100.595,99.15c0,54.805-45.491,102.048-100.595,102.052V512
	c70.646-73.617,151.953-154.542,187.529-251.428C461.298,212.121,457.979,156.5,434.439,110.654z"/>
<path style="fill:#979797;" d="M68.492,260.572C104.067,357.458,185.374,438.383,256.02,512V302.531
	c-55.103-0.004-100.595-47.247-100.595-102.052c0.002-55.479,45.117-99.146,100.595-99.15V0
	c-78.379,0.003-145.199,45.876-178.46,110.654C54.021,156.5,50.702,212.121,68.492,260.572z"/>
<circle style="fill:#F0F0F0;" cx="256" cy="198.773" r="160"/>
<g>
	<path style="fill:#0052B4;" d="M396.546,122.25c-20.675-37.891-56.227-66.498-98.806-77.975l-6.957,77.975H396.546z"/>
	<path style="fill:#0052B4;" d="M115.454,122.25h105.762l-6.956-77.975C171.681,55.753,136.129,84.358,115.454,122.25z"/>
</g>
<g>
	<path style="fill:#6DA544;" d="M290.782,198.773v76.521h105.763C408.948,252.562,416,226.492,416,198.773H290.782z"/>
	<path style="fill:#6DA544;" d="M221.217,198.773H96c0,27.718,7.052,53.79,19.454,76.521h105.762v-76.521H221.217z"/>
</g>
<g>
	<path style="fill:#FFDA44;" d="M115.454,275.294c20.675,37.893,56.227,66.5,98.806,77.975l6.956-68.194L115.454,275.294z"/>
	<path style="fill:#FFDA44;" d="M297.74,353.269c42.579-11.475,78.131-40.081,98.806-77.975l-105.763,9.781L297.74,353.269z"/>
	<polygon style="fill:#FFDA44;" points="290.782,285.075 396.546,275.294 290.782,275.294 	"/>
	<polygon style="fill:#FFDA44;" points="221.217,275.294 115.454,275.294 221.217,285.075 	"/>
</g>
<path style="fill:#D80027;" d="M256,38.773c-14.442,0-28.431,1.925-41.74,5.51v308.977c13.309,3.587,27.298,5.513,41.74,5.513
	c14.442,0,28.431-1.925,41.74-5.513V44.284C284.431,40.698,270.442,38.773,256,38.773z"/>
<polygon style="fill:#FFDA44;" points="182.061,73.556 186.378,86.839 200.348,86.839 189.046,95.052 193.363,108.337 
	182.061,100.127 170.759,108.337 175.077,95.052 163.776,86.839 177.746,86.839 "/>
<path style="fill:#C7C7C7;" d="M255.929,21.707c-73.745,0-141.451,47.552-166.61,116.806
	c-25.343,69.773-3.142,149.836,53.974,197.071c57.236,47.338,140.369,53.625,203.978,15.148
	c63.626-38.49,97.228-114.681,82.271-187.573C414.889,91.771,355.517,35.121,283.472,23.843
	C274.361,22.416,265.141,21.707,255.929,21.707 M398.59,263.184c-30.241,67.009-105.732,104.802-177.479,88.399
	c-55.215-12.621-100.384-55.764-115.778-110.195c-15.749-55.658,1.328-116.804,43.417-156.425
	c45.534-42.867,114.172-54.571,171.321-28.799c68.228,30.767,105.971,108.144,87.651,180.844
	C405.459,245.986,402.37,254.739,398.59,263.184C396.502,267.81,400.132,259.739,398.59,263.184"/>
<g>
</g>
<g>
</g>
<g>
</g>
<g>
</g>
<g>
</g>
<g>
</g>
<g>
</g>
<g>
</g>
<g>
</g>
<g>
</g>
<g>
</g>
<g>
</g>
<g>
</g>
<g>
</g>
<g>
</g>
</svg>
