<?xml version="1.0" encoding="iso-8859-1"?>
<!-- Generator: Adobe Illustrator 19.0.0, SVG Export Plug-In . SVG Version: 6.00 Build 0)  -->
<svg version="1.1" id="Layer_1" xmlns="http://www.w3.org/2000/svg" xmlns:xlink="http://www.w3.org/1999/xlink" x="0px" y="0px"
	 viewBox="0 0 512 512" style="enable-background:new 0 0 512 512;" xml:space="preserve">
<path style="fill:#B3B3B3;" d="M434.439,110.654C401.179,45.876,334.359,0.003,255.98,0v101.329
	c55.478,0.004,100.593,43.671,100.595,99.151c0,54.805-45.491,102.048-100.595,102.051V512
	c70.646-73.617,151.953-154.542,187.529-251.428C461.298,212.121,457.979,156.5,434.439,110.654z"/>
<path style="fill:#979797;" d="M68.492,260.572C104.067,357.458,185.374,438.383,256.02,512V302.531
	c-55.103-0.003-100.595-47.246-100.595-102.051c0.002-55.478,45.117-99.147,100.595-99.151V0
	c-78.379,0.003-145.199,45.876-178.46,110.654C54.021,156.5,50.702,212.121,68.492,260.572z"/>
<circle style="fill:#D80027;" cx="256" cy="198.773" r="160"/>
<g>
	<polygon style="fill:#FFDA44;" points="183.571,136.163 197.385,178.678 242.086,178.678 205.922,204.954 219.735,247.468 
		183.571,221.193 147.405,247.468 161.22,204.954 125.054,178.678 169.758,178.678 	"/>
	<polygon style="fill:#FFDA44;" points="270.637,277.565 257.074,267.712 243.513,277.564 248.692,261.622 235.131,251.769 
		251.894,251.769 257.074,235.825 262.255,251.769 279.019,251.769 265.456,261.621 	"/>
	<polygon style="fill:#FFDA44;" points="306.017,228.868 289.253,228.868 284.073,244.811 278.893,228.869 262.128,228.868 
		275.692,219.015 270.511,203.072 284.073,212.926 297.635,203.072 292.454,219.015 	"/>
	<polygon style="fill:#FFDA44;" points="306.017,168.677 292.454,178.531 297.634,194.473 284.073,184.621 270.511,194.474 
		275.692,178.53 262.129,168.678 278.894,168.676 284.073,152.734 289.253,168.676 	"/>
	<polygon style="fill:#FFDA44;" points="270.637,119.981 265.457,135.924 279.019,145.776 262.256,145.777 257.075,161.722 
		251.894,145.776 235.132,145.778 248.693,135.923 243.513,119.98 257.074,129.835 	"/>
</g>
<path style="fill:#C7C7C7;" d="M255.929,21.706c-73.745,0-141.451,47.553-166.61,116.807
	c-25.343,69.773-3.142,149.835,53.974,197.07c57.236,47.338,140.369,53.625,203.978,15.148
	c63.626-38.489,97.228-114.681,82.271-187.573C414.889,91.77,355.517,35.12,283.472,23.842
	C274.361,22.416,265.141,21.706,255.929,21.706 M398.59,263.184c-30.241,67.01-105.732,104.802-177.479,88.399
	c-55.215-12.621-100.384-55.764-115.778-110.195c-15.749-55.658,1.328-116.804,43.417-156.425
	c45.534-42.867,114.172-54.571,171.321-28.799c68.228,30.767,105.971,108.144,87.651,180.845
	C405.459,245.986,402.37,254.739,398.59,263.184C396.502,267.811,400.132,259.739,398.59,263.184"/>
<g>
</g>
<g>
</g>
<g>
</g>
<g>
</g>
<g>
</g>
<g>
</g>
<g>
</g>
<g>
</g>
<g>
</g>
<g>
</g>
<g>
</g>
<g>
</g>
<g>
</g>
<g>
</g>
<g>
</g>
</svg>
