<?xml version="1.0" encoding="iso-8859-1"?>
<!-- Generator: Adobe Illustrator 19.0.0, SVG Export Plug-In . SVG Version: 6.00 Build 0)  -->
<svg version="1.1" id="Layer_1" xmlns="http://www.w3.org/2000/svg" xmlns:xlink="http://www.w3.org/1999/xlink" x="0px" y="0px"
	 viewBox="0 0 512 512" style="enable-background:new 0 0 512 512;" xml:space="preserve">
<path style="fill:#B3B3B3;" d="M434.439,110.654C401.178,45.876,334.359,0.003,255.98,0v101.329
	c55.478,0.004,100.593,43.67,100.595,99.15c0,54.805-45.491,102.048-100.595,102.052V512
	c70.645-73.617,151.953-154.542,187.529-251.428C461.298,212.121,457.979,156.5,434.439,110.654z"/>
<path style="fill:#979797;" d="M68.492,260.572C104.066,357.458,185.374,438.383,256.019,512V302.531
	c-55.104-0.004-100.595-47.247-100.594-102.052c0.001-55.479,45.116-99.146,100.594-99.15V0
	c-78.379,0.003-145.2,45.876-178.46,110.654C54.021,156.5,50.703,212.121,68.492,260.572z"/>
<circle style="fill:#6DA544;" cx="256" cy="198.773" r="160"/>
<g>
	<polygon style="fill:#FFDA44;" points="341.615,268.337 346.005,277.519 355.921,275.227 351.48,284.383 359.454,290.706 
		349.526,292.944 349.554,303.121 341.615,296.754 333.677,303.121 333.704,292.944 323.777,290.706 331.749,284.383 
		327.31,275.227 337.223,277.519 	"/>
	<polygon style="fill:#FFDA44;" points="300.771,170.946 305.16,180.127 315.076,177.836 310.636,186.992 318.608,193.314 
		308.681,195.552 308.709,205.729 300.771,199.362 292.831,205.729 292.858,195.552 282.932,193.314 290.904,186.992 
		286.464,177.836 296.379,180.127 	"/>
	<polygon style="fill:#FFDA44;" points="341.615,115.294 346.005,124.475 355.921,122.183 351.481,131.34 359.454,137.663 
		349.526,139.9 349.554,150.077 341.615,143.711 333.677,150.077 333.704,139.9 323.777,137.663 331.749,131.34 327.31,122.183 
		337.223,124.475 	"/>
	<polygon style="fill:#FFDA44;" points="377.292,157.034 381.683,166.214 391.598,163.923 387.157,173.079 395.129,179.402 
		385.204,181.639 385.231,191.817 377.292,185.45 369.352,191.817 369.38,181.639 359.454,179.402 367.427,173.079 362.986,163.923 
		372.902,166.214 	"/>
	<polygon style="fill:#FFDA44;" points="351.781,205.729 355.235,216.358 366.411,216.358 357.368,222.927 360.822,233.554 
		351.781,226.988 342.739,233.554 346.193,222.927 337.152,216.358 348.326,216.358 	"/>
	<path style="fill:#FFDA44;" d="M273.392,243.989c-24.974,0-45.218-20.244-45.218-45.217s20.244-45.219,45.218-45.219
		c7.787,0,15.113,1.971,21.509,5.436c-10.034-9.812-23.757-15.869-38.901-15.869c-30.735,0-55.651,24.916-55.651,55.652
		c0,30.735,24.916,55.652,55.651,55.652c15.145,0,28.867-6.057,38.901-15.871C288.504,242.021,281.177,243.989,273.392,243.989z"/>
	<path style="fill:#FFDA44;" d="M196.615,101.381c-4.812-8.315-13.797-13.913-24.094-13.913c-10.298,0-19.282,5.598-24.095,13.913
		H196.615z"/>
	<path style="fill:#FFDA44;" d="M196.708,101.541l-24.187,24.188l-24.187-24.188c-2.313,4.059-3.639,8.748-3.639,13.753
		c0,15.369,12.459,27.827,27.826,27.827s27.826-12.459,27.826-27.827C200.348,110.289,199.02,105.6,196.708,101.541z"/>
</g>
<path style="fill:#A2001D;" d="M165.565,118.773v23.471c2.224,0.573,4.555,0.877,6.957,0.877s4.733-0.304,6.956-0.877v-23.471
	H165.565z"/>
<path style="fill:#C7C7C7;" d="M255.927,21.707c-73.745,0-141.451,47.552-166.61,116.806
	c-25.343,69.773-3.142,149.836,53.974,197.071c57.236,47.338,140.369,53.625,203.979,15.148
	c63.626-38.49,97.228-114.681,82.271-187.573C414.888,91.771,355.517,35.121,283.472,23.843
	C274.36,22.416,265.141,21.707,255.927,21.707 M398.59,263.184c-30.241,67.009-105.732,104.802-177.479,88.399
	c-55.215-12.621-100.384-55.764-115.778-110.195c-15.749-55.658,1.328-116.804,43.417-156.425
	c45.535-42.867,114.172-54.571,171.321-28.799c68.228,30.767,105.971,108.144,87.651,180.844
	C405.459,245.986,402.37,254.739,398.59,263.184C396.502,267.81,400.132,259.739,398.59,263.184"/>
<g>
</g>
<g>
</g>
<g>
</g>
<g>
</g>
<g>
</g>
<g>
</g>
<g>
</g>
<g>
</g>
<g>
</g>
<g>
</g>
<g>
</g>
<g>
</g>
<g>
</g>
<g>
</g>
<g>
</g>
</svg>
