<?xml version="1.0" encoding="iso-8859-1"?>
<!-- Generator: Adobe Illustrator 19.0.0, SVG Export Plug-In . SVG Version: 6.00 Build 0)  -->
<svg version="1.1" id="Layer_1" xmlns="http://www.w3.org/2000/svg" xmlns:xlink="http://www.w3.org/1999/xlink" x="0px" y="0px"
	 viewBox="0 0 512 512" style="enable-background:new 0 0 512 512;" xml:space="preserve">
<path style="fill:#B3B3B3;" d="M434.44,110.654C401.18,45.876,334.358,0.003,255.98,0v101.329
	c55.478,0.004,100.593,43.67,100.594,99.15c0.001,54.805-45.491,102.048-100.594,102.052V512
	c70.645-73.617,151.954-154.542,187.529-251.428C461.297,212.121,457.979,156.5,434.44,110.654z"/>
<path style="fill:#979797;" d="M68.492,260.572C104.066,357.458,185.374,438.383,256.02,512V302.531
	c-55.104-0.004-100.595-47.247-100.594-102.052c0.001-55.479,45.116-99.146,100.594-99.15V0
	c-78.379,0.003-145.2,45.876-178.46,110.654C54.021,156.5,50.703,212.121,68.492,260.572z"/>
<circle style="fill:#FCFCFC;" cx="256" cy="198.773" r="160"/>
<path d="M311.711,174.293c0-33.84-27.433-61.273-61.273-61.273c-24.971,0-46.438,14.944-55.983,36.373l-7.557,27.396l6.957,6.956
	l-13.914,27.827l13.914,6.956l-6.957,6.956v6.956l6.957,6.956v13.913l6.957,6.958l20.869-6.958c0,0,0,6.958,6.957,13.915
	c6.956,6.956,13.913,20.868,13.913,20.868s20.869,6.957,34.783-13.913c13.913-20.868,27.825-27.825,27.825-27.825l-13.409-26.822
	C304.013,208.332,311.711,192.212,311.711,174.293z"/>
<path style="fill:#ACABB1;" d="M316.705,197.723c28.267-4.767,32.976-60.121,32.976-60.121h-38.956
	c20.174,48.695-0.942,51.971-0.942,51.971c-2.861-2.127-105.234-50.625-108.479-51.858c-0.782,1.045-3.66,3.794-7.159,12.35
	c-3.499,8.556-4.358,16.254-4.358,16.254c1.639,1.069,110.359,39.031,113.234,39.348c5.703,3.729,12.721,14.879,8.799,47.941
	l37.495-10.569C349.315,243.04,336.59,209.187,316.705,197.723z"/>
<path style="fill:#C7C7C7;" d="M255.928,21.707c-73.745,0-141.451,47.552-166.61,116.806
	c-25.343,69.773-3.142,149.836,53.974,197.071c57.236,47.338,140.369,53.625,203.978,15.148
	c63.627-38.49,97.229-114.681,82.271-187.573c-14.654-71.388-74.027-128.037-146.07-139.315
	C274.361,22.416,265.142,21.707,255.928,21.707 M398.59,263.184c-30.242,67.009-105.733,104.802-177.479,88.399
	c-55.215-12.621-100.384-55.764-115.778-110.195c-15.749-55.658,1.328-116.804,43.417-156.425
	c45.535-42.867,114.173-54.571,171.321-28.799c68.229,30.767,105.971,108.144,87.652,180.844
	C405.459,245.986,402.369,254.739,398.59,263.184C396.502,267.81,400.131,259.739,398.59,263.184"/>
<g>
</g>
<g>
</g>
<g>
</g>
<g>
</g>
<g>
</g>
<g>
</g>
<g>
</g>
<g>
</g>
<g>
</g>
<g>
</g>
<g>
</g>
<g>
</g>
<g>
</g>
<g>
</g>
<g>
</g>
</svg>
