<?xml version="1.0" encoding="iso-8859-1"?>
<!-- Generator: Adobe Illustrator 19.0.0, SVG Export Plug-In . SVG Version: 6.00 Build 0)  -->
<svg version="1.1" id="Layer_1" xmlns="http://www.w3.org/2000/svg" xmlns:xlink="http://www.w3.org/1999/xlink" x="0px" y="0px"
	 viewBox="0 0 512 512" style="enable-background:new 0 0 512 512;" xml:space="preserve">
<path style="fill:#B3B3B3;" d="M434.44,110.654C401.18,45.876,334.359,0.003,255.98,0v101.329
	c55.478,0.004,100.593,43.671,100.594,99.151c0.001,54.805-45.491,102.048-100.594,102.051V512
	c70.645-73.617,151.953-154.542,187.529-251.428C461.297,212.121,457.979,156.5,434.44,110.654z"/>
<path style="fill:#979797;" d="M68.492,260.572C104.067,357.458,185.374,438.383,256.02,512V302.531
	c-55.104-0.003-100.595-47.246-100.594-102.051c0.001-55.478,45.116-99.147,100.594-99.151V0
	c-78.379,0.003-145.2,45.876-178.46,110.654C54.021,156.5,50.703,212.121,68.492,260.572z"/>
<path style="fill:#F0F0F0;" d="M416,198.772c0-19.571-3.52-38.319-9.952-55.652L256,136.164l-150.048,6.956
	C99.52,160.453,96,179.201,96,198.772s3.52,38.319,9.952,55.652L256,261.381l150.048-6.957C412.48,237.091,416,218.343,416,198.772z
	"/>
<path style="fill:#0052B4;" d="M256,358.772c68.795,0,127.442-43.42,150.048-104.348H105.952
	C128.558,315.353,187.205,358.772,256,358.772z"/>
<path style="fill:#D80027;" d="M105.952,143.12h300.096C383.442,82.192,324.795,38.772,256,38.772S128.558,82.192,105.952,143.12z"
	/>
<g>
	<polygon style="fill:#338AF3;" points="297.739,150.077 269.914,150.077 274.55,115.294 293.102,101.381 311.652,115.294 
		311.652,143.12 	"/>
	<polygon style="fill:#338AF3;" points="214.261,150.077 242.086,150.077 237.45,115.294 218.898,101.381 200.348,115.294 
		200.348,143.12 	"/>
</g>
<polygon style="fill:#0052B4;" points="274.55,150.077 237.449,150.077 237.449,115.294 256,101.381 274.55,115.294 "/>
<path style="fill:#F0F0F0;" d="M200.348,143.121v76.522c0,18.221,8.801,34.425,22.377,44.582l9.739-2.437l12.29,12.364
	c3.634,0.749,7.394,1.143,11.247,1.143c3.831,0,7.573-0.389,11.188-1.131l14.029-11.681l8.059,1.719
	c13.569-10.158,22.377-26.345,22.377-44.56v-76.522L200.348,143.121L200.348,143.121z"/>
<g>
	<rect x="200.352" y="143.125" style="fill:#D80027;" width="22.261" height="22.261"/>
	<rect x="244.864" y="143.125" style="fill:#D80027;" width="22.26" height="22.261"/>
	<rect x="289.387" y="143.125" style="fill:#D80027;" width="22.261" height="22.261"/>
	<rect x="222.613" y="165.376" style="fill:#D80027;" width="22.261" height="22.261"/>
	<rect x="267.136" y="165.376" style="fill:#D80027;" width="22.261" height="22.261"/>
	<rect x="200.352" y="187.637" style="fill:#D80027;" width="22.261" height="22.261"/>
	<rect x="222.613" y="209.899" style="fill:#D80027;" width="22.261" height="22.261"/>
	<rect x="244.864" y="187.637" style="fill:#D80027;" width="22.26" height="22.261"/>
	<rect x="289.387" y="187.637" style="fill:#D80027;" width="22.261" height="22.261"/>
	<rect x="267.136" y="209.899" style="fill:#D80027;" width="22.261" height="22.261"/>
	<rect x="244.864" y="232.16" style="fill:#D80027;" width="22.26" height="22.261"/>
	<path style="fill:#D80027;" d="M222.609,232.159h-20.825c1.91,8.274,5.664,15.847,10.814,22.261h10.01v-22.261H222.609z"/>
	<path style="fill:#D80027;" d="M289.391,254.42h10.01c5.15-6.414,8.905-13.986,10.815-22.261h-20.825V254.42z"/>
	<path style="fill:#D80027;" d="M222.609,254.42v9.713c6.475,4.871,14.041,8.366,22.261,10.042V254.42H222.609z"/>
	<path style="fill:#D80027;" d="M267.131,254.42v19.755c8.221-1.676,15.787-5.17,22.261-10.042v-9.713H267.131z"/>
</g>
<path style="fill:#C7C7C7;" d="M255.928,21.706c-73.745,0-141.451,47.553-166.61,116.807
	c-25.343,69.773-3.142,149.835,53.974,197.07c57.236,47.338,140.369,53.625,203.978,15.148
	c63.626-38.489,97.228-114.681,82.271-187.573C414.888,91.77,355.517,35.12,283.472,23.842
	C274.361,22.416,265.141,21.706,255.928,21.706 M398.59,263.184c-30.241,67.01-105.732,104.802-177.479,88.399
	c-55.215-12.621-100.384-55.764-115.778-110.195c-15.749-55.658,1.328-116.804,43.417-156.425
	c45.534-42.867,114.172-54.571,171.321-28.799c68.228,30.767,105.971,108.144,87.651,180.845
	C405.459,245.986,402.37,254.739,398.59,263.184C396.502,267.811,400.132,259.739,398.59,263.184"/>
<g>
</g>
<g>
</g>
<g>
</g>
<g>
</g>
<g>
</g>
<g>
</g>
<g>
</g>
<g>
</g>
<g>
</g>
<g>
</g>
<g>
</g>
<g>
</g>
<g>
</g>
<g>
</g>
<g>
</g>
</svg>
