<?xml version="1.0" encoding="iso-8859-1"?>
<!-- Generator: Adobe Illustrator 19.0.0, SVG Export Plug-In . SVG Version: 6.00 Build 0)  -->
<svg version="1.1" id="Layer_1" xmlns="http://www.w3.org/2000/svg" xmlns:xlink="http://www.w3.org/1999/xlink" x="0px" y="0px"
	 viewBox="0 0 512 512" style="enable-background:new 0 0 512 512;" xml:space="preserve">
<polygon style="fill:#FF9811;" points="33.924,53.333 33.923,53.333 33.923,458.667 33.924,458.667 33.924,256 "/>
<path style="fill:#B3B3B3;" d="M457.697,110.654C424.436,45.876,357.616,0.003,279.237,0v101.329
	c55.478,0.004,100.593,43.671,100.595,99.151c0,54.805-45.492,102.048-100.595,102.051V512
	c70.645-73.617,151.953-154.542,187.529-251.428C484.555,212.121,481.236,156.5,457.697,110.654z"/>
<path style="fill:#979797;" d="M91.748,260.572C127.324,357.458,208.631,438.383,279.277,512V302.531
	c-55.103-0.003-100.595-47.246-100.595-102.051c0.002-55.478,45.117-99.147,100.595-99.151V0
	c-78.379,0.003-145.199,45.876-178.46,110.654C77.278,156.5,73.959,212.121,91.748,260.572z"/>
<circle style="fill:#F0F0F0;" cx="279.253" cy="198.773" r="160"/>
<g>
	<path style="fill:#0052B4;" d="M279.257,38.772c-52.346,0-98.817,25.139-128.006,64h256.013
		C378.073,63.911,331.602,38.772,279.257,38.772z"/>
	<path style="fill:#0052B4;" d="M279.257,358.772c52.345,0,98.817-25.139,128.006-64H151.251
		C180.44,333.633,226.911,358.772,279.257,358.772z"/>
	<path style="fill:#0052B4;" d="M119.257,198.772c0,10.959,1.104,21.661,3.204,32h313.591c2.1-10.339,3.204-21.041,3.204-32
		s-1.104-21.661-3.204-32H122.461C120.361,177.111,119.257,187.813,119.257,198.772z"/>
</g>
<path style="fill:#D80027;" d="M166.119,85.635c-62.483,62.484-62.483,163.791,0,226.275
	c25.821-25.821,50.654-50.654,113.137-113.137L166.119,85.635z"/>
<polygon style="fill:#F0F0F0;" points="184.014,157.034 194.372,188.917 227.901,188.917 200.777,208.625 211.136,240.512 
	184.014,220.804 156.888,240.512 167.251,208.625 140.127,188.917 173.653,188.917 "/>
<path style="fill:#C7C7C7;" d="M279.185,21.706c-73.745,0-141.451,47.553-166.61,116.807
	c-25.343,69.773-3.142,149.835,53.974,197.07c57.236,47.338,140.369,53.625,203.978,15.148
	c63.626-38.489,97.228-114.681,82.271-187.573C438.145,91.77,378.773,35.12,306.728,23.842
	C297.617,22.416,288.399,21.706,279.185,21.706 M421.846,263.184c-30.241,67.01-105.732,104.802-177.479,88.399
	c-55.215-12.621-100.384-55.764-115.778-110.195c-15.749-55.658,1.328-116.804,43.417-156.425
	c45.535-42.867,114.172-54.571,171.321-28.799c68.228,30.767,105.971,108.144,87.651,180.845
	C428.717,245.986,425.626,254.739,421.846,263.184C419.759,267.811,423.39,259.739,421.846,263.184"/>
<g>
</g>
<g>
</g>
<g>
</g>
<g>
</g>
<g>
</g>
<g>
</g>
<g>
</g>
<g>
</g>
<g>
</g>
<g>
</g>
<g>
</g>
<g>
</g>
<g>
</g>
<g>
</g>
<g>
</g>
</svg>
