<?xml version="1.0" encoding="iso-8859-1"?>
<!-- Generator: Adobe Illustrator 19.0.0, SVG Export Plug-In . SVG Version: 6.00 Build 0)  -->
<svg version="1.1" id="Layer_1" xmlns="http://www.w3.org/2000/svg" xmlns:xlink="http://www.w3.org/1999/xlink" x="0px" y="0px"
	 viewBox="0 0 512 512" style="enable-background:new 0 0 512 512;" xml:space="preserve">
<path style="fill:#B3B3B3;" d="M434.439,110.654C401.179,45.876,334.359,0.003,255.98,0v101.329
	c55.478,0.004,100.593,43.671,100.595,99.15c0,54.805-45.491,102.048-100.595,102.052V512
	c70.646-73.617,151.953-154.542,187.529-251.428C461.298,212.121,457.979,156.5,434.439,110.654z"/>
<path style="fill:#979797;" d="M68.492,260.572C104.067,357.458,185.374,438.383,256.02,512V302.531
	c-55.103-0.004-100.595-47.247-100.595-102.052c0.002-55.478,45.117-99.146,100.595-99.15V0
	c-78.379,0.003-145.199,45.876-178.46,110.654C54.021,156.5,50.702,212.121,68.492,260.572z"/>
<circle style="fill:#FFDA44;" cx="256" cy="198.773" r="160"/>
<g>
	<path style="fill:#0052B4;" d="M256,358.773c52.5,0,99.093-25.287,128.268-64.343H127.732
		C156.908,333.486,203.5,358.773,256,358.773z"/>
	<path style="fill:#0052B4;" d="M416,198.773c0-88.367-71.634-160-160-160s-160,71.633-160,160c0,18.921,3.294,37.069,9.323,53.917
		h301.355C412.706,235.842,416,217.694,416,198.773z"/>
</g>
<g>
	<polygon style="fill:#F0F0F0;" points="205.514,141.386 214.147,167.956 242.087,167.956 219.484,184.379 228.116,210.95 
		205.514,194.529 182.911,210.95 191.545,184.379 168.942,167.956 196.88,167.956 	"/>
	<polygon style="fill:#F0F0F0;" points="157.535,113.561 162.714,129.502 179.478,129.502 165.917,139.356 171.097,155.298 
		157.535,145.445 143.972,155.298 149.153,139.356 135.59,129.502 152.354,129.502 	"/>
</g>
<path style="fill:#C7C7C7;" d="M255.929,21.707c-73.745,0-141.451,47.552-166.61,116.806
	c-25.343,69.773-3.142,149.836,53.974,197.071c57.236,47.338,140.369,53.625,203.978,15.148
	c63.626-38.49,97.228-114.681,82.271-187.573C414.889,91.771,355.517,35.121,283.472,23.843
	C274.361,22.416,265.141,21.707,255.929,21.707 M398.59,263.184c-30.241,67.009-105.732,104.802-177.479,88.399
	c-55.215-12.621-100.384-55.764-115.778-110.195c-15.749-55.658,1.328-116.804,43.417-156.425
	c45.534-42.867,114.172-54.571,171.321-28.799c68.228,30.767,105.971,108.144,87.651,180.844
	C405.459,245.986,402.37,254.739,398.59,263.184C396.502,267.81,400.132,259.739,398.59,263.184"/>
<g>
</g>
<g>
</g>
<g>
</g>
<g>
</g>
<g>
</g>
<g>
</g>
<g>
</g>
<g>
</g>
<g>
</g>
<g>
</g>
<g>
</g>
<g>
</g>
<g>
</g>
<g>
</g>
<g>
</g>
</svg>
