<?xml version="1.0" encoding="iso-8859-1"?>
<!-- Generator: Adobe Illustrator 19.0.0, SVG Export Plug-In . SVG Version: 6.00 Build 0)  -->
<svg version="1.1" id="Layer_1" xmlns="http://www.w3.org/2000/svg" xmlns:xlink="http://www.w3.org/1999/xlink" x="0px" y="0px"
	 viewBox="0 0 512 512" style="enable-background:new 0 0 512 512;" xml:space="preserve">
<path style="fill:#B3B3B3;" d="M434.44,110.654C401.18,45.876,334.359,0.003,255.98,0v101.329
	c55.478,0.004,100.593,43.67,100.594,99.15c0.001,54.805-45.49,102.048-100.594,102.052V512
	c70.645-73.617,151.953-154.542,187.529-251.428C461.297,212.121,457.979,156.5,434.44,110.654z"/>
<path style="fill:#979797;" d="M68.492,260.572C104.066,357.458,185.374,438.383,256.02,512V302.531
	c-55.104-0.004-100.595-47.247-100.594-102.052c0.001-55.479,45.116-99.146,100.594-99.15V0
	c-78.379,0.003-145.2,45.876-178.46,110.654C54.021,156.5,50.703,212.121,68.492,260.572z"/>
<circle style="fill:#FCFCFC;" cx="256" cy="198.773" r="160"/>
<path style="fill:#6DA544;" d="M346.435,177.902c-4.869,0-10.898,0-20.869,0c0,38.421-31.146,69.567-69.565,69.567
	c-38.42,0-69.565-31.146-69.565-69.567c-6.724,0-14.145,0-20.869,0c0,41.386,27.798,76.277,65.741,87.023
	c-4.159,7.902-3.526,17.852,2.416,25.266c7.805-6.254,15.886-12.732,22.741-18.223c6.855,5.491,14.935,11.969,22.741,18.223
	c6.001-7.488,6.592-17.565,2.293-25.504C319.026,253.677,346.435,218.994,346.435,177.902z"/>
<path style="fill:#FFDA44;" d="M200.348,170.946c0,0,0,34.783,34.782,34.783l6.957,6.956H256c0,0,6.956-20.868,20.869-20.868
	c0,0,0-13.915,13.913-13.915s20.869,0,20.869,0s-6.957-27.825,27.826-48.695l-13.913-6.956c0,0-48.695,34.783-83.478,27.827v13.913
	h-13.913l-6.957-6.956L200.348,170.946z"/>
<path style="fill:#C7C7C7;" d="M255.928,21.707c-73.745,0-141.451,47.552-166.61,116.806
	c-25.343,69.773-3.142,149.836,53.974,197.071c57.236,47.338,140.369,53.625,203.978,15.148
	c63.626-38.49,97.228-114.681,82.271-187.573C414.888,91.771,355.517,35.121,283.472,23.843
	C274.361,22.416,265.141,21.707,255.928,21.707 M398.59,263.184c-30.241,67.009-105.732,104.802-177.479,88.399
	c-55.215-12.621-100.384-55.764-115.778-110.195c-15.749-55.658,1.328-116.804,43.417-156.425
	c45.534-42.867,114.172-54.571,171.321-28.799c68.228,30.767,105.971,108.144,87.651,180.844
	C405.459,245.986,402.37,254.739,398.59,263.184C396.502,267.81,400.132,259.739,398.59,263.184"/>
<g>
</g>
<g>
</g>
<g>
</g>
<g>
</g>
<g>
</g>
<g>
</g>
<g>
</g>
<g>
</g>
<g>
</g>
<g>
</g>
<g>
</g>
<g>
</g>
<g>
</g>
<g>
</g>
<g>
</g>
</svg>
