<?xml version="1.0" encoding="iso-8859-1"?>
<!-- Generator: Adobe Illustrator 19.0.0, SVG Export Plug-In . SVG Version: 6.00 Build 0)  -->
<svg version="1.1" id="Layer_1" xmlns="http://www.w3.org/2000/svg" xmlns:xlink="http://www.w3.org/1999/xlink" x="0px" y="0px"
	 viewBox="0 0 512 512" style="enable-background:new 0 0 512 512;" xml:space="preserve">
<path style="fill:#B3B3B3;" d="M434.439,110.654C401.179,45.876,334.359,0.003,255.98,0v101.329
	c55.478,0.004,100.593,43.671,100.595,99.151c0,54.805-45.491,102.048-100.595,102.051V512
	c70.646-73.617,151.953-154.542,187.529-251.428C461.298,212.121,457.979,156.5,434.439,110.654z"/>
<path style="fill:#979797;" d="M68.492,260.572C104.067,357.458,185.374,438.383,256.02,512V302.531
	c-55.103-0.003-100.595-47.247-100.595-102.051c0.002-55.478,45.117-99.147,100.595-99.151V0
	c-78.379,0.003-145.199,45.876-178.46,110.654C54.021,156.5,50.702,212.121,68.492,260.572z"/>
<circle style="fill:#F0F0F0;" cx="256" cy="198.773" r="160"/>
<g>
	<path style="fill:#496E2D;" d="M287.305,355.702c63.252-12.547,113.077-62.373,125.625-125.626H287.305V355.702z"/>
	<path style="fill:#496E2D;" d="M99.071,230.077c12.547,63.252,62.373,113.078,125.625,125.626V230.077H99.071z"/>
	<path style="fill:#496E2D;" d="M412.929,167.469C400.381,104.217,350.557,54.39,287.305,41.843v125.626H412.929z"/>
	<path style="fill:#496E2D;" d="M224.695,41.843C161.444,54.39,111.618,104.217,99.071,167.469h125.625L224.695,41.843
		L224.695,41.843z"/>
</g>
<g>
	<path style="fill:#FFDA44;" d="M245.566,230.077h-20.87v125.626c6.811,1.351,13.777,2.267,20.87,2.722V230.077z"/>
	<path style="fill:#FFDA44;" d="M245.566,167.469V39.12c-7.092,0.457-14.06,1.372-20.87,2.722v125.626h20.87V167.469z"/>
</g>
<path d="M266.434,39.12c-3.451-0.222-6.928-0.348-10.434-0.348s-6.983,0.126-10.434,0.348v128.348h20.868V39.12z"/>
<path d="M245.566,358.425c3.451,0.222,6.928,0.348,10.434,0.348s6.983-0.126,10.434-0.348V230.077h-20.868V358.425z"/>
<g>
	<path style="fill:#FFDA44;" d="M224.695,188.337v-20.869H99.071c-1.351,6.811-2.267,13.777-2.723,20.869H224.695z"/>
	<path style="fill:#FFDA44;" d="M287.305,188.337h128.348c-0.457-7.092-1.371-14.059-2.723-20.869H287.305V188.337z"/>
</g>
<path d="M287.305,209.207h128.348c0.223-3.451,0.348-6.928,0.348-10.435c0-3.507-0.125-6.983-0.348-10.435H287.305V209.207z"/>
<path d="M96.348,188.337C96.126,191.788,96,195.265,96,198.772c0,3.507,0.126,6.983,0.348,10.435h128.348v-20.869H96.348V188.337z"
	/>
<circle style="fill:#D80027;" cx="256" cy="198.773" r="76.523"/>
<g>
	<path style="fill:#496E2D;" d="M273.434,207.31c-5.692-11.383-13.091-22.921-13.091-22.921s0.183-5.253,0.183-8.383
		c0-4.715-3.822-8.538-8.538-8.538c-4.467,0-8.126,3.431-8.5,7.801c-3.513,0.229-6.292,3.142-6.292,6.714
		c0,2.596,1.471,4.845,3.622,5.969c1.071-2.502,3.166-4.457,5.757-5.346c0.422,0.347,0.876,0.655,1.36,0.916l1.093,0.524
		c0,0-4.055,11.431-4.055,17.573c0,17.265,11.383,22.589,11.383,22.589v0.178l-5.69,5.691h11.383v-11.383l5.692,5.692
		C267.794,224.278,278.525,217.491,273.434,207.31z"/>
	<polygon style="fill:#496E2D;" points="256,136.163 258.59,144.135 266.972,144.135 260.191,149.062 262.781,157.034 256,152.107 
		249.219,157.034 251.809,149.062 245.028,144.135 253.41,144.135 	"/>
	<polygon style="fill:#496E2D;" points="219.2,148.121 225.979,153.047 232.761,148.121 230.171,156.092 236.953,161.019 
		228.571,161.02 225.98,168.991 223.39,161.02 215.008,161.019 221.79,156.092 	"/>
	<polygon style="fill:#496E2D;" points="196.457,179.425 204.836,179.425 207.427,171.454 210.017,179.425 218.399,179.425 
		211.619,184.352 214.208,192.323 207.427,187.397 200.645,192.322 203.235,184.351 	"/>
	<polygon style="fill:#496E2D;" points="196.457,218.119 203.235,213.194 200.645,205.222 207.427,210.148 214.208,205.221 
		211.619,213.193 218.4,218.119 210.017,218.121 207.427,226.091 204.836,218.119 	"/>
	<polygon style="fill:#496E2D;" points="219.2,249.424 221.79,241.454 215.008,236.527 223.39,236.527 225.98,228.555 
		228.571,236.526 236.953,236.526 230.171,241.453 232.761,249.424 225.979,244.498 	"/>
	<polygon style="fill:#496E2D;" points="256,261.381 253.41,253.41 245.028,253.411 251.809,248.484 249.219,240.512 256,245.438 
		262.78,240.512 260.191,248.484 266.972,253.41 258.59,253.41 	"/>
	<polygon style="fill:#496E2D;" points="292.8,249.424 286.021,244.497 279.239,249.424 281.829,241.453 275.047,236.527 
		283.429,236.526 286.019,228.555 288.61,236.527 296.992,236.527 290.21,241.454 	"/>
	<polygon style="fill:#496E2D;" points="315.543,218.119 307.164,218.119 304.573,226.091 301.983,218.121 293.6,218.121 
		300.381,213.193 297.792,205.222 304.573,210.148 311.354,205.222 308.765,213.194 	"/>
	<polygon style="fill:#496E2D;" points="315.543,179.425 308.765,184.351 311.355,192.323 304.573,187.397 297.792,192.324 
		300.381,184.352 293.6,179.426 301.983,179.425 304.573,171.455 307.164,179.425 	"/>
	<polygon style="fill:#496E2D;" points="292.8,148.121 290.21,156.092 296.992,161.019 288.61,161.019 286.021,168.991 
		283.429,161.02 275.047,161.02 281.829,156.092 279.239,148.122 286.021,153.046 	"/>
</g>
<path style="fill:#C7C7C7;" d="M255.929,21.706c-73.745,0-141.451,47.553-166.61,116.807
	c-25.343,69.773-3.142,149.835,53.974,197.07c57.236,47.338,140.369,53.625,203.978,15.148
	c63.626-38.489,97.228-114.681,82.271-187.573C414.889,91.77,355.517,35.12,283.472,23.842
	C274.361,22.416,265.141,21.706,255.929,21.706 M398.59,263.184c-30.241,67.01-105.732,104.802-177.479,88.399
	c-55.215-12.621-100.384-55.764-115.778-110.195c-15.749-55.658,1.328-116.804,43.417-156.425
	c45.534-42.867,114.172-54.571,171.321-28.799c68.228,30.767,105.971,108.144,87.651,180.845
	C405.459,245.986,402.37,254.739,398.59,263.184C396.502,267.811,400.132,259.739,398.59,263.184"/>
<g>
</g>
<g>
</g>
<g>
</g>
<g>
</g>
<g>
</g>
<g>
</g>
<g>
</g>
<g>
</g>
<g>
</g>
<g>
</g>
<g>
</g>
<g>
</g>
<g>
</g>
<g>
</g>
<g>
</g>
</svg>
