<?xml version="1.0" encoding="iso-8859-1"?>
<!-- Generator: Adobe Illustrator 19.0.0, SVG Export Plug-In . SVG Version: 6.00 Build 0)  -->
<svg version="1.1" id="Layer_1" xmlns="http://www.w3.org/2000/svg" xmlns:xlink="http://www.w3.org/1999/xlink" x="0px" y="0px"
	 viewBox="0 0 512 512" style="enable-background:new 0 0 512 512;" xml:space="preserve">
<path style="fill:#B3B3B3;" d="M434.439,110.654C401.179,45.876,334.359,0.003,255.98,0v101.329
	c55.478,0.004,100.593,43.67,100.595,99.15c0,54.805-45.491,102.048-100.595,102.052V512
	c70.646-73.617,151.953-154.542,187.529-251.428C461.298,212.121,457.979,156.5,434.439,110.654z"/>
<path style="fill:#979797;" d="M68.492,260.572C104.067,357.458,185.374,438.383,256.02,512V302.531
	c-55.103-0.004-100.595-47.247-100.595-102.052c0.002-55.479,45.117-99.146,100.595-99.15V0
	c-78.379,0.003-145.199,45.876-178.46,110.654C54.021,156.5,50.702,212.121,68.492,260.572z"/>
<path style="fill:#FFDA44;" d="M96,198.773c0-88.367,71.634-160,160-160s160,71.633,160,160l-160,13.913L96,198.773z"/>
<path style="fill:#D80027;" d="M117.41,278.773c27.664,47.823,79.367,80,138.59,80s110.925-32.177,138.59-80L256,268.337
	L117.41,278.773z"/>
<path style="fill:#0052B4;" d="M394.59,278.773c13.615-23.535,21.41-50.857,21.41-80H96c0,29.143,7.796,56.465,21.41,80H394.59z"/>
<circle style="fill:#FFDA44;" cx="256" cy="198.773" r="55.648"/>
<path style="fill:#338AF3;" d="M256,233.554c-19.179,0-34.782-15.602-34.782-34.781v-20.87c0-19.179,15.603-34.781,34.782-34.781
	s34.782,15.602,34.782,34.781v20.87C290.782,217.952,275.179,233.554,256,233.554z"/>
<path d="M311.652,115.294h-41.739c0-7.683-6.23-13.913-13.914-13.913c-7.683,0-13.914,6.229-13.914,13.913h-41.739
	c0,7.685,6.692,13.913,14.375,13.913h-0.464c0,7.685,6.229,13.915,13.914,13.915c0,7.683,6.229,13.913,13.913,13.913h27.827
	c7.683,0,13.913-6.229,13.913-13.913c7.684,0,13.914-6.229,13.914-13.915h-0.464C304.959,129.206,311.652,122.979,311.652,115.294z"
	/>
<path style="fill:#C7C7C7;" d="M255.929,21.707c-73.745,0-141.451,47.552-166.61,116.806
	c-25.343,69.773-3.142,149.836,53.974,197.071c57.236,47.338,140.369,53.625,203.978,15.148
	c63.626-38.49,97.228-114.681,82.271-187.573C414.889,91.771,355.517,35.121,283.472,23.843
	C274.361,22.416,265.141,21.707,255.929,21.707 M398.59,263.184c-30.241,67.009-105.732,104.802-177.479,88.399
	c-55.215-12.621-100.384-55.764-115.778-110.195c-15.749-55.658,1.328-116.804,43.417-156.425
	c45.534-42.867,114.172-54.571,171.321-28.799c68.228,30.767,105.971,108.144,87.651,180.844
	C405.459,245.986,402.37,254.739,398.59,263.184C396.502,267.81,400.132,259.739,398.59,263.184"/>
<g>
</g>
<g>
</g>
<g>
</g>
<g>
</g>
<g>
</g>
<g>
</g>
<g>
</g>
<g>
</g>
<g>
</g>
<g>
</g>
<g>
</g>
<g>
</g>
<g>
</g>
<g>
</g>
<g>
</g>
</svg>
