<?xml version="1.0" encoding="iso-8859-1"?>
<!-- Generator: Adobe Illustrator 19.0.0, SVG Export Plug-In . SVG Version: 6.00 Build 0)  -->
<svg version="1.1" id="Layer_1" xmlns="http://www.w3.org/2000/svg" xmlns:xlink="http://www.w3.org/1999/xlink" x="0px" y="0px"
	 viewBox="0 0 512 512" style="enable-background:new 0 0 512 512;" xml:space="preserve">
<path style="fill:#B3B3B3;" d="M434.439,110.654C401.179,45.876,334.359,0.003,255.98,0v101.329
	c55.478,0.004,100.593,43.67,100.595,99.15c0,54.805-45.491,102.048-100.595,102.052V512
	c70.646-73.617,151.953-154.542,187.529-251.428C461.298,212.121,457.979,156.5,434.439,110.654z"/>
<path style="fill:#979797;" d="M68.492,260.572C104.067,357.458,185.374,438.383,256.02,512V302.531
	c-55.103-0.004-100.595-47.247-100.595-102.052c0.002-55.479,45.117-99.146,100.595-99.15V0
	c-78.379,0.003-145.199,45.876-178.46,110.654C54.021,156.5,50.702,212.121,68.492,260.572z"/>
<path style="fill:#FFDA44;" d="M96,198.773c0,19.572,3.521,38.32,9.952,55.653L256,268.338l150.048-13.913
	c6.431-17.333,9.952-36.081,9.952-55.653c0-19.303-3.419-37.807-9.683-54.941L256,129.207l-150.317,14.625
	C99.419,160.965,96,179.47,96,198.773z"/>
<path style="fill:#D80027;" d="M256,358.773c68.794,0,127.442-43.42,150.048-104.348H105.952
	C128.558,315.354,187.206,358.773,256,358.773z"/>
<path style="fill:#6DA544;" d="M256,38.773c-68.794,0-127.442,43.42-150.048,104.348h300.096
	C383.442,82.193,324.794,38.773,256,38.773z"/>
<circle style="fill:#0052B4;" cx="256" cy="198.773" r="76.523"/>
<g>
	<polygon style="fill:#FFDA44;" points="255.983,139.518 269.798,182.031 314.571,182.031 278.336,208.307 292.257,250.947 
		255.983,224.546 219.766,250.898 233.632,208.307 197.429,182.031 242.17,182.031 	"/>
	<polygon style="fill:#FFDA44;" points="311.077,209.355 267.255,195.115 294.338,157.84 283.084,149.661 255.999,186.938 
		228.916,149.662 217.661,157.839 244.742,195.117 200.923,209.355 205.221,222.587 249.044,208.348 249.044,254.425 
		262.956,254.425 262.956,208.348 306.777,222.587 	"/>
</g>
<path style="fill:#C7C7C7;" d="M255.929,21.707c-73.745,0-141.451,47.552-166.61,116.806
	c-25.343,69.773-3.142,149.836,53.974,197.071c57.236,47.338,140.369,53.625,203.978,15.148
	c63.626-38.49,97.228-114.681,82.271-187.573C414.889,91.771,355.517,35.121,283.472,23.843
	C274.361,22.416,265.141,21.707,255.929,21.707 M398.59,263.184c-30.241,67.009-105.732,104.802-177.479,88.399
	c-55.215-12.621-100.384-55.764-115.778-110.195c-15.749-55.658,1.328-116.804,43.417-156.425
	c45.534-42.867,114.172-54.571,171.321-28.799c68.228,30.767,105.971,108.144,87.651,180.844
	C405.459,245.986,402.37,254.739,398.59,263.184C396.502,267.81,400.132,259.739,398.59,263.184"/>
<g>
</g>
<g>
</g>
<g>
</g>
<g>
</g>
<g>
</g>
<g>
</g>
<g>
</g>
<g>
</g>
<g>
</g>
<g>
</g>
<g>
</g>
<g>
</g>
<g>
</g>
<g>
</g>
<g>
</g>
</svg>
