<?xml version="1.0" encoding="iso-8859-1"?>
<!-- Generator: Adobe Illustrator 19.0.0, SVG Export Plug-In . SVG Version: 6.00 Build 0)  -->
<svg version="1.1" id="Layer_1" xmlns="http://www.w3.org/2000/svg" xmlns:xlink="http://www.w3.org/1999/xlink" x="0px" y="0px"
	 viewBox="0 0 512 512" style="enable-background:new 0 0 512 512;" xml:space="preserve">
<path style="fill:#B3B3B3;" d="M434.44,110.654C401.18,45.876,334.359,0.003,255.98,0v101.329
	c55.478,0.004,100.593,43.671,100.594,99.151c0.001,54.805-45.491,102.048-100.594,102.051V512
	c70.645-73.617,151.953-154.542,187.529-251.428C461.297,212.121,457.979,156.5,434.44,110.654z"/>
<path style="fill:#979797;" d="M68.492,260.572C104.067,357.458,185.374,438.383,256.02,512V302.531
	c-55.104-0.003-100.595-47.246-100.594-102.051c0.001-55.478,45.116-99.147,100.594-99.151V0
	c-78.379,0.003-145.2,45.876-178.46,110.654C54.021,156.5,50.703,212.121,68.492,260.572z"/>
<path style="fill:#338AF3;" d="M416,198.772c0,88.366-71.634,160-159.999,160c-88.366,0-160-71.634-160-160
	c0,0.038,160-159.982,160-160C344.366,38.772,416,110.406,416,198.772z"/>
<g>
	<polygon style="fill:#0052B4;" points="256,115.294 256.001,169.259 200.348,115.294 	"/>
	<polygon style="fill:#0052B4;" points="179.478,198.772 226.485,198.772 179.478,136.163 172.522,184.86 	"/>
</g>
<g>
	<path style="fill:#F0F0F0;" d="M256.001,38.772c-0.01,0-0.019,0-0.028,0H256.001L256.001,38.772z"/>
	<path style="fill:#F0F0F0;" d="M255.572,198.772H256c0-0.144,0-0.284,0-0.428C255.858,198.486,255.715,198.629,255.572,198.772z"/>
	<path style="fill:#F0F0F0;" d="M256.001,122.251c0-28.153,0-46.601,0-83.478h-0.028C167.62,38.787,96,110.416,96,198.772h83.478
		v-47.007l47.007,47.007h29.087c0.143-0.143,0.286-0.286,0.428-0.428c0-10.779,0-20.398,0-29.086l-47.008-47.008
		C208.992,122.251,256.001,122.251,256.001,122.251z"/>
</g>
<g>
	<path style="fill:#D80027;" d="M176.947,59.643c-25.024,14.249-45.828,35.053-60.077,60.077v79.053h41.739v-97.39v-0.001h97.392
		c0-13.165,0-25.706,0-41.739C256.001,59.643,176.947,59.643,176.947,59.643z"/>
	<path style="fill:#D80027;" d="M256.001,179.097l-56.847-56.846h-19.675v0.001L256,198.772h0.001
		C256.001,198.772,256.001,185.205,256.001,179.097z"/>
</g>
<path style="fill:#F3F3F3;" d="M276.869,143.12v55.651c0,37.275,48.695,48.697,48.695,48.697s48.695-11.422,48.695-48.697V143.12
	l-48.695-13.913L276.869,143.12z"/>
<path style="fill:#D80027;" d="M374.261,143.12v-20.869H276.87v20.869h41.738v41.74H276.87v13.911v0.001h41.738v46.561
	c4.199,1.487,6.957,2.134,6.957,2.134s2.757-0.647,6.956-2.133v-46.561h41.74v-0.001v-13.911h-41.74v-41.74h41.741V143.12z"/>
<path style="fill:#C7C7C7;" d="M255.928,21.706c-73.745,0-141.451,47.553-166.61,116.807
	c-25.343,69.773-3.142,149.835,53.974,197.07c57.236,47.338,140.369,53.625,203.978,15.148
	c63.626-38.489,97.228-114.681,82.271-187.573C414.888,91.77,355.517,35.12,283.472,23.842
	C274.361,22.416,265.141,21.706,255.928,21.706 M398.59,263.184c-30.241,67.01-105.732,104.802-177.479,88.399
	c-55.215-12.621-100.384-55.764-115.778-110.195c-15.749-55.658,1.328-116.804,43.417-156.425
	c45.534-42.867,114.172-54.571,171.321-28.799c68.228,30.767,105.971,108.144,87.651,180.845
	C405.459,245.986,402.37,254.739,398.59,263.184C396.502,267.811,400.132,259.739,398.59,263.184"/>
<g>
</g>
<g>
</g>
<g>
</g>
<g>
</g>
<g>
</g>
<g>
</g>
<g>
</g>
<g>
</g>
<g>
</g>
<g>
</g>
<g>
</g>
<g>
</g>
<g>
</g>
<g>
</g>
<g>
</g>
</svg>
