<?xml version="1.0" encoding="iso-8859-1"?>
<!-- Generator: Adobe Illustrator 19.0.0, SVG Export Plug-In . SVG Version: 6.00 Build 0)  -->
<svg version="1.1" id="Layer_1" xmlns="http://www.w3.org/2000/svg" xmlns:xlink="http://www.w3.org/1999/xlink" x="0px" y="0px"
	 viewBox="0 0 512 512" style="enable-background:new 0 0 512 512;" xml:space="preserve">
<path style="fill:#B3B3B3;" d="M434.439,110.654C401.179,45.876,334.359,0.003,255.98,0v101.329
	c55.478,0.004,100.593,43.671,100.595,99.151c0,54.805-45.491,102.048-100.595,102.051V512
	c70.646-73.617,151.953-154.542,187.529-251.428C461.298,212.121,457.979,156.5,434.439,110.654z"/>
<path style="fill:#979797;" d="M68.492,260.572C104.067,357.458,185.374,438.383,256.02,512V302.531
	c-55.103-0.003-100.595-47.247-100.595-102.051c0.002-55.478,45.117-99.147,100.595-99.151V0
	c-78.379,0.003-145.199,45.876-178.46,110.654C54.021,156.5,50.702,212.121,68.492,260.572z"/>
<circle style="fill:#F0F0F0;" cx="256" cy="198.773" r="160"/>
<g>
	<path style="fill:#D80027;" d="M414.645,177.903H276.869l0,0V40.127c-6.832-0.89-13.796-1.355-20.869-1.355
		s-14.037,0.465-20.869,1.355v137.775v0.001H97.355C96.465,184.734,96,191.699,96,198.772c0,7.074,0.465,14.038,1.355,20.87H235.13
		h0.001v137.776c6.832,0.89,13.796,1.354,20.869,1.354s14.037-0.464,20.869-1.354V219.643l0,0h137.776
		c0.89-6.831,1.355-13.796,1.355-20.87C416,191.698,415.536,184.734,414.645,177.903z"/>
	<polygon style="fill:#D80027;" points="193.392,115.294 193.392,94.425 172.522,94.425 172.522,115.294 151.652,115.294 
		151.652,136.163 172.522,136.163 172.522,157.034 193.392,157.034 193.392,136.163 214.26,136.163 214.26,115.294 	"/>
	<polygon style="fill:#D80027;" points="339.478,115.294 339.478,94.425 318.608,94.425 318.608,115.294 297.74,115.294 
		297.74,136.163 318.608,136.163 318.608,157.034 339.478,157.034 339.478,136.163 360.348,136.163 360.348,115.294 	"/>
	<polygon style="fill:#D80027;" points="193.392,261.381 193.392,240.512 172.522,240.512 172.522,261.381 151.652,261.381 
		151.652,282.251 172.522,282.251 172.522,303.12 193.392,303.12 193.392,282.251 214.26,282.251 214.26,261.381 	"/>
	<polygon style="fill:#D80027;" points="339.478,261.381 339.478,240.512 318.608,240.512 318.608,261.381 297.74,261.381 
		297.74,282.251 318.608,282.251 318.608,303.12 339.478,303.12 339.478,282.251 360.348,282.251 360.348,261.381 	"/>
</g>
<path style="fill:#C7C7C7;" d="M255.929,21.706c-73.745,0-141.451,47.553-166.61,116.807
	c-25.343,69.773-3.142,149.835,53.974,197.07c57.236,47.338,140.369,53.625,203.978,15.148
	c63.626-38.489,97.228-114.681,82.271-187.573C414.889,91.77,355.517,35.12,283.472,23.842
	C274.361,22.416,265.141,21.706,255.929,21.706 M398.59,263.184c-30.241,67.01-105.732,104.802-177.479,88.399
	c-55.215-12.621-100.384-55.764-115.778-110.195c-15.749-55.658,1.328-116.804,43.417-156.425
	c45.534-42.867,114.172-54.571,171.321-28.799c68.228,30.767,105.971,108.144,87.651,180.845
	C405.459,245.986,402.37,254.739,398.59,263.184C396.502,267.811,400.132,259.739,398.59,263.184"/>
<g>
</g>
<g>
</g>
<g>
</g>
<g>
</g>
<g>
</g>
<g>
</g>
<g>
</g>
<g>
</g>
<g>
</g>
<g>
</g>
<g>
</g>
<g>
</g>
<g>
</g>
<g>
</g>
<g>
</g>
</svg>
