<?xml version="1.0" encoding="iso-8859-1"?>
<!-- Generator: Adobe Illustrator 19.0.0, SVG Export Plug-In . SVG Version: 6.00 Build 0)  -->
<svg version="1.1" id="Layer_1" xmlns="http://www.w3.org/2000/svg" xmlns:xlink="http://www.w3.org/1999/xlink" x="0px" y="0px"
	 viewBox="0 0 512 512" style="enable-background:new 0 0 512 512;" xml:space="preserve">
<path style="fill:#B3B3B3;" d="M434.439,110.654C401.179,45.876,334.359,0.003,255.98,0v101.329
	c55.478,0.004,100.593,43.671,100.595,99.15c0,54.805-45.491,102.048-100.595,102.052V512
	c70.646-73.617,151.953-154.542,187.529-251.428C461.298,212.121,457.979,156.5,434.439,110.654z"/>
<path style="fill:#979797;" d="M68.492,260.572C104.067,357.458,185.374,438.383,256.02,512V302.531
	c-55.103-0.004-100.595-47.247-100.595-102.052c0.002-55.478,45.117-99.146,100.595-99.15V0
	c-78.379,0.003-145.199,45.876-178.46,110.654C54.021,156.5,50.702,212.121,68.492,260.572z"/>
<circle style="fill:#F9F9F9;" cx="256" cy="198.773" r="160"/>
<g>
	<path style="fill:#D80027;" d="M256,358.773c68.794,0,127.442-43.421,150.048-104.348H105.951
		C128.558,315.353,187.205,358.773,256,358.773z"/>
	<polygon style="fill:#D80027;" points="318.608,170.946 318.608,150.077 325.565,150.077 325.565,136.164 311.652,136.164 
		311.652,143.121 297.74,143.121 297.74,136.164 283.826,136.164 283.826,150.077 290.782,150.077 290.782,170.946 276.869,170.946 
		276.869,122.252 283.826,122.252 283.826,108.339 269.913,108.339 269.913,115.294 262.956,115.294 262.956,108.339 
		249.044,108.339 249.044,115.294 242.087,115.294 242.087,108.339 228.174,108.339 228.174,122.252 235.131,122.252 
		235.131,170.946 221.218,170.946 221.218,150.077 228.174,150.077 228.174,136.164 214.26,136.164 214.26,143.121 200.348,143.121 
		200.348,136.164 186.434,136.164 186.434,150.077 193.392,150.077 193.392,170.946 179.478,170.946 179.478,226.598 
		332.522,226.598 332.522,170.946 	"/>
</g>
<path style="fill:#FFDA44;" d="M256,219.642c-11.526,0-20.869,9.344-20.869,20.87c0,9.086,5.808,16.813,13.914,19.677v29.019
	h-20.869v27.825h34.782v-56.844c8.106-2.865,13.914-10.592,13.914-19.677C276.869,228.986,267.526,219.642,256,219.642z
	 M256,247.469c-3.842,0-6.956-3.115-6.956-6.956c0-3.844,3.114-6.956,6.956-6.956c3.842,0,6.956,3.113,6.956,6.956
	C262.956,244.354,259.842,247.469,256,247.469z"/>
<path style="fill:#C7C7C7;" d="M255.929,21.707c-73.745,0-141.451,47.552-166.61,116.806
	c-25.343,69.773-3.142,149.836,53.974,197.071c57.236,47.338,140.369,53.625,203.978,15.148
	c63.626-38.49,97.228-114.681,82.271-187.573C414.889,91.771,355.517,35.121,283.472,23.843
	C274.361,22.416,265.141,21.707,255.929,21.707 M398.59,263.184c-30.241,67.009-105.732,104.802-177.479,88.399
	c-55.215-12.621-100.384-55.764-115.778-110.195c-15.749-55.658,1.328-116.804,43.417-156.425
	c45.534-42.867,114.172-54.571,171.321-28.799c68.228,30.767,105.971,108.144,87.651,180.844
	C405.459,245.986,402.37,254.739,398.59,263.184C396.502,267.81,400.132,259.739,398.59,263.184"/>
<g>
</g>
<g>
</g>
<g>
</g>
<g>
</g>
<g>
</g>
<g>
</g>
<g>
</g>
<g>
</g>
<g>
</g>
<g>
</g>
<g>
</g>
<g>
</g>
<g>
</g>
<g>
</g>
<g>
</g>
</svg>
