<?xml version="1.0" encoding="iso-8859-1"?>
<!-- Generator: Adobe Illustrator 19.0.0, SVG Export Plug-In . SVG Version: 6.00 Build 0)  -->
<svg version="1.1" id="Layer_1" xmlns="http://www.w3.org/2000/svg" xmlns:xlink="http://www.w3.org/1999/xlink" x="0px" y="0px"
	 viewBox="0 0 512 512" style="enable-background:new 0 0 512 512;" xml:space="preserve">
<path style="fill:#B3B3B3;" d="M434.439,110.654C401.178,45.876,334.359,0.003,255.98,0v101.329
	c55.478,0.004,100.593,43.671,100.595,99.15c0,54.805-45.491,102.048-100.595,102.052V512
	c70.645-73.617,151.953-154.542,187.529-251.428C461.298,212.121,457.979,156.5,434.439,110.654z"/>
<path style="fill:#979797;" d="M68.492,260.572C104.066,357.458,185.374,438.383,256.019,512V302.531
	c-55.104-0.004-100.595-47.247-100.594-102.052c0.001-55.478,45.116-99.146,100.594-99.15V0
	c-78.379,0.003-145.2,45.876-178.46,110.654C54.021,156.5,50.703,212.121,68.492,260.572z"/>
<circle style="fill:#FFDA44;" cx="256" cy="198.773" r="160"/>
<path style="fill:#A2001D;" d="M165.821,66.598C191.498,49.045,222.547,38.773,256,38.773s64.501,10.273,90.179,27.825L256,73.556
	L165.821,66.598z"/>
<polygon style="fill:#0052B4;" points="256,198.773 245.789,188.562 243.077,193.419 "/>
<g>
	<path style="fill:#496E2D;" d="M142.863,85.635c-62.484,62.483-62.484,163.792,0,226.275
		c25.82-25.821,50.653-50.654,113.137-113.137L142.863,85.635z"/>
	<path style="fill:#496E2D;" d="M369.137,85.635c62.483,62.483,62.483,163.792,0,226.275
		C343.316,286.09,318.483,261.257,256,198.773L369.137,85.635z"/>
</g>
<circle style="fill:#A2001D;" cx="256" cy="198.773" r="55.648"/>
<g>
	<polygon style="fill:#FFDA44;" points="255.999,143.121 268.473,181.515 308.847,181.515 276.186,205.248 288.66,243.642 
		255.999,219.913 223.336,243.642 235.813,205.248 203.153,181.515 243.523,181.515 	"/>
	<path style="fill:#FFDA44;" d="M256,38.773c-0.018,0-0.035,0.002-0.053,0.002h0.108C256.035,38.775,256.018,38.773,256,38.773z"/>
</g>
<g>
	<path style="fill:#A2001D;" d="M256.053,38.773h-0.108c-44.158,0.015-84.133,17.917-113.075,46.854h226.258
		C340.186,56.689,300.211,38.787,256.053,38.773z"/>
	<path style="fill:#A2001D;" d="M142.871,311.919c28.954,28.95,68.95,46.854,113.129,46.854s84.175-17.904,113.129-46.854H142.871z"
		/>
</g>
<g>
	<polygon style="fill:#FFDA44;" points="256,56.164 258.591,64.135 266.972,64.135 260.191,69.062 262.782,77.034 256,72.109 
		249.219,77.034 251.81,69.062 245.028,64.135 253.409,64.135 	"/>
	<polygon style="fill:#FFDA44;" points="217.202,56.164 219.793,64.135 228.174,64.135 221.393,69.062 223.984,77.034 
		217.202,72.109 210.421,77.034 213.012,69.062 206.23,64.135 214.612,64.135 	"/>
	<polygon style="fill:#FFDA44;" points="294.798,56.164 297.388,64.135 305.769,64.135 298.989,69.062 301.58,77.034 
		294.798,72.109 288.017,77.034 290.608,69.062 283.826,64.135 292.207,64.135 	"/>
	<polygon style="fill:#FFDA44;" points="256,320.512 258.591,328.483 266.972,328.483 260.191,333.41 262.782,341.381 256,336.454 
		249.219,341.381 251.81,333.41 245.028,328.483 253.409,328.483 	"/>
	<polygon style="fill:#FFDA44;" points="217.202,320.512 219.793,328.483 228.174,328.483 221.393,333.41 223.984,341.381 
		217.202,336.454 210.421,341.381 213.012,333.41 206.23,328.483 214.612,328.483 	"/>
	<polygon style="fill:#FFDA44;" points="294.798,320.512 297.388,328.483 305.769,328.483 298.989,333.41 301.58,341.381 
		294.798,336.454 288.017,341.381 290.608,333.41 283.826,328.483 292.207,328.483 	"/>
	<path style="fill:#FFDA44;" d="M144.752,196.129c4.109,6.494,2.178,15.088-4.315,19.198c-6.493,4.111-15.087,2.179-19.198-4.315
		c-7.441-11.756-3.126-30.953-3.126-30.953S137.31,184.375,144.752,196.129z"/>
</g>
<circle style="fill:#A2001D;" cx="136.714" cy="209.451" r="6.957"/>
<path style="fill:#C7C7C7;" d="M255.927,21.707c-73.745,0-141.451,47.552-166.61,116.806
	c-25.343,69.773-3.142,149.836,53.974,197.071c57.236,47.338,140.369,53.625,203.979,15.148
	c63.626-38.49,97.228-114.681,82.271-187.573C414.888,91.771,355.517,35.121,283.472,23.843
	C274.36,22.416,265.141,21.707,255.927,21.707 M398.59,263.184c-30.241,67.009-105.732,104.802-177.479,88.399
	c-55.215-12.621-100.384-55.764-115.778-110.195c-15.749-55.658,1.328-116.804,43.417-156.425
	c45.535-42.867,114.172-54.571,171.321-28.799c68.228,30.767,105.971,108.144,87.651,180.844
	C405.459,245.986,402.37,254.739,398.59,263.184C396.502,267.81,400.132,259.739,398.59,263.184"/>
<g>
</g>
<g>
</g>
<g>
</g>
<g>
</g>
<g>
</g>
<g>
</g>
<g>
</g>
<g>
</g>
<g>
</g>
<g>
</g>
<g>
</g>
<g>
</g>
<g>
</g>
<g>
</g>
<g>
</g>
</svg>
