<?xml version="1.0" encoding="iso-8859-1"?>
<!-- Generator: Adobe Illustrator 19.0.0, SVG Export Plug-In . SVG Version: 6.00 Build 0)  -->
<svg version="1.1" id="Layer_1" xmlns="http://www.w3.org/2000/svg" xmlns:xlink="http://www.w3.org/1999/xlink" x="0px" y="0px"
	 viewBox="0 0 512 512" style="enable-background:new 0 0 512 512;" xml:space="preserve">
<path style="fill:#B3B3B3;" d="M434.439,110.654C401.178,45.876,334.359,0.003,255.98,0v101.329
	c55.478,0.004,100.593,43.671,100.595,99.15c0,54.805-45.491,102.048-100.595,102.052V512
	c70.646-73.617,151.953-154.542,187.529-251.428C461.298,212.121,457.979,156.5,434.439,110.654z"/>
<path style="fill:#979797;" d="M68.492,260.572C104.066,357.458,185.374,438.383,256.019,512V302.531
	c-55.104-0.004-100.595-47.247-100.594-102.052c0.001-55.478,45.116-99.146,100.594-99.15V0
	c-78.379,0.003-145.2,45.876-178.46,110.654C54.021,156.5,50.703,212.121,68.492,260.572z"/>
<g>
	<path style="fill:#D80027;" d="M165.82,330.946c25.679,17.554,56.729,27.827,90.18,27.827s64.501-10.273,90.179-27.827L256,317.034
		L165.82,330.946z"/>
	<path style="fill:#D80027;" d="M346.179,66.598C320.501,49.045,289.452,38.773,256,38.773s-64.501,10.273-90.18,27.825L256,80.512
		L346.179,66.598z"/>
</g>
<path style="fill:#0052B4;" d="M416,198.773c0-52.944-31.697-106.112-69.821-132.175H165.82C123.668,95.414,96,143.86,96,198.773
	c0,54.914,27.668,103.358,69.82,132.173h180.359C388.331,302.131,416,253.687,416,198.773z"/>
<path style="fill:#D80027;" d="M246.945,299.771c-2.187-1.875-53.554-46.529-53.554-100.998c0-54.468,51.367-99.123,53.554-100.997
	L256,90.013l9.054,7.762c2.187,1.873,53.555,46.529,53.555,100.997s-51.367,99.125-53.555,100.998L256,307.534L246.945,299.771z"/>
<path style="fill:#338AF3;" d="M304.695,198.773c0-48.695-48.695-90.435-48.695-90.435s-48.695,41.742-48.695,90.435
	c0,14.896,4.561,29.139,10.887,41.74h75.617C300.134,227.913,304.695,213.668,304.695,198.773z"/>
<path style="fill:#0052B4;" d="M304.695,198.773c0,14.896-4.561,29.139-10.887,41.74L256,247.469l-37.808-6.956
	c-6.326-12.601-10.887-26.844-10.887-41.74H304.695z"/>
<path style="fill:#FFDA44;" d="M256,289.209c0,0,23.455-20.111,37.808-48.695h-75.617C232.545,269.098,256,289.209,256,289.209z"/>
<polygon style="fill:#6DA544;" points="224.695,170.946 287.304,170.946 256,202.252 "/>
<rect x="245.568" y="191.819" style="fill:#A2001D;" width="20.869" height="62.608"/>
<path style="fill:#C7C7C7;" d="M255.927,21.707c-73.745,0-141.451,47.552-166.61,116.806
	c-25.343,69.773-3.142,149.836,53.974,197.071c57.236,47.338,140.369,53.625,203.978,15.148
	c63.626-38.49,97.228-114.681,82.271-187.573C414.887,91.771,355.516,35.121,283.471,23.843
	C274.36,22.416,265.141,21.707,255.927,21.707 M398.59,263.184c-30.241,67.009-105.732,104.802-177.479,88.399
	c-55.215-12.621-100.384-55.764-115.778-110.195c-15.749-55.658,1.328-116.804,43.417-156.425
	c45.535-42.867,114.172-54.571,171.321-28.799c68.228,30.767,105.971,108.144,87.651,180.844
	C405.459,245.986,402.37,254.739,398.59,263.184C396.502,267.81,400.132,259.739,398.59,263.184"/>
<g>
</g>
<g>
</g>
<g>
</g>
<g>
</g>
<g>
</g>
<g>
</g>
<g>
</g>
<g>
</g>
<g>
</g>
<g>
</g>
<g>
</g>
<g>
</g>
<g>
</g>
<g>
</g>
<g>
</g>
</svg>
