<?xml version="1.0" encoding="iso-8859-1"?>
<!-- Generator: Adobe Illustrator 19.0.0, SVG Export Plug-In . SVG Version: 6.00 Build 0)  -->
<svg version="1.1" id="Layer_1" xmlns="http://www.w3.org/2000/svg" xmlns:xlink="http://www.w3.org/1999/xlink" x="0px" y="0px"
	 viewBox="0 0 512 512" style="enable-background:new 0 0 512 512;" xml:space="preserve">
<path style="fill:#B3B3B3;" d="M434.439,110.654C401.179,45.876,334.359,0.003,255.98,0v101.329
	c55.478,0.004,100.593,43.671,100.595,99.15c0,54.805-45.491,102.048-100.595,102.052V512
	c70.646-73.617,151.953-154.542,187.529-251.428C461.298,212.121,457.979,156.5,434.439,110.654z"/>
<path style="fill:#979797;" d="M68.492,260.572C104.067,357.458,185.374,438.383,256.02,512V302.531
	c-55.103-0.004-100.595-47.247-100.595-102.052c0.002-55.478,45.117-99.146,100.595-99.15V0
	c-78.379,0.003-145.199,45.876-178.46,110.654C54.021,156.5,50.702,212.121,68.492,260.572z"/>
<circle style="fill:#F0F0F0;" cx="256" cy="198.773" r="160"/>
<path style="fill:#6DA544;" d="M256,38.773c-28.288,0-54.855,7.353-77.913,20.231V338.54c23.057,12.881,49.625,20.234,77.913,20.234
	c88.366,0,160-71.635,160-160S344.366,38.773,256,38.773z"/>
<path style="fill:#F0F0F0;" d="M178.558,58.741c-10.066,5.579-19.465,12.208-28.052,19.746c0.868-0.761,1.745-1.515,2.629-2.256
	l122.541,122.542L153.135,321.314c-0.884-0.743-1.76-1.495-2.629-2.256c8.588,7.537,17.986,14.166,28.052,19.746L416,198.773
	L178.558,58.741z"/>
<path style="fill:#FFDA44;" d="M165.044,67.137c-4.879,3.377-9.567,7.014-14.031,10.9L256,198.773L151.012,319.508
	c4.465,3.888,9.152,7.523,14.031,10.9l223.568-131.635L165.044,67.137z"/>
<path d="M153.135,76.231c-3.557,2.99-6.989,6.121-10.272,9.404l99.225,113.137l-99.225,113.137
	c3.283,3.281,6.715,6.415,10.272,9.404l122.541-122.54L153.135,76.231z"/>
<path style="fill:#D80027;" d="M142.863,85.635c-62.483,62.483-62.483,163.792,0,226.275
	C168.684,286.09,193.517,261.257,256,198.773L142.863,85.635z"/>
<path style="fill:#C7C7C7;" d="M255.929,21.707c-73.745,0-141.451,47.552-166.61,116.806
	c-25.343,69.773-3.142,149.836,53.974,197.071c57.236,47.338,140.369,53.625,203.978,15.148
	c63.626-38.49,97.228-114.681,82.271-187.573C414.889,91.771,355.517,35.121,283.472,23.843
	C274.361,22.416,265.141,21.707,255.929,21.707 M398.59,263.184c-30.241,67.009-105.732,104.802-177.479,88.399
	c-55.215-12.621-100.384-55.764-115.778-110.195c-15.749-55.658,1.328-116.804,43.417-156.425
	c45.534-42.867,114.172-54.571,171.321-28.799c68.228,30.767,105.971,108.144,87.651,180.844
	C405.459,245.986,402.37,254.739,398.59,263.184C396.502,267.81,400.132,259.739,398.59,263.184"/>
<g>
</g>
<g>
</g>
<g>
</g>
<g>
</g>
<g>
</g>
<g>
</g>
<g>
</g>
<g>
</g>
<g>
</g>
<g>
</g>
<g>
</g>
<g>
</g>
<g>
</g>
<g>
</g>
<g>
</g>
</svg>
