<?xml version="1.0" encoding="iso-8859-1"?>
<!-- Generator: Adobe Illustrator 19.0.0, SVG Export Plug-In . SVG Version: 6.00 Build 0)  -->
<svg version="1.1" id="Layer_1" xmlns="http://www.w3.org/2000/svg" xmlns:xlink="http://www.w3.org/1999/xlink" x="0px" y="0px"
	 viewBox="0 0 512 512" style="enable-background:new 0 0 512 512;" xml:space="preserve">
<path style="fill:#B3B3B3;" d="M434.439,110.654C401.178,45.876,334.359,0.003,255.98,0v101.329
	c55.478,0.004,100.593,43.67,100.595,99.15c0,54.805-45.491,102.048-100.595,102.052V512
	c70.645-73.617,151.953-154.542,187.529-251.428C461.298,212.121,457.979,156.5,434.439,110.654z"/>
<path style="fill:#979797;" d="M68.492,260.572C104.066,357.458,185.374,438.383,256.019,512V302.531
	c-55.104-0.004-100.595-47.247-100.594-102.052c0.001-55.479,45.116-99.146,100.594-99.15V0
	c-78.379,0.003-145.2,45.876-178.46,110.654C54.021,156.5,50.703,212.121,68.492,260.572z"/>
<circle style="fill:#F0F0F0;" cx="256" cy="198.773" r="160"/>
<path style="fill:#D80027;" d="M256,358.772c40.573,0,77.613-15.11,105.817-40H150.183C178.388,343.662,215.426,358.772,256,358.772
	z"/>
<g>
	<path style="fill:#0052B4;" d="M101.04,238.772c3.653,14.192,9.207,27.619,16.37,40h277.179c7.163-12.381,12.717-25.808,16.37-40
		L256,226.598L101.04,238.772z"/>
	<path style="fill:#0052B4;" d="M410.959,158.772c-3.653-14.192-9.207-27.619-16.37-40L256,115.294c0-27.946,0-54.356,0-76.522
		c-11.886,0-23.469,1.297-34.617,3.756c-0.213,0.047-104.514,82.319-104.514,156.245C119.536,199.237,256,212.687,256,212.687
		s0-30.476,0-53.914h154.959V158.772z"/>
</g>
<path style="fill:#F0F0F0;" d="M256,138.598v-80h-50.672l16.061-16.061c-65.932,14.542-116.592,69.744-124.346,137.974
	C96.361,186.506,96,192.596,96,198.772c16.695,0,81.044,0,81.044,0v-31.889l32.205,31.889h57.242l-61.162-60.174H256z"/>
<path style="fill:#D80027;" d="M256.073,198.772L195.9,138.598h-18.855v0.001l60.173,60.173H156.87v-80H394.59
	c-8.711-15.058-19.809-28.56-32.773-40H156.869v-5.578c-16.143,12.761-29.763,28.565-40,46.55v79.028H96
	c0,13.811,1.75,27.216,5.041,40H410.96c3.291-12.784,5.041-26.189,5.041-40H256.073V198.772z"/>
<path style="fill:#C7C7C7;" d="M255.927,21.707c-73.745,0-141.451,47.552-166.61,116.806
	c-25.343,69.773-3.142,149.836,53.974,197.071c57.236,47.338,140.369,53.625,203.979,15.148
	c63.626-38.49,97.228-114.681,82.271-187.573C414.888,91.771,355.517,35.121,283.472,23.843
	C274.36,22.416,265.141,21.707,255.927,21.707 M398.59,263.184c-30.241,67.009-105.732,104.802-177.479,88.399
	c-55.215-12.621-100.384-55.764-115.778-110.195c-15.749-55.658,1.328-116.804,43.417-156.425
	c45.535-42.867,114.172-54.571,171.321-28.799c68.228,30.767,105.971,108.144,87.651,180.844
	C405.459,245.986,402.37,254.739,398.59,263.184C396.502,267.81,400.132,259.739,398.59,263.184"/>
<g>
</g>
<g>
</g>
<g>
</g>
<g>
</g>
<g>
</g>
<g>
</g>
<g>
</g>
<g>
</g>
<g>
</g>
<g>
</g>
<g>
</g>
<g>
</g>
<g>
</g>
<g>
</g>
<g>
</g>
</svg>
