<?xml version="1.0" encoding="iso-8859-1"?>
<!-- Generator: Adobe Illustrator 19.0.0, SVG Export Plug-In . SVG Version: 6.00 Build 0)  -->
<svg version="1.1" id="Layer_1" xmlns="http://www.w3.org/2000/svg" xmlns:xlink="http://www.w3.org/1999/xlink" x="0px" y="0px"
	 viewBox="0 0 512 512" style="enable-background:new 0 0 512 512;" xml:space="preserve">
<path style="fill:#B3B3B3;" d="M434.439,110.654C401.179,45.876,334.359,0.003,255.98,0v101.329
	c55.478,0.004,100.593,43.67,100.595,99.15c0,54.805-45.491,102.048-100.595,102.052V512
	c70.646-73.617,151.953-154.542,187.529-251.428C461.298,212.121,457.979,156.5,434.439,110.654z"/>
<path style="fill:#979797;" d="M68.492,260.572C104.067,357.458,185.374,438.383,256.02,512V302.531
	c-55.103-0.004-100.595-47.247-100.595-102.052c0.002-55.479,45.117-99.146,100.595-99.15V0
	c-78.379,0.003-145.199,45.876-178.46,110.654C54.021,156.5,50.702,212.121,68.492,260.572z"/>
<circle style="fill:#D80027;" cx="256" cy="198.773" r="160"/>
<g>
	<path style="fill:#F0F0F0;" d="M272.518,159.814c-3.635,15.125-10.096,12.24-13.267,25.431
		c-18.676-4.492-30.179-23.273-25.689-41.95c4.49-18.677,23.271-30.179,41.949-25.69
		C269.17,143.985,275.772,146.288,272.518,159.814z"/>
	<path style="fill:#F0F0F0;" d="M224.054,171.023c13.261,8.131,8.521,13.386,20.084,20.477
		c-10.042,16.375-31.458,21.51-47.835,11.469c-16.375-10.042-21.51-31.458-11.469-47.836
		C207.965,169.316,212.193,163.75,224.054,171.023z"/>
	<path style="fill:#F0F0F0;" d="M219.737,220.579c11.831-10.098,15.362-3.967,25.68-12.773c12.471,14.61,10.737,36.564-3.873,49.038
		c-14.611,12.47-36.566,10.735-49.037-3.875C213.141,235.355,209.153,229.613,219.737,220.579z"/>
	<path style="fill:#F0F0F0;" d="M265.535,240c-5.95-14.373,0.973-15.838-4.214-28.371c17.75-7.346,38.095,1.088,45.441,18.837
		c7.346,17.748-1.089,38.094-18.838,45.44C277.548,250.837,270.854,252.857,265.535,240z"/>
	<path style="fill:#F0F0F0;" d="M298.157,202.446c-15.508,1.217-14.764-5.821-28.287-4.761
		c-1.501-19.15,12.807-35.893,31.958-37.396c19.15-1.5,35.893,12.809,37.395,31.958
		C312.175,194.369,312.026,201.358,298.157,202.446z"/>
</g>
<path style="fill:#C7C7C7;" d="M255.929,21.707c-73.745,0-141.451,47.552-166.61,116.806
	c-25.343,69.773-3.142,149.836,53.974,197.071c57.236,47.338,140.369,53.625,203.978,15.148
	c63.626-38.49,97.228-114.681,82.271-187.573C414.889,91.771,355.517,35.121,283.472,23.843
	C274.361,22.416,265.141,21.707,255.929,21.707 M398.59,263.184c-30.241,67.009-105.732,104.802-177.479,88.399
	c-55.215-12.621-100.384-55.764-115.778-110.195c-15.749-55.658,1.328-116.804,43.417-156.425
	c45.534-42.867,114.172-54.571,171.321-28.799c68.228,30.767,105.971,108.144,87.651,180.844
	C405.459,245.986,402.37,254.739,398.59,263.184C396.502,267.81,400.132,259.739,398.59,263.184"/>
<g>
</g>
<g>
</g>
<g>
</g>
<g>
</g>
<g>
</g>
<g>
</g>
<g>
</g>
<g>
</g>
<g>
</g>
<g>
</g>
<g>
</g>
<g>
</g>
<g>
</g>
<g>
</g>
<g>
</g>
</svg>
