<?xml version="1.0" encoding="iso-8859-1"?>
<!-- Generator: Adobe Illustrator 19.0.0, SVG Export Plug-In . SVG Version: 6.00 Build 0)  -->
<svg version="1.1" id="Layer_1" xmlns="http://www.w3.org/2000/svg" xmlns:xlink="http://www.w3.org/1999/xlink" x="0px" y="0px"
	 viewBox="0 0 512 512" style="enable-background:new 0 0 512 512;" xml:space="preserve">
<path style="fill:#B3B3B3;" d="M434.439,110.654C401.179,45.876,334.359,0.003,255.98,0v101.329
	c55.478,0.004,100.593,43.67,100.595,99.15c0,54.805-45.491,102.048-100.595,102.052V512
	c70.646-73.617,151.953-154.542,187.529-251.428C461.298,212.121,457.979,156.5,434.439,110.654z"/>
<path style="fill:#979797;" d="M68.492,260.572C104.067,357.458,185.374,438.383,256.02,512V302.531
	c-55.103-0.004-100.595-47.247-100.595-102.052c0.002-55.479,45.117-99.146,100.595-99.15V0
	c-78.379,0.003-145.199,45.876-178.46,110.654C54.021,156.5,50.702,212.121,68.492,260.572z"/>
<circle style="fill:#F0F0F0;" cx="256" cy="198.773" r="160"/>
<g>
	<path style="fill:#0052B4;" d="M316.245,163.989h-40.164L256,129.206l-20.081,34.783h-40.164l20.083,34.783l-20.083,34.781h40.164
		L256,268.337l20.081-34.783h40.164l-20.083-34.781L316.245,163.989z M280.672,198.773l-12.336,21.366h-24.672l-12.336-21.366
		l12.336-21.369h24.672L280.672,198.773z M256,156.037l4.591,7.952h-9.181L256,156.037z M218.992,177.404h9.182l-4.591,7.954
		L218.992,177.404z M218.992,220.14l4.592-7.952l4.591,7.952H218.992z M256,241.508l-4.591-7.954h9.181L256,241.508z
		 M293.008,220.14h-9.182l4.592-7.952L293.008,220.14z M283.826,177.404h9.182l-4.591,7.954L283.826,177.404z"/>
	<path style="fill:#0052B4;" d="M355.598,73.554H156.402c-14.602,11.631-27.124,25.758-36.918,41.74h273.034
		C382.722,99.312,370.201,85.185,355.598,73.554z"/>
	<path style="fill:#0052B4;" d="M156.402,323.989h199.196c14.603-11.629,27.124-25.756,36.918-41.74H119.484
		C129.278,298.234,141.801,312.361,156.402,323.989z"/>
</g>
<path style="fill:#C7C7C7;" d="M255.929,21.707c-73.745,0-141.451,47.552-166.61,116.806
	c-25.343,69.773-3.142,149.836,53.974,197.071c57.236,47.338,140.369,53.625,203.978,15.148
	c63.626-38.49,97.228-114.681,82.271-187.573C414.889,91.771,355.517,35.121,283.472,23.843
	C274.361,22.416,265.141,21.707,255.929,21.707 M398.59,263.184c-30.241,67.009-105.732,104.802-177.479,88.399
	c-55.215-12.621-100.384-55.764-115.778-110.195c-15.749-55.658,1.328-116.804,43.417-156.425
	c45.534-42.867,114.172-54.571,171.321-28.799c68.228,30.767,105.971,108.144,87.651,180.844
	C405.459,245.986,402.37,254.739,398.59,263.184C396.502,267.81,400.132,259.739,398.59,263.184"/>
<g>
</g>
<g>
</g>
<g>
</g>
<g>
</g>
<g>
</g>
<g>
</g>
<g>
</g>
<g>
</g>
<g>
</g>
<g>
</g>
<g>
</g>
<g>
</g>
<g>
</g>
<g>
</g>
<g>
</g>
</svg>
