<?xml version="1.0" encoding="iso-8859-1"?>
<!-- Generator: Adobe Illustrator 19.0.0, SVG Export Plug-In . SVG Version: 6.00 Build 0)  -->
<svg version="1.1" id="Layer_1" xmlns="http://www.w3.org/2000/svg" xmlns:xlink="http://www.w3.org/1999/xlink" x="0px" y="0px"
	 viewBox="0 0 512 512" style="enable-background:new 0 0 512 512;" xml:space="preserve">
<path style="fill:#B3B3B3;" d="M434.44,110.654C401.18,45.876,334.359,0.003,255.98,0v101.329
	c55.478,0.004,100.593,43.671,100.594,99.151c0.001,54.805-45.491,102.048-100.594,102.051V512
	c70.645-73.617,151.953-154.542,187.529-251.428C461.297,212.121,457.979,156.5,434.44,110.654z"/>
<path style="fill:#979797;" d="M68.492,260.572C104.067,357.458,185.374,438.383,256.02,512V302.531
	c-55.104-0.003-100.595-47.246-100.594-102.051c0.001-55.478,45.116-99.147,100.594-99.151V0
	c-78.379,0.003-145.2,45.876-178.46,110.654C54.021,156.5,50.703,212.121,68.492,260.572z"/>
<circle style="fill:#F0F0F0;" cx="256" cy="198.773" r="160"/>
<path style="fill:#D80027;" d="M382.935,296.195l-97.421-97.422l0,0l97.422-97.423c-4.202-5.46-8.798-10.713-13.798-15.714
	c-5.002-5.002-10.255-9.598-15.715-13.799l-97.422,97.422H256l-97.422-97.422c-5.459,4.201-10.714,8.797-15.714,13.799
	c-5.002,5.002-9.598,10.255-13.799,15.714l97.421,97.422l0.001,0.001l-97.422,97.422c4.202,5.46,8.798,10.714,13.799,15.715
	c5.002,5.002,10.255,9.598,15.714,13.799L256,228.287l0,0l97.422,97.422c5.459-4.202,10.714-8.797,15.715-13.798
	C374.139,306.908,378.735,301.654,382.935,296.195z"/>
<polygon style="fill:#FFDA44;" points="228.174,87.469 256,94.425 283.826,87.469 283.826,63.817 272.695,69.381 256,52.686 
	239.305,69.381 228.174,63.817 "/>
<path style="fill:#D80027;" d="M228.174,87.469v17.393c0,21.299,27.826,27.826,27.826,27.826s27.826-6.527,27.826-27.826V87.469
	H228.174z"/>
<path style="fill:#C7C7C7;" d="M255.928,21.706c-73.745,0-141.451,47.553-166.61,116.807
	c-25.343,69.773-3.142,149.835,53.974,197.07c57.236,47.338,140.369,53.625,203.978,15.148
	c63.626-38.489,97.228-114.681,82.271-187.573C414.888,91.77,355.517,35.12,283.472,23.842
	C274.361,22.416,265.141,21.706,255.928,21.706 M398.59,263.184c-30.241,67.01-105.732,104.802-177.479,88.399
	c-55.215-12.621-100.384-55.764-115.778-110.195c-15.749-55.658,1.328-116.804,43.417-156.425
	c45.534-42.867,114.172-54.571,171.321-28.799c68.228,30.767,105.971,108.144,87.651,180.845
	C405.459,245.986,402.37,254.739,398.59,263.184C396.502,267.811,400.132,259.739,398.59,263.184"/>
<g>
</g>
<g>
</g>
<g>
</g>
<g>
</g>
<g>
</g>
<g>
</g>
<g>
</g>
<g>
</g>
<g>
</g>
<g>
</g>
<g>
</g>
<g>
</g>
<g>
</g>
<g>
</g>
<g>
</g>
</svg>
