<?xml version="1.0" encoding="iso-8859-1"?>
<!-- Generator: Adobe Illustrator 19.0.0, SVG Export Plug-In . SVG Version: 6.00 Build 0)  -->
<svg version="1.1" id="Layer_1" xmlns="http://www.w3.org/2000/svg" xmlns:xlink="http://www.w3.org/1999/xlink" x="0px" y="0px"
	 viewBox="0 0 512 512" style="enable-background:new 0 0 512 512;" xml:space="preserve">
<path style="fill:#B3B3B3;" d="M434.439,110.654C401.179,45.876,334.359,0.003,255.98,0v101.329
	c55.478,0.004,100.593,43.67,100.595,99.15c0,54.805-45.491,102.048-100.595,102.052V512
	c70.646-73.617,151.953-154.542,187.529-251.428C461.298,212.121,457.979,156.5,434.439,110.654z"/>
<path style="fill:#979797;" d="M68.492,260.572C104.067,357.458,185.374,438.383,256.02,512V302.531
	c-55.103-0.004-100.595-47.247-100.595-102.052c0.002-55.479,45.117-99.146,100.595-99.15V0
	c-78.379,0.003-145.199,45.876-178.46,110.654C54.021,156.5,50.702,212.121,68.492,260.572z"/>
<circle style="fill:#338AF3;" cx="256" cy="198.773" r="160"/>
<path style="fill:#FFDA44;" d="M346.434,200.512H165.566c0,12.485,10.875,22.608,23.361,22.608h-0.753
	c0,12.487,10.122,22.608,22.608,22.608c0,12.487,10.122,22.608,22.609,22.608h45.217c12.487,0,22.609-10.121,22.609-22.608
	c12.486,0,22.608-10.121,22.608-22.608h-0.753C335.558,223.121,346.434,212.998,346.434,200.512z"/>
<path style="fill:#338AF3;" d="M318.608,170.946c0,34.577-28.031,62.608-62.608,62.608c-34.578,0-62.608-28.031-62.608-62.608"/>
<polygon style="fill:#FFDA44;" points="303.822,170.946 284.282,180.138 294.687,199.062 273.468,195.004 270.779,216.437 
	256,200.673 241.22,216.437 238.532,195.004 217.313,199.062 227.717,180.138 208.178,170.946 227.718,161.755 217.313,142.831 
	238.531,146.89 241.221,125.454 256,141.219 270.78,125.454 273.468,146.89 294.688,142.831 284.283,161.756 "/>
<path style="fill:#C7C7C7;" d="M255.929,21.707c-73.745,0-141.451,47.552-166.61,116.806
	c-25.343,69.773-3.142,149.836,53.974,197.071c57.236,47.338,140.369,53.625,203.978,15.148
	c63.626-38.49,97.228-114.681,82.271-187.573C414.889,91.771,355.517,35.121,283.472,23.843
	C274.361,22.416,265.141,21.707,255.929,21.707 M398.59,263.184c-30.241,67.009-105.732,104.802-177.479,88.399
	c-55.215-12.621-100.384-55.764-115.778-110.195c-15.749-55.658,1.328-116.804,43.417-156.425
	c45.534-42.867,114.172-54.571,171.321-28.799c68.228,30.767,105.971,108.144,87.651,180.844
	C405.459,245.986,402.37,254.739,398.59,263.184C396.502,267.81,400.132,259.739,398.59,263.184"/>
<g>
</g>
<g>
</g>
<g>
</g>
<g>
</g>
<g>
</g>
<g>
</g>
<g>
</g>
<g>
</g>
<g>
</g>
<g>
</g>
<g>
</g>
<g>
</g>
<g>
</g>
<g>
</g>
<g>
</g>
</svg>
