<?xml version="1.0" encoding="iso-8859-1"?>
<!-- Generator: Adobe Illustrator 19.0.0, SVG Export Plug-In . SVG Version: 6.00 Build 0)  -->
<svg version="1.1" id="Layer_1" xmlns="http://www.w3.org/2000/svg" xmlns:xlink="http://www.w3.org/1999/xlink" x="0px" y="0px"
	 viewBox="0 0 512 512" style="enable-background:new 0 0 512 512;" xml:space="preserve">
<path style="fill:#B3B3B3;" d="M434.439,110.654C401.178,45.876,334.359,0.003,255.98,0v101.329
	c55.478,0.004,100.593,43.67,100.595,99.15c0,54.805-45.491,102.048-100.595,102.052V512
	c70.645-73.617,151.953-154.542,187.529-251.428C461.298,212.121,457.979,156.5,434.439,110.654z"/>
<path style="fill:#979797;" d="M68.492,260.572C104.066,357.458,185.374,438.383,256.019,512V302.531
	c-55.104-0.004-100.595-47.247-100.594-102.052c0.001-55.479,45.116-99.146,100.594-99.15V0
	c-78.379,0.003-145.2,45.876-178.46,110.654C54.021,156.5,50.703,212.121,68.492,260.572z"/>
<circle style="fill:#F0F0F0;" cx="256" cy="198.773" r="160"/>
<path d="M256,38.773c-63.434,0-118.244,36.914-144.124,90.433h288.247C374.243,75.687,319.433,38.773,256,38.773z"/>
<path style="fill:#496E2D;" d="M256,358.773c-63.434,0-118.244-36.916-144.124-90.435h288.247
	C374.243,321.856,319.433,358.773,256,358.773z"/>
<path style="fill:#A2001D;" d="M408.445,150.077h-304.89C98.655,165.434,96,181.792,96,198.773s2.655,33.34,7.556,48.695h304.889
	c4.9-15.357,7.555-31.714,7.555-48.695S413.345,165.434,408.445,150.077z"/>
<g>
	<polygon style="fill:#F0F0F0;" points="305.822,112.71 286.873,103.965 256,173.871 225.126,103.965 206.178,112.71 
		244.507,198.773 206.178,284.833 225.126,293.579 256,223.673 286.873,293.579 305.822,284.833 267.492,198.773 	"/>
	<path style="fill:#F0F0F0;" d="M268.869,120.953C261.534,112.942,256,108.338,256,108.338s-5.534,4.604-12.869,12.614v155.639
		c7.335,8.011,12.869,12.614,12.869,12.614s5.535-4.604,12.869-12.614V120.953z"/>
</g>
<g>
	<path style="fill:#A2001D;" d="M221.217,150.8v95.943c7.751,13.735,17.238,24.992,24.348,32.457V118.343
		C238.455,125.808,228.968,137.065,221.217,150.8z"/>
	<path style="fill:#A2001D;" d="M290.782,150.8c-7.751-13.735-17.238-24.992-24.348-32.457V279.2
		c7.109-7.465,16.597-18.721,24.348-32.457V150.8z"/>
</g>
<path d="M290.782,150.8v95.943c7.847-13.904,13.914-30.348,13.914-47.971C304.695,181.148,298.63,164.706,290.782,150.8z"/>
<path d="M221.217,150.8v95.943c-7.846-13.904-13.913-30.348-13.913-47.971C207.304,181.148,213.37,164.706,221.217,150.8z"/>
<path style="fill:#C7C7C7;" d="M255.927,21.707c-73.745,0-141.451,47.552-166.61,116.806
	c-25.343,69.773-3.142,149.836,53.974,197.071c57.236,47.338,140.369,53.625,203.979,15.148
	c63.626-38.49,97.228-114.681,82.271-187.573C414.888,91.771,355.517,35.121,283.472,23.843
	C274.36,22.416,265.141,21.707,255.927,21.707 M398.59,263.184c-30.241,67.009-105.732,104.802-177.479,88.399
	c-55.215-12.621-100.384-55.764-115.778-110.195c-15.749-55.658,1.328-116.804,43.417-156.425
	c45.535-42.867,114.172-54.571,171.321-28.799c68.228,30.767,105.971,108.144,87.651,180.844
	C405.459,245.986,402.37,254.739,398.59,263.184C396.502,267.81,400.132,259.739,398.59,263.184"/>
<g>
</g>
<g>
</g>
<g>
</g>
<g>
</g>
<g>
</g>
<g>
</g>
<g>
</g>
<g>
</g>
<g>
</g>
<g>
</g>
<g>
</g>
<g>
</g>
<g>
</g>
<g>
</g>
<g>
</g>
</svg>
