<?xml version="1.0" encoding="iso-8859-1"?>
<!-- Generator: Adobe Illustrator 19.0.0, SVG Export Plug-In . SVG Version: 6.00 Build 0)  -->
<svg version="1.1" id="Layer_1" xmlns="http://www.w3.org/2000/svg" xmlns:xlink="http://www.w3.org/1999/xlink" x="0px" y="0px"
	 viewBox="0 0 512 512" style="enable-background:new 0 0 512 512;" xml:space="preserve">
<path style="fill:#B3B3B3;" d="M434.439,110.654C401.179,45.876,334.359,0.003,255.98,0v101.329
	c55.478,0.004,100.593,43.671,100.595,99.15c0,54.805-45.491,102.048-100.595,102.052V512
	c70.646-73.617,151.953-154.542,187.529-251.428C461.298,212.121,457.979,156.5,434.439,110.654z"/>
<path style="fill:#979797;" d="M68.492,260.572C104.067,357.458,185.374,438.383,256.02,512V302.531
	c-55.103-0.004-100.595-47.247-100.595-102.052c0.002-55.478,45.117-99.146,100.595-99.15V0
	c-78.379,0.003-145.199,45.876-178.46,110.654C54.021,156.5,50.702,212.121,68.492,260.572z"/>
<g>
	<circle style="fill:#F0F0F0;" cx="256" cy="198.773" r="160"/>
	<path style="fill:#F0F0F0;" d="M132.573,96.955h246.854c-9.117-11.04-19.692-20.831-31.423-29.091H163.996
		C152.265,76.123,141.691,85.915,132.573,96.955z"/>
	<path style="fill:#F0F0F0;" d="M96,198.773c0,4.905,0.234,9.753,0.665,14.546h318.671c0.431-4.794,0.665-9.642,0.665-14.546
		c0-4.905-0.234-9.755-0.665-14.546H96.665C96.234,189.019,96,193.869,96,198.773z"/>
	<path style="fill:#F0F0F0;" d="M113.447,271.5h285.104c4.711-9.217,8.555-18.95,11.423-29.091h-307.95
		C104.894,252.55,108.736,262.284,113.447,271.5z"/>
	<path style="fill:#F0F0F0;" d="M163.996,329.681h184.009c11.731-8.258,22.306-18.05,31.423-29.091H132.573
		C141.691,311.631,152.265,321.423,163.996,329.681z"/>
	<path style="fill:#F0F0F0;" d="M102.025,155.137h307.95c-2.868-10.144-6.711-19.875-11.423-29.091H113.447
		C108.736,135.263,104.894,144.994,102.025,155.137z"/>
</g>
<g>
	<path style="fill:#D80027;" d="M172.522,67.862h175.483C321.979,49.539,290.249,38.773,256,38.773
		C235.131,38.773,198.547,49.539,172.522,67.862z"/>
	<path style="fill:#D80027;" d="M249.044,126.046h149.508c-5.321-10.409-11.746-20.156-19.125-29.091H249.044V126.046z"/>
	<path style="fill:#D80027;" d="M249.044,184.227h166.292c-0.9-9.989-2.709-19.714-5.36-29.089H249.044V184.227z"/>
	<path style="fill:#D80027;" d="M102.025,242.409h307.95c2.651-9.373,4.461-19.102,5.36-29.089H96.665
		C97.566,223.307,99.374,233.036,102.025,242.409z"/>
	<path style="fill:#D80027;" d="M132.573,300.59h246.854c7.379-8.933,13.804-18.682,19.125-29.089H113.447
		C118.769,281.908,125.194,291.657,132.573,300.59z"/>
	<path style="fill:#D80027;" d="M256,358.773c34.249,0,65.979-10.767,92.004-29.091H163.996
		C190.021,348.006,221.751,358.773,256,358.773z"/>
</g>
<path style="fill:#0052B4;" d="M102.025,155.137c-2.651,9.375-4.46,19.1-5.36,29.089H256V38.773
	C182.763,38.773,121.019,87.981,102.025,155.137z"/>
<polygon style="fill:#F0F0F0;" points="191.243,80.512 201.602,112.396 235.131,112.396 208.006,132.105 218.367,163.989 
	191.243,144.284 164.118,163.989 174.479,132.105 147.356,112.396 180.882,112.396 "/>
<path style="fill:#C7C7C7;" d="M255.929,21.707c-73.745,0-141.451,47.552-166.61,116.806
	c-25.343,69.773-3.142,149.836,53.974,197.071c57.236,47.338,140.369,53.625,203.978,15.148
	c63.626-38.49,97.228-114.681,82.271-187.573C414.889,91.771,355.517,35.121,283.472,23.843
	C274.361,22.416,265.141,21.707,255.929,21.707 M398.59,263.184c-30.241,67.009-105.732,104.802-177.479,88.399
	c-55.215-12.621-100.384-55.764-115.778-110.195c-15.749-55.658,1.328-116.804,43.417-156.425
	c45.534-42.867,114.172-54.571,171.321-28.799c68.228,30.767,105.971,108.144,87.651,180.844
	C405.459,245.986,402.37,254.739,398.59,263.184C396.502,267.81,400.132,259.739,398.59,263.184"/>
<g>
</g>
<g>
</g>
<g>
</g>
<g>
</g>
<g>
</g>
<g>
</g>
<g>
</g>
<g>
</g>
<g>
</g>
<g>
</g>
<g>
</g>
<g>
</g>
<g>
</g>
<g>
</g>
<g>
</g>
</svg>
