<?xml version="1.0" encoding="iso-8859-1"?>
<!-- Generator: Adobe Illustrator 19.0.0, SVG Export Plug-In . SVG Version: 6.00 Build 0)  -->
<svg version="1.1" id="Layer_1" xmlns="http://www.w3.org/2000/svg" xmlns:xlink="http://www.w3.org/1999/xlink" x="0px" y="0px"
	 viewBox="0 0 512 512" style="enable-background:new 0 0 512 512;" xml:space="preserve">
<path style="fill:#B3B3B3;" d="M434.439,110.654C401.178,45.876,334.359,0.003,255.98,0v101.329
	c55.478,0.004,100.593,43.671,100.595,99.15c0,54.805-45.491,102.048-100.595,102.052V512
	c70.646-73.617,151.953-154.542,187.529-251.428C461.298,212.121,457.979,156.5,434.439,110.654z"/>
<path style="fill:#979797;" d="M68.492,260.572C104.066,357.458,185.374,438.383,256.019,512V302.531
	c-55.104-0.004-100.595-47.247-100.594-102.052c0.001-55.478,45.116-99.146,100.594-99.15V0
	c-78.379,0.003-145.2,45.876-178.46,110.654C54.021,156.5,50.703,212.121,68.492,260.572z"/>
<path d="M111.877,129.209c-10.172,21.036-15.876,44.631-15.876,69.565c0,24.931,5.706,48.529,15.876,69.565l144.124,13.913
	l144.124-13.913c10.171-21.036,15.876-44.634,15.876-69.565c0-24.933-5.706-48.529-15.876-69.565l-144.124-13.915L111.877,129.209z"
	/>
<path style="fill:#496E2D;" d="M111.882,268.337c25.879,53.519,80.685,90.435,144.118,90.435s118.239-36.916,144.118-90.435
	L111.882,268.337L111.882,268.337z"/>
<path style="fill:#D80027;" d="M111.882,129.209h288.237c-25.879-53.521-80.685-90.435-144.118-90.435
	S137.762,75.687,111.882,129.209z"/>
<g>
	<polygon style="fill:#F0F0F0;" points="293.241,169.515 306.37,187.604 327.63,180.71 314.482,198.785 327.608,216.875 
		306.355,209.956 293.206,228.031 293.22,205.679 271.967,198.761 293.228,191.867 	"/>
	<path style="fill:#F0F0F0;" d="M257.414,243.989c-24.973,0-45.217-20.244-45.217-45.217s20.244-45.217,45.217-45.217
		c7.787,0,15.113,1.969,21.509,5.434c-10.034-9.812-23.757-15.869-38.9-15.869c-30.736,0-55.652,24.916-55.652,55.652
		c0,30.735,24.916,55.652,55.652,55.652c15.143,0,28.866-6.059,38.9-15.871C272.527,242.021,265.201,243.989,257.414,243.989z"/>
</g>
<path style="fill:#C7C7C7;" d="M255.927,21.707c-73.745,0-141.451,47.552-166.61,116.806
	c-25.343,69.773-3.142,149.836,53.974,197.071c57.236,47.338,140.369,53.625,203.978,15.148
	c63.626-38.49,97.228-114.681,82.271-187.573C414.887,91.771,355.516,35.121,283.471,23.843
	C274.36,22.416,265.141,21.707,255.927,21.707 M398.59,263.184c-30.241,67.009-105.732,104.802-177.479,88.399
	c-55.215-12.621-100.384-55.764-115.778-110.195c-15.749-55.658,1.328-116.804,43.417-156.425
	c45.535-42.867,114.172-54.571,171.321-28.799c68.228,30.767,105.971,108.144,87.651,180.844
	C405.459,245.986,402.37,254.739,398.59,263.184C396.502,267.81,400.132,259.739,398.59,263.184"/>
<g>
</g>
<g>
</g>
<g>
</g>
<g>
</g>
<g>
</g>
<g>
</g>
<g>
</g>
<g>
</g>
<g>
</g>
<g>
</g>
<g>
</g>
<g>
</g>
<g>
</g>
<g>
</g>
<g>
</g>
</svg>
