<?xml version="1.0" encoding="iso-8859-1"?>
<!-- Generator: Adobe Illustrator 19.0.0, SVG Export Plug-In . SVG Version: 6.00 Build 0)  -->
<svg version="1.1" id="Layer_1" xmlns="http://www.w3.org/2000/svg" xmlns:xlink="http://www.w3.org/1999/xlink" x="0px" y="0px"
	 viewBox="0 0 512 512" style="enable-background:new 0 0 512 512;" xml:space="preserve">
<path style="fill:#B3B3B3;" d="M434.44,110.654C401.18,45.876,334.359,0.003,255.98,0v101.329
	c55.478,0.004,100.593,43.671,100.594,99.151c0.001,54.805-45.49,102.048-100.594,102.051V512
	c70.645-73.617,151.953-154.542,187.529-251.428C461.297,212.121,457.979,156.5,434.44,110.654z"/>
<path style="fill:#979797;" d="M68.492,260.572C104.066,357.458,185.374,438.383,256.02,512V302.531
	c-55.104-0.003-100.595-47.246-100.594-102.051c0.001-55.478,45.116-99.147,100.594-99.151V0
	c-78.379,0.003-145.2,45.876-178.46,110.654C54.021,156.5,50.703,212.121,68.492,260.572z"/>
<circle style="fill:#496E2D;" cx="256" cy="198.773" r="160"/>
<path style="fill:#F0F0F0;" d="M283.826,192.1c-3.927,0-7.657,0.784-11.119,2.029c1.897-4.227,3.168-8.931,3.168-13.953
	c0-19.876-19.875-34.783-19.875-34.783s-19.875,14.907-19.875,34.783c0,5.022,1.271,9.726,3.168,13.953
	c-3.462-1.245-7.191-2.029-11.119-2.029c-19.875,0-34.783,19.875-34.783,19.875s14.908,19.876,34.783,19.876
	c11.652,0,21.591-6.83,27.826-12.483c6.235,5.653,16.174,12.483,27.826,12.483c19.875,0,34.783-19.876,34.783-19.876
	S303.701,192.1,283.826,192.1z"/>
<g>
	<polygon style="fill:#FFDA44;" points="256,101.381 260.107,114.016 273.391,114.016 262.643,121.826 266.748,134.462 256,126.652 
		245.252,134.462 249.356,121.826 238.609,114.016 251.893,114.016 	"/>
	<polygon style="fill:#FFDA44;" points="205.48,123.481 213.378,130.592 222.582,125.278 218.26,134.987 226.158,142.1 
		215.588,140.989 211.265,150.698 209.055,140.302 198.485,139.191 207.688,133.876 	"/>
	<polygon style="fill:#FFDA44;" points="168.496,160.464 178.892,162.674 184.207,153.469 185.318,164.038 195.713,166.25 
		186.004,170.573 187.116,181.142 180.003,173.245 170.293,177.567 175.608,168.363 	"/>
	<polygon style="fill:#FFDA44;" points="306.521,123.481 298.622,130.592 289.419,125.278 293.74,134.987 285.842,142.1 
		296.413,140.989 300.735,150.698 302.946,140.302 313.516,139.191 304.311,133.876 	"/>
	<polygon style="fill:#FFDA44;" points="343.504,160.464 333.108,162.674 327.794,153.469 326.683,164.038 316.287,166.25 
		325.997,170.573 324.885,181.142 331.998,173.245 341.707,177.567 336.393,168.363 	"/>
</g>
<g>
	<path style="fill:#F0F0F0;" d="M256,287.505c15.788,0,30.34-5.267,42.014-14.13h-84.029
		C225.66,282.237,240.212,287.505,256,287.505z"/>
	<path style="fill:#F0F0F0;" d="M192.229,245.765c2.208,5.054,5.008,9.788,8.297,14.13h110.948c3.289-4.342,6.089-9.076,8.297-14.13
		H192.229z"/>
</g>
<path style="fill:#C7C7C7;" d="M255.928,21.706c-73.745,0-141.451,47.553-166.61,116.807
	c-25.343,69.773-3.142,149.835,53.974,197.07c57.236,47.338,140.369,53.625,203.978,15.148
	c63.626-38.489,97.228-114.681,82.271-187.573C414.888,91.77,355.517,35.12,283.472,23.842
	C274.361,22.416,265.141,21.706,255.928,21.706 M398.59,263.184c-30.241,67.01-105.732,104.802-177.479,88.399
	c-55.215-12.621-100.384-55.764-115.778-110.195c-15.749-55.658,1.328-116.804,43.417-156.425
	c45.534-42.867,114.172-54.571,171.321-28.799c68.228,30.767,105.971,108.144,87.651,180.845
	C405.459,245.986,402.37,254.739,398.59,263.184C396.502,267.811,400.132,259.739,398.59,263.184"/>
<g>
</g>
<g>
</g>
<g>
</g>
<g>
</g>
<g>
</g>
<g>
</g>
<g>
</g>
<g>
</g>
<g>
</g>
<g>
</g>
<g>
</g>
<g>
</g>
<g>
</g>
<g>
</g>
<g>
</g>
</svg>
