<?xml version="1.0" encoding="iso-8859-1"?>
<!-- Generator: Adobe Illustrator 19.0.0, SVG Export Plug-In . SVG Version: 6.00 Build 0)  -->
<svg version="1.1" id="Layer_1" xmlns="http://www.w3.org/2000/svg" xmlns:xlink="http://www.w3.org/1999/xlink" x="0px" y="0px"
	 viewBox="0 0 512 512" style="enable-background:new 0 0 512 512;" xml:space="preserve">
<path style="fill:#B3B3B3;" d="M434.439,110.654C401.179,45.876,334.359,0.003,255.98,0v101.329
	c55.478,0.004,100.593,43.671,100.595,99.151c0,54.805-45.491,102.048-100.595,102.051V512
	c70.646-73.617,151.953-154.542,187.529-251.428C461.298,212.121,457.979,156.5,434.439,110.654z"/>
<path style="fill:#979797;" d="M68.492,260.572C104.067,357.458,185.374,438.383,256.02,512V302.531
	c-55.103-0.003-100.595-47.246-100.595-102.051c0.002-55.478,45.117-99.147,100.595-99.151V0
	c-78.379,0.003-145.199,45.876-178.46,110.654C54.021,156.5,50.702,212.121,68.492,260.572z"/>
<path style="fill:#FFDA44;" d="M325.565,54.649C304.53,44.477,280.932,38.772,256,38.772c-24.932,0-48.53,5.705-69.565,15.876
	l-13.914,144.124l13.914,144.124c21.035,10.172,44.633,15.876,69.565,15.876c24.932,0,48.53-5.705,69.565-15.876l13.914-144.124
	L325.565,54.649z"/>
<g>
	<path style="fill:#0052B4;" d="M186.435,54.654C132.915,80.534,96,135.339,96,198.772s36.915,118.239,90.435,144.118
		L186.435,54.654L186.435,54.654z"/>
	<path style="fill:#0052B4;" d="M325.565,54.654v288.237C379.084,317.011,416,262.206,416,198.772S379.084,80.534,325.565,54.654z"
		/>
</g>
<polygon style="fill:#D80027;" points="301.218,212.686 311.652,226.598 311.652,170.946 301.218,184.86 269.913,184.86 
	269.913,153.555 283.826,143.12 228.174,143.12 242.087,153.555 242.087,184.86 210.782,184.86 200.348,170.946 200.348,226.598 
	210.782,212.686 242.087,212.686 242.087,243.989 228.174,254.425 283.826,254.425 269.913,243.989 269.913,212.686 "/>
<polygon style="fill:#F0F0F0;" points="297.74,191.817 262.956,191.817 262.956,157.034 249.044,157.034 249.044,191.817 
	214.26,191.817 214.26,205.729 249.044,205.729 249.044,240.512 262.956,240.512 262.956,205.729 297.74,205.729 "/>
<path style="fill:#C7C7C7;" d="M255.929,21.706c-73.745,0-141.451,47.553-166.61,116.807
	c-25.343,69.773-3.142,149.835,53.974,197.07c57.236,47.338,140.369,53.625,203.978,15.148
	c63.626-38.489,97.228-114.681,82.271-187.573C414.889,91.77,355.517,35.12,283.472,23.842
	C274.361,22.416,265.141,21.706,255.929,21.706 M398.59,263.184c-30.241,67.01-105.732,104.802-177.479,88.399
	c-55.215-12.621-100.384-55.764-115.778-110.195c-15.749-55.658,1.328-116.804,43.417-156.425
	c45.534-42.867,114.172-54.571,171.321-28.799c68.228,30.767,105.971,108.144,87.651,180.845
	C405.459,245.986,402.37,254.739,398.59,263.184C396.502,267.811,400.132,259.739,398.59,263.184"/>
<g>
</g>
<g>
</g>
<g>
</g>
<g>
</g>
<g>
</g>
<g>
</g>
<g>
</g>
<g>
</g>
<g>
</g>
<g>
</g>
<g>
</g>
<g>
</g>
<g>
</g>
<g>
</g>
<g>
</g>
</svg>
