<?xml version="1.0" encoding="iso-8859-1"?>
<!-- Generator: Adobe Illustrator 19.0.0, SVG Export Plug-In . SVG Version: 6.00 Build 0)  -->
<svg version="1.1" id="Layer_1" xmlns="http://www.w3.org/2000/svg" xmlns:xlink="http://www.w3.org/1999/xlink" x="0px" y="0px"
	 viewBox="0 0 512 512" style="enable-background:new 0 0 512 512;" xml:space="preserve">
<path style="fill:#B3B3B3;" d="M434.439,110.654C401.179,45.876,334.359,0.003,255.98,0v101.329
	c55.478,0.004,100.593,43.67,100.595,99.15c0,54.805-45.491,102.048-100.595,102.052V512
	c70.646-73.617,151.953-154.542,187.529-251.428C461.298,212.121,457.979,156.5,434.439,110.654z"/>
<path style="fill:#979797;" d="M68.492,260.572C104.067,357.458,185.374,438.383,256.02,512V302.531
	c-55.103-0.004-100.595-47.247-100.595-102.052c0.002-55.479,45.117-99.146,100.595-99.15V0
	c-78.379,0.003-145.199,45.876-178.46,110.654C54.021,156.5,50.702,212.121,68.492,260.572z"/>
<circle style="fill:#F0F0F0;" cx="256" cy="198.773" r="160"/>
<g>
	<path style="fill:#D80027;" d="M249.044,198.773H416c0-14.442-1.925-28.431-5.511-41.74H249.044V198.773z"/>
	<path style="fill:#D80027;" d="M249.044,115.294h143.473c-9.795-15.981-22.317-30.109-36.918-41.74H249.045v41.74H249.044z"/>
	<path style="fill:#D80027;" d="M256,358.773c37.655,0,72.267-13.014,99.598-34.783H156.402
		C183.733,345.758,218.345,358.773,256,358.773z"/>
	<path style="fill:#D80027;" d="M119.484,282.25h273.034c7.862-12.829,13.961-26.857,17.972-41.738H101.511
		C105.523,255.394,111.621,269.421,119.484,282.25z"/>
</g>
<path style="fill:#0052B4;" d="M256,198.773c0-88.367,0-98.783,0-160c-88.366,0-160,71.633-160,160H256z"/>
<g>
	<path style="fill:#FFDA44;" d="M202.397,175.729c-21.851,0-39.566-17.714-39.566-39.565c0-21.852,17.714-39.567,39.566-39.567
		c6.814,0,13.222,1.723,18.821,4.756c-8.78-8.586-20.787-13.886-34.038-13.886c-26.893,0-48.695,21.801-48.695,48.695
		c0,26.894,21.804,48.693,48.695,48.693c13.251,0,25.259-5.3,34.038-13.886C215.62,174.006,209.211,175.729,202.397,175.729z"/>
	<polygon style="fill:#FFDA44;" points="213.546,108.337 220.57,123.027 236.433,119.36 229.329,134.011 242.086,144.127 
		226.203,147.709 226.247,163.989 213.546,153.804 200.843,163.989 200.887,147.709 185.003,144.127 197.76,134.011 190.656,119.36 
		206.521,123.027 	"/>
</g>
<path style="fill:#C7C7C7;" d="M255.929,21.707c-73.745,0-141.451,47.552-166.61,116.806
	c-25.343,69.773-3.142,149.836,53.974,197.071c57.236,47.338,140.369,53.625,203.978,15.148
	c63.626-38.49,97.228-114.681,82.271-187.573C414.889,91.771,355.517,35.121,283.472,23.843
	C274.361,22.416,265.141,21.707,255.929,21.707 M398.59,263.184c-30.241,67.009-105.732,104.802-177.479,88.399
	c-55.215-12.621-100.384-55.764-115.778-110.195c-15.749-55.658,1.328-116.804,43.417-156.425
	c45.534-42.867,114.172-54.571,171.321-28.799c68.228,30.767,105.971,108.144,87.651,180.844
	C405.459,245.986,402.37,254.739,398.59,263.184C396.502,267.81,400.132,259.739,398.59,263.184"/>
<g>
</g>
<g>
</g>
<g>
</g>
<g>
</g>
<g>
</g>
<g>
</g>
<g>
</g>
<g>
</g>
<g>
</g>
<g>
</g>
<g>
</g>
<g>
</g>
<g>
</g>
<g>
</g>
<g>
</g>
</svg>
