<?xml version="1.0" encoding="iso-8859-1"?>
<!-- Generator: Adobe Illustrator 19.0.0, SVG Export Plug-In . SVG Version: 6.00 Build 0)  -->
<svg version="1.1" id="Layer_1" xmlns="http://www.w3.org/2000/svg" xmlns:xlink="http://www.w3.org/1999/xlink" x="0px" y="0px"
	 viewBox="0 0 512 512" style="enable-background:new 0 0 512 512;" xml:space="preserve">
<path style="fill:#B3B3B3;" d="M434.439,110.654C401.178,45.876,334.359,0.003,255.98,0v101.329
	c55.478,0.004,100.593,43.671,100.595,99.15c0,54.805-45.491,102.048-100.595,102.052V512
	c70.645-73.617,151.953-154.542,187.529-251.428C461.298,212.121,457.979,156.5,434.439,110.654z"/>
<path style="fill:#979797;" d="M68.492,260.572C104.066,357.458,185.374,438.383,256.019,512V302.531
	c-55.104-0.004-100.595-47.247-100.594-102.052c0.001-55.478,45.116-99.146,100.594-99.15V0
	c-78.379,0.003-145.2,45.876-178.46,110.654C54.021,156.5,50.703,212.121,68.492,260.572z"/>
<circle style="fill:#338AF3;" cx="256" cy="198.773" r="160"/>
<rect x="172.522" y="212.683" style="fill:#818085;" width="166.955" height="20.869"/>
<polygon style="fill:#FFDA44;" points="200.348,150.076 256,157.034 311.652,150.076 311.652,116.685 289.392,127.815 256,94.423 
	222.609,127.815 200.348,116.685 "/>
<g>
	<polygon style="fill:#F0F0F0;" points="186.435,254.425 165.565,254.425 165.565,216.163 172.521,205.728 165.565,195.293 
		165.565,170.947 186.435,170.947 	"/>
	<polygon style="fill:#F0F0F0;" points="346.435,254.425 325.566,254.425 325.566,170.947 346.435,170.947 346.435,195.293 
		339.478,205.903 346.435,216.165 	"/>
</g>
<rect x="165.568" y="195.296" style="fill:#ACABB1;" width="180.875" height="20.87"/>
<path style="fill:#F0F0F0;" d="M256,282.25c-30.687,0-55.652-24.965-55.652-55.652v-76.522h111.305v76.522
	C311.652,257.284,286.686,282.25,256,282.25z"/>
<path style="fill:#0052B4;" d="M256,261.38c-19.179,0-34.782-15.603-34.782-34.782v-55.651h69.565v55.651
	C290.782,245.777,275.178,261.38,256,261.38z"/>
<g>
	<rect x="200.352" y="150.08" style="fill:#D80027;" width="20.869" height="20.869"/>
	<rect x="290.784" y="150.08" style="fill:#D80027;" width="20.869" height="20.869"/>
	<rect x="290.784" y="195.296" style="fill:#D80027;" width="20.869" height="20.87"/>
	<rect x="200.352" y="195.296" style="fill:#D80027;" width="20.869" height="20.87"/>
	<rect x="245.568" y="150.08" style="fill:#D80027;" width="20.87" height="20.869"/>
	<path style="fill:#D80027;" d="M256,261.38c-3.634,0-7.139-0.562-10.435-1.601v21.476c3.382,0.644,6.868,0.995,10.435,0.995
		c3.567,0,7.052-0.351,10.435-0.995v-21.476C263.139,260.818,259.634,261.38,256,261.38z"/>
	<path style="fill:#D80027;" d="M221.682,232.245L205.026,248.9c2.889,6.575,7.007,12.486,12.07,17.443l14.75-14.75
		C226.584,246.507,222.918,239.781,221.682,232.245z"/>
	<path style="fill:#D80027;" d="M306.973,248.901l-16.656-16.656c-1.235,7.536-4.902,14.261-10.164,19.348l14.75,14.75
		C299.965,261.387,304.085,255.475,306.973,248.901z"/>
</g>
<path style="fill:#C7C7C7;" d="M255.927,21.707c-73.745,0-141.451,47.552-166.61,116.806
	c-25.343,69.773-3.142,149.836,53.974,197.071c57.236,47.338,140.369,53.625,203.979,15.148
	c63.626-38.49,97.228-114.681,82.271-187.573C414.888,91.771,355.517,35.121,283.472,23.843
	C274.36,22.416,265.141,21.707,255.927,21.707 M398.59,263.184c-30.241,67.009-105.732,104.802-177.479,88.399
	c-55.215-12.621-100.384-55.764-115.778-110.195c-15.749-55.658,1.328-116.804,43.417-156.425
	c45.535-42.867,114.172-54.571,171.321-28.799c68.228,30.767,105.971,108.144,87.651,180.844
	C405.459,245.986,402.37,254.739,398.59,263.184C396.502,267.81,400.132,259.739,398.59,263.184"/>
<g>
</g>
<g>
</g>
<g>
</g>
<g>
</g>
<g>
</g>
<g>
</g>
<g>
</g>
<g>
</g>
<g>
</g>
<g>
</g>
<g>
</g>
<g>
</g>
<g>
</g>
<g>
</g>
<g>
</g>
</svg>
