<?xml version="1.0" encoding="iso-8859-1"?>
<!-- Generator: Adobe Illustrator 19.0.0, SVG Export Plug-In . SVG Version: 6.00 Build 0)  -->
<svg version="1.1" id="Layer_1" xmlns="http://www.w3.org/2000/svg" xmlns:xlink="http://www.w3.org/1999/xlink" x="0px" y="0px"
	 viewBox="0 0 512 512" style="enable-background:new 0 0 512 512;" xml:space="preserve">
<path style="fill:#B3B3B3;" d="M434.439,110.654C401.178,45.876,334.359,0.003,255.98,0v101.329
	c55.478,0.004,100.593,43.671,100.595,99.15c0,54.805-45.491,102.048-100.595,102.052V512
	c70.645-73.617,151.953-154.542,187.529-251.428C461.298,212.121,457.979,156.5,434.439,110.654z"/>
<path style="fill:#979797;" d="M68.492,260.572C104.066,357.458,185.374,438.383,256.019,512V302.531
	c-55.104-0.004-100.595-47.247-100.594-102.052c0.001-55.478,45.116-99.146,100.594-99.15V0
	c-78.379,0.003-145.2,45.876-178.46,110.654C54.021,156.5,50.703,212.121,68.492,260.572z"/>
<circle style="fill:#338AF3;" cx="256" cy="198.773" r="160"/>
<g>
	<polygon style="fill:#F0F0F0;" points="255.999,108.338 262.905,129.595 285.258,129.595 267.175,142.734 274.082,163.99 
		255.999,150.853 237.917,163.99 244.824,142.734 226.741,129.595 249.093,129.595 	"/>
	<polygon style="fill:#F0F0F0;" points="165.565,198.775 186.821,191.867 186.821,169.515 199.96,187.598 221.217,180.691 
		208.08,198.775 221.217,216.857 199.96,209.948 186.821,228.031 186.821,205.68 	"/>
	<polygon style="fill:#F0F0F0;" points="256,289.209 249.093,267.951 226.741,267.951 244.824,254.813 237.918,233.556 256,246.692 
		274.082,233.556 267.174,254.813 285.258,267.951 262.906,267.951 	"/>
	<polygon style="fill:#F0F0F0;" points="346.435,198.773 325.177,205.679 325.177,228.031 312.039,209.948 290.783,216.855 
		303.92,198.773 290.783,180.689 312.039,187.598 325.177,169.515 325.177,191.867 	"/>
</g>
<path style="fill:#C7C7C7;" d="M255.927,21.707c-73.745,0-141.451,47.552-166.61,116.806
	c-25.343,69.773-3.142,149.836,53.974,197.071c57.236,47.338,140.369,53.625,203.979,15.148
	c63.626-38.49,97.228-114.681,82.271-187.573C414.888,91.771,355.517,35.121,283.472,23.843
	C274.36,22.416,265.141,21.707,255.927,21.707 M398.59,263.184c-30.241,67.009-105.732,104.802-177.479,88.399
	c-55.215-12.621-100.384-55.764-115.778-110.195c-15.749-55.658,1.328-116.804,43.417-156.425
	c45.535-42.867,114.172-54.571,171.321-28.799c68.228,30.767,105.971,108.144,87.651,180.844
	C405.459,245.986,402.37,254.739,398.59,263.184C396.502,267.81,400.132,259.739,398.59,263.184"/>
<g>
</g>
<g>
</g>
<g>
</g>
<g>
</g>
<g>
</g>
<g>
</g>
<g>
</g>
<g>
</g>
<g>
</g>
<g>
</g>
<g>
</g>
<g>
</g>
<g>
</g>
<g>
</g>
<g>
</g>
</svg>
