<?xml version="1.0" encoding="iso-8859-1"?>
<!-- Generator: Adobe Illustrator 19.0.0, SVG Export Plug-In . SVG Version: 6.00 Build 0)  -->
<svg version="1.1" id="Layer_1" xmlns="http://www.w3.org/2000/svg" xmlns:xlink="http://www.w3.org/1999/xlink" x="0px" y="0px"
	 viewBox="0 0 512 512" style="enable-background:new 0 0 512 512;" xml:space="preserve">
<path style="fill:#B3B3B3;" d="M434.439,110.654C401.178,45.876,334.359,0.003,255.98,0v101.329
	c55.478,0.004,100.593,43.673,100.595,99.151c0,54.805-45.491,102.048-100.595,102.051V512
	c70.646-73.617,151.953-154.542,187.529-251.428C461.298,212.121,457.979,156.5,434.439,110.654z"/>
<path style="fill:#979797;" d="M68.492,260.572C104.066,357.458,185.374,438.383,256.019,512V302.531
	c-55.104-0.003-100.595-47.246-100.594-102.051c0.001-55.478,45.116-99.147,100.594-99.151V0
	c-78.379,0.003-145.2,45.876-178.46,110.654C54.021,156.5,50.703,212.121,68.492,260.572z"/>
<path style="fill:#FFDA44;" d="M325.565,54.649C304.53,44.477,280.931,38.772,256,38.772c-24.932,0-48.53,5.705-69.565,15.876
	l-13.913,144.124l13.913,144.124c21.035,10.172,44.634,15.876,69.565,15.876c24.931,0,48.53-5.705,69.565-15.876l13.913-144.124
	L325.565,54.649z"/>
<path style="fill:#0052B4;" d="M186.435,54.654C132.916,80.534,96,135.339,96,198.772s36.916,118.239,90.435,144.118L186.435,54.654
	L186.435,54.654z"/>
<path style="fill:#D80027;" d="M325.565,54.654v288.237C379.083,317.011,416,262.206,416,198.772S379.083,80.534,325.565,54.654z"/>
<path style="fill:#FF9811;" d="M311.652,164.659h-38.261c0-9.604-7.786-17.391-17.391-17.391s-17.391,7.787-17.391,17.391h-38.261
	c0,9.457,8.238,17.123,17.694,17.123h-0.57c0,9.457,7.666,17.124,17.124,17.124c0,8.373,6.014,15.331,13.955,16.818l-13.493,30.464
	c6.466,2.628,13.533,4.089,20.942,4.089s14.476-1.46,20.941-4.089l-13.492-30.464c7.942-1.487,13.955-8.445,13.955-16.818
	c9.457,0,17.123-7.667,17.123-17.124h-0.571C303.414,181.781,311.652,174.115,311.652,164.659z"/>
<polygon style="fill:#0052B4;" points="256,188.337 233.391,198.772 233.391,219.643 256,233.555 278.609,219.643 278.609,198.772 
	"/>
<rect x="233.386" y="177.899" style="fill:#D80027;" width="45.216" height="20.869"/>
<path style="fill:#C7C7C7;" d="M255.927,21.706c-73.745,0-141.451,47.553-166.61,116.807
	c-25.343,69.773-3.142,149.835,53.974,197.07c57.236,47.338,140.369,53.625,203.978,15.148
	c63.626-38.489,97.228-114.681,82.271-187.573C414.887,91.77,355.516,35.12,283.471,23.842
	C274.36,22.416,265.141,21.706,255.927,21.706 M398.59,263.184c-30.241,67.01-105.732,104.802-177.479,88.399
	c-55.215-12.621-100.384-55.764-115.778-110.195c-15.749-55.658,1.328-116.804,43.417-156.425
	c45.535-42.867,114.172-54.571,171.321-28.799c68.228,30.767,105.971,108.144,87.651,180.845
	C405.459,245.986,402.37,254.739,398.59,263.184C396.502,267.811,400.132,259.739,398.59,263.184"/>
<g>
</g>
<g>
</g>
<g>
</g>
<g>
</g>
<g>
</g>
<g>
</g>
<g>
</g>
<g>
</g>
<g>
</g>
<g>
</g>
<g>
</g>
<g>
</g>
<g>
</g>
<g>
</g>
<g>
</g>
</svg>
