<?xml version="1.0" encoding="iso-8859-1"?>
<!-- Generator: Adobe Illustrator 19.0.0, SVG Export Plug-In . SVG Version: 6.00 Build 0)  -->
<svg version="1.1" id="Layer_1" xmlns="http://www.w3.org/2000/svg" xmlns:xlink="http://www.w3.org/1999/xlink" x="0px" y="0px"
	 viewBox="0 0 512 512" style="enable-background:new 0 0 512 512;" xml:space="preserve">
<path style="fill:#B3B3B3;" d="M434.439,110.654C401.178,45.876,334.359,0.003,255.98,0v101.329
	c55.478,0.004,100.593,43.673,100.595,99.151c0,54.805-45.491,102.048-100.595,102.051V512
	c70.645-73.617,151.953-154.542,187.529-251.428C461.298,212.121,457.979,156.5,434.439,110.654z"/>
<path style="fill:#979797;" d="M68.492,260.572C104.066,357.458,185.374,438.383,256.019,512V302.531
	c-55.104-0.003-100.595-47.246-100.594-102.051c0.001-55.478,45.116-99.147,100.594-99.151V0
	c-78.379,0.003-145.2,45.876-178.46,110.654C54.021,156.5,50.703,212.121,68.492,260.572z"/>
<circle style="fill:#FFDA44;" cx="256" cy="198.773" r="160"/>
<path style="fill:#A2001D;" d="M416,198.772c0-54.913-27.669-103.359-69.821-132.174H165.82C123.668,95.413,96,143.859,96,198.772
	s27.669,103.359,69.82,132.174h180.359C388.331,302.131,416,253.686,416,198.772z"/>
<g>
	<polygon style="fill:#FFDA44;" points="221.217,157.034 290.782,157.034 290.782,129.207 276.869,136.163 256,115.294 
		235.129,136.163 221.217,129.207 	"/>
	<path style="fill:#FFDA44;" d="M318.608,198.772h-34.769c1.362-2.358,2.157-5.089,2.157-8.009c0-8.867-7.188-16.053-16.054-16.053
		c-6.126,0-11.445,3.431-14.153,8.476c-2.707-5.044-8.027-8.476-14.153-8.476c-8.866,0-16.053,7.186-16.053,16.053
		c0,2.919,0.794,5.649,2.156,8.009h-34.348c0,10.639,9.267,19.264,19.905,19.264h-0.641c0,8.727,5.805,16.095,13.763,18.463
		l-15.636,15.636l14.757,14.756l20.932-20.932c0.82,0.3,1.668,0.541,2.545,0.705l-12.649,28.56
		c6.062,2.464,12.686,3.833,19.632,3.833s13.571-1.368,19.632-3.833l-12.649-28.56c0.877-0.164,1.725-0.404,2.545-0.705
		l20.932,20.932l14.757-14.756l-15.636-15.636c7.958-2.368,13.763-9.735,13.763-18.463h-0.642
		C309.342,218.036,318.608,209.411,318.608,198.772z"/>
</g>
<polygon style="fill:#6DA544;" points="256,209.207 233.392,219.643 233.392,240.512 256,254.425 278.608,240.512 278.608,219.643 
	"/>
<rect x="233.397" y="198.773" style="fill:#0052B4;" width="45.216" height="27.829"/>
<path style="fill:#C7C7C7;" d="M255.927,21.706c-73.745,0-141.451,47.553-166.61,116.807
	c-25.343,69.773-3.142,149.835,53.974,197.07c57.236,47.338,140.369,53.625,203.979,15.148
	c63.626-38.489,97.228-114.681,82.271-187.573C414.888,91.77,355.517,35.12,283.472,23.842
	C274.36,22.416,265.141,21.706,255.927,21.706 M398.59,263.184c-30.241,67.01-105.732,104.802-177.479,88.399
	c-55.215-12.621-100.384-55.764-115.778-110.195c-15.749-55.658,1.328-116.804,43.417-156.425
	c45.535-42.867,114.172-54.571,171.321-28.799c68.228,30.767,105.971,108.144,87.651,180.845
	C405.459,245.986,402.37,254.739,398.59,263.184C396.502,267.811,400.132,259.739,398.59,263.184"/>
<g>
</g>
<g>
</g>
<g>
</g>
<g>
</g>
<g>
</g>
<g>
</g>
<g>
</g>
<g>
</g>
<g>
</g>
<g>
</g>
<g>
</g>
<g>
</g>
<g>
</g>
<g>
</g>
<g>
</g>
</svg>
