<?xml version="1.0" encoding="iso-8859-1"?>
<!-- Generator: Adobe Illustrator 19.0.0, SVG Export Plug-In . SVG Version: 6.00 Build 0)  -->
<svg version="1.1" id="Layer_1" xmlns="http://www.w3.org/2000/svg" xmlns:xlink="http://www.w3.org/1999/xlink" x="0px" y="0px"
	 viewBox="0 0 512 512" style="enable-background:new 0 0 512 512;" xml:space="preserve">
<path style="fill:#B3B3B3;" d="M434.439,110.654C401.179,45.876,334.359,0.003,255.98,0v101.329
	c55.478,0.004,100.593,43.671,100.595,99.151c0,54.805-45.491,102.048-100.595,102.051V512
	c70.646-73.617,151.953-154.542,187.529-251.428C461.298,212.121,457.979,156.5,434.439,110.654z"/>
<path style="fill:#979797;" d="M68.492,260.572C104.067,357.458,185.374,438.383,256.02,512V302.531
	c-55.103-0.003-100.595-47.246-100.595-102.051c0.002-55.478,45.117-99.147,100.595-99.151V0
	c-78.379,0.003-145.199,45.876-178.46,110.654C54.021,156.5,50.702,212.121,68.492,260.572z"/>
<circle style="fill:#F0F0F0;" cx="256" cy="198.773" r="160"/>
<g>
	<polygon style="fill:#0052B4;" points="415.061,216.163 415.056,216.159 415.056,216.163 	"/>
	<path style="fill:#0052B4;" d="M415.056,216.163c0-0.001,0-0.003,0-0.004L239.591,39.604c-7.917,0.806-15.662,2.191-23.194,4.109
		C147.185,61.335,96,198.772,96,198.772s223.999,149.897,249.554,132.603c5.113-3.46,10.015-7.209,14.684-11.221l-103.989-103.99
		L415.056,216.163L415.056,216.163z"/>
</g>
<path style="fill:#D80027;" d="M374.26,198.772L218.654,43.166C148.304,59.988,96,123.267,96,198.772c0,88.366,71.634,160,160,160
	c33.518,0,64.623-10.314,90.331-27.931L214.26,198.772H374.26z"/>
<g>
	<polygon style="fill:#F0F0F0;" points="248.17,275.019 228.629,265.827 239.036,246.902 217.817,250.961 215.127,229.526 
		200.348,245.291 185.569,229.526 182.879,250.961 161.661,246.902 172.067,265.826 152.526,275.019 172.067,284.209 
		161.661,303.134 182.88,299.074 185.568,320.51 200.348,304.745 215.127,320.51 217.817,299.074 239.035,303.135 228.629,284.21 	
		"/>
	<polygon style="fill:#F0F0F0;" points="235.131,127.513 220.918,120.828 228.486,107.063 213.053,110.015 211.098,94.425 
		200.348,105.891 189.598,94.425 187.643,110.015 172.209,107.063 179.778,120.827 165.565,127.513 200.348,134.468 	"/>
	<path style="fill:#F0F0F0;" d="M242.087,127.513c0,23.052-18.688,41.74-41.74,41.74s-41.74-18.688-41.74-41.74"/>
</g>
<path style="fill:#C7C7C7;" d="M255.929,21.706c-73.745,0-141.451,47.553-166.61,116.807
	c-25.343,69.773-3.142,149.835,53.974,197.07c57.236,47.338,140.369,53.625,203.978,15.148
	c63.626-38.489,97.228-114.681,82.271-187.573C414.889,91.77,355.517,35.12,283.472,23.842
	C274.361,22.416,265.141,21.706,255.929,21.706 M398.59,263.184c-30.241,67.01-105.732,104.802-177.479,88.399
	c-55.215-12.621-100.384-55.764-115.778-110.195c-15.749-55.658,1.328-116.804,43.417-156.425
	c45.534-42.867,114.172-54.571,171.321-28.799c68.228,30.767,105.971,108.144,87.651,180.845
	C405.459,245.986,402.37,254.739,398.59,263.184C396.502,267.811,400.132,259.739,398.59,263.184"/>
<g>
</g>
<g>
</g>
<g>
</g>
<g>
</g>
<g>
</g>
<g>
</g>
<g>
</g>
<g>
</g>
<g>
</g>
<g>
</g>
<g>
</g>
<g>
</g>
<g>
</g>
<g>
</g>
<g>
</g>
</svg>
