<?xml version="1.0" encoding="iso-8859-1"?>
<!-- Generator: Adobe Illustrator 19.0.0, SVG Export Plug-In . SVG Version: 6.00 Build 0)  -->
<svg version="1.1" id="Layer_1" xmlns="http://www.w3.org/2000/svg" xmlns:xlink="http://www.w3.org/1999/xlink" x="0px" y="0px"
	 viewBox="0 0 512 512" style="enable-background:new 0 0 512 512;" xml:space="preserve">
<path style="fill:#B3B3B3;" d="M434.44,110.654C401.18,45.876,334.359,0.003,255.98,0v101.329
	c55.478,0.004,100.593,43.67,100.594,99.15c0.001,54.805-45.49,102.048-100.594,102.052V512
	c70.645-73.617,151.953-154.542,187.529-251.428C461.297,212.121,457.979,156.5,434.44,110.654z"/>
<path style="fill:#979797;" d="M68.492,260.572C104.067,357.458,185.374,438.383,256.02,512V302.531
	c-55.104-0.004-100.595-47.247-100.594-102.052c0.001-55.479,45.116-99.146,100.594-99.15V0
	c-78.379,0.003-145.199,45.876-178.46,110.654C54.021,156.5,50.703,212.121,68.492,260.572z"/>
<path style="fill:#0052B4;" d="M416,198.773c0,88.365-71.634,160-160,160s-160-71.635-160-160c0,0.037,160-159.983,160-160
	C344.365,38.773,416,110.406,416,198.773z"/>
<g>
	<path style="fill:#F0F0F0;" d="M256,38.773c-0.009,0-0.018,0-0.027,0H256L256,38.773z"/>
	<path style="fill:#F0F0F0;" d="M255.571,198.773H256c0-0.144,0-0.285,0-0.429C255.857,198.487,255.714,198.629,255.571,198.773z"/>
	<path style="fill:#F0F0F0;" d="M256,122.25c0-28.153,0-46.601,0-83.477h-0.027C167.619,38.787,96,110.417,96,198.773h83.478
		v-47.008l47.007,47.008h29.087c0.143-0.144,0.286-0.285,0.428-0.429c0-10.779,0-20.396,0-29.086l-47.008-47.008H256V122.25z"/>
</g>
<g>
	<path style="fill:#D80027;" d="M176.946,59.642c-25.024,14.25-45.828,35.054-60.077,60.077v79.054h41.739v-97.389v-0.002H256
		c0-13.165,0-25.707,0-41.74C256,59.642,176.946,59.642,176.946,59.642z"/>
	<path style="fill:#D80027;" d="M256,179.095l-56.846-56.846h-19.677v0.002l76.522,76.521H256C256,198.773,256,185.206,256,179.095z
		"/>
	<polygon style="fill:#D80027;" points="373.081,157.495 376.534,168.125 387.71,168.125 378.668,174.693 382.122,185.323 
		373.081,178.754 364.039,185.323 367.492,174.693 358.451,168.125 369.627,168.125 	"/>
	<polygon style="fill:#D80027;" points="333.132,234.019 338.313,249.963 355.075,249.963 341.513,259.814 346.693,275.758 
		333.132,265.904 319.569,275.758 324.75,259.814 311.187,249.963 327.951,249.963 	"/>
	<polygon style="fill:#D80027;" points="334.641,108.8 338.958,122.087 352.927,122.087 341.625,130.298 345.942,143.583 
		334.641,135.373 323.339,143.583 327.657,130.298 316.354,122.087 330.323,122.087 	"/>
	<polygon style="fill:#D80027;" points="296.201,157.034 301.381,172.977 318.144,172.977 304.581,182.829 309.762,198.773 
		296.201,188.918 282.639,198.773 287.82,182.829 274.257,172.977 291.02,172.977 	"/>
</g>
<path style="fill:#C7C7C7;" d="M255.928,21.707c-73.745,0-141.451,47.552-166.61,116.806
	c-25.343,69.773-3.142,149.836,53.974,197.071c57.236,47.338,140.369,53.625,203.978,15.148
	c63.626-38.49,97.228-114.681,82.271-187.573C414.888,91.771,355.517,35.121,283.472,23.843
	C274.361,22.416,265.141,21.707,255.928,21.707 M398.59,263.184c-30.241,67.009-105.732,104.802-177.479,88.399
	c-55.215-12.621-100.384-55.764-115.778-110.195c-15.749-55.658,1.328-116.804,43.417-156.425
	c45.534-42.867,114.172-54.571,171.321-28.799c68.228,30.767,105.971,108.144,87.651,180.844
	C405.459,245.986,402.37,254.739,398.59,263.184C396.502,267.81,400.132,259.739,398.59,263.184"/>
<g>
</g>
<g>
</g>
<g>
</g>
<g>
</g>
<g>
</g>
<g>
</g>
<g>
</g>
<g>
</g>
<g>
</g>
<g>
</g>
<g>
</g>
<g>
</g>
<g>
</g>
<g>
</g>
<g>
</g>
</svg>
