<?xml version="1.0" encoding="iso-8859-1"?>
<!-- Generator: Adobe Illustrator 19.0.0, SVG Export Plug-In . SVG Version: 6.00 Build 0)  -->
<svg version="1.1" id="Layer_1" xmlns="http://www.w3.org/2000/svg" xmlns:xlink="http://www.w3.org/1999/xlink" x="0px" y="0px"
	 viewBox="0 0 512 512" style="enable-background:new 0 0 512 512;" xml:space="preserve">
<path style="fill:#B3B3B3;" d="M434.439,110.654C401.178,45.876,334.359,0.003,255.98,0v101.329
	c55.478,0.004,100.593,43.671,100.595,99.15c0,54.805-45.491,102.048-100.595,102.052V512
	c70.646-73.617,151.953-154.542,187.529-251.428C461.298,212.121,457.979,156.5,434.439,110.654z"/>
<path style="fill:#979797;" d="M68.492,260.572C104.066,357.458,185.374,438.383,256.019,512V302.531
	c-55.104-0.004-100.595-47.247-100.594-102.052c0.001-55.478,45.116-99.146,100.594-99.15V0
	c-78.379,0.003-145.2,45.876-178.46,110.654C54.021,156.5,50.703,212.121,68.492,260.572z"/>
<circle style="fill:#338AF3;" cx="256" cy="198.773" r="160"/>
<path style="fill:#F3F3F3;" d="M250.956,299.517c-4.313-0.208-7.882-3.012-9.28-6.817l0,0c-2.469,3.221-6.713,4.842-10.893,3.762
	l0,0c-4.188-1.077-7.117-4.542-7.722-8.562l0,0c-3.075,2.656-7.554,3.38-11.429,1.482l0,0c-3.882-1.906-6.052-5.891-5.829-9.948l0,0
	c-3.54,1.989-8.077,1.795-11.492-0.848l0,0c-3.408-2.643-4.737-6.978-3.708-10.909l0,0c-3.868,1.238-8.265,0.14-11.082-3.137l0,0
	c-2.817-3.268-3.249-7.785-1.454-11.423l0,0c-4.034,0.431-8.125-1.53-10.225-5.3l0,0c-2.108-3.771-1.621-8.286,0.877-11.492l0,0
	c-4.043-0.389-7.66-3.137-8.954-7.255l0,0c-1.301-4.118,0.091-8.446,3.186-11.082l0,0c-3.882-1.198-6.859-4.621-7.297-8.912l0,0
	c-0.438-4.291,1.788-8.237,5.343-10.198l0,0c-3.555-1.948-5.795-5.891-5.371-10.177l0,0c0,0,0,0,0.006,0l0,0
	c0.423-4.3,3.402-7.729,7.276-8.94l0,0c-3.095-2.629-4.5-6.95-3.214-11.068l0,0c1.286-4.125,4.897-6.88,8.939-7.283l0,0
	c-2.497-3.201-2.998-7.715-0.905-11.492l0,0c2.094-3.771,6.185-5.74,10.226-5.314l0,0c-1.809-3.638-1.385-8.153,1.426-11.437l0,0
	c2.804-3.276,7.2-4.382,11.074-3.158l0,0c-1.043-3.924,0.278-8.263,3.686-10.914l0,0c3.402-2.651,7.937-2.853,11.478-0.877l0,0
	c-0.229-4.055,1.934-8.041,5.808-9.954l0,0c3.869-1.906,8.355-1.197,11.437,1.46l0,0c0.592-4.02,3.52-7.499,7.701-8.585l0,0l0,0l0,0
	c4.174-1.086,8.418,0.522,10.894,3.735l0,0c1.398-3.804,4.96-6.614,9.274-6.831l0,0c4.306-0.222,8.131,2.198,9.913,5.838l0,0
	c2.129-3.45,6.178-5.495,10.442-4.849l0,0c4.271,0.641,7.548,3.785,8.563,7.714l0,0c2.783-2.963,7.165-4.139,11.214-2.651l0,0
	c4.055,1.495,6.63,5.239,6.825,9.302l0,0c3.318-2.337,7.854-2.609,11.52-0.327l0,0c3.666,2.274,5.426,6.457,4.8,10.468l0,0
	c3.722-1.621,8.215-0.974,11.346,1.989l0,0c3.131,2.971,4.021,7.417,2.602,11.221l0,0c3.972-0.842,8.243,0.689,10.72,4.23l0,0l0,0
	l0,0c2.477,3.534,2.455,8.069,0.306,11.514l0,0c4.055-0.029,7.93,2.337,9.648,6.294l0,0c1.712,3.966,0.772,8.411-2.031,11.354l0,0
	c3.986,0.793,7.305,3.888,8.181,8.118l0,0c0.869,4.229-0.946,8.382-4.278,10.698l0,0c3.729,1.58,6.358,5.274,6.366,9.587l0,0
	c0,0.048,0,0.09,0,0.139l0,0c0,0.028,0,0.063,0,0.091l0,0c0,4.313-2.617,8.014-6.345,9.606l0,0c3.339,2.303,5.169,6.457,4.3,10.686
	l0,0c-0.863,4.23-4.174,7.333-8.16,8.14l0,0c2.811,2.935,3.763,7.374,2.06,11.346l0,0l0,0l0,0c-1.705,3.966-5.579,6.337-9.642,6.317
	l0,0c2.157,3.444,2.192,7.979-0.278,11.52l0,0c-2.469,3.54-6.734,5.086-10.706,4.251l0,0c1.426,3.798,0.543,8.25-2.58,11.227l0,0
	l0,0l0,0c-3.131,2.971-7.617,3.626-11.339,2.018l0,0c0.634,4.007-1.12,8.195-4.779,10.484l0,0c-3.659,2.288-8.194,2.022-11.52-0.307
	l0,0c-0.188,4.063-2.748,7.812-6.797,9.314l0,0c0,0,0,0-0.006,0l0,0c-4.049,1.495-8.432,0.329-11.221-2.629l0,0
	c-1.003,3.937-4.272,7.089-8.543,7.743l0,0l0,0l0,0c-4.265,0.647-8.32-1.385-10.455-4.835l0,0c-1.697,3.5-5.286,5.879-9.378,5.879
	l0,0C251.304,299.531,251.129,299.525,250.956,299.517z"/>
<circle style="fill:#338AF3;" cx="256" cy="198.773" r="69.568"/>
<path style="fill:#BDBCC1;" d="M271.227,175.159c3.418-2.534,5.643-6.587,5.643-11.17v-6.956c0-7.683-6.229-13.913-13.914-13.913
	h-13.913c-7.684,0-13.914,6.229-13.914,13.913v6.956c0,4.583,2.225,8.636,5.643,11.17L228.173,303.12c0,0,6.956,6.957,27.826,6.957
	c20.869,0,27.826-6.957,27.826-6.957L271.227,175.159z"/>
<polygon style="fill:#F0F0F0;" points="255.999,143.121 268.085,180.32 307.201,180.32 275.557,203.312 287.643,240.512 
	255.999,217.521 224.354,240.512 236.442,203.312 204.798,180.32 243.912,180.32 "/>
<path style="fill:#C7C7C7;" d="M255.927,21.707c-73.745,0-141.451,47.552-166.61,116.806
	c-25.343,69.773-3.142,149.836,53.974,197.071c57.236,47.338,140.369,53.625,203.978,15.148
	c63.626-38.49,97.228-114.681,82.271-187.573C414.887,91.771,355.516,35.121,283.471,23.843
	C274.36,22.416,265.141,21.707,255.927,21.707 M398.59,263.184c-30.241,67.009-105.732,104.802-177.479,88.399
	c-55.215-12.621-100.384-55.764-115.778-110.195c-15.749-55.658,1.328-116.804,43.417-156.425
	c45.535-42.867,114.172-54.571,171.321-28.799c68.228,30.767,105.971,108.144,87.651,180.844
	C405.459,245.986,402.37,254.739,398.59,263.184C396.502,267.81,400.132,259.739,398.59,263.184"/>
<g>
</g>
<g>
</g>
<g>
</g>
<g>
</g>
<g>
</g>
<g>
</g>
<g>
</g>
<g>
</g>
<g>
</g>
<g>
</g>
<g>
</g>
<g>
</g>
<g>
</g>
<g>
</g>
<g>
</g>
</svg>
