<?xml version="1.0" encoding="iso-8859-1"?>
<!-- Generator: Adobe Illustrator 19.0.0, SVG Export Plug-In . SVG Version: 6.00 Build 0)  -->
<svg version="1.1" id="Layer_1" xmlns="http://www.w3.org/2000/svg" xmlns:xlink="http://www.w3.org/1999/xlink" x="0px" y="0px"
	 viewBox="0 0 512 512" style="enable-background:new 0 0 512 512;" xml:space="preserve">
<path style="fill:#B3B3B3;" d="M434.44,110.654C401.18,45.876,334.359,0.003,255.98,0v101.329
	c55.478,0.004,100.593,43.67,100.594,99.15c0.001,54.805-45.491,102.048-100.594,102.052V512
	c70.645-73.617,151.953-154.542,187.529-251.428C461.297,212.121,457.979,156.5,434.44,110.654z"/>
<path style="fill:#979797;" d="M68.492,260.572C104.067,357.458,185.374,438.383,256.02,512V302.531
	c-55.104-0.004-100.595-47.247-100.594-102.052c0.001-55.479,45.116-99.146,100.594-99.15V0
	c-78.379,0.003-145.2,45.876-178.46,110.654C54.021,156.5,50.703,212.121,68.492,260.572z"/>
<g>
	<circle style="fill:#F0F0F0;" cx="256" cy="198.773" r="160"/>
	<path style="fill:#F0F0F0;" d="M96,198.773c0,60.645,33.744,113.408,83.478,140.546V58.227C129.744,85.362,96,138.125,96,198.773z"
		/>
</g>
<path style="fill:#496E2D;" d="M256,38.773c-27.719,0-53.79,7.052-76.522,19.454v281.091c22.732,12.402,48.803,19.454,76.522,19.454
	c88.366,0,160-71.635,160-160C416,110.406,344.366,38.773,256,38.773z"/>
<g>
	<path style="fill:#F0F0F0;" d="M324.409,225.233c-20.242,14.625-48.508,10.073-63.134-10.169
		c-14.626-20.242-10.073-48.509,10.169-63.134c6.311-4.56,13.402-7.257,20.617-8.194c-13.879-2.075-28.55,1.052-40.823,9.921
		c-24.913,18.002-30.516,52.789-12.516,77.702s52.789,30.518,77.702,12.514c12.274-8.867,19.85-21.812,22.237-35.644
		C335.505,214.785,330.72,220.673,324.409,225.233z"/>
	<polygon style="fill:#F0F0F0;" points="323.541,143.121 334.944,155.41 350.154,148.365 341.989,163.004 353.391,175.294 
		336.944,172.054 328.78,186.695 326.779,170.05 310.332,166.811 325.542,159.764 	"/>
</g>
<path style="fill:#C7C7C7;" d="M255.928,21.707c-73.745,0-141.451,47.552-166.61,116.806
	c-25.343,69.773-3.142,149.836,53.974,197.071c57.236,47.338,140.369,53.625,203.978,15.148
	c63.626-38.49,97.228-114.681,82.271-187.573C414.888,91.771,355.517,35.121,283.472,23.843
	C274.361,22.416,265.141,21.707,255.928,21.707 M398.59,263.184c-30.241,67.009-105.732,104.802-177.479,88.399
	c-55.215-12.621-100.384-55.764-115.778-110.195c-15.749-55.658,1.328-116.804,43.417-156.425
	c45.534-42.867,114.172-54.571,171.321-28.799c68.228,30.767,105.971,108.144,87.651,180.844
	C405.459,245.986,402.37,254.739,398.59,263.184C396.502,267.81,400.132,259.739,398.59,263.184"/>
<g>
</g>
<g>
</g>
<g>
</g>
<g>
</g>
<g>
</g>
<g>
</g>
<g>
</g>
<g>
</g>
<g>
</g>
<g>
</g>
<g>
</g>
<g>
</g>
<g>
</g>
<g>
</g>
<g>
</g>
</svg>
