<?xml version="1.0" encoding="iso-8859-1"?>
<!-- Generator: Adobe Illustrator 19.0.0, SVG Export Plug-In . SVG Version: 6.00 Build 0)  -->
<svg version="1.1" id="Layer_1" xmlns="http://www.w3.org/2000/svg" xmlns:xlink="http://www.w3.org/1999/xlink" x="0px" y="0px"
	 viewBox="0 0 512 512" style="enable-background:new 0 0 512 512;" xml:space="preserve">
<path style="fill:#B3B3B3;" d="M434.439,110.654C401.179,45.876,334.359,0.003,255.98,0v101.329
	c55.478,0.004,100.593,43.67,100.595,99.15c0,54.805-45.491,102.048-100.595,102.052V512
	c70.646-73.617,151.953-154.542,187.529-251.428C461.298,212.121,457.979,156.5,434.439,110.654z"/>
<path style="fill:#979797;" d="M68.492,260.572C104.067,357.458,185.374,438.383,256.02,512V302.531
	c-55.103-0.004-100.595-47.247-100.595-102.052c0.002-55.479,45.117-99.146,100.595-99.15V0
	c-78.379,0.003-145.199,45.876-178.46,110.654C54.021,156.5,50.702,212.121,68.492,260.572z"/>
<circle style="fill:#F0F0F0;" cx="256" cy="198.773" r="160"/>
<path style="fill:#D80027;" d="M256,38.773c-63.434,0-118.242,36.915-144.124,90.434h288.247
	C374.243,75.689,319.434,38.773,256,38.773z"/>
<path style="fill:#0052B4;" d="M256,358.773c63.434,0,118.243-36.915,144.124-90.434H111.876
	C137.758,321.857,192.566,358.773,256,358.773z"/>
<path style="fill:#6DA544;" d="M295.353,152.465l-14.757,14.756c6.294,6.294,10.188,14.991,10.188,24.596
	c0,19.21-15.572,34.782-34.782,34.782c-19.21,0-34.782-15.573-34.782-34.782c0-9.605,3.892-18.301,10.188-24.596l-14.757-14.756
	c-10.07,10.07-16.3,23.983-16.3,39.353c0,30.735,24.916,55.652,55.652,55.652s55.652-24.916,55.652-55.652
	C311.652,176.448,305.423,162.535,295.353,152.465z"/>
<polygon style="fill:#FFDA44;" points="256,170.947 261.181,186.891 277.943,186.891 264.382,196.742 269.563,212.687 256,202.832 
	242.437,212.687 247.618,196.742 234.057,186.891 250.82,186.891 "/>
<path style="fill:#C7C7C7;" d="M255.929,21.707c-73.745,0-141.451,47.552-166.61,116.806
	c-25.343,69.773-3.142,149.836,53.974,197.071c57.236,47.338,140.369,53.625,203.978,15.148
	c63.626-38.49,97.228-114.681,82.271-187.573C414.889,91.771,355.517,35.121,283.472,23.843
	C274.361,22.416,265.141,21.707,255.929,21.707 M398.59,263.184c-30.241,67.009-105.732,104.802-177.479,88.399
	c-55.215-12.621-100.384-55.764-115.778-110.195c-15.749-55.658,1.328-116.804,43.417-156.425
	c45.534-42.867,114.172-54.571,171.321-28.799c68.228,30.767,105.971,108.144,87.651,180.844
	C405.459,245.986,402.37,254.739,398.59,263.184C396.502,267.81,400.132,259.739,398.59,263.184"/>
<g>
</g>
<g>
</g>
<g>
</g>
<g>
</g>
<g>
</g>
<g>
</g>
<g>
</g>
<g>
</g>
<g>
</g>
<g>
</g>
<g>
</g>
<g>
</g>
<g>
</g>
<g>
</g>
<g>
</g>
</svg>
