<?xml version="1.0" encoding="iso-8859-1"?>
<!-- Generator: Adobe Illustrator 19.0.0, SVG Export Plug-In . SVG Version: 6.00 Build 0)  -->
<svg version="1.1" id="Layer_1" xmlns="http://www.w3.org/2000/svg" xmlns:xlink="http://www.w3.org/1999/xlink" x="0px" y="0px"
	 viewBox="0 0 512 512" style="enable-background:new 0 0 512 512;" xml:space="preserve">
<path style="fill:#B3B3B3;" d="M434.439,110.654C401.179,45.876,334.359,0.003,255.98,0v101.329
	c55.478,0.004,100.593,43.671,100.595,99.151c0,54.805-45.491,102.048-100.595,102.051V512
	c70.646-73.617,151.953-154.542,187.529-251.428C461.298,212.121,457.979,156.5,434.439,110.654z"/>
<path style="fill:#979797;" d="M68.492,260.572C104.067,357.458,185.374,438.383,256.02,512V302.531
	c-55.103-0.003-100.595-47.246-100.595-102.051c0.002-55.478,45.117-99.147,100.595-99.151V0
	c-78.379,0.003-145.199,45.876-178.46,110.654C54.021,156.5,50.702,212.121,68.492,260.572z"/>
<circle style="fill:#F0F0F0;" cx="256" cy="198.773" r="160"/>
<path style="fill:#D80027;" d="M256,38.772v160L142.863,311.909c28.956,28.954,68.956,46.863,113.137,46.863
	c88.366,0,160-71.634,160-160S256,38.772,256,38.772z"/>
<path style="fill:#0052B4;" d="M256,38.772c-44.182,0-84.182,17.909-113.137,46.863c39.255,39.255,53.191,53.191,113.137,113.137
	h160C416,110.406,344.366,38.772,256,38.772z"/>
<g>
	<polygon style="fill:#FFDA44;" points="205.557,198.772 186.017,189.582 196.422,170.657 175.204,174.716 172.514,153.281 
		157.735,169.045 142.956,153.281 140.267,174.716 119.047,170.657 129.454,189.581 109.914,198.772 129.454,207.963 
		119.047,226.889 140.268,222.829 142.955,244.265 157.735,228.499 172.514,244.265 175.204,222.829 196.421,226.889 
		186.017,207.964 	"/>
	<polygon style="fill:#FFDA44;" points="138.671,101.381 145.173,110.47 155.826,107.097 149.19,116.089 155.693,125.178 
		145.088,121.646 138.453,130.638 138.537,119.463 127.934,115.932 138.588,112.556 	"/>
	<polygon style="fill:#FFDA44;" points="138.671,266.907 145.173,275.997 155.826,272.622 149.19,281.614 155.693,290.704 
		145.088,287.171 138.453,296.163 138.537,284.989 127.934,281.457 138.588,278.082 	"/>
	<polygon style="fill:#FFDA44;" points="231.417,184.144 224.914,193.234 214.26,189.859 220.897,198.851 214.395,207.941 
		224.998,204.409 231.633,213.401 231.55,202.226 242.154,198.693 231.499,195.319 	"/>
</g>
<path style="fill:#C7C7C7;" d="M255.929,21.706c-73.745,0-141.451,47.553-166.61,116.807
	c-25.343,69.773-3.142,149.835,53.974,197.07c57.236,47.338,140.369,53.625,203.978,15.148
	c63.626-38.489,97.228-114.681,82.271-187.573C414.889,91.77,355.517,35.12,283.472,23.842
	C274.361,22.416,265.141,21.706,255.929,21.706 M398.59,263.184c-30.241,67.01-105.732,104.802-177.479,88.399
	c-55.215-12.621-100.384-55.764-115.778-110.195c-15.749-55.658,1.328-116.804,43.417-156.425
	c45.534-42.867,114.172-54.571,171.321-28.799c68.228,30.767,105.971,108.144,87.651,180.845
	C405.459,245.986,402.37,254.739,398.59,263.184C396.502,267.811,400.132,259.739,398.59,263.184"/>
<g>
</g>
<g>
</g>
<g>
</g>
<g>
</g>
<g>
</g>
<g>
</g>
<g>
</g>
<g>
</g>
<g>
</g>
<g>
</g>
<g>
</g>
<g>
</g>
<g>
</g>
<g>
</g>
<g>
</g>
</svg>
