<?xml version="1.0" encoding="iso-8859-1"?>
<!-- Generator: Adobe Illustrator 19.0.0, SVG Export Plug-In . SVG Version: 6.00 Build 0)  -->
<svg version="1.1" id="Layer_1" xmlns="http://www.w3.org/2000/svg" xmlns:xlink="http://www.w3.org/1999/xlink" x="0px" y="0px"
	 viewBox="0 0 512 512" style="enable-background:new 0 0 512 512;" xml:space="preserve">
<path style="fill:#B3B3B3;" d="M434.439,110.654C401.178,45.876,334.359,0.003,255.98,0v101.329
	c55.478,0.004,100.593,43.671,100.595,99.15c0,54.805-45.491,102.048-100.595,102.052V512
	c70.646-73.617,151.953-154.542,187.529-251.428C461.298,212.121,457.979,156.5,434.439,110.654z"/>
<path style="fill:#979797;" d="M68.492,260.572C104.066,357.458,185.374,438.383,256.019,512V302.531
	c-55.104-0.004-100.595-47.247-100.594-102.052c0.001-55.478,45.116-99.146,100.594-99.15V0
	c-78.379,0.003-145.2,45.876-178.46,110.654C54.021,156.5,50.703,212.121,68.492,260.572z"/>
<path style="fill:#338AF3;" d="M416,198.773c0,88.365-71.634,160-160,160s-160-71.635-160-160c6.956,0,160-20.87,160-20.87
	L416,198.773z"/>
<path style="fill:#F0F0F0;" d="M96,198.773c0-88.367,71.634-160,160-160s160,71.633,160,160"/>
<path style="fill:#6DA544;" d="M319.51,149.175L256,212.686l-63.51-63.51c-8.212,12.192-13.011,26.867-13.011,42.642v20.868
	c0,33.51,21.653,62.057,51.701,72.387c-4.011,7.86-3.334,17.668,2.542,25.004c7.806-6.256,15.886-12.732,22.741-18.225
	c6.855,5.493,14.935,11.969,22.741,18.225c5.946-7.421,6.573-17.377,2.404-25.283c29.637-10.556,50.913-38.892,50.913-72.109
	v-20.868C332.521,176.042,327.722,161.366,319.51,149.175z"/>
<path style="fill:#FFDA44;" d="M256,268.337c-30.687,0-55.652-24.964-55.652-55.652v-20.868c0-30.688,24.965-55.652,55.652-55.652
	s55.652,24.964,55.652,55.652v20.868C311.652,243.373,286.687,268.337,256,268.337z"/>
<path style="fill:#338AF3;" d="M290.783,212.686v-20.868c0-19.179-15.603-34.783-34.783-34.783s-34.783,15.604-34.783,34.783v20.868
	L256,219.642L290.783,212.686z"/>
<path style="fill:#6DA544;" d="M221.217,212.686L221.217,212.686c0,19.179,15.603,34.783,34.783,34.783
	c19.179,0,34.783-15.604,34.783-34.783l0,0H221.217z"/>
<path style="fill:#FFDA44;" d="M297.738,136.164c0-11.527-9.344-20.87-20.869-20.87c-5.347,0-10.22,2.013-13.914,5.318v-12.275
	h6.957V94.425h-6.957v-6.956h-13.913v6.956h-6.957v13.913h6.957v12.275c-3.693-3.307-8.566-5.318-13.914-5.318
	c-11.525,0-20.869,9.344-20.869,20.87c0,6.179,2.688,11.729,6.956,15.55v12.275h69.566v-12.275
	C295.05,147.893,297.738,142.343,297.738,136.164z"/>
<path style="fill:#C7C7C7;" d="M255.927,21.707c-73.745,0-141.451,47.552-166.61,116.806
	c-25.343,69.773-3.142,149.836,53.974,197.071c57.236,47.338,140.369,53.625,203.978,15.148
	c63.626-38.49,97.228-114.681,82.271-187.573C414.887,91.771,355.516,35.121,283.471,23.843
	C274.36,22.416,265.141,21.707,255.927,21.707 M398.59,263.184c-30.241,67.009-105.732,104.802-177.479,88.399
	c-55.215-12.621-100.384-55.764-115.778-110.195c-15.749-55.658,1.328-116.804,43.417-156.425
	c45.535-42.867,114.172-54.571,171.321-28.799c68.228,30.767,105.971,108.144,87.651,180.844
	C405.459,245.986,402.37,254.739,398.59,263.184C396.502,267.81,400.132,259.739,398.59,263.184"/>
<g>
</g>
<g>
</g>
<g>
</g>
<g>
</g>
<g>
</g>
<g>
</g>
<g>
</g>
<g>
</g>
<g>
</g>
<g>
</g>
<g>
</g>
<g>
</g>
<g>
</g>
<g>
</g>
<g>
</g>
</svg>
