<?xml version="1.0" encoding="iso-8859-1"?>
<!-- Generator: Adobe Illustrator 19.0.0, SVG Export Plug-In . SVG Version: 6.00 Build 0)  -->
<svg version="1.1" id="Layer_1" xmlns="http://www.w3.org/2000/svg" xmlns:xlink="http://www.w3.org/1999/xlink" x="0px" y="0px"
	 viewBox="0 0 512 512" style="enable-background:new 0 0 512 512;" xml:space="preserve">
<path style="fill:#B3B3B3;" d="M434.44,110.654C401.18,45.876,334.359,0.003,255.98,0v101.329
	c55.478,0.004,100.593,43.67,100.594,99.15c0.001,54.805-45.491,102.048-100.594,102.052V512
	c70.645-73.617,151.953-154.542,187.529-251.428C461.297,212.121,457.979,156.5,434.44,110.654z"/>
<path style="fill:#979797;" d="M68.492,260.572C104.067,357.458,185.374,438.383,256.02,512V302.531
	c-55.104-0.004-100.595-47.247-100.594-102.052c0.001-55.479,45.116-99.146,100.594-99.15V0
	c-78.379,0.003-145.2,45.876-178.46,110.654C54.021,156.5,50.703,212.121,68.492,260.572z"/>
<circle style="fill:#6DA544;" cx="256" cy="198.773" r="160"/>
<g>
	<path style="fill:#F0F0F0;" d="M186.435,230.077c0,11.525,9.344,20.868,20.869,20.868h62.609c0,9.604,7.787,17.392,17.391,17.392
		h20.869c9.605,0,17.391-7.788,17.391-17.392v-20.868L186.435,230.077L186.435,230.077z"/>
	<path style="fill:#F0F0F0;" d="M327.305,129.206v48.695c0,7.673-6.241,13.915-13.913,13.915v20.868
		c19.18,0,34.783-15.604,34.783-34.783v-48.695C348.175,129.206,327.305,129.206,327.305,129.206z"/>
	<path style="fill:#F0F0F0;" d="M177.739,177.902c0,7.673-6.242,13.915-13.914,13.915v20.868c19.179,0,34.783-15.604,34.783-34.783
		v-48.695h-20.869V177.902z"/>
	<rect x="296" y="129.205" style="fill:#F0F0F0;" width="20.869" height="48.695"/>
	<path style="fill:#F0F0F0;" d="M264.695,157.034c0,1.919-1.561,3.479-3.478,3.479c-1.918,0-3.478-1.561-3.478-3.479v-27.827
		h-20.869v27.827c0,1.919-1.561,3.479-3.478,3.479c-1.918,0-3.478-1.561-3.478-3.479v-27.827h-20.869v27.827
		c0,13.425,10.923,24.348,24.348,24.348c5.171,0,9.966-1.625,13.914-4.385c3.948,2.761,8.742,4.385,13.913,4.385
		c1.041,0,2.065-0.073,3.072-0.202c-1.479,6.094-6.966,10.638-13.507,10.638v20.868c19.179,0,34.782-15.604,34.782-34.783v-20.868
		v-27.827h-20.869v27.826H264.695z"/>
	<rect x="209.045" y="191.819" style="fill:#F0F0F0;" width="31.305" height="20.869"/>
</g>
<path style="fill:#C7C7C7;" d="M255.928,21.707c-73.745,0-141.451,47.552-166.61,116.806
	c-25.343,69.773-3.142,149.836,53.974,197.071c57.236,47.338,140.369,53.625,203.978,15.148
	c63.626-38.49,97.228-114.681,82.271-187.573C414.888,91.771,355.517,35.121,283.472,23.843
	C274.361,22.416,265.141,21.707,255.928,21.707 M398.59,263.184c-30.241,67.009-105.732,104.802-177.479,88.399
	c-55.215-12.621-100.384-55.764-115.778-110.195c-15.749-55.658,1.328-116.804,43.417-156.425
	c45.534-42.867,114.172-54.571,171.321-28.799c68.228,30.767,105.971,108.144,87.651,180.844
	C405.459,245.986,402.37,254.739,398.59,263.184C396.502,267.81,400.132,259.739,398.59,263.184"/>
<g>
</g>
<g>
</g>
<g>
</g>
<g>
</g>
<g>
</g>
<g>
</g>
<g>
</g>
<g>
</g>
<g>
</g>
<g>
</g>
<g>
</g>
<g>
</g>
<g>
</g>
<g>
</g>
<g>
</g>
</svg>
