<?xml version="1.0" encoding="iso-8859-1"?>
<!-- Generator: Adobe Illustrator 19.0.0, SVG Export Plug-In . SVG Version: 6.00 Build 0)  -->
<svg version="1.1" id="Layer_1" xmlns="http://www.w3.org/2000/svg" xmlns:xlink="http://www.w3.org/1999/xlink" x="0px" y="0px"
	 viewBox="0 0 512 512" style="enable-background:new 0 0 512 512;" xml:space="preserve">
<path style="fill:#B3B3B3;" d="M434.439,110.654C401.178,45.876,334.359,0.003,255.98,0v101.329
	c55.478,0.004,100.593,43.67,100.595,99.15c0,54.805-45.491,102.048-100.595,102.052V512
	c70.645-73.617,151.953-154.542,187.529-251.428C461.298,212.121,457.979,156.5,434.439,110.654z"/>
<path style="fill:#979797;" d="M68.492,260.572C104.066,357.458,185.374,438.383,256.019,512V302.531
	c-55.104-0.004-100.595-47.247-100.594-102.052c0.001-55.479,45.116-99.146,100.594-99.15V0
	c-78.379,0.003-145.2,45.876-178.46,110.654C54.021,156.5,50.703,212.121,68.492,260.572z"/>
<circle style="fill:#F0F0F0;" cx="256" cy="198.773" r="160"/>
<path style="fill:#0052B4;" d="M256,38.773c-88.366,0-160,71.633-160,160c0,19.571,3.52,38.319,9.952,55.652h300.096
	c6.431-17.333,9.952-36.081,9.952-55.652C416,110.406,344.366,38.773,256,38.773z"/>
<g>
	<path style="fill:#D80027;" d="M256,38.773c-68.795,0-127.442,43.419-150.048,104.348h300.096
		C383.441,82.192,324.793,38.773,256,38.773z"/>
	<path style="fill:#D80027;" d="M137.373,129.206v79.817c0,45.402,59.313,59.314,59.313,59.314S256,254.425,256,209.023v-79.817
		H137.373z"/>
</g>
<g>
	<polygon style="fill:#FFDA44;" points="161.904,143.121 231.469,143.121 231.469,115.294 217.556,122.25 196.687,101.381 
		175.816,122.25 161.904,115.294 	"/>
	<polygon style="fill:#FFDA44;" points="242.086,220.138 196.869,174.918 151.652,220.138 166.408,234.894 196.869,204.433 
		227.33,234.894 	"/>
</g>
<path style="fill:#F0F0F0;" d="M242.086,177.902h-21.098c1.186-2.046,1.876-4.419,1.876-6.955c0-7.685-6.229-13.913-13.913-13.913
	c-5.31,0-9.92,2.973-12.266,7.346c-2.346-4.373-6.957-7.346-12.266-7.346c-7.683,0-13.913,6.227-13.913,13.913
	c0,2.535,0.69,4.909,1.876,6.955h-20.733c0,7.685,6.693,13.915,14.377,13.915h-0.464c0,7.683,6.229,13.913,13.913,13.913
	c0,6.804,4.886,12.457,11.339,13.665l-10.962,24.752c5.253,2.135,10.994,3.323,17.015,3.323c6.02,0,11.761-1.187,17.014-3.323
	l-10.962-24.752c6.452-1.209,11.339-6.861,11.339-13.665c7.684,0,13.914-6.229,13.914-13.913h-0.464
	C235.394,191.817,242.086,185.587,242.086,177.902z"/>
<path style="fill:#C7C7C7;" d="M255.927,21.707c-73.745,0-141.451,47.552-166.61,116.806
	c-25.343,69.773-3.142,149.836,53.974,197.071c57.236,47.338,140.369,53.625,203.979,15.148
	c63.626-38.49,97.228-114.681,82.271-187.573C414.888,91.771,355.517,35.121,283.472,23.843
	C274.36,22.416,265.141,21.707,255.927,21.707 M398.59,263.184c-30.241,67.009-105.732,104.802-177.479,88.399
	c-55.215-12.621-100.384-55.764-115.778-110.195c-15.749-55.658,1.328-116.804,43.417-156.425
	c45.535-42.867,114.172-54.571,171.321-28.799c68.228,30.767,105.971,108.144,87.651,180.844
	C405.459,245.986,402.37,254.739,398.59,263.184C396.502,267.81,400.132,259.739,398.59,263.184"/>
<g>
</g>
<g>
</g>
<g>
</g>
<g>
</g>
<g>
</g>
<g>
</g>
<g>
</g>
<g>
</g>
<g>
</g>
<g>
</g>
<g>
</g>
<g>
</g>
<g>
</g>
<g>
</g>
<g>
</g>
</svg>
