<?xml version="1.0" encoding="iso-8859-1"?>
<!-- Generator: Adobe Illustrator 19.0.0, SVG Export Plug-In . SVG Version: 6.00 Build 0)  -->
<svg version="1.1" id="Layer_1" xmlns="http://www.w3.org/2000/svg" xmlns:xlink="http://www.w3.org/1999/xlink" x="0px" y="0px"
	 viewBox="0 0 512 512" style="enable-background:new 0 0 512 512;" xml:space="preserve">
<path style="fill:#B3B3B3;" d="M434.439,110.654C401.179,45.876,334.359,0.003,255.98,0v101.329
	c55.478,0.004,100.593,43.67,100.595,99.15c0,54.805-45.491,102.048-100.595,102.052V512
	c70.646-73.617,151.953-154.542,187.529-251.428C461.298,212.121,457.979,156.5,434.439,110.654z"/>
<path style="fill:#979797;" d="M68.492,260.572C104.067,357.458,185.374,438.383,256.02,512V302.531
	c-55.103-0.004-100.595-47.247-100.595-102.052c0.002-55.479,45.117-99.146,100.595-99.15V0
	c-78.379,0.003-145.199,45.876-178.46,110.654C54.021,156.5,50.702,212.121,68.492,260.572z"/>
<circle style="fill:#F0F0F0;" cx="256" cy="198.773" r="160"/>
<path style="fill:#0052B4;" d="M256,358.773c88.366,0,160-71.635,160-160c0-19.571-3.521-38.321-9.952-55.652H105.952
	C99.521,160.452,96,179.202,96,198.773C96,287.137,167.634,358.773,256,358.773z"/>
<path style="fill:#D80027;" d="M256,358.773c68.794,0,127.442-43.421,150.048-104.348H105.952
	C128.558,315.353,187.206,358.773,256,358.773z"/>
<path style="fill:#F0F0F0;" d="M137.374,129.206v79.817c0,45.402,59.312,59.314,59.312,59.314S256,254.425,256,209.023v-79.817
	H137.374z"/>
<path style="fill:#D80027;" d="M151.286,129.206v79.817c0,5.331,1.184,10.365,3.53,15.084c23.27,0,58.054,0,83.742,0
	c2.346-4.719,3.53-9.753,3.53-15.084v-79.817H151.286z"/>
<polygon style="fill:#F0F0F0;" points="224.512,184.859 203.644,184.859 203.644,170.946 217.557,170.946 217.557,157.034 
	203.644,157.034 203.644,143.121 189.731,143.121 189.731,157.034 175.819,157.034 175.819,170.946 189.731,170.946 
	189.731,184.859 168.861,184.859 168.861,198.773 189.731,198.773 189.731,212.686 203.644,212.686 203.644,198.773 
	224.512,198.773 "/>
<path style="fill:#0052B4;" d="M173.794,243.53c8.965,5.633,18.177,8.905,22.893,10.361c4.717-1.456,13.929-4.727,22.893-10.361
	c9.042-5.683,15.38-12.181,18.978-19.423c-3.969-2.809-8.813-4.465-14.045-4.465c-1.904,0-3.755,0.225-5.535,0.64
	c-3.77-8.566-12.33-14.553-22.29-14.553c-9.961,0-18.519,5.985-22.291,14.553c-1.779-0.415-3.63-0.64-5.535-0.64
	c-5.232,0-10.075,1.657-14.045,4.465C158.415,231.348,164.753,237.845,173.794,243.53z"/>
<path style="fill:#C7C7C7;" d="M255.929,21.707c-73.745,0-141.451,47.552-166.61,116.806
	c-25.343,69.773-3.142,149.836,53.974,197.071c57.236,47.338,140.369,53.625,203.978,15.148
	c63.626-38.49,97.228-114.681,82.271-187.573C414.889,91.771,355.517,35.121,283.472,23.843
	C274.361,22.416,265.141,21.707,255.929,21.707 M398.59,263.184c-30.241,67.009-105.732,104.802-177.479,88.399
	c-55.215-12.621-100.384-55.764-115.778-110.195c-15.749-55.658,1.328-116.804,43.417-156.425
	c45.534-42.867,114.172-54.571,171.321-28.799c68.228,30.767,105.971,108.144,87.651,180.844
	C405.459,245.986,402.37,254.739,398.59,263.184C396.502,267.81,400.132,259.739,398.59,263.184"/>
<g>
</g>
<g>
</g>
<g>
</g>
<g>
</g>
<g>
</g>
<g>
</g>
<g>
</g>
<g>
</g>
<g>
</g>
<g>
</g>
<g>
</g>
<g>
</g>
<g>
</g>
<g>
</g>
<g>
</g>
</svg>
