<?xml version="1.0" encoding="iso-8859-1"?>
<!-- Generator: Adobe Illustrator 19.0.0, SVG Export Plug-In . SVG Version: 6.00 Build 0)  -->
<svg version="1.1" id="Layer_1" xmlns="http://www.w3.org/2000/svg" xmlns:xlink="http://www.w3.org/1999/xlink" x="0px" y="0px"
	 viewBox="0 0 512 512" style="enable-background:new 0 0 512 512;" xml:space="preserve">
<path style="fill:#B3B3B3;" d="M434.439,110.654C401.179,45.876,334.359,0.003,255.98,0v101.329
	c55.478,0.004,100.593,43.671,100.595,99.15c0,54.805-45.491,102.048-100.595,102.052V512
	c70.646-73.617,151.953-154.542,187.529-251.428C461.298,212.121,457.979,156.5,434.439,110.654z"/>
<path style="fill:#979797;" d="M68.492,260.572C104.067,357.458,185.374,438.383,256.02,512V302.531
	c-55.103-0.004-100.595-47.247-100.595-102.052c0.002-55.478,45.117-99.146,100.595-99.15V0
	c-78.379,0.003-145.199,45.876-178.46,110.654C54.021,156.5,50.702,212.121,68.492,260.572z"/>
<path style="fill:#496E2D;" d="M369.141,311.915c60.006-60.007,62.377-155.81,7.132-218.66L256,198.772L150.482,319.047
	C213.331,374.29,309.135,371.921,369.141,311.915z"/>
<path style="fill:#0052B4;" d="M142.859,85.631c60.006-60.007,155.81-62.377,218.659-7.134L256,198.774L135.725,304.29
	C80.482,241.441,82.852,145.637,142.859,85.631z"/>
<path style="fill:#FFDA44;" d="M361.517,78.497L135.725,304.29c2.283,2.597,4.652,5.143,7.132,7.622
	c2.48,2.481,5.028,4.85,7.625,7.134L376.273,93.253c-2.283-2.598-4.653-5.143-7.134-7.625
	C366.66,83.15,364.114,80.779,361.517,78.497z"/>
<g>
	<polygon style="fill:#F0F0F0;" points="163.412,94.419 166.867,105.047 178.043,105.047 169.002,111.617 172.455,122.246 
		163.412,115.677 154.371,122.246 157.825,111.617 148.783,105.047 159.959,105.047 	"/>
	<polygon style="fill:#F0F0F0;" points="220.5,94.419 223.954,105.047 235.13,105.047 226.087,111.617 229.541,122.246 
		220.5,115.677 211.458,122.246 214.912,111.617 205.87,105.047 217.045,105.047 	"/>
	<polygon style="fill:#F0F0F0;" points="163.412,150.074 166.867,160.702 178.043,160.702 169.002,167.271 172.455,177.901 
		163.412,171.331 154.371,177.901 157.825,167.271 148.783,160.702 159.959,160.702 	"/>
	<polygon style="fill:#F0F0F0;" points="220.5,150.074 223.954,160.702 235.13,160.702 226.087,167.271 229.541,177.901 
		220.5,171.331 211.458,177.901 214.912,167.271 205.87,160.702 217.045,160.702 	"/>
	<polygon style="fill:#F0F0F0;" points="191.956,122.246 195.41,132.875 206.587,132.875 197.543,139.444 200.998,150.074 
		191.956,143.504 182.914,150.074 186.369,139.444 177.327,132.875 188.502,132.875 	"/>
</g>
<path style="fill:#C7C7C7;" d="M255.929,21.707c-73.745,0-141.451,47.552-166.61,116.806
	c-25.343,69.773-3.142,149.836,53.974,197.071c57.236,47.338,140.369,53.625,203.978,15.148
	c63.626-38.49,97.228-114.681,82.271-187.573C414.889,91.771,355.517,35.121,283.472,23.843
	C274.361,22.416,265.141,21.707,255.929,21.707 M398.59,263.184c-30.241,67.009-105.732,104.802-177.479,88.399
	c-55.215-12.621-100.384-55.764-115.778-110.195c-15.749-55.658,1.328-116.804,43.417-156.425
	c45.534-42.867,114.172-54.571,171.321-28.799c68.228,30.767,105.971,108.144,87.651,180.844
	C405.459,245.986,402.37,254.739,398.59,263.184C396.502,267.81,400.132,259.739,398.59,263.184"/>
<g>
</g>
<g>
</g>
<g>
</g>
<g>
</g>
<g>
</g>
<g>
</g>
<g>
</g>
<g>
</g>
<g>
</g>
<g>
</g>
<g>
</g>
<g>
</g>
<g>
</g>
<g>
</g>
<g>
</g>
</svg>
