<?xml version="1.0" encoding="iso-8859-1"?>
<!-- Generator: Adobe Illustrator 19.0.0, SVG Export Plug-In . SVG Version: 6.00 Build 0)  -->
<svg version="1.1" id="Layer_1" xmlns="http://www.w3.org/2000/svg" xmlns:xlink="http://www.w3.org/1999/xlink" x="0px" y="0px"
	 viewBox="0 0 512 512" style="enable-background:new 0 0 512 512;" xml:space="preserve">
<path style="fill:#B3B3B3;" d="M434.44,110.654C401.18,45.876,334.359,0.003,255.98,0v101.329
	c55.478,0.004,100.593,43.67,100.594,99.15c0.001,54.805-45.491,102.048-100.594,102.052V512
	c70.645-73.617,151.953-154.542,187.529-251.428C461.297,212.121,457.979,156.5,434.44,110.654z"/>
<path style="fill:#979797;" d="M68.492,260.572C104.067,357.458,185.374,438.383,256.02,512V302.531
	c-55.104-0.004-100.595-47.247-100.594-102.052c0.001-55.479,45.116-99.146,100.594-99.15V0
	c-78.379,0.003-145.2,45.876-178.46,110.654C54.021,156.5,50.703,212.121,68.492,260.572z"/>
<circle style="fill:#F0F0F0;" cx="256" cy="198.773" r="160"/>
<path d="M142.863,311.91c-62.484-62.485-62.484-163.792,0-226.275c-0.004,0.006,92.268,113.137,92.268,113.137L142.863,311.91z"/>
<path style="fill:#FFDA44;" d="M235.131,198.773l-117.909-79.679c-3.655,6.354-6.879,12.986-9.649,19.852l59.693,59.827
	l-59.691,59.831c2.767,6.861,5.988,13.488,9.641,19.838L235.131,198.773z"/>
<path style="fill:#6DA544;" d="M414.645,177.902H235.126l-92.266-92.265c-9.941,9.941-18.58,21.187-25.641,33.456l79.524,79.679
	l-79.53,79.668c7.06,12.273,15.702,23.521,25.646,33.467l92.266-92.267h179.519c0.89-6.831,1.355-13.796,1.355-20.868
	C416,191.7,415.535,184.734,414.645,177.902z"/>
<path style="fill:#0052B4;" d="M158.587,325.696c26.98,20.737,60.753,33.077,97.413,33.077c73.924,0,136.128-50.14,154.489-118.26
	H243.771L158.587,325.696z"/>
<path style="fill:#D80027;" d="M410.489,157.034C392.128,88.911,329.924,38.773,256,38.773c-36.66,0-70.433,12.337-97.413,33.077
	l85.184,85.183H410.489z"/>
<path style="fill:#C7C7C7;" d="M255.928,21.707c-73.745,0-141.451,47.552-166.61,116.806
	c-25.343,69.773-3.142,149.836,53.974,197.071c57.236,47.338,140.369,53.625,203.978,15.148
	c63.626-38.49,97.228-114.681,82.271-187.573C414.888,91.771,355.517,35.121,283.472,23.843
	C274.361,22.416,265.141,21.707,255.928,21.707 M398.59,263.184c-30.241,67.009-105.732,104.802-177.479,88.399
	c-55.215-12.621-100.384-55.764-115.778-110.195c-15.749-55.658,1.328-116.804,43.417-156.425
	c45.534-42.867,114.172-54.571,171.321-28.799c68.228,30.767,105.971,108.144,87.651,180.844
	C405.459,245.986,402.37,254.739,398.59,263.184C396.502,267.81,400.132,259.739,398.59,263.184"/>
<g>
</g>
<g>
</g>
<g>
</g>
<g>
</g>
<g>
</g>
<g>
</g>
<g>
</g>
<g>
</g>
<g>
</g>
<g>
</g>
<g>
</g>
<g>
</g>
<g>
</g>
<g>
</g>
<g>
</g>
</svg>
