<?xml version="1.0" encoding="iso-8859-1"?>
<!-- Generator: Adobe Illustrator 19.0.0, SVG Export Plug-In . SVG Version: 6.00 Build 0)  -->
<svg version="1.1" id="Layer_1" xmlns="http://www.w3.org/2000/svg" xmlns:xlink="http://www.w3.org/1999/xlink" x="0px" y="0px"
	 viewBox="0 0 512 512" style="enable-background:new 0 0 512 512;" xml:space="preserve">
<path style="fill:#B3B3B3;" d="M434.439,110.654C401.179,45.876,334.359,0.003,255.98,0v101.329
	c55.478,0.004,100.593,43.671,100.595,99.151c0,54.805-45.491,102.048-100.595,102.051V512
	c70.646-73.617,151.953-154.542,187.529-251.428C461.298,212.121,457.979,156.5,434.439,110.654z"/>
<path style="fill:#979797;" d="M68.492,260.572C104.067,357.458,185.374,438.383,256.02,512V302.531
	c-55.103-0.003-100.595-47.246-100.595-102.051c0.002-55.478,45.117-99.147,100.595-99.151V0
	c-78.379,0.003-145.199,45.876-178.46,110.654C54.021,156.5,50.702,212.121,68.492,260.572z"/>
<polygon style="fill:#FF9811;" points="96,66.598 96,66.598 96,330.946 96,330.946 96,198.772 "/>
<circle style="fill:#FFDA44;" cx="256" cy="198.773" r="160"/>
<path style="fill:#FF9811;" d="M221.217,66.598h-55.396c-2.455,1.678-4.859,3.425-7.213,5.234l-13.913,126.94l13.913,126.94
	c2.354,1.809,4.757,3.555,7.213,5.233h55.396L221.217,66.598L221.217,66.598z"/>
<path style="fill:#6DA544;" d="M96,198.772c0,51.715,24.543,97.692,62.608,126.94V71.833C120.543,101.081,96,147.057,96,198.772z"/>
<polygon style="fill:#FFDA44;" points="353.391,136.313 353.391,140.316 353.539,140.338 "/>
<path style="fill:#A2001D;" d="M403.246,240.512h-30.145l-12.753,13.913v27.826h-27.827v-13.913h13.914v-27.826h-62.608v17.391
	h-13.914v-33.145c-4.268-3.822-6.956-9.372-6.956-15.551v-90.435c0-11.525,9.344-20.869,20.869-20.869v128.695h27.826l9.548-7.956
	c-1.669-3.972-2.592-8.334-2.592-12.913V184.86H297.74v-41.739h41.739c0-6.956,10.434-13.913,10.434-13.913
	s10.435,6.957,10.435,13.913v10.435v31.305c7.739,0.092,20.035-0.109,33.319,0c-3.49-6.1-5.494-13.338-5.494-20.869
	c0-12.276,5.301-23.312,13.738-30.949c-12.16-26.946-31.565-49.921-55.731-66.443H242.088v264.348h104.092
	c29.388-20.089,51.73-49.721,62.571-84.431L403.246,240.512z"/>
<path style="fill:#C7C7C7;" d="M255.929,21.706c-73.745,0-141.451,47.553-166.61,116.807
	c-25.343,69.773-3.142,149.835,53.974,197.07c57.236,47.338,140.369,53.625,203.978,15.148
	c63.626-38.489,97.228-114.681,82.271-187.573C414.889,91.77,355.517,35.12,283.472,23.842
	C274.361,22.416,265.141,21.706,255.929,21.706 M398.59,263.184c-30.241,67.01-105.732,104.802-177.479,88.399
	c-55.215-12.621-100.384-55.764-115.778-110.195c-15.749-55.658,1.328-116.804,43.417-156.425
	c45.534-42.867,114.172-54.571,171.321-28.799c68.228,30.767,105.971,108.144,87.651,180.845
	C405.459,245.986,402.37,254.739,398.59,263.184C396.502,267.811,400.132,259.739,398.59,263.184"/>
<g>
</g>
<g>
</g>
<g>
</g>
<g>
</g>
<g>
</g>
<g>
</g>
<g>
</g>
<g>
</g>
<g>
</g>
<g>
</g>
<g>
</g>
<g>
</g>
<g>
</g>
<g>
</g>
<g>
</g>
</svg>
