<?xml version="1.0" encoding="iso-8859-1"?>
<!-- Generator: Adobe Illustrator 19.0.0, SVG Export Plug-In . SVG Version: 6.00 Build 0)  -->
<svg version="1.1" id="Layer_1" xmlns="http://www.w3.org/2000/svg" xmlns:xlink="http://www.w3.org/1999/xlink" x="0px" y="0px"
	 viewBox="0 0 512 512" style="enable-background:new 0 0 512 512;" xml:space="preserve">
<path style="fill:#B3B3B3;" d="M434.439,110.654C401.179,45.876,334.359,0.003,255.98,0v101.328
	c55.478,0.004,100.593,43.673,100.595,99.151c0,54.805-45.491,102.049-100.595,102.051V512
	c70.646-73.618,151.953-154.543,187.529-251.428C461.298,212.119,457.979,156.501,434.439,110.654z"/>
<path style="fill:#979797;" d="M68.492,260.572C104.067,357.457,185.374,438.382,256.02,512V302.53
	c-55.103-0.002-100.595-47.246-100.595-102.051c0.002-55.478,45.117-99.147,100.595-99.151V0
	c-78.379,0.003-145.199,45.876-178.46,110.654C54.021,156.501,50.702,212.119,68.492,260.572z"/>
<circle style="fill:#F0F0F0;" cx="256" cy="198.773" r="160"/>
<path style="fill:#D80027;" d="M256,38.772c-68.794,0-127.442,43.421-150.048,104.348h300.096
	C383.442,82.193,324.794,38.772,256,38.772z"/>
<path d="M256,358.772c68.794,0,127.442-43.419,150.048-104.348H105.952C128.558,315.354,187.206,358.772,256,358.772z"/>
<g>
	<polygon style="fill:#6DA544;" points="191.601,160.512 200.235,187.083 228.174,187.083 205.571,203.505 214.204,230.076 
		191.601,213.655 168.998,230.076 177.632,203.505 155.028,187.083 182.967,187.083 	"/>
	<polygon style="fill:#6DA544;" points="320.399,160.512 329.033,187.083 356.972,187.083 334.369,203.505 343.003,230.076 
		320.399,213.655 297.796,230.076 306.429,203.505 283.826,187.083 311.765,187.083 	"/>
</g>
<path style="fill:#C7C7C7;" d="M255.929,21.706c-73.745,0-141.451,47.553-166.61,116.809
	c-25.343,69.773-3.142,149.835,53.974,197.07c57.236,47.338,140.369,53.625,203.978,15.148
	c63.626-38.489,97.228-114.681,82.271-187.573C414.889,91.77,355.517,35.122,283.472,23.843
	C274.361,22.416,265.141,21.706,255.929,21.706 M398.59,263.184c-30.241,67.01-105.732,104.802-177.479,88.399
	c-55.215-12.621-100.384-55.763-115.778-110.195c-15.749-55.659,1.328-116.804,43.417-156.425
	c45.534-42.866,114.172-54.571,171.321-28.799c68.228,30.767,105.971,108.145,87.651,180.845
	C405.459,245.986,402.37,254.739,398.59,263.184C396.502,267.811,400.132,259.739,398.59,263.184"/>
<g>
</g>
<g>
</g>
<g>
</g>
<g>
</g>
<g>
</g>
<g>
</g>
<g>
</g>
<g>
</g>
<g>
</g>
<g>
</g>
<g>
</g>
<g>
</g>
<g>
</g>
<g>
</g>
<g>
</g>
</svg>
