<?xml version="1.0" encoding="iso-8859-1"?>
<!-- Generator: Adobe Illustrator 19.0.0, SVG Export Plug-In . SVG Version: 6.00 Build 0)  -->
<svg version="1.1" id="Layer_1" xmlns="http://www.w3.org/2000/svg" xmlns:xlink="http://www.w3.org/1999/xlink" x="0px" y="0px"
	 viewBox="0 0 512 512" style="enable-background:new 0 0 512 512;" xml:space="preserve">
<path style="fill:#B3B3B3;" d="M434.44,110.654C401.18,45.876,334.359,0.003,255.98,0v101.329
	c55.478,0.004,100.593,43.671,100.594,99.151c0.001,54.805-45.49,102.048-100.594,102.051V512
	c70.645-73.617,151.953-154.542,187.529-251.428C461.297,212.121,457.979,156.5,434.44,110.654z"/>
<path style="fill:#979797;" d="M68.492,260.572C104.066,357.458,185.374,438.383,256.02,512V302.531
	c-55.104-0.003-100.595-47.246-100.594-102.051c0.001-55.478,45.116-99.147,100.594-99.151V0
	c-78.379,0.003-145.2,45.876-178.46,110.654C54.021,156.5,50.703,212.121,68.492,260.572z"/>
<path style="fill:#D80027;" d="M416,198.772c0,88.366-71.634,160-160,160s-160-71.634-160-160
	c54.957-54.956,101.565-101.565,160-160C344.366,38.772,416,110.406,416,198.772z"/>
<path style="fill:#0052B4;" d="M256,198.772c0-88.366,0-98.783,0-160c-88.366,0-160,71.634-160,160H256z"/>
<polygon style="fill:#F0F0F0;" points="235.131,132.411 215.59,141.603 225.996,160.527 204.776,156.468 202.087,177.903 
	187.309,162.138 172.529,177.903 169.841,156.468 148.622,160.527 159.027,141.602 139.487,132.411 159.027,123.22 148.622,104.295 
	169.84,108.354 172.529,86.919 187.309,102.684 202.088,86.919 204.776,108.354 225.996,104.295 215.59,123.22 "/>
<circle style="fill:#0052B4;" cx="187.307" cy="132.416" r="29.782"/>
<path style="fill:#F0F0F0;" d="M187.309,148.281c-8.75,0-15.87-7.119-15.87-15.87s7.119-15.87,15.87-15.87
	c8.751,0,15.87,7.119,15.87,15.87C203.178,141.162,196.059,148.281,187.309,148.281z"/>
<path style="fill:#C7C7C7;" d="M255.928,21.706c-73.745,0-141.451,47.553-166.61,116.807
	c-25.343,69.773-3.142,149.835,53.974,197.07c57.236,47.338,140.369,53.625,203.978,15.148
	c63.626-38.489,97.228-114.681,82.271-187.573C414.888,91.77,355.517,35.12,283.472,23.842
	C274.361,22.416,265.141,21.706,255.928,21.706 M398.59,263.184c-30.241,67.01-105.732,104.802-177.479,88.399
	c-55.215-12.621-100.384-55.764-115.778-110.195c-15.749-55.658,1.328-116.804,43.417-156.425
	c45.534-42.867,114.172-54.571,171.321-28.799c68.228,30.767,105.971,108.144,87.651,180.845
	C405.459,245.986,402.37,254.739,398.59,263.184C396.502,267.811,400.132,259.739,398.59,263.184"/>
<g>
</g>
<g>
</g>
<g>
</g>
<g>
</g>
<g>
</g>
<g>
</g>
<g>
</g>
<g>
</g>
<g>
</g>
<g>
</g>
<g>
</g>
<g>
</g>
<g>
</g>
<g>
</g>
<g>
</g>
</svg>
