<?xml version="1.0" encoding="iso-8859-1"?>
<!-- Generator: Adobe Illustrator 19.0.0, SVG Export Plug-In . SVG Version: 6.00 Build 0)  -->
<svg version="1.1" id="Layer_1" xmlns="http://www.w3.org/2000/svg" xmlns:xlink="http://www.w3.org/1999/xlink" x="0px" y="0px"
	 viewBox="0 0 512 512" style="enable-background:new 0 0 512 512;" xml:space="preserve">
<path style="fill:#B3B3B3;" d="M434.44,110.654C401.18,45.876,334.359,0.003,255.98,0v101.329
	c55.478,0.004,100.593,43.671,100.594,99.151c0.001,54.805-45.49,102.048-100.594,102.051V512
	c70.645-73.617,151.953-154.542,187.529-251.428C461.297,212.121,457.979,156.5,434.44,110.654z"/>
<path style="fill:#979797;" d="M68.492,260.572C104.066,357.458,185.374,438.383,256.02,512V302.531
	c-55.104-0.003-100.595-47.246-100.594-102.051c0.001-55.478,45.116-99.147,100.594-99.151V0
	c-78.379,0.003-145.2,45.876-178.46,110.654C54.021,156.5,50.703,212.121,68.492,260.572z"/>
<path style="fill:#F0F0F0;" d="M111.876,129.207C101.704,150.242,96,173.841,96,198.772c0,24.932,5.705,48.53,15.876,69.565
	L256,282.251l144.124-13.913C410.295,247.303,416,223.705,416,198.773c0-24.932-5.706-48.53-15.876-69.565L256,115.294
	L111.876,129.207z"/>
<path style="fill:#6DA544;" d="M111.882,268.337c25.879,53.519,80.685,90.435,144.118,90.435s118.239-36.916,144.118-90.435
	L111.882,268.337L111.882,268.337z"/>
<path style="fill:#D80027;" d="M111.882,129.207h288.237C374.239,75.69,319.434,38.772,256,38.772S137.761,75.69,111.882,129.207z"
	/>
<g>
	<polygon style="fill:#FFDA44;" points="228.174,240.512 283.826,240.512 283.826,216.86 272.695,222.425 256,205.729 
		239.305,222.425 228.174,216.86 	"/>
	<polygon style="fill:#FFDA44;" points="196.332,212.686 198.923,220.657 207.305,220.657 200.524,225.583 203.114,233.555 
		196.332,228.628 189.552,233.555 192.142,225.583 185.361,220.657 193.742,220.657 	"/>
	<polygon style="fill:#FFDA44;" points="204.363,184.86 206.954,192.831 215.334,192.831 208.554,197.758 211.143,205.729 
		204.363,200.802 197.582,205.729 200.173,197.758 193.391,192.831 201.773,192.831 	"/>
	<polygon style="fill:#FFDA44;" points="227.321,163.989 229.91,171.961 238.292,171.961 231.511,176.889 234.101,184.86 
		227.321,179.933 220.54,184.86 223.13,176.889 216.349,171.961 224.731,171.961 	"/>
	<polygon style="fill:#FFDA44;" points="315.667,212.686 313.077,220.657 304.695,220.657 311.476,225.583 308.886,233.555 
		315.667,228.628 322.448,233.555 319.858,225.583 326.639,220.657 318.258,220.657 	"/>
	<polygon style="fill:#FFDA44;" points="307.637,184.86 305.046,192.831 296.664,192.831 303.445,197.758 300.857,205.729 
		307.637,200.802 314.418,205.729 311.827,197.758 318.609,192.831 310.227,192.831 	"/>
	<polygon style="fill:#FFDA44;" points="284.679,163.989 282.089,171.961 273.708,171.961 280.489,176.889 277.899,184.86 
		284.679,179.933 291.46,184.86 288.87,176.889 295.651,171.961 287.269,171.961 	"/>
	<polygon style="fill:#FFDA44;" points="256,153.554 258.591,161.525 266.972,161.525 260.191,166.452 262.781,174.425 256,169.498 
		249.219,174.425 251.809,166.452 245.028,161.525 253.409,161.525 	"/>
</g>
<path style="fill:#C7C7C7;" d="M255.928,21.706c-73.745,0-141.451,47.553-166.61,116.807
	c-25.343,69.773-3.142,149.835,53.974,197.07c57.236,47.338,140.369,53.625,203.978,15.148
	c63.626-38.489,97.228-114.681,82.271-187.573C414.888,91.77,355.517,35.12,283.472,23.842
	C274.361,22.416,265.141,21.706,255.928,21.706 M398.59,263.184c-30.241,67.01-105.732,104.802-177.479,88.399
	c-55.215-12.621-100.384-55.764-115.778-110.195c-15.749-55.658,1.328-116.804,43.417-156.425
	c45.534-42.867,114.172-54.571,171.321-28.799c68.228,30.767,105.971,108.144,87.651,180.845
	C405.459,245.986,402.37,254.739,398.59,263.184C396.502,267.811,400.132,259.739,398.59,263.184"/>
<g>
</g>
<g>
</g>
<g>
</g>
<g>
</g>
<g>
</g>
<g>
</g>
<g>
</g>
<g>
</g>
<g>
</g>
<g>
</g>
<g>
</g>
<g>
</g>
<g>
</g>
<g>
</g>
<g>
</g>
</svg>
