<?xml version="1.0" encoding="iso-8859-1"?>
<!-- Generator: Adobe Illustrator 19.0.0, SVG Export Plug-In . SVG Version: 6.00 Build 0)  -->
<svg version="1.1" id="Layer_1" xmlns="http://www.w3.org/2000/svg" xmlns:xlink="http://www.w3.org/1999/xlink" x="0px" y="0px"
	 viewBox="0 0 512 512" style="enable-background:new 0 0 512 512;" xml:space="preserve">
<path style="fill:#B3B3B3;" d="M434.44,110.654C401.179,45.876,334.36,0.003,255.98,0v101.329
	c55.478,0.004,100.593,43.67,100.595,99.15c0,54.805-45.491,102.048-100.595,102.052V512
	c70.645-73.617,151.953-154.542,187.529-251.428C461.298,212.121,457.979,156.5,434.44,110.654z"/>
<path style="fill:#979797;" d="M68.492,260.572C104.066,357.458,185.374,438.383,256.02,512V302.531
	c-55.103-0.004-100.595-47.247-100.595-102.052c0.002-55.479,45.117-99.146,100.595-99.15V0
	c-78.379,0.003-145.199,45.876-178.46,110.654C54.02,156.5,50.702,212.121,68.492,260.572z"/>
<circle style="fill:#FFDA44;" cx="256" cy="198.773" r="160"/>
<path d="M142.863,311.91c6.711,6.711,13.873,12.698,21.385,17.967l222.857-222.857c-5.269-7.511-11.255-14.673-17.967-21.386
	c-6.711-6.711-13.874-12.697-21.386-17.967L124.896,290.526C130.165,298.036,136.152,305.198,142.863,311.91z"/>
<path style="fill:#6DA544;" d="M142.863,85.635c-50.477,50.477-60.167,126.286-29.091,186.499L329.361,56.546
	C269.148,25.469,193.339,35.161,142.863,85.635z"/>
<path style="fill:#338AF3;" d="M369.136,311.91c50.477-50.476,60.166-126.286,29.091-186.499L182.639,341.001
	C242.852,372.077,318.66,362.387,369.136,311.91z"/>
<path style="fill:#C7C7C7;" d="M255.929,21.707c-73.745,0-141.451,47.552-166.61,116.806
	c-25.343,69.773-3.142,149.836,53.974,197.071c57.236,47.338,140.369,53.625,203.979,15.148
	c63.626-38.49,97.228-114.681,82.271-187.573C414.89,91.771,355.518,35.121,283.473,23.843
	C274.361,22.416,265.142,21.707,255.929,21.707 M398.59,263.184c-30.241,67.009-105.732,104.802-177.479,88.399
	c-55.215-12.621-100.384-55.764-115.778-110.195c-15.749-55.658,1.328-116.804,43.417-156.425
	c45.535-42.867,114.172-54.571,171.321-28.799c68.228,30.767,105.971,108.144,87.651,180.844
	C405.459,245.986,402.37,254.739,398.59,263.184C396.503,267.81,400.132,259.739,398.59,263.184"/>
<g>
</g>
<g>
</g>
<g>
</g>
<g>
</g>
<g>
</g>
<g>
</g>
<g>
</g>
<g>
</g>
<g>
</g>
<g>
</g>
<g>
</g>
<g>
</g>
<g>
</g>
<g>
</g>
<g>
</g>
</svg>
