<?xml version="1.0" encoding="iso-8859-1"?>
<!-- Generator: Adobe Illustrator 19.0.0, SVG Export Plug-In . SVG Version: 6.00 Build 0)  -->
<svg version="1.1" id="Layer_1" xmlns="http://www.w3.org/2000/svg" xmlns:xlink="http://www.w3.org/1999/xlink" x="0px" y="0px"
	 viewBox="0 0 512 512" style="enable-background:new 0 0 512 512;" xml:space="preserve">
<path style="fill:#B3B3B3;" d="M434.439,110.654C401.179,45.876,334.359,0.003,255.98,0v101.329
	c55.478,0.004,100.593,43.673,100.595,99.151c0,54.805-45.491,102.048-100.595,102.051V512
	c70.646-73.617,151.953-154.542,187.529-251.428C461.298,212.121,457.979,156.5,434.439,110.654z"/>
<path style="fill:#979797;" d="M68.492,260.572C104.067,357.458,185.374,438.383,256.02,512V302.531
	c-55.103-0.003-100.595-47.246-100.595-102.051c0.002-55.478,45.117-99.147,100.595-99.151V0
	c-78.379,0.003-145.199,45.876-178.46,110.654C54.021,156.5,50.702,212.121,68.492,260.572z"/>
<circle style="fill:#F0F0F0;" cx="256" cy="198.773" r="160"/>
<path style="fill:#FFDA44;" d="M165.821,66.598C191.498,49.044,222.548,38.772,256,38.772s64.501,10.272,90.179,27.826L256,73.554
	L165.821,66.598z"/>
<path style="fill:#D80027;" d="M142.87,311.901l73.776-73.775L256,170.946l39.348,67.175l73.781,73.779
	C398.085,282.948,416,242.956,416,198.772c0-54.913-27.669-103.359-69.821-132.174H165.821C123.668,95.413,96,143.859,96,198.772
	C96,242.956,113.915,282.948,142.87,311.901z"/>
<g>
	<path style="fill:#0052B4;" d="M403.844,260.036l-116.981-48.474l8.479,26.553l73.787,73.786
		C383.861,297.17,395.736,279.582,403.844,260.036z"/>
	<path style="fill:#0052B4;" d="M416,198.772c0-21.702-4.325-42.394-12.156-61.264L256,198.772H416z"/>
	<path style="fill:#0052B4;" d="M369.13,85.644c-7.034-7.031-14.714-13.415-22.95-19.045H310.77L256,198.772L369.13,85.644z"/>
	<polygon style="fill:#0052B4;" points="256,66.598 201.23,66.598 256,198.772 	"/>
	<path style="fill:#0052B4;" d="M142.87,85.644c-14.733,14.732-26.606,32.319-34.717,51.866L256,198.772L142.87,85.644z"/>
	<path style="fill:#0052B4;" d="M96,198.772c0,21.702,4.325,42.394,12.155,61.264L256,198.772H96z"/>
</g>
<g>
	<path style="fill:#FFDA44;" d="M165.821,330.946c25.677,17.554,56.727,27.826,90.179,27.826s64.501-10.272,90.179-27.826H165.821z"
		/>
	<path style="fill:#FFDA44;" d="M256,198.772l39.353,39.353c10.07-10.071,16.3-23.984,16.3-39.353
		c0-30.736-24.916-55.652-55.652-55.652s-55.652,24.916-55.652,55.652c0,15.367,6.229,29.281,16.3,39.353L256,198.772z"/>
	<path style="fill:#FFDA44;" d="M280.348,278.772c0,13.447-10.902,17.391-24.348,17.391c-13.445,0-24.348-3.945-24.348-17.391
		s10.902-24.348,24.348-24.348C269.445,254.425,280.348,265.326,280.348,278.772z"/>
</g>
<path style="fill:#0052B4;" d="M280.348,278.772c0,13.447-10.902,24.348-24.348,24.348c-13.445,0-24.348-10.901-24.348-24.348"/>
<path style="fill:#C7C7C7;" d="M255.929,21.706c-73.745,0-141.451,47.553-166.61,116.807
	c-25.343,69.773-3.142,149.835,53.974,197.07c57.236,47.338,140.369,53.625,203.978,15.148
	c63.626-38.489,97.228-114.681,82.271-187.573C414.889,91.77,355.517,35.12,283.472,23.842
	C274.361,22.416,265.141,21.706,255.929,21.706 M398.59,263.184c-30.241,67.01-105.732,104.802-177.479,88.399
	c-55.215-12.621-100.384-55.764-115.778-110.195c-15.749-55.658,1.328-116.804,43.417-156.425
	c45.534-42.867,114.172-54.571,171.321-28.799c68.228,30.767,105.971,108.144,87.651,180.845
	C405.459,245.986,402.37,254.739,398.59,263.184C396.502,267.811,400.132,259.739,398.59,263.184"/>
<g>
</g>
<g>
</g>
<g>
</g>
<g>
</g>
<g>
</g>
<g>
</g>
<g>
</g>
<g>
</g>
<g>
</g>
<g>
</g>
<g>
</g>
<g>
</g>
<g>
</g>
<g>
</g>
<g>
</g>
</svg>
