<?xml version="1.0" encoding="iso-8859-1"?>
<!-- Generator: Adobe Illustrator 19.0.0, SVG Export Plug-In . SVG Version: 6.00 Build 0)  -->
<svg version="1.1" id="Layer_1" xmlns="http://www.w3.org/2000/svg" xmlns:xlink="http://www.w3.org/1999/xlink" x="0px" y="0px"
	 viewBox="0 0 512 512" style="enable-background:new 0 0 512 512;" xml:space="preserve">
<path style="fill:#B3B3B3;" d="M434.439,110.654C401.178,45.876,334.359,0.003,255.98,0v101.329
	c55.478,0.004,100.593,43.671,100.595,99.151c0,54.805-45.491,102.048-100.595,102.051V512
	c70.645-73.617,151.953-154.542,187.529-251.428C461.298,212.121,457.979,156.5,434.439,110.654z"/>
<path style="fill:#979797;" d="M68.492,260.572C104.066,357.458,185.374,438.383,256.019,512V302.531
	c-55.104-0.003-100.595-47.246-100.594-102.051c0.001-55.478,45.116-99.147,100.594-99.151V0
	c-78.379,0.003-145.2,45.876-178.46,110.654C54.021,156.5,50.703,212.121,68.492,260.572z"/>
<path style="fill:#F0F0F0;" d="M182.636,56.539c-14.324,7.393-27.77,17.084-39.777,29.09
	c-12.009,12.009-21.699,25.454-29.091,39.778l102.879,112.718l112.718,102.879c14.324-7.393,27.77-17.084,39.777-29.09
	c12.009-12.009,21.699-25.453,29.091-39.777L295.353,159.418L182.636,56.539z"/>
<path d="M369.141,311.914c6.713-6.713,12.698-13.874,17.969-21.387L164.244,67.663c-7.511,5.268-14.673,11.255-21.386,17.967
	c-6.713,6.713-12.698,13.875-17.968,21.387l222.865,222.866C355.267,324.611,362.429,318.626,369.141,311.914z"/>
<g>
	<path style="fill:#D80027;" d="M142.858,311.914c50.479,50.479,126.289,60.17,186.507,29.09L113.767,125.407
		C82.689,185.625,92.381,261.435,142.858,311.914z"/>
	<path style="fill:#D80027;" d="M369.141,85.63c-50.479-50.478-126.289-60.169-186.507-29.091l215.598,215.598
		C429.311,211.921,419.62,136.109,369.141,85.63z"/>
</g>
<path style="fill:#C7C7C7;" d="M255.927,21.706c-73.745,0-141.451,47.553-166.61,116.807
	c-25.343,69.773-3.142,149.835,53.974,197.07c57.236,47.338,140.369,53.625,203.979,15.148
	c63.626-38.489,97.228-114.681,82.271-187.573C414.888,91.77,355.517,35.12,283.472,23.842
	C274.36,22.416,265.141,21.706,255.927,21.706 M398.59,263.184c-30.241,67.01-105.732,104.802-177.479,88.399
	c-55.215-12.621-100.384-55.764-115.778-110.195c-15.749-55.658,1.328-116.804,43.417-156.425
	c45.535-42.867,114.172-54.571,171.321-28.799c68.228,30.767,105.971,108.144,87.651,180.845
	C405.459,245.986,402.37,254.739,398.59,263.184C396.502,267.811,400.132,259.739,398.59,263.184"/>
<g>
</g>
<g>
</g>
<g>
</g>
<g>
</g>
<g>
</g>
<g>
</g>
<g>
</g>
<g>
</g>
<g>
</g>
<g>
</g>
<g>
</g>
<g>
</g>
<g>
</g>
<g>
</g>
<g>
</g>
</svg>
