<?xml version="1.0" encoding="iso-8859-1"?>
<!-- Generator: Adobe Illustrator 19.0.0, SVG Export Plug-In . SVG Version: 6.00 Build 0)  -->
<svg version="1.1" id="Layer_1" xmlns="http://www.w3.org/2000/svg" xmlns:xlink="http://www.w3.org/1999/xlink" x="0px" y="0px"
	 viewBox="0 0 512 512" style="enable-background:new 0 0 512 512;" xml:space="preserve">
<path style="fill:#B3B3B3;" d="M434.439,110.654C401.178,45.876,334.359,0.003,255.98,0v101.329
	c55.478,0.004,100.593,43.671,100.595,99.15c0,54.805-45.491,102.048-100.595,102.052V512
	c70.646-73.617,151.953-154.542,187.529-251.428C461.298,212.121,457.979,156.5,434.439,110.654z"/>
<path style="fill:#979797;" d="M68.492,260.572C104.066,357.458,185.374,438.383,256.019,512V302.531
	c-55.104-0.004-100.595-47.247-100.594-102.052c0.001-55.478,45.116-99.146,100.594-99.15V0
	c-78.379,0.003-145.2,45.876-178.46,110.654C54.021,156.5,50.703,212.121,68.492,260.572z"/>
<g>
	<path style="fill:#496E2D;" d="M255.999,38.773c-11.947,0-23.583,1.318-34.782,3.802l-6.956,156.196l6.956,156.198
		c11.199,2.483,22.836,3.804,34.782,3.804c88.366,0,160-71.635,160-160.002C415.999,110.406,344.365,38.773,255.999,38.773z"/>
	<path style="fill:#496E2D;" d="M137.738,91.004c-25.927,28.435-41.74,66.254-41.74,107.766c0,41.515,15.812,79.333,41.74,107.769
		l6.957-107.769L137.738,91.004z"/>
</g>
<g>
	<path style="fill:#F0F0F0;" d="M330.013,159.458c7.872-21.941-0.972-45.804-19.951-57.69c3.413,0.446,6.831,1.248,10.204,2.459
		c25.314,9.082,38.473,36.964,29.391,62.279c-9.083,25.314-36.965,38.473-62.279,29.39c-3.373-1.209-6.522-2.763-9.44-4.59
		C300.144,194.198,322.141,181.401,330.013,159.458z"/>
	<polygon style="fill:#F0F0F0;" points="286.352,95.755 279.511,104.594 268.993,100.819 275.284,110.057 268.445,118.894 
		279.173,115.764 285.465,125.001 285.804,113.829 296.532,110.7 286.014,106.927 	"/>
	<polygon style="fill:#F0F0F0;" points="304.821,124.555 297.982,133.394 287.462,129.619 293.754,138.854 286.914,147.692 
		297.643,144.562 303.935,153.798 304.274,142.627 315.003,139.498 304.483,135.725 	"/>
	<polygon style="fill:#F0F0F0;" points="253.786,106.244 246.947,115.082 236.429,111.309 242.72,120.544 235.88,129.381 
		246.608,126.252 252.9,135.488 253.238,124.317 263.968,121.187 253.448,117.414 	"/>
	<polygon style="fill:#F0F0F0;" points="253.038,139.233 246.197,148.07 235.679,144.298 241.971,153.534 235.129,162.371 
		245.859,159.242 252.15,168.477 252.489,157.307 263.217,154.177 252.698,150.402 	"/>
	<polygon style="fill:#F0F0F0;" points="284.429,150.496 277.588,159.333 267.07,155.558 273.362,164.796 266.521,173.633 
		277.25,170.505 283.542,179.74 283.88,168.569 294.609,165.44 284.089,161.667 	"/>
</g>
<path style="fill:#D80027;" d="M137.738,91.004v215.535c21.801,23.908,50.756,41.175,83.478,48.429V42.575
	C188.495,49.829,159.539,67.093,137.738,91.004z"/>
<polygon style="fill:#F0F0F0;" points="169.596,123.012 155.619,112.601 155.619,97.877 169.596,87.467 189.36,87.467 
	203.336,97.877 203.336,112.601 189.36,123.012 "/>
<g>
	<polygon style="fill:#FF9811;" points="179.478,87.467 169.596,87.467 155.619,97.877 155.619,105.075 179.478,105.075 	"/>
	<polygon style="fill:#FF9811;" points="179.478,123.012 189.36,123.012 203.336,112.601 203.336,105.091 179.478,105.091 	"/>
</g>
<polygon style="fill:#F0F0F0;" points="169.596,310.075 155.619,299.664 155.619,284.942 169.596,274.531 189.36,274.531 
	203.336,284.942 203.336,299.664 189.36,310.075 "/>
<g>
	<polygon style="fill:#FF9811;" points="179.478,274.531 169.596,274.531 155.619,284.942 155.619,292.14 179.478,292.14 	"/>
	<polygon style="fill:#FF9811;" points="179.478,310.075 189.36,310.075 203.336,299.664 203.336,292.155 179.478,292.155 	"/>
</g>
<g>
	<polygon style="fill:#496E2D;" points="169.596,216.544 155.619,206.133 155.619,191.41 169.596,180.998 189.36,180.998 
		203.336,191.41 203.336,206.133 189.36,216.544 	"/>
	<polygon style="fill:#496E2D;" points="203.826,239.45 197.738,239.45 197.738,233.362 187.041,233.362 179.477,225.798 
		171.914,233.362 161.217,233.362 161.217,239.45 155.129,239.45 155.129,251.622 161.217,251.622 161.217,257.711 171.913,257.711 
		179.478,265.275 187.042,257.711 197.738,257.711 197.738,251.622 203.826,251.622 	"/>
	<polygon style="fill:#496E2D;" points="203.826,145.919 197.738,145.919 197.738,139.831 187.041,139.831 179.477,132.267 
		171.914,139.831 161.217,139.831 161.217,145.919 155.129,145.919 155.129,158.092 161.217,158.092 161.217,164.179 
		171.913,164.179 179.478,171.744 187.042,164.179 197.738,164.179 197.738,158.092 203.826,158.092 	"/>
</g>
<g>
	<rect x="172.522" y="191.819" style="fill:#D80027;" width="13.909" height="13.909"/>
	<circle style="fill:#D80027;" cx="179.477" cy="152" r="6.957"/>
	<circle style="fill:#D80027;" cx="179.477" cy="245.536" r="6.957"/>
</g>
<path style="fill:#C7C7C7;" d="M255.927,21.707c-73.745,0-141.451,47.552-166.61,116.806
	c-25.343,69.773-3.142,149.836,53.974,197.071c57.236,47.338,140.369,53.625,203.978,15.148
	c63.626-38.49,97.228-114.681,82.271-187.573C414.887,91.771,355.516,35.121,283.471,23.843
	C274.36,22.416,265.141,21.707,255.927,21.707 M398.59,263.184c-30.241,67.009-105.732,104.802-177.479,88.399
	c-55.215-12.621-100.384-55.764-115.778-110.195c-15.749-55.658,1.328-116.804,43.417-156.425
	c45.535-42.867,114.172-54.571,171.321-28.799c68.228,30.767,105.971,108.144,87.651,180.844
	C405.459,245.986,402.37,254.739,398.59,263.184C396.502,267.81,400.132,259.739,398.59,263.184"/>
<g>
</g>
<g>
</g>
<g>
</g>
<g>
</g>
<g>
</g>
<g>
</g>
<g>
</g>
<g>
</g>
<g>
</g>
<g>
</g>
<g>
</g>
<g>
</g>
<g>
</g>
<g>
</g>
<g>
</g>
</svg>
