<?xml version="1.0" encoding="iso-8859-1"?>
<!-- Generator: Adobe Illustrator 19.0.0, SVG Export Plug-In . SVG Version: 6.00 Build 0)  -->
<svg version="1.1" id="Layer_1" xmlns="http://www.w3.org/2000/svg" xmlns:xlink="http://www.w3.org/1999/xlink" x="0px" y="0px"
	 viewBox="0 0 512 512" style="enable-background:new 0 0 512 512;" xml:space="preserve">
<path style="fill:#B3B3B3;" d="M434.439,110.654C401.179,45.876,334.359,0.003,255.98,0v101.329
	c55.478,0.004,100.593,43.67,100.595,99.15c0,54.805-45.491,102.048-100.595,102.052V512
	c70.645-73.617,151.953-154.542,187.529-251.428C461.298,212.121,457.979,156.5,434.439,110.654z"/>
<path style="fill:#979797;" d="M68.492,260.572C104.067,357.458,185.374,438.383,256.02,512V302.531
	c-55.103-0.004-100.595-47.247-100.595-102.052c0.002-55.479,45.117-99.146,100.595-99.15V0
	c-78.379,0.003-145.199,45.876-178.46,110.654C54.021,156.5,50.702,212.121,68.492,260.572z"/>
<path style="fill:#FFDA44;" d="M375.246,305.44C400.585,277.131,416,239.755,416,198.773s-15.415-78.359-40.754-106.667L256,80.512
	L136.755,92.107C111.415,120.414,96,157.791,96,198.773s15.415,78.358,40.754,106.667L256,317.034L375.246,305.44z"/>
<path d="M136.755,92.107h238.491C345.949,59.377,303.383,38.773,256,38.773S166.051,59.377,136.755,92.107z"/>
<path style="fill:#D80027;" d="M96,198.773l160,13.914l160-13.914c0-18.702-3.22-36.651-9.117-53.333H105.117
	C99.22,162.122,96,180.07,96,198.773z"/>
<path d="M105.117,252.107h301.766c5.897-16.684,9.117-34.631,9.117-53.333H96C96,217.475,99.22,235.423,105.117,252.107z"/>
<path style="fill:#D80027;" d="M375.246,305.44H136.754c29.297,32.73,71.862,53.333,119.246,53.333S345.949,338.169,375.246,305.44z
	"/>
<circle style="fill:#F0F0F0;" cx="256" cy="198.773" r="53.387"/>
<path d="M275.559,201.495L256,193.02c0,0,4.576-15.189,4.82-16.229c0.178-0.759,0.273-1.552,0.273-2.366
	c0-2.881-1.168-5.49-3.056-7.378l4.918-4.919c-3.147-3.147-7.494-5.093-12.298-5.093s-9.151,1.947-12.298,5.093l4.919,4.919
	c-1.888,1.888-3.057,4.497-3.057,7.378c0,1.054,0.16,2.069,0.45,3.028l-7.407,7.406h13.46c0,0-5.565,8.359-8.603,15.222
	c-3.038,6.865,0.042,15.244,7.063,18.365l4.06,1.804l6.753,6.348v6.956l-6.956,6.958h13.913v-13.914l6.348-6.348h13.13
	c0.063-0.13,0.13-0.258,0.189-0.39C285.744,212.837,282.581,204.615,275.559,201.495z"/>
<path style="fill:#C7C7C7;" d="M255.929,21.707c-73.745,0-141.451,47.552-166.61,116.806
	c-25.343,69.773-3.142,149.836,53.974,197.071c57.236,47.338,140.369,53.625,203.978,15.148
	c63.626-38.49,97.228-114.681,82.271-187.573C414.889,91.771,355.517,35.121,283.472,23.843
	C274.361,22.416,265.141,21.707,255.929,21.707 M398.59,263.184c-30.241,67.009-105.732,104.802-177.479,88.399
	c-55.215-12.621-100.384-55.764-115.778-110.195c-15.749-55.658,1.328-116.804,43.417-156.425
	c45.534-42.867,114.172-54.571,171.321-28.799c68.228,30.767,105.971,108.144,87.651,180.844
	C405.459,245.986,402.37,254.739,398.59,263.184C396.502,267.81,400.132,259.739,398.59,263.184"/>
<g>
</g>
<g>
</g>
<g>
</g>
<g>
</g>
<g>
</g>
<g>
</g>
<g>
</g>
<g>
</g>
<g>
</g>
<g>
</g>
<g>
</g>
<g>
</g>
<g>
</g>
<g>
</g>
<g>
</g>
</svg>
