<?xml version="1.0" encoding="iso-8859-1"?>
<!-- Generator: Adobe Illustrator 19.0.0, SVG Export Plug-In . SVG Version: 6.00 Build 0)  -->
<svg version="1.1" id="Layer_1" xmlns="http://www.w3.org/2000/svg" xmlns:xlink="http://www.w3.org/1999/xlink" x="0px" y="0px"
	 viewBox="0 0 512 512" style="enable-background:new 0 0 512 512;" xml:space="preserve">
<path style="fill:#B3B3B3;" d="M434.44,110.654C401.18,45.876,334.358,0.003,255.98,0v101.329
	c55.478,0.004,100.593,43.67,100.594,99.15c0.001,54.805-45.491,102.048-100.594,102.052V512
	c70.645-73.617,151.954-154.542,187.529-251.428C461.297,212.121,457.979,156.5,434.44,110.654z"/>
<path style="fill:#979797;" d="M68.492,260.572C104.066,357.458,185.374,438.383,256.02,512V302.531
	c-55.104-0.004-100.595-47.247-100.594-102.052c0.001-55.479,45.116-99.146,100.594-99.15V0
	c-78.379,0.003-145.2,45.876-178.46,110.654C54.021,156.5,50.703,212.121,68.492,260.572z"/>
<circle style="fill:#338AF3;" cx="256.715" cy="198.773" r="160"/>
<g>
	<path style="fill:#F0F0F0;" d="M256.247,143.121c-30.736,0-55.652,24.916-55.652,55.652c0,30.735,24.915,55.652,55.652,55.652
		c30.735,0,55.652-24.916,55.652-55.652S286.982,143.121,256.247,143.121z M242.334,198.773c0-7.683,6.229-13.913,13.913-13.913
		s13.914,6.229,13.914,13.913c0,7.683-6.23,13.913-13.914,13.913S242.334,206.457,242.334,198.773z M270.672,174.973
		c-2.158-1.312-4.513-2.332-7.005-3.019v-14.25c6.275,1.127,12.062,3.652,17.027,7.248L270.672,174.973z M249.754,171.716
		c-2.61,0.623-5.076,1.615-7.343,2.918l-10.069-10.068c5.091-3.565,11.007-6.027,17.412-7.027V171.716z M242.412,222.911
		c2.267,1.302,4.733,2.293,7.343,2.918v14.177c-6.404-1.001-12.321-3.462-17.411-7.027L242.412,222.911z M263.667,225.589
		c2.492-0.688,4.847-1.707,7.005-3.017l10.021,10.021c-4.965,3.596-10.752,6.121-17.027,7.246v-14.251H263.667z M280.386,212.608
		c1.225-2.131,2.183-4.439,2.812-6.879h14.201c-1.045,6.225-3.467,11.981-6.945,16.948L280.386,212.608z M283.198,191.817
		c-0.628-2.442-1.586-4.748-2.812-6.881l10.068-10.068c3.478,4.966,5.9,10.723,6.945,16.95h-14.202V191.817z M222.426,174.325
		l10.021,10.022c-1.393,2.293-2.464,4.802-3.15,7.469h-14.202C216.179,185.362,218.742,179.414,222.426,174.325z M215.096,205.729
		h14.202c0.686,2.665,1.757,5.175,3.15,7.469l-10.021,10.021C218.742,218.131,216.18,212.183,215.096,205.729z"/>
	<path style="fill:#F0F0F0;" d="M346.682,198.773c0-24.737-9.935-47.152-26.029-63.479l-14.757,14.756
		c12.318,12.553,19.918,29.748,19.918,48.723c0,38.419-31.146,69.565-69.566,69.565s-69.565-31.146-69.565-69.565
		c0-19.211,7.786-36.602,20.375-49.191l-14.757-14.756c-16.365,16.367-26.486,38.975-26.486,63.948
		c0,41.383,27.798,76.275,65.741,87.021c-4.16,7.904-3.526,17.852,2.416,25.268c7.805-6.256,15.886-12.732,22.741-18.225
		c6.855,5.493,14.937,11.969,22.74,18.225c6.002-7.489,6.592-17.567,2.293-25.506C319.274,274.546,346.682,239.862,346.682,198.773z
		"/>
</g>
<path style="fill:#C7C7C7;" d="M255.928,21.707c-73.745,0-141.451,47.552-166.61,116.806
	c-25.343,69.773-3.142,149.836,53.974,197.071c57.236,47.338,140.369,53.625,203.978,15.148
	c63.627-38.49,97.229-114.681,82.271-187.573c-14.654-71.388-74.027-128.037-146.07-139.315
	C274.361,22.416,265.142,21.707,255.928,21.707 M398.59,263.184c-30.242,67.009-105.733,104.802-177.479,88.399
	c-55.215-12.621-100.384-55.764-115.778-110.195c-15.749-55.658,1.328-116.804,43.417-156.425
	c45.535-42.867,114.173-54.571,171.321-28.799c68.229,30.767,105.971,108.144,87.652,180.844
	C405.459,245.986,402.369,254.739,398.59,263.184C396.502,267.81,400.131,259.739,398.59,263.184"/>
<g>
</g>
<g>
</g>
<g>
</g>
<g>
</g>
<g>
</g>
<g>
</g>
<g>
</g>
<g>
</g>
<g>
</g>
<g>
</g>
<g>
</g>
<g>
</g>
<g>
</g>
<g>
</g>
<g>
</g>
</svg>
