<?xml version="1.0" encoding="iso-8859-1"?>
<!-- Generator: Adobe Illustrator 19.0.0, SVG Export Plug-In . SVG Version: 6.00 Build 0)  -->
<svg version="1.1" id="Layer_1" xmlns="http://www.w3.org/2000/svg" xmlns:xlink="http://www.w3.org/1999/xlink" x="0px" y="0px"
	 viewBox="0 0 512 512" style="enable-background:new 0 0 512 512;" xml:space="preserve">
<path style="fill:#B3B3B3;" d="M434.439,110.654C401.178,45.876,334.359,0.003,255.98,0v101.329
	c55.478,0.004,100.593,43.671,100.595,99.15c0,54.805-45.491,102.048-100.595,102.052V512
	c70.646-73.617,151.953-154.542,187.529-251.428C461.298,212.121,457.979,156.5,434.439,110.654z"/>
<path style="fill:#979797;" d="M68.492,260.572C104.066,357.458,185.374,438.383,256.019,512V302.531
	c-55.104-0.004-100.595-47.247-100.594-102.052c0.001-55.478,45.116-99.146,100.594-99.15V0
	c-78.379,0.003-145.2,45.876-178.46,110.654C54.021,156.5,50.703,212.121,68.492,260.572z"/>
<path style="fill:#F0F0F0;" d="M103.555,150.077C98.655,165.431,96,181.792,96,198.771c0,16.983,2.655,33.342,7.556,48.695
	L256,254.425l152.444-6.956c4.9-15.356,7.556-31.716,7.556-48.695c0-16.981-2.656-33.34-7.556-48.695L256,143.121L103.555,150.077z"
	/>
<g>
	<path style="fill:#D80027;" d="M408.444,150.077L256,143.121l-152.445,6.956c-1.453,4.553-2.703,9.194-3.751,13.913h312.39
		C411.148,159.27,409.896,154.629,408.444,150.077z"/>
	<path style="fill:#D80027;" d="M99.806,233.554c1.047,4.719,2.298,9.36,3.75,13.913l0.015,0.002L256,254.425l152.444-6.956
		c1.453-4.553,2.703-9.196,3.75-13.915H99.806z"/>
</g>
<path style="fill:#6DA544;" d="M256,358.773c71.386,0,131.842-46.752,152.444-111.305l-304.887-0.002
	C124.159,312.019,184.616,358.771,256,358.773z"/>
<path style="fill:#338AF3;" d="M256,38.773c-71.385,0-131.84,46.752-152.445,111.305h304.889
	C387.842,85.525,327.385,38.773,256,38.773z"/>
<g>
	<path style="fill:#F0F0F0;" d="M169.117,104.861c0-14.988,10.532-27.506,24.596-30.577c-2.162-0.473-4.404-0.727-6.708-0.727
		c-17.29,0-31.305,14.015-31.305,31.305s14.015,31.305,31.305,31.305c2.304,0,4.546-0.256,6.708-0.73
		C179.649,132.365,169.117,119.845,169.117,104.861z"/>
	<polygon style="fill:#F0F0F0;" points="212.215,119.089 214.334,125.611 221.191,125.611 215.644,129.642 217.763,136.164 
		212.215,132.133 206.666,136.164 208.786,129.642 203.237,125.611 210.096,125.611 	"/>
	<polygon style="fill:#F0F0F0;" points="234.103,119.089 236.222,125.611 243.08,125.611 237.532,129.642 239.651,136.164 
		234.103,132.133 228.554,136.164 230.674,129.642 225.126,125.611 231.983,125.611 	"/>
	<polygon style="fill:#F0F0F0;" points="255.991,119.089 258.11,125.611 264.967,125.611 259.42,129.642 261.539,136.164 
		255.991,132.133 250.442,136.164 252.562,129.642 247.014,125.611 253.872,125.611 	"/>
	<polygon style="fill:#F0F0F0;" points="277.879,119.089 279.998,125.611 286.856,125.611 281.308,129.642 283.427,136.164 
		277.879,132.133 272.331,136.164 274.45,129.642 268.902,125.611 275.76,125.611 	"/>
	<polygon style="fill:#F0F0F0;" points="299.767,119.089 301.886,125.611 308.743,125.611 303.196,129.642 305.315,136.164 
		299.767,132.133 294.218,136.164 296.338,129.642 290.79,125.611 297.647,125.611 	"/>
	<polygon style="fill:#F0F0F0;" points="234.103,96.323 236.222,102.844 243.08,102.844 237.532,106.875 239.651,113.398 
		234.103,109.366 228.554,113.398 230.674,106.875 225.126,102.844 231.983,102.844 	"/>
	<polygon style="fill:#F0F0F0;" points="255.991,96.323 258.11,102.844 264.967,102.844 259.42,106.875 261.539,113.398 
		255.991,109.366 250.442,113.398 252.562,106.875 247.014,102.844 253.872,102.844 	"/>
	<polygon style="fill:#F0F0F0;" points="277.879,96.323 279.998,102.844 286.856,102.844 281.308,106.875 283.427,113.398 
		277.879,109.366 272.331,113.398 274.45,106.875 268.902,102.844 275.76,102.844 	"/>
	<polygon style="fill:#F0F0F0;" points="299.767,96.323 301.886,102.844 308.743,102.844 303.196,106.875 305.315,113.398 
		299.767,109.366 294.218,113.398 296.338,106.875 290.79,102.844 297.647,102.844 	"/>
	<polygon style="fill:#F0F0F0;" points="255.991,73.556 258.11,80.077 264.967,80.077 259.42,84.109 261.539,90.631 255.991,86.601 
		250.442,90.631 252.562,84.109 247.014,80.077 253.872,80.077 	"/>
	<polygon style="fill:#F0F0F0;" points="277.879,73.556 279.998,80.077 286.856,80.077 281.308,84.109 283.427,90.631 
		277.879,86.601 272.331,90.631 274.45,84.109 268.902,80.077 275.76,80.077 	"/>
	<polygon style="fill:#F0F0F0;" points="299.767,73.556 301.886,80.077 308.743,80.077 303.196,84.109 305.315,90.631 
		299.767,86.601 294.218,90.631 296.338,84.109 290.79,80.077 297.647,80.077 	"/>
</g>
<path style="fill:#C7C7C7;" d="M255.927,21.707c-73.745,0-141.451,47.552-166.61,116.806
	c-25.343,69.773-3.142,149.836,53.974,197.071c57.236,47.338,140.369,53.625,203.978,15.148
	c63.626-38.49,97.228-114.681,82.271-187.573C414.887,91.771,355.516,35.121,283.471,23.843
	C274.36,22.416,265.141,21.707,255.927,21.707 M398.59,263.184c-30.241,67.009-105.732,104.802-177.479,88.399
	c-55.215-12.621-100.384-55.764-115.778-110.195c-15.749-55.658,1.328-116.804,43.417-156.425
	c45.535-42.867,114.172-54.571,171.321-28.799c68.228,30.767,105.971,108.144,87.651,180.844
	C405.459,245.986,402.37,254.739,398.59,263.184C396.502,267.81,400.132,259.739,398.59,263.184"/>
<g>
</g>
<g>
</g>
<g>
</g>
<g>
</g>
<g>
</g>
<g>
</g>
<g>
</g>
<g>
</g>
<g>
</g>
<g>
</g>
<g>
</g>
<g>
</g>
<g>
</g>
<g>
</g>
<g>
</g>
</svg>
