<?xml version="1.0" encoding="iso-8859-1"?>
<!-- Generator: Adobe Illustrator 19.0.0, SVG Export Plug-In . SVG Version: 6.00 Build 0)  -->
<svg version="1.1" id="Layer_1" xmlns="http://www.w3.org/2000/svg" xmlns:xlink="http://www.w3.org/1999/xlink" x="0px" y="0px"
	 viewBox="0 0 512 512" style="enable-background:new 0 0 512 512;" xml:space="preserve">
<path style="fill:#B3B3B3;" d="M434.439,110.654C401.179,45.876,334.359,0.003,255.98,0v101.328
	c55.478,0.004,100.593,43.673,100.595,99.151c0,54.805-45.491,102.049-100.595,102.051V512
	c70.646-73.618,151.953-154.543,187.529-251.428C461.298,212.119,457.979,156.501,434.439,110.654z"/>
<path style="fill:#979797;" d="M68.492,260.572C104.067,357.457,185.374,438.382,256.02,512V302.53
	c-55.103-0.002-100.595-47.246-100.595-102.051c0.002-55.478,45.117-99.147,100.595-99.151V0
	c-78.379,0.003-145.199,45.876-178.46,110.654C54.021,156.501,50.702,212.119,68.492,260.572z"/>
<path style="fill:#F0F0F0;" d="M256,38.77c88.366,0,160,71.633,160,160c0,88.365-71.634,160-160,160c0-6.957-20.869-160-20.869-160
	L256,38.77z"/>
<path style="fill:#FFDA44;" d="M256,358.77c-88.366,0-160-71.635-160-160c0-88.367,71.634-160,160-160"/>
<path style="fill:#ACABB1;" d="M317.269,177.997l30.069,39.779c-4.738,7.173-4.714,16.837,0.766,24.085
	c6.951,9.196,20.038,11.014,29.233,4.065c9.194-6.95,11.014-20.037,4.064-29.233c-5.478-7.248-14.772-9.908-22.963-7.307
	l-46.865-61.996l-11.098,8.389l-16.649,12.586l16.78,22.196L317.269,177.997z M360.558,223.728c3.065-2.317,7.427-1.711,9.744,1.355
	c2.317,3.067,1.71,7.429-1.355,9.746c-3.065,2.315-7.427,1.711-9.744-1.356C356.887,230.41,357.493,226.045,360.558,223.728z"/>
<path style="fill:#FFDA44;" d="M368.844,190.561l16.78-22.196l-16.647-12.586l-11.099-8.389l-46.865,61.997
	c-8.193-2.602-17.486,0.059-22.963,7.307c-6.951,9.196-5.131,22.284,4.064,29.233c9.195,6.95,22.283,5.132,29.232-4.065
	c5.479-7.248,5.504-16.912,0.767-24.085l30.069-39.779L368.844,190.561z M310.245,233.472c-2.317,3.067-6.679,3.67-9.744,1.356
	c-3.066-2.317-3.67-6.679-1.355-9.746c2.316-3.065,6.679-3.67,9.744-1.355C311.956,226.045,312.562,230.41,310.245,233.472z"/>
<path style="fill:#C7C7C7;" d="M255.929,21.706c-73.745,0-141.451,47.553-166.61,116.809
	c-25.343,69.773-3.142,149.835,53.974,197.07c57.236,47.338,140.369,53.625,203.978,15.148
	c63.626-38.489,97.228-114.681,82.271-187.573C414.889,91.77,355.517,35.122,283.472,23.843
	C274.361,22.416,265.141,21.706,255.929,21.706 M398.59,263.184c-30.241,67.01-105.732,104.802-177.479,88.399
	c-55.215-12.621-100.384-55.763-115.778-110.195c-15.749-55.659,1.328-116.804,43.417-156.425
	c45.534-42.866,114.172-54.571,171.321-28.799c68.228,30.767,105.971,108.145,87.651,180.845
	C405.459,245.986,402.37,254.739,398.59,263.184C396.502,267.811,400.132,259.739,398.59,263.184"/>
<g>
</g>
<g>
</g>
<g>
</g>
<g>
</g>
<g>
</g>
<g>
</g>
<g>
</g>
<g>
</g>
<g>
</g>
<g>
</g>
<g>
</g>
<g>
</g>
<g>
</g>
<g>
</g>
<g>
</g>
</svg>
