<?xml version="1.0" encoding="iso-8859-1"?>
<!-- Generator: Adobe Illustrator 19.0.0, SVG Export Plug-In . SVG Version: 6.00 Build 0)  -->
<svg version="1.1" id="Layer_1" xmlns="http://www.w3.org/2000/svg" xmlns:xlink="http://www.w3.org/1999/xlink" x="0px" y="0px"
	 viewBox="0 0 512 512" style="enable-background:new 0 0 512 512;" xml:space="preserve">
<path style="fill:#B3B3B3;" d="M434.439,110.654C401.178,45.876,334.359,0.003,255.98,0v101.329
	c55.478,0.004,100.593,43.67,100.595,99.15c0,54.805-45.491,102.048-100.595,102.052V512
	c70.645-73.617,151.953-154.542,187.529-251.428C461.298,212.121,457.979,156.5,434.439,110.654z"/>
<path style="fill:#979797;" d="M68.492,260.572C104.066,357.458,185.374,438.383,256.019,512V302.531
	c-55.104-0.004-100.595-47.247-100.594-102.052c0.001-55.479,45.116-99.146,100.594-99.15V0
	c-78.379,0.003-145.2,45.876-178.46,110.654C54.021,156.5,50.703,212.121,68.492,260.572z"/>
<path style="fill:#0052B4;" d="M400.124,268.337C410.295,247.302,416,223.705,416,198.773c0-24.933-5.705-48.531-15.876-69.567
	L256,115.294l-144.124,13.913C101.704,150.242,96,173.84,96,198.773c0,24.931,5.705,48.529,15.876,69.565L256,282.25
	L400.124,268.337z"/>
<path style="fill:#D80027;" d="M256,358.773c63.434,0,118.244-36.916,144.124-90.435H111.876
	C137.757,321.856,192.566,358.773,256,358.773z"/>
<g>
	<polygon style="fill:#F0F0F0;" points="373.104,230.179 364.653,236.783 368.321,246.861 359.429,240.863 350.978,247.467 
		353.933,237.156 345.042,231.158 355.76,230.785 358.718,220.477 362.386,230.555 	"/>
	<polygon style="fill:#F0F0F0;" points="351.463,192.698 345.782,201.794 352.675,210.009 342.269,207.417 336.585,216.511 
		335.836,205.812 325.43,203.217 335.375,199.198 334.628,188.5 341.521,196.717 	"/>
	<polygon style="fill:#F0F0F0;" points="318.309,164.879 316.08,175.369 325.367,180.732 314.702,181.856 312.471,192.343 
		308.109,182.546 297.442,183.667 305.413,176.49 301.052,166.693 310.339,172.054 	"/>
	<polygon style="fill:#F0F0F0;" points="277.639,150.077 279.133,160.698 289.695,162.558 280.055,167.263 281.548,177.884 
		274.098,170.166 264.457,174.868 269.493,165.398 262.042,157.685 272.605,159.546 	"/>
	<polygon style="fill:#F0F0F0;" points="234.359,150.077 239.396,159.546 249.956,157.683 242.507,165.401 247.541,174.868 
		237.903,170.166 230.451,177.882 231.945,167.263 222.306,162.56 232.868,160.698 	"/>
	<polygon style="fill:#F0F0F0;" points="193.689,164.879 201.662,172.054 210.947,166.693 206.588,176.494 214.556,183.668 
		203.89,182.546 199.526,192.343 197.3,181.854 186.633,180.734 195.921,175.371 	"/>
	<polygon style="fill:#F0F0F0;" points="160.535,192.698 170.482,196.717 177.373,188.502 176.627,199.202 186.569,203.219 
		176.164,205.812 175.414,216.511 169.733,207.417 159.327,210.011 166.221,201.794 	"/>
	<polygon style="fill:#F0F0F0;" points="138.896,230.179 149.616,230.555 153.282,220.477 156.241,230.787 166.959,231.163 
		158.067,237.158 161.023,247.469 152.573,240.865 143.681,246.861 147.348,236.783 	"/>
</g>
<path style="fill:#FFDA44;" d="M400.124,129.206C374.243,75.687,319.433,38.773,256,38.773s-118.244,36.914-144.124,90.433H400.124z
	"/>
<path style="fill:#C7C7C7;" d="M255.927,21.707c-73.745,0-141.451,47.552-166.61,116.806
	c-25.343,69.773-3.142,149.836,53.974,197.071c57.236,47.338,140.369,53.625,203.979,15.148
	c63.626-38.49,97.228-114.681,82.271-187.573C414.888,91.771,355.517,35.121,283.472,23.843
	C274.36,22.416,265.141,21.707,255.927,21.707 M398.59,263.184c-30.241,67.009-105.732,104.802-177.479,88.399
	c-55.215-12.621-100.384-55.764-115.778-110.195c-15.749-55.658,1.328-116.804,43.417-156.425
	c45.535-42.867,114.172-54.571,171.321-28.799c68.228,30.767,105.971,108.144,87.651,180.844
	C405.459,245.986,402.37,254.739,398.59,263.184C396.502,267.81,400.132,259.739,398.59,263.184"/>
<g>
</g>
<g>
</g>
<g>
</g>
<g>
</g>
<g>
</g>
<g>
</g>
<g>
</g>
<g>
</g>
<g>
</g>
<g>
</g>
<g>
</g>
<g>
</g>
<g>
</g>
<g>
</g>
<g>
</g>
</svg>
