<?xml version="1.0" encoding="iso-8859-1"?>
<!-- Generator: Adobe Illustrator 19.0.0, SVG Export Plug-In . SVG Version: 6.00 Build 0)  -->
<svg version="1.1" id="Layer_1" xmlns="http://www.w3.org/2000/svg" xmlns:xlink="http://www.w3.org/1999/xlink" x="0px" y="0px"
	 viewBox="0 0 512 512" style="enable-background:new 0 0 512 512;" xml:space="preserve">
<path style="fill:#B3B3B3;" d="M434.439,110.654C401.178,45.876,334.359,0.003,255.98,0v101.329
	c55.478,0.004,100.593,43.671,100.595,99.15c0,54.805-45.491,102.048-100.595,102.052V512
	c70.645-73.617,151.953-154.542,187.529-251.428C461.298,212.121,457.979,156.5,434.439,110.654z"/>
<path style="fill:#979797;" d="M68.492,260.572C104.066,357.458,185.374,438.383,256.019,512V302.531
	c-55.104-0.004-100.595-47.247-100.594-102.052c0.001-55.478,45.116-99.146,100.594-99.15V0
	c-78.379,0.003-145.2,45.876-178.46,110.654C54.021,156.5,50.703,212.121,68.492,260.572z"/>
<circle style="fill:#FCFCFC;" cx="256" cy="198.773" r="160"/>
<g>
	<path style="fill:#FFDA44;" d="M283.173,150.553c0-15.008-12.166-27.175-27.174-27.175c-15.008,0-27.174,12.166-27.174,27.175
		h-59.782c0,14.775,12.87,26.754,27.647,26.754h-0.89c0,14.778,11.978,26.756,26.755,26.756c0,13.084,9.396,23.954,21.806,26.279
		l-0.069,0.156h23.415l-0.069-0.156c12.41-2.325,21.806-13.196,21.806-26.279c14.778,0,26.755-11.979,26.755-26.756h-0.892
		c14.777,0,27.647-11.979,27.647-26.754H283.173z"/>
	<path style="fill:#FFDA44;" d="M244.054,227.725l-16.848,38.039c8.89,3.615,18.606,5.622,28.795,5.622
		c10.188,0,19.905-2.009,28.794-5.622l-16.848-38.039H244.054z"/>
</g>
<path style="fill:#F0F0F0;" d="M221.217,163.915v46.806c0,26.625,34.783,34.783,34.783,34.783s34.783-8.158,34.783-34.783v-46.806
	H221.217z"/>
<g>
	<path style="fill:#338AF3;" d="M134.799,199.9l18.812,52.614l18.617-52.614h14.207l-27.14,69.565h-11.365L120.593,199.9H134.799z"
		/>
	<path style="fill:#338AF3;" d="M353.391,269.465V199.9h13.521v69.565L353.391,269.465L353.391,269.465z"/>
</g>
<g>
	<path style="fill:#D80027;" d="M235.129,179.029v56.723c4.782,3.519,9.927,5.939,13.914,7.489v-64.212H235.129z"/>
	<path style="fill:#D80027;" d="M276.869,179.029v56.723c-4.782,3.519-9.927,5.939-13.914,7.489v-64.212H276.869z"/>
</g>
<rect x="221.216" y="163.915" style="fill:#0052B4;" width="69.568" height="22.07"/>
<path style="fill:#C7C7C7;" d="M255.927,21.707c-73.745,0-141.451,47.552-166.61,116.806
	c-25.343,69.773-3.142,149.836,53.974,197.071c57.236,47.338,140.369,53.625,203.979,15.148
	c63.626-38.49,97.228-114.681,82.271-187.573C414.888,91.771,355.517,35.121,283.472,23.843
	C274.36,22.416,265.141,21.707,255.927,21.707 M398.59,263.184c-30.241,67.009-105.732,104.802-177.479,88.399
	c-55.215-12.621-100.384-55.764-115.778-110.195c-15.749-55.658,1.328-116.804,43.417-156.425
	c45.535-42.867,114.172-54.571,171.321-28.799c68.228,30.767,105.971,108.144,87.651,180.844
	C405.459,245.986,402.37,254.739,398.59,263.184C396.502,267.81,400.132,259.739,398.59,263.184"/>
<g>
</g>
<g>
</g>
<g>
</g>
<g>
</g>
<g>
</g>
<g>
</g>
<g>
</g>
<g>
</g>
<g>
</g>
<g>
</g>
<g>
</g>
<g>
</g>
<g>
</g>
<g>
</g>
<g>
</g>
</svg>
