<?xml version="1.0" encoding="iso-8859-1"?>
<!-- Generator: Adobe Illustrator 19.0.0, SVG Export Plug-In . SVG Version: 6.00 Build 0)  -->
<svg version="1.1" id="Layer_1" xmlns="http://www.w3.org/2000/svg" xmlns:xlink="http://www.w3.org/1999/xlink" x="0px" y="0px"
	 viewBox="0 0 512 512" style="enable-background:new 0 0 512 512;" xml:space="preserve">
<path style="fill:#B3B3B3;" d="M434.44,110.654C401.18,45.876,334.359,0.003,255.98,0v101.329
	c55.478,0.004,100.593,43.671,100.594,99.151c0.001,54.805-45.49,102.048-100.594,102.051V512
	c70.645-73.617,151.953-154.542,187.529-251.428C461.297,212.121,457.979,156.5,434.44,110.654z"/>
<path style="fill:#979797;" d="M68.492,260.572C104.066,357.458,185.374,438.383,256.02,512V302.531
	c-55.104-0.003-100.595-47.246-100.594-102.051c0.001-55.478,45.116-99.147,100.594-99.151V0
	c-78.379,0.003-145.2,45.876-178.46,110.654C54.021,156.5,50.703,212.121,68.492,260.572z"/>
<circle style="fill:#F0F0F0;" cx="256" cy="198.773" r="160"/>
<g>
	<path style="fill:#FFDA44;" d="M400.686,130.399c-8.128-17.171-19.222-32.66-32.623-45.813L256,73.554L143.937,84.586
		c-0.357,0.351-0.706,0.709-1.06,1.063l44.75,44.75L256,132.487L400.686,130.399z"/>
	<path style="fill:#FFDA44;" d="M142.876,311.897c0.589,0.589,1.175,1.179,1.774,1.758L256,323.99l111.35-10.335
		c13.538-13.125,24.768-28.615,33.011-45.814l-206.971-6.46C175.582,279.19,155.043,299.729,142.876,311.897z"/>
</g>
<path d="M414.41,176.213l-186.236-5.267L256,198.772c-8.242,8.242-20.545,20.546-27.826,27.826l186.138-4.572
	c1.106-7.593,1.689-15.356,1.689-23.254C416,191.114,415.45,183.585,414.41,176.213z"/>
<path style="fill:#6DA544;" d="M256,38.772c-43.643,0-83.197,17.482-112.063,45.813h224.125
	C339.197,56.254,299.643,38.772,256,38.772z"/>
<g>
	<path style="fill:#D80027;" d="M233.441,176.213H414.41c-2.283-16.174-6.98-31.571-13.724-45.813H187.627L233.441,176.213z"/>
	<path style="fill:#D80027;" d="M186.931,267.841h213.429c6.822-14.231,11.594-29.631,13.951-45.813H232.746
		C215.003,239.77,199.967,254.805,186.931,267.841z"/>
</g>
<path style="fill:#6DA544;" d="M256,358.772c43.284,0,82.547-17.195,111.35-45.118H144.65
	C173.453,341.578,212.716,358.772,256,358.772z"/>
<path d="M153.134,76.23c-3.556,2.989-6.989,6.122-10.272,9.404L256,198.772L142.863,311.909c3.283,3.282,6.715,6.415,10.272,9.404
	l122.542-122.542L153.134,76.23z"/>
<polygon style="fill:#D80027;" points="160.328,157.034 170.687,188.917 204.217,188.917 177.092,208.625 187.452,240.512 
	160.328,220.804 133.203,240.512 143.565,208.625 116.442,188.917 149.968,188.917 "/>
<path style="fill:#FFDA44;" d="M188.824,201.381l-26.999-9.565c0,0-1.996-18.715-2.115-19.349
	c-0.916-4.828-5.157-8.477-10.252-8.477c-5.763,0-10.435,4.672-10.435,10.434c0,0.956,0.139,1.876,0.38,2.756l-7.57,7.621
	c0,0,8.991,0,13.46,0c0,13.971-10.426,13.971-10.426,27.884l5.782,13.913h34.783l5.798-13.913h-0.003
	c0.58-1.334,0.932-2.71,1.078-4.087C187.306,206.576,188.824,201.381,188.824,201.381z"/>
<path style="fill:#C7C7C7;" d="M255.928,21.706c-73.745,0-141.451,47.553-166.61,116.807
	c-25.343,69.773-3.142,149.835,53.974,197.07c57.236,47.338,140.369,53.625,203.978,15.148
	c63.626-38.489,97.228-114.681,82.271-187.573C414.888,91.77,355.517,35.12,283.472,23.842
	C274.361,22.416,265.141,21.706,255.928,21.706 M398.59,263.184c-30.241,67.01-105.732,104.802-177.479,88.399
	c-55.215-12.621-100.384-55.764-115.778-110.195c-15.749-55.658,1.328-116.804,43.417-156.425
	c45.534-42.867,114.172-54.571,171.321-28.799c68.228,30.767,105.971,108.144,87.651,180.845
	C405.459,245.986,402.37,254.739,398.59,263.184C396.502,267.811,400.132,259.739,398.59,263.184"/>
<g>
</g>
<g>
</g>
<g>
</g>
<g>
</g>
<g>
</g>
<g>
</g>
<g>
</g>
<g>
</g>
<g>
</g>
<g>
</g>
<g>
</g>
<g>
</g>
<g>
</g>
<g>
</g>
<g>
</g>
</svg>
