<?xml version="1.0" encoding="iso-8859-1"?>
<!-- Generator: Adobe Illustrator 19.0.0, SVG Export Plug-In . SVG Version: 6.00 Build 0)  -->
<svg version="1.1" id="Layer_1" xmlns="http://www.w3.org/2000/svg" xmlns:xlink="http://www.w3.org/1999/xlink" x="0px" y="0px"
	 viewBox="0 0 496 496" style="enable-background:new 0 0 496 496;" xml:space="preserve">
<path style="fill:#6D6D6D;" d="M484.8,0H287.2c-6.4,0-12,1.6-18.4,11.2l-10.4,16H24.8C11.2,27.2,0,38.4,0,52v314.4
	c0,13.6,11.2,24.8,24.8,24.8h446.4c13.6,0,24.8-11.2,24.8-24.8v-244V52V11.2C496,4.8,491.2,0,484.8,0z"/>
<path style="fill:#565656;" d="M485.6,324c6.4-4,10.4-12,10.4-20V122.4V52V11.2C496,4.8,491.2,0,484.8,0H287.2
	c-6.4,0-12,1.6-18.4,11.2l-10.4,16H24.8C12,27.2,1.6,36.8,0,48.8L485.6,324z"/>
<path style="fill:#262523;" d="M20.8,60l464.8,264c6.4-4,10.4-12,10.4-20V122.4V77.6L465.6,60C465.6,60,20.8,60,20.8,60z"/>
<rect x="36" y="57.6" style="fill:#FFFFFF;" width="424" height="300"/>
<rect x="258.4" y="57.6" style="fill:#EFEFEF;" width="201.6" height="300"/>
<path style="fill:#A5A5A5;" d="M496,377.6c0,13.6-11.2,24.8-24.8,24.8H24.8C11.2,402.4,0,391.2,0,377.6l8-252
	c0-13.6,11.2-24.8,24.8-24.8H464c13.6,0,24.8,11.2,24.8,24.8L496,377.6z"/>
<path style="fill:#B7B7B7;" d="M492.8,389.6L9.6,116c-0.8,3.2-1.6,6.4-1.6,9.6l-8,252c0,13.6,11.2,24.8,24.8,24.8h446.4
	C480,402.4,488,397.6,492.8,389.6z"/>
<path style="opacity:0.3;fill:#9AA5A4;enable-background:new    ;" d="M496,388.8C496,448,448,496,388.8,496s-107.2-48-107.2-107.2
	s48-107.2,107.2-107.2S496,329.6,496,388.8z"/>
<path style="fill:#4F4F4F;" d="M482.4,388.8c0,59.2-48,107.2-107.2,107.2S268,448,268,388.8s48-107.2,107.2-107.2
	C434.4,281.6,482.4,329.6,482.4,388.8z"/>
<path style="fill:#262523;" d="M375.2,281.6c59.2,0,107.2,48,107.2,107.2S434.4,496,375.2,496"/>
<path style="fill:#3A3A3A;" d="M299.2,312.8c41.6-41.6,109.6-41.6,152,0c41.6,41.6,41.6,109.6,0,152"/>
<path style="fill:#262523;" d="M418.4,392.8h-5.6v-33.6c0-15.2-12.8-28-28-28h-17.6c-15.2,0-28,12.8-28,28v33.6h-5.6
	c-4,0-7.2,3.2-7.2,7.2v52c0,4,3.2,7.2,7.2,7.2h85.6c4,0,7.2-3.2,7.2-7.2v-52C424.8,396,421.6,392.8,418.4,392.8z M375.2,436.8
	c-5.6,0-10.4-4.8-10.4-10.4s4.8-10.4,10.4-10.4s10.4,4.8,10.4,10.4S381.6,436.8,375.2,436.8z M396.8,392.8h-43.2v-33.6
	c0-7.2,5.6-12.8,12.8-12.8H384c7.2,0,12.8,5.6,12.8,12.8V392.8z"/>
<path style="fill:#b7b7b7;" d="M418.4,386.4h-5.6v-33.6c0-15.2-12.8-28-28-28h-17.6c-15.2,0-28,12.8-28,28v33.6h-5.6
	c-4,0-7.2,3.2-7.2,7.2v52c0,4,3.2,7.2,7.2,7.2h85.6c4,0,7.2-3.2,7.2-7.2v-52C424.8,389.6,421.6,386.4,418.4,386.4z M375.2,430.4
	c-5.6,0-10.4-4.8-10.4-10.4s4.8-10.4,10.4-10.4s10.4,4.8,10.4,10.4S381.6,430.4,375.2,430.4z M396.8,386.4h-43.2v-33.6
	c0-7.2,5.6-12.8,12.8-12.8H384c7.2,0,12.8,5.6,12.8,12.8V386.4z"/>
<g>
</g>
<g>
</g>
<g>
</g>
<g>
</g>
<g>
</g>
<g>
</g>
<g>
</g>
<g>
</g>
<g>
</g>
<g>
</g>
<g>
</g>
<g>
</g>
<g>
</g>
<g>
</g>
<g>
</g>
</svg>
