<?xml version="1.0" encoding="iso-8859-1"?>
<!-- Generator: Adobe Illustrator 19.0.0, SVG Export Plug-In . SVG Version: 6.00 Build 0)  -->
<svg version="1.1" id="Layer_1" xmlns="http://www.w3.org/2000/svg" xmlns:xlink="http://www.w3.org/1999/xlink" x="0px" y="0px"
	 viewBox="0 0 496 496" style="enable-background:new 0 0 496 496;" xml:space="preserve">
<path style="fill:#6D6D6D;" d="M484.8,0H287.2c-6.4,0-12,0-18.4,9.6L258.4,24H24.8C11.2,24,0,38.4,0,52v314.4
	C0,380,11.2,392,24.8,392h446.4c13.6,0,24.8-12,24.8-26.4V122.4V52V11.2C496,4.8,491.2,0,484.8,0z"/>
<path style="fill:#565656;" d="M485.6,324c6.4-4,10.4-12,10.4-20V122.4V52V11.2C496,4.8,491.2,0,484.8,0H287.2c-6.4,0-12,0-18.4,9.6
	L258.4,24H24.8C12,24,1.6,35.2,0,47.2L485.6,324z"/>
<path style="fill:#262523;" d="M16,56l469.6,269.6c6.4-4,10.4-13.6,10.4-21.6V122.4V77.6L465.6,56H16z"/>
<rect x="40" y="56" style="fill:#FFFFFF;" width="416" height="304"/>
<rect x="256" y="56" style="fill:#EFEFEF;" width="200" height="304"/>
<path style="fill:#A5A5A5;" d="M496,376c0,13.6-11.2,24-24.8,24H24.8C11.2,400,0,390.4,0,376l8-249.6C8,112.8,19.2,104,32.8,104H464
	c13.6,0,24.8,8.8,24.8,22.4L496,376z"/>
<path style="fill:#B7B7B7;" d="M492.8,388.8L10.4,115.2c-0.8,3.2-2.4,6.4-2.4,9.6L0,376c0,13.6,11.2,24,24.8,24h446.4
	C480,400,488,396,492.8,388.8z"/>
<path style="opacity:0.3;fill:#9AA5A4;enable-background:new    ;" d="M496,388.8C496,448,448,496,388.8,496s-107.2-48-107.2-107.2
	s48-107.2,107.2-107.2C448,281.6,496,329.6,496,388.8z"/>
<path style="fill:#4F4F4F;" d="M482.4,388.8c0,59.2-48,107.2-107.2,107.2S268,448,268,388.8s48-107.2,107.2-107.2
	C434.4,281.6,482.4,329.6,482.4,388.8z"/>
<path style="fill:#262523;" d="M375.2,281.6c59.2,0,107.2,48,107.2,107.2S434.4,496,375.2,496"/>
<path style="fill:#3A3A3A;" d="M299.2,312.8c41.6-41.6,109.6-41.6,152,0c41.6,41.6,41.6,109.6,0,152"/>
<path style="fill:#262523;" d="M390.4,364c-5.6,0-10.4,2.4-15.2,7.2c-4.8-4.8-9.6-7.2-15.2-7.2c-15.2,0-27.2,11.2-27.2,25.6
	c0,17.6,10.4,33.6,20.8,43.2c7.2,6.4,14.4,9.6,20.8,9.6c0.8,0,0.8,0,1.6,0c0.8,0,0.8,0,1.6,0c5.6,0,13.6-4,20.8-9.6
	c10.4-8.8,20.8-24.8,20.8-43.2C417.6,375.2,405.6,364,390.4,364z"/>
<path style="fill:#b7b7b7;" d="M390.4,349.6c-5.6,0-10.4,2.4-15.2,7.2c-4.8-4.8-9.6-7.2-15.2-7.2c-15.2,0-27.2,11.2-27.2,25.6
	c0,17.6,10.4,33.6,20.8,43.2c7.2,6.4,14.4,9.6,20.8,9.6c0.8,0,0.8,0,1.6,0c0.8,0,0.8,0,1.6,0c5.6,0,13.6-4,20.8-9.6
	c10.4-8.8,20.8-24.8,20.8-43.2C417.6,360.8,405.6,349.6,390.4,349.6z"/>
<g>
</g>
<g>
</g>
<g>
</g>
<g>
</g>
<g>
</g>
<g>
</g>
<g>
</g>
<g>
</g>
<g>
</g>
<g>
</g>
<g>
</g>
<g>
</g>
<g>
</g>
<g>
</g>
<g>
</g>
</svg>
