<?xml version="1.0" encoding="iso-8859-1"?>
<!-- Generator: Adobe Illustrator 19.0.0, SVG Export Plug-In . SVG Version: 6.00 Build 0)  -->
<svg version="1.1" id="Layer_1" xmlns="http://www.w3.org/2000/svg" xmlns:xlink="http://www.w3.org/1999/xlink" x="0px" y="0px"
	 viewBox="0 0 496 496" style="enable-background:new 0 0 496 496;" xml:space="preserve">
<path style="fill:#6D6D6D;" d="M484.8,47.6H287.2c-6.4,0-12,1.6-18.4,11.2l-10.4,16H24.8C11.2,74.8,0,86,0,99.6V414
	c0,13.6,11.2,24.8,24.8,24.8h446.4c13.6,0,24.8-11.2,24.8-24.8V170V99.6V58C496,52.4,491.2,47.6,484.8,47.6z"/>
<path style="fill:#565656;" d="M485.6,371.6c6.4-4.8,10.4-12,10.4-20V170V99.6V58c0-6.4-4.8-11.2-11.2-11.2H287.2
	c-6.4,0-12,1.6-18.4,11.2l-10.4,16H24.8C12,74,1.6,83.6,0,95.6L485.6,371.6z"/>
<path style="fill:#262523;" d="M20.8,107.6l464.8,264c6.4-4.8,10.4-12,10.4-20V170v-44.8l-30.4-17.6
	C465.6,107.6,20.8,107.6,20.8,107.6z"/>
<rect x="36" y="107.6" style="fill:#FFFFFF;" width="424" height="296.8"/>
<rect x="258.4" y="107.6" style="fill:#EFEFEF;" width="201.6" height="296.8"/>
<path style="fill:#a5a5a5;" d="M496,424.4c0,13.6-11.2,24.8-24.8,24.8H24.8C11.2,449.2,0,438.8,0,424.4l8-252
	c0-13.6,11.2-24.8,24.8-24.8H464c13.6,0,24.8,11.2,24.8,24.8L496,424.4z"/>
<path style="fill:#b7b7b7;" d="M492.8,437.2L9.6,162.8C8.8,166,8,169.2,8,172.4l-8,252c0,13.6,11.2,24.8,24.8,24.8h446.4
	C480,449.2,488,444.4,492.8,437.2z"/>
<path style="fill:#a5a5a5;" d="M320,304.4h-8.8c-1.6-4.8-3.2-9.6-5.6-14.4l6.4-6.4c7.2-7.2,7.2-18.4,0-24.8
	c-7.2-7.2-18.4-7.2-24.8,0l-7.2,6.4c-4.8-2.4-9.6-4.8-14.4-5.6v-8.8c0-9.6-8-17.6-17.6-17.6s-17.6,8-17.6,17.6v8.8
	c-4.8,1.6-9.6,3.2-14.4,5.6l-6.4-6.4c-7.2-7.2-18.4-7.2-24.8,0c-7.2,7.2-7.2,18.4,0,24.8l6.4,6.4c-2.4,4.8-4.8,9.6-5.6,14.4H176
	c-9.6,0-17.6,8-17.6,17.6s8,17.6,17.6,17.6h8.8c1.6,4.8,3.2,9.6,5.6,14.4l-5.6,6.4c-7.2,7.2-7.2,18.4,0,24.8c3.2,3.2,8,5.6,12.8,5.6
	s8.8-1.6,12.8-5.6l6.4-6.4c4.8,2.4,9.6,4.8,14.4,5.6v8.8c0,9.6,8,17.6,17.6,17.6c9.6,0,17.6-8,17.6-17.6v-8.8
	c4.8-1.6,9.6-3.2,14.4-5.6l6.4,6.4c3.2,3.2,8,5.6,12.8,5.6s8.8-1.6,12.8-5.6c7.2-7.2,7.2-18.4,0-24.8l-6.4-6.4
	c2.4-4.8,4.8-9.6,5.6-14.4h8c9.6,0,17.6-8,17.6-17.6S329.6,304.4,320,304.4z M278.4,322c0,16.8-13.6,30.4-30.4,30.4
	s-30.4-13.6-30.4-30.4s13.6-30.4,30.4-30.4S278.4,306,278.4,322z"/>
<path style="fill:#FFFFFF;" d="M320,285.2h-8.8c-1.6-4.8-3.2-9.6-5.6-14.4l6.4-6.4c7.2-7.2,7.2-18.4,0-24.8
	c-7.2-7.2-18.4-7.2-24.8,0L280,246c-4.8-2.4-9.6-4.8-14.4-5.6v-8.8c0-9.6-8-17.6-17.6-17.6s-17.6,8-17.6,17.6v8.8
	c-4.8,1.6-9.6,3.2-14.4,5.6l-6.4-6.4c-7.2-7.2-18.4-7.2-24.8,0c-7.2,7.2-7.2,18.4,0,24.8l6.4,6.4c-2.4,4.8-4.8,9.6-5.6,14.4H176
	c-9.6,0-17.6,8-17.6,17.6s8,17.6,17.6,17.6h8.8c1.6,4.8,3.2,9.6,5.6,14.4l-6.4,6.4c-7.2,7.2-7.2,18.4,0,24.8c3.2,3.2,8,5.6,12.8,5.6
	s8.8-1.6,12.8-5.6l6.4-5.6c4.8,2.4,9.6,4.8,14.4,5.6v8.8c0,9.6,8,17.6,17.6,17.6s17.6-8,17.6-17.6V366c4.8-1.6,9.6-3.2,14.4-5.6
	l6.4,6.4c3.2,3.2,8,5.6,12.8,5.6s8.8-1.6,12.8-5.6c7.2-7.2,7.2-18.4,0-24.8l-6.4-6.4c2.4-4.8,4.8-9.6,5.6-14.4h8.8
	c9.6,0,17.6-8,17.6-17.6S329.6,285.2,320,285.2z M278.4,302.8c0,16.8-13.6,30.4-30.4,30.4s-30.4-13.6-30.4-30.4s13.6-30.4,30.4-30.4
	S278.4,286,278.4,302.8z"/>
<g>
</g>
<g>
</g>
<g>
</g>
<g>
</g>
<g>
</g>
<g>
</g>
<g>
</g>
<g>
</g>
<g>
</g>
<g>
</g>
<g>
</g>
<g>
</g>
<g>
</g>
<g>
</g>
<g>
</g>
</svg>
