<?xml version="1.0" encoding="iso-8859-1"?>
<!-- Generator: Adobe Illustrator 19.0.0, SVG Export Plug-In . SVG Version: 6.00 Build 0)  -->
<svg version="1.1" id="Layer_1" xmlns="http://www.w3.org/2000/svg" xmlns:xlink="http://www.w3.org/1999/xlink" x="0px" y="0px"
	 viewBox="0 0 496 496" style="enable-background:new 0 0 496 496;" xml:space="preserve">
<path style="fill:#565656;" d="M484.8,48H287.2c-6.4,0-12,0-18.4,9.6L258.4,72H24.8C11.2,72,0,84.8,0,98.4v314.4
	C0,426.4,11.2,440,24.8,440h446.4c13.6,0,24.8-13.6,24.8-27.2V169.6V99.2V57.6C496,52,491.2,48,484.8,48z"/>
<path style="fill:#565656;" d="M485.6,371.2c6.4-4.8,10.4-12,10.4-20V169.6V99.2V57.6c0-5.6-4.8-9.6-11.2-9.6H287.2
	c-6.4,0-12,0-18.4,9.6L258.4,72H24.8C12,72,1.6,82.4,0,94.4L485.6,371.2z"/>
<path style="fill:#565656;" d="M16.8,104l468.8,265.6c6.4-4.8,10.4-10.4,10.4-18.4V169.6v-44.8L465.6,104H16.8z"/>
<rect x="40" y="104" style="fill:#FFFFFF;" width="416" height="304"/>
<rect x="256" y="104" style="fill:#EFEFEF;" width="200" height="304"/>
<path style="fill:#A5A5A5;" d="M496,424c0,13.6-11.2,24-24.8,24H24.8C11.2,448,0,437.6,0,424l8-253.6C8,156.8,19.2,144,32.8,144H464
	c13.6,0,24.8,12.8,24.8,26.4L496,424z"/>
<path style="fill:#b7b7b7;" d="M492.8,436L8.8,162.4C8,165.6,8,168.8,8,172L0,424c0,13.6,11.2,24,24.8,24h446.4
	C480,448,488,443.2,492.8,436z"/>
<g>
	<path style="fill:#A5A5A5;" d="M392,264H104c-6.4,0-12-5.6-12-12s5.6-12,12-12h288c6.4,0,12,5.6,12,12S398.4,264,392,264z"/>
	<path style="fill:#A5A5A5;" d="M392,328H104c-6.4,0-12-5.6-12-12s5.6-12,12-12h288c6.4,0,12,5.6,12,12S398.4,328,392,328z"/>
	<path style="fill:#A5A5A5;" d="M318.4,392H104c-6.4,0-12-5.6-12-12s5.6-12,12-12h215.2c6.4,0,12,5.6,12,12
		C330.4,386.4,324.8,392,318.4,392z"/>
</g>
<g>
	<path style="fill:#FFFFFF;" d="M392,248H104c-6.4,0-12-5.6-12-12s5.6-12,12-12h288c6.4,0,12,5.6,12,12S398.4,248,392,248z"/>
	<path style="fill:#FFFFFF;" d="M392,312H104c-6.4,0-12-5.6-12-12s5.6-12,12-12h288c6.4,0,12,5.6,12,12S398.4,312,392,312z"/>
	<path style="fill:#FFFFFF;" d="M318.4,376H104c-6.4,0-12-5.6-12-12s5.6-12,12-12h215.2c6.4,0,12,5.6,12,12
		C330.4,370.4,324.8,376,318.4,376z"/>
</g>
<g>
</g>
<g>
</g>
<g>
</g>
<g>
</g>
<g>
</g>
<g>
</g>
<g>
</g>
<g>
</g>
<g>
</g>
<g>
</g>
<g>
</g>
<g>
</g>
<g>
</g>
<g>
</g>
<g>
</g>
</svg>
