<?xml version="1.0" encoding="iso-8859-1"?>
<!-- Generator: Adobe Illustrator 19.0.0, SVG Export Plug-In . SVG Version: 6.00 Build 0)  -->
<svg version="1.1" id="Layer_1" xmlns="http://www.w3.org/2000/svg" xmlns:xlink="http://www.w3.org/1999/xlink" x="0px" y="0px"
	 viewBox="0 0 496 496" style="enable-background:new 0 0 496 496;" xml:space="preserve">
<path style="fill:#3333333;" d="M408,39.6H241.6c-4.8,0-9.6,1.6-16,9.6l-8,14.4H20.8C9.6,63.6,0,72.4,0,84.4v264
	c0,11.2,9.6,19.2,20.8,19.2H396c11.2,0,20-8,20-19.2V143.6V84.4V50C416,45.2,412.8,39.6,408,39.6z"/>
<path style="fill:#333333;" d="M408,313.2c5.6-4,8-9.6,8-16.8V143.6V84.4V50c0-4.8-3.2-10.4-8-10.4H241.6c-4.8,0-9.6,1.6-16,9.6
	l-8,14.4H20.8C10.4,63.6,1.6,71.6,0,82L408,313.2z"/>
<path style="fill:#915A02;" d="M10.4,87.6l397.6,224c5.6-4,8-8,8-15.2V143.6V106l-24.8-18.4H10.4z"/>
<rect x="32" y="87.6" style="fill:#FFFFFF;" width="352" height="256"/>
<rect x="216" y="87.6" style="fill:#EFEFEF;" width="168" height="256"/>
<path style="fill:#A5A5A5;" d="M416.8,356.4c0,11.2-9.6,19.2-20.8,19.2H20.8c-11.2,0-20.8-8-20.8-19.2l6.4-209.6
	c0-12,9.6-19.2,20.8-19.2h362.4c11.2,0,20.8,7.2,20.8,19.2L416.8,356.4z"/>
<path style="fill:#b7b7b7;" d="M414.4,366.8L8.8,138c-0.8,2.4-2.4,5.6-2.4,8L0,356.4c0,11.2,9.6,19.2,20.8,19.2H396
	C404,375.6,410.4,373.2,414.4,366.8z"/>
<path style="fill:#A5A5A5;" d="M487.2,127.6H440v8v36v145.6v50.4c0,0.8,0,0,0,0.8l0,0c0,26.4-5.6,31.2-21.6,31.2H96v25.6
	c0,0.8,0.8,1.6,0.8,2.4v8c0,11.2,8.8,20.8,20,20.8H476c16,0,20-13.6,20-20.8V426c0-0.8,0,0.8,0,0v-50.4V229.2v-36v-20.8v-32.8
	C496,134.8,492,127.6,487.2,127.6z"/>
<path style="fill:#A5A5A5;" d="M294.4,399.6H96v25.6c0,0.8,0-0.8,0,0v16c0,11.2,9.6,14.4,20.8,14.4H396L294.4,399.6z"/>
<g>
</g>
<g>
</g>
<g>
</g>
<g>
</g>
<g>
</g>
<g>
</g>
<g>
</g>
<g>
</g>
<g>
</g>
<g>
</g>
<g>
</g>
<g>
</g>
<g>
</g>
<g>
</g>
<g>
</g>
</svg>
