<?xml version="1.0" encoding="iso-8859-1"?>
<!-- Generator: Adobe Illustrator 19.0.0, SVG Export Plug-In . SVG Version: 6.00 Build 0)  -->
<svg version="1.1" id="Layer_1" xmlns="http://www.w3.org/2000/svg" xmlns:xlink="http://www.w3.org/1999/xlink" x="0px" y="0px"
	 viewBox="0 0 496 496" style="enable-background:new 0 0 496 496;" xml:space="preserve">
<path style="fill:#6D6D6D;" d="M484.8,48H287.2c-6.4,0-12,0-18.4,9.6L258.4,72H24.8C11.2,72,0,84.8,0,98.4v314.4
	C0,426.4,11.2,440,24.8,440h446.4c13.6,0,24.8-13.6,24.8-27.2V169.6V99.2V57.6C496,52,491.2,48,484.8,48z"/>
<path style="fill:#565656;" d="M485.6,371.2c6.4-4.8,10.4-12,10.4-20V169.6V99.2V57.6c0-5.6-4.8-9.6-11.2-9.6H287.2
	c-6.4,0-12,0-18.4,9.6L258.4,72H24.8C12,72,1.6,82.4,0,94.4L485.6,371.2z"/>
<path style="fill:#262523;" d="M16.8,104l468.8,265.6c6.4-4.8,10.4-10.4,10.4-18.4V169.6v-44.8L465.6,104H16.8z"/>
<rect x="40" y="104" style="fill:#FFFFFF;" width="416" height="304"/>
<rect x="256" y="104" style="fill:#EFEFEF;" width="200" height="304"/>
<path style="fill:#A5A5A5;" d="M496,424c0,13.6-11.2,24-24.8,24H24.8C11.2,448,0,437.6,0,424l8-253.6C8,156.8,19.2,144,32.8,144H464
	c13.6,0,24.8,12.8,24.8,26.4L496,424z"/>
<path style="fill:#b7b7b7;" d="M492.8,436L8.8,162.4C8,165.6,8,168.8,8,172L0,424c0,13.6,11.2,24,24.8,24h446.4
	C480,448,488,443.2,492.8,436z"/>
<g>
	<path style="fill:#A5A5A5;" d="M202.4,400.8c-3.2,0-5.6-0.8-8-3.2L132.8,336c-4.8-4.8-4.8-12,0-16.8l60.8-60.8
		c4.8-4.8,12-4.8,16.8,0s4.8,12,0,16.8L157.6,328l52.8,52.8c4.8,4.8,4.8,12,0,16.8C208,400,205.6,400.8,202.4,400.8z"/>
	<path style="fill:#b7b7b7;" d="M293.6,255.2c3.2,0,5.6,0.8,8,3.2l60.8,60.8c4.8,4.8,4.8,12,0,16.8l-60.8,61.6
		c-4.8,4.8-12,4.8-16.8,0s-4.8-12,0-16.8l52.8-52.8l-52.8-52.8c-4.8-4.8-4.8-12,0-16.8C288,256,290.4,255.2,293.6,255.2z"/>
	<path style="fill:#A5A5A5;" d="M224,432.8h-0.8c-2.4-0.8-3.2-2.4-3.2-4.8l48-201.6c0.8-2.4,2.4-3.2,4.8-3.2
		c2.4,0.8,3.2,2.4,3.2,4.8l-48,201.6C227.2,431.2,225.6,432.8,224,432.8z"/>
</g>
<g>
	<path style="fill:#FFFFFF;" d="M202.4,375.2c-3.2,0-5.6-0.8-8-3.2l-60.8-60.8c-4.8-4.8-4.8-12,0-16.8l60.8-60.8
		c4.8-4.8,12-4.8,16.8,0s4.8,12,0,16.8l-52.8,52.8l52.8,52.8c4.8,4.8,4.8,12,0,16.8C208,373.6,205.6,375.2,202.4,375.2z"/>
	<path style="fill:#FFFFFF;" d="M293.6,229.6c3.2,0,5.6,0.8,8,3.2l60.8,60.8c4.8,4.8,4.8,12,0,16.8l-60.8,60.8
		c-4.8,4.8-12,4.8-16.8,0s-4.8-12,0-16.8l52.8-52.8l-52.8-52.8c-4.8-4.8-4.8-12,0-16.8C288,230.4,290.4,229.6,293.6,229.6z"/>
	<path style="fill:#FFFFFF;" d="M224,407.2h-0.8c-2.4-0.8-3.2-2.4-3.2-4.8l48-201.6c0.8-2.4,2.4-3.2,4.8-3.2
		c2.4,0.8,3.2,2.4,3.2,4.8L228,404C227.2,405.6,225.6,407.2,224,407.2z"/>
</g>
<g>
</g>
<g>
</g>
<g>
</g>
<g>
</g>
<g>
</g>
<g>
</g>
<g>
</g>
<g>
</g>
<g>
</g>
<g>
</g>
<g>
</g>
<g>
</g>
<g>
</g>
<g>
</g>
<g>
</g>
</svg>
