<?xml version="1.0" encoding="iso-8859-1"?>
<!-- Generator: Adobe Illustrator 19.0.0, SVG Export Plug-In . SVG Version: 6.00 Build 0)  -->
<svg version="1.1" id="Layer_1" xmlns="http://www.w3.org/2000/svg" xmlns:xlink="http://www.w3.org/1999/xlink" x="0px" y="0px"
	 viewBox="0 0 496 496" style="enable-background:new 0 0 496 496;" xml:space="preserve">
<path style="fill:#6D6D6D;" d="M484.8,47.6H287.2c-6.4,0-12,1.6-18.4,11.2l-10.4,16H24.8C11.2,74.8,0,86,0,99.6V414
	c0,13.6,11.2,24.8,24.8,24.8h446.4c13.6,0,24.8-11.2,24.8-24.8V170V99.6V58C496,52.4,491.2,47.6,484.8,47.6z"/>
<path style="fill:#565656;" d="M485.6,371.6c6.4-4.8,10.4-12,10.4-20V170V99.6V58c0-6.4-4.8-11.2-11.2-11.2H287.2
	c-6.4,0-12,1.6-18.4,11.2l-10.4,16H24.8C12,74,1.6,83.6,0,95.6L485.6,371.6z"/>
<path style="fill:#262523;" d="M20.8,107.6l464.8,264c6.4-4.8,10.4-12,10.4-20V170v-44.8l-30.4-17.6
	C465.6,107.6,20.8,107.6,20.8,107.6z"/>
<rect x="36" y="105.2" style="fill:#FFFFFF;" width="424" height="300"/>
<rect x="258.4" y="105.2" style="fill:#EFEFEF;" width="201.6" height="300"/>
<path style="fill:#A5A5A5;" d="M496,424.4c0,13.6-11.2,24.8-24.8,24.8H24.8C11.2,449.2,0,438.8,0,424.4l8-252
	c0-13.6,11.2-24.8,24.8-24.8H464c13.6,0,24.8,11.2,24.8,24.8L496,424.4z"/>
<path style="fill:#b7b7b7;" d="M492.8,437.2L9.6,162.8C8.8,166,8,169.2,8,172.4l-8,252c0,13.6,11.2,24.8,24.8,24.8h446.4
	C480,449.2,488,444.4,492.8,437.2z"/>
<g>
	<path style="fill:#A5A5A5;" d="M189.6,374.8c-0.8,0-1.6,0-2.4-0.8c-33.6-33.6-33.6-89.6,0-123.2c34.4-33.6,89.6-33.6,123.2,0
		c1.6,1.6,1.6,4,0,5.6c-1.6,1.6-4,1.6-5.6,0c-31.2-31.2-81.6-31.2-112,0c-31.2,31.2-31.2,81.6,0,112c1.6,1.6,1.6,4,0,5.6
		C191.2,374.8,190.4,374.8,189.6,374.8z"/>
	<path style="fill:#8f8f8f;" d="M208.8,398.8h-16c-6.4,0-12-5.6-12-12v-16c0-6.4,5.6-12,12-12h16c6.4,0,12,5.6,12,12v16
		C220,393.2,215.2,398.8,208.8,398.8z"/>
	<path style="fill:#8f8f8f;" d="M323.2,284.4h-16c-6.4,0-12-5.6-12-12v-16c0-6.4,5.6-12,12-12h16c6.4,0,12,5.6,12,12v16
		C335.2,278.8,329.6,284.4,323.2,284.4z"/>
	<path style="fill:#8f8f8f" d="M196.8,272.4h-16c-6.4,0-12-5.6-12-12v-16c0-6.4,5.6-12,12-12h16c6.4,0,12,5.6,12,12v16
		C208.8,267.6,203.2,272.4,196.8,272.4z"/>
</g>
<g>
	<path style="fill:#FFFFFF;" d="M189.6,359.6c-0.8,0-1.6,0-2.4-0.8c-33.6-33.6-33.6-89.6,0-123.2c34.4-33.6,89.6-33.6,123.2,0
		c1.6,1.6,1.6,4,0,5.6s-4,1.6-5.6,0c-31.2-31.2-81.6-31.2-112,0c-31.2,31.2-31.2,81.6,0,112c1.6,1.6,1.6,4,0,5.6
		C191.2,358.8,190.4,359.6,189.6,359.6z"/>
	<path style="fill:#FFFFFF;" d="M208.8,382.8h-16c-6.4,0-12-5.6-12-12v-16c0-6.4,5.6-12,12-12h16c6.4,0,12,5.6,12,12v16
		C220,378,215.2,382.8,208.8,382.8z"/>
	<path style="fill:#FFFFFF;" d="M323.2,268.4h-16c-6.4,0-12-5.6-12-12v-16c0-6.4,5.6-12,12-12h16c6.4,0,12,5.6,12,12v16
		C335.2,263.6,329.6,268.4,323.2,268.4z"/>
	<path style="fill:#FFFFFF;" d="M196.8,257.2h-16c-6.4,0-12-5.6-12-12v-16c0-6.4,5.6-12,12-12h16c6.4,0,12,5.6,12,12v16
		C208.8,251.6,203.2,257.2,196.8,257.2z"/>
</g>
<g>
</g>
<g>
</g>
<g>
</g>
<g>
</g>
<g>
</g>
<g>
</g>
<g>
</g>
<g>
</g>
<g>
</g>
<g>
</g>
<g>
</g>
<g>
</g>
<g>
</g>
<g>
</g>
<g>
</g>
</svg>
