<?xml version="1.0" encoding="iso-8859-1"?>
<!-- Generator: Adobe Illustrator 19.0.0, SVG Export Plug-In . SVG Version: 6.00 Build 0)  -->
<svg version="1.1" id="Layer_1" xmlns="http://www.w3.org/2000/svg" xmlns:xlink="http://www.w3.org/1999/xlink" x="0px" y="0px"
	 viewBox="0 0 496 496" style="enable-background:new 0 0 496 496;" xml:space="preserve">
<path style="fill:#6D6D6D;" d="M484.8,48H287.2c-6.4,0-12,0-18.4,9.6L258.4,72H24.8C11.2,72,0,84.8,0,98.4v314.4
	C0,426.4,11.2,440,24.8,440h446.4c13.6,0,24.8-13.6,24.8-27.2V169.6V99.2V57.6C496,52,491.2,48,484.8,48z"/>
<path style="fill:#565656;" d="M485.6,371.2c6.4-4.8,10.4-12,10.4-20V169.6V99.2V57.6c0-5.6-4.8-9.6-11.2-9.6H287.2
	c-6.4,0-12,0-18.4,9.6L258.4,72H24.8C12,72,1.6,82.4,0,94.4L485.6,371.2z"/>
<path style="fill:#262523;" d="M16.8,104l468.8,265.6c6.4-4.8,10.4-10.4,10.4-18.4V169.6v-44.8L465.6,104H16.8z"/>
<rect x="40" y="104" style="fill:#FFFFFF;" width="416" height="304"/>
<rect x="256" y="104" style="fill:#EFEFEF;" width="200" height="304"/>
<path style="fill:#595B5B;" d="M496,424c0,13.6-11.2,24-24.8,24H24.8C11.2,448,0,437.6,0,424l8-253.6C8,156.8,19.2,144,32.8,144H464
	c13.6,0,24.8,12.8,24.8,26.4L496,424z"/>
<path style="fill:#636666;" d="M492.8,436L8.8,162.4C8,165.6,8,168.8,8,172L0,424c0,13.6,11.2,24,24.8,24h446.4
	C480,448,488,443.2,492.8,436z"/>
<g>
	<path style="fill:#595B5B;" d="M348.8,286.4l-85.6-85.6c-4-4-10.4-4-13.6,0c-4,4-4,10.4,0,13.6l85.6,85.6c1.6,1.6,4.8,3.2,7.2,3.2
		s4.8-0.8,7.2-3.2C352,296.8,352,290.4,348.8,286.4z"/>
	<path style="fill:#595B5B;" d="M252.8,254.4c-3.2-3.2-7.2-4-11.2-1.6L188,280c-2.4,0.8-4,3.2-4.8,5.6L144.8,392
		c-0.8,1.6-0.8,2.4-0.8,4l60.8-60.8c-0.8-2.4-1.6-4-1.6-6.4c0-9.6,8-16.8,16.8-16.8c9.6,0,16.8,8,16.8,16.8c0,9.6-8,16.8-16.8,16.8
		c-2.4,0-4.8-0.8-6.4-1.6l-60.8,60.8c0,0,0,0,0.8,0s2.4,0,3.2-0.8L264,366.4c2.4-0.8,4-2.4,5.6-4.8l27.2-53.6c1.6-4,0.8-8-1.6-11.2
		L252.8,254.4z"/>
</g>
<g>
	<path style="fill:#FFFFFF;" d="M348.8,273.6L263.2,188c-4-4-10.4-4-13.6,0c-4,4-4,10.4,0,13.6l84.8,86.4c1.6,1.6,4.8,3.2,7.2,3.2
		s4.8-0.8,7.2-3.2C352,284,352,277.6,348.8,273.6z"/>
	<path style="fill:#FFFFFF;" d="M252.8,241.6c-3.2-3.2-7.2-4-11.2-1.6L188,267.2c-2.4,0.8-4,3.2-4.8,5.6l-38.4,106.4
		c-0.8,1.6-0.8,2.4-0.8,4l60.8-60.8c-0.8-2.4-1.6-4-1.6-6.4c0-9.6,8-16.8,16.8-16.8c9.6,0,16.8,8,16.8,16.8c0,9.6-8,16.8-16.8,16.8
		c-2.4,0-4.8-0.8-6.4-1.6l-60,60.8c0,0,0,0,0.8,0s2.4,0,3.2-0.8L264,353.6c2.4-0.8,4-2.4,5.6-4.8l27.2-53.6c1.6-4,0.8-8-1.6-11.2
		L252.8,241.6z"/>
</g>
<g>
</g>
<g>
</g>
<g>
</g>
<g>
</g>
<g>
</g>
<g>
</g>
<g>
</g>
<g>
</g>
<g>
</g>
<g>
</g>
<g>
</g>
<g>
</g>
<g>
</g>
<g>
</g>
<g>
</g>
</svg>
