<?xml version="1.0" encoding="iso-8859-1"?>
<!-- Generator: Adobe Illustrator 19.0.0, SVG Export Plug-In . SVG Version: 6.00 Build 0)  -->
<svg version="1.1" id="Layer_1" xmlns="http://www.w3.org/2000/svg" xmlns:xlink="http://www.w3.org/1999/xlink" x="0px" y="0px"
	 viewBox="0 0 496 496" style="enable-background:new 0 0 496 496;" xml:space="preserve">
<path style="fill:#6D6D6D;" d="M484.8,47.6H287.2c-6.4,0-12,1.6-18.4,11.2l-10.4,16H24.8C11.2,74.8,0,86,0,99.6V414
	c0,13.6,11.2,24.8,24.8,24.8h446.4c13.6,0,24.8-11.2,24.8-24.8V170V99.6V58C496,52.4,491.2,47.6,484.8,47.6z"/>
<path style="fill:#565656;" d="M485.6,371.6c6.4-4.8,10.4-12,10.4-20V170V99.6V58c0-6.4-4.8-11.2-11.2-11.2H287.2
	c-6.4,0-12,1.6-18.4,11.2l-10.4,16H24.8C12,74,1.6,83.6,0,95.6L485.6,371.6z"/>
<path style="fill:#262523;" d="M20.8,107.6l464.8,264c6.4-4.8,10.4-12,10.4-20V170v-44.8l-30.4-17.6
	C465.6,107.6,20.8,107.6,20.8,107.6z"/>
<rect x="36" y="106.8" style="fill:#FFFFFF;" width="424" height="298.4"/>
<rect x="258.4" y="106.8" style="fill:#EFEFEF;" width="201.6" height="298.4"/>
<path style="fill:#FF4E00;" d="M496,424.4c0,13.6-11.2,24.8-24.8,24.8H24.8C11.2,449.2,0,438.8,0,424.4l8-252
	c0-13.6,11.2-24.8,24.8-24.8H464c13.6,0,24.8,11.2,24.8,24.8L496,424.4z"/>
<path style="fill:#FF7900;" d="M492.8,437.2L9.6,162.8C8.8,166,8,169.2,8,172.4l-8,252c0,13.6,11.2,24.8,24.8,24.8h446.4
	C480,449.2,488,444.4,492.8,437.2z"/>
<path style="fill:#FF4E00;" d="M303.2,223.6H192.8c-5.6,0-10.4,4.8-10.4,10.4v12c0,5.6,4.8,10.4,10.4,10.4c5.6,0,10.4-4.8,10.4-10.4
	v-1.6h35.2V378H220c-5.6,0-10.4,4.8-10.4,10.4s4.8,10.4,10.4,10.4h57.6c5.6,0,10.4-4.8,10.4-10.4s-4.8-10.4-10.4-10.4h-18.4V243.6
	h35.2v1.6c0,5.6,4.8,10.4,10.4,10.4s10.4-4.8,10.4-10.4v-12C313.6,228.4,308.8,223.6,303.2,223.6z"/>
<path style="fill:#FFFFFF;" d="M303.2,202.8H192.8c-5.6,0-10.4,4.8-10.4,10.4v11.2c0,5.6,4.8,10.4,10.4,10.4
	c5.6,0,10.4-4.8,10.4-10.4v-1.6h35.2v133.6H220c-5.6,0-10.4,4.8-10.4,10.4s4.8,10.4,10.4,10.4h57.6c5.6,0,10.4-4.8,10.4-10.4
	s-4.8-10.4-10.4-10.4h-18.4V222.8h35.2v1.6c0,5.6,4.8,10.4,10.4,10.4s10.4-4.8,10.4-10.4v-12C313.6,207.6,308.8,202.8,303.2,202.8z"
	/>
<g>
</g>
<g>
</g>
<g>
</g>
<g>
</g>
<g>
</g>
<g>
</g>
<g>
</g>
<g>
</g>
<g>
</g>
<g>
</g>
<g>
</g>
<g>
</g>
<g>
</g>
<g>
</g>
<g>
</g>
</svg>
