<?xml version="1.0" encoding="iso-8859-1"?>
<!-- Generator: Adobe Illustrator 19.0.0, SVG Export Plug-In . SVG Version: 6.00 Build 0)  -->
<svg version="1.1" id="Layer_1" xmlns="http://www.w3.org/2000/svg" xmlns:xlink="http://www.w3.org/1999/xlink" x="0px" y="0px"
	 viewBox="0 0 496 496" style="enable-background:new 0 0 496 496;" xml:space="preserve">
<path style="fill:#6D6D6D;" d="M484.8,48H287.2c-6.4,0-12,0-18.4,9.6L258.4,72H24.8C11.2,72,0,84.8,0,98.4v314.4
	C0,426.4,11.2,440,24.8,440h446.4c13.6,0,24.8-13.6,24.8-27.2V169.6V99.2V57.6C496,52,491.2,48,484.8,48z"/>
<path style="fill:#565656;" d="M485.6,371.2c6.4-4.8,10.4-12,10.4-20V169.6V99.2V57.6c0-5.6-4.8-9.6-11.2-9.6H287.2
	c-6.4,0-12,0-18.4,9.6L258.4,72H24.8C12,72,1.6,82.4,0,94.4L485.6,371.2z"/>
<path style="fill:#262523;" d="M16.8,104l468.8,265.6c6.4-4.8,10.4-10.4,10.4-18.4V169.6v-44.8L465.6,104H16.8z"/>
<rect x="40" y="104" style="fill:#FFFFFF;" width="416" height="304"/>
<rect x="256" y="104" style="fill:#EFEFEF;" width="200" height="304"/>
<path style="fill:#8DD819;" d="M496,424c0,13.6-11.2,24-24.8,24H24.8C11.2,448,0,437.6,0,424l8-253.6C8,156.8,19.2,144,32.8,144H464
	c13.6,0,24.8,12.8,24.8,26.4L496,424z"/>
<path style="fill:#A3ED54;" d="M492.8,436L8.8,161.6C8,164.8,8,168.8,8,172L0,424c0,13.6,11.2,24,24.8,24h446.4
	C480,448,488,443.2,492.8,436z"/>
<g>
	<path style="fill:#8DD819;" d="M177.6,285.6c-11.2,0-22.4-4.8-30.4-12.8s-12.8-18.4-12.8-30.4s4.8-22.4,12.8-30.4
		c4.8-4.8,12-4.8,16.8,0s4.8,12,0,16.8c-4,4-5.6,8.8-5.6,13.6s2.4,10.4,5.6,13.6c7.2,7.2,20,7.2,27.2,0c4.8-4.8,12-4.8,16.8,0
		s4.8,12,0,16.8C200,281.6,188.8,285.6,177.6,285.6z"/>
	<path style="fill:#8DD819;" d="M390.4,376h-12l-93.6-127.2c-4-5.6-14.4-6.4-18.4-0.8l-68.8,92L180,316c-4-5.6-14.4-4.8-18.4,0.8
		L118.4,376h-12.8c-6.4,0-12,5.6-12,12s5.6,12,12,12h15.2c1.6,0,4,0,5.6,0h48c0.8,0,1.6,0.8,2.4,0.8c0.8,0,1.6-0.8,3.2-0.8h32.8
		c0.8,0,1.6,0.8,3.2,0.8c0.8,0,1.6-0.8,2.4-0.8h151.2c1.6,0,4,0,5.6,0h14.4c6.4,0,12-5.6,12-12C401.6,381.6,396.8,376,390.4,376z"/>
</g>
<g>
	<path style="fill:#FFFFFF;" d="M177.6,273.6c-11.2,0-22.4-4.8-30.4-12.8s-12.8-18.4-12.8-30.4s4.8-22.4,12.8-30.4
		c4.8-4.8,12-4.8,16.8,0s4.8,12,0,16.8c-4,4-5.6,8.8-5.6,13.6s2.4,10.4,5.6,13.6c7.2,7.2,20,7.2,27.2,0c4.8-4.8,12-4.8,16.8,0
		s4.8,12,0,16.8C200,268.8,188.8,273.6,177.6,273.6z"/>
	<path style="fill:#FFFFFF;" d="M390.4,360h-12l-93.6-125.6c-4-5.6-14.4-5.6-18.4,0l-68.8,92.8l-17.6-24c-4-5.6-14.4-6.4-18.4-0.8
		L118.4,360h-12.8c-6.4,0-12,5.6-12,12s5.6,12,12,12h15.2c1.6,0,4,0,5.6,0h48c0.8,0,1.6,0.8,2.4,0.8c0.8,0,1.6-0.8,3.2-0.8h32.8
		c0.8,0,1.6,0.8,3.2,0.8c0.8,0,1.6-0.8,2.4-0.8h151.2c1.6,0,4,0,5.6,0h14.4c6.4,0,12-5.6,12-12C401.6,365.6,396.8,360,390.4,360z"/>
</g>
<g>
</g>
<g>
</g>
<g>
</g>
<g>
</g>
<g>
</g>
<g>
</g>
<g>
</g>
<g>
</g>
<g>
</g>
<g>
</g>
<g>
</g>
<g>
</g>
<g>
</g>
<g>
</g>
<g>
</g>
</svg>
