<?xml version="1.0" encoding="iso-8859-1"?>
<!-- Generator: Adobe Illustrator 19.0.0, SVG Export Plug-In . SVG Version: 6.00 Build 0)  -->
<svg version="1.1" id="Layer_1" xmlns="http://www.w3.org/2000/svg" xmlns:xlink="http://www.w3.org/1999/xlink" x="0px" y="0px"
	 viewBox="0 0 496 496" style="enable-background:new 0 0 496 496;" xml:space="preserve">
<path style="fill:#6D6D6D;" d="M484.8,48H287.2c-6.4,0-12,0-18.4,9.6L258.4,72H24.8C11.2,72,0,84.8,0,98.4v314.4
	C0,426.4,11.2,440,24.8,440h446.4c13.6,0,24.8-13.6,24.8-27.2V169.6V99.2V57.6C496,52,491.2,48,484.8,48z"/>
<path style="fill:#565656;" d="M485.6,371.2c6.4-4.8,10.4-12,10.4-20V169.6V99.2V57.6c0-5.6-4.8-9.6-11.2-9.6H287.2
	c-6.4,0-12,0-18.4,9.6L258.4,72H24.8C12,72,1.6,82.4,0,94.4L485.6,371.2z"/>
<path style="fill:#262523;" d="M16.8,104l468.8,265.6c6.4-4.8,10.4-10.4,10.4-18.4V169.6v-44.8L465.6,104H16.8z"/>
<rect x="40" y="104" style="fill:#FFFFFF;" width="416" height="304"/>
<rect x="256" y="104" style="fill:#EFEFEF;" width="200" height="304"/>
<path style="fill:#8543D1;" d="M496,424c0,13.6-11.2,24-24.8,24H24.8C11.2,448,0,437.6,0,424l8-253.6C8,156.8,19.2,144,32.8,144H464
	c13.6,0,24.8,12.8,24.8,26.4L496,424z"/>
<path style="fill:#A55AE0;" d="M492.8,436L9.6,161.6C8,164,8,168.8,8,172L0,424c0,13.6,11.2,24,24.8,24h446.4
	C480,448,488,443.2,492.8,436z"/>
<g>
	<path style="fill:#8543D1;" d="M208,359.2c-4,4-4,10.4,0,14.4s10.4,4,14.4,0c14.4-14.4,36.8-14.4,51.2,0c1.6,1.6,4.8,3.2,7.2,3.2
		c2.4,0,4.8-0.8,7.2-3.2c4-4,4-10.4,0-14.4C265.6,337.6,230.4,337.6,208,359.2z"/>
	<path style="fill:#8543D1;" d="M248,295.2c-28.8,0-56,11.2-76,31.2c-4,4-4,10.4,0,14.4s10.4,4,14.4,0
		c16.8-16.8,38.4-25.6,62.4-25.6s45.6,8.8,62.4,25.6c1.6,1.6,4.8,3.2,7.2,3.2c2.4,0,4.8-0.8,7.2-3.2c4-4,4-10.4,0-14.4
		C304,306.4,276.8,295.2,248,295.2z"/>
	<path style="fill:#8543D1;" d="M361.6,296.8c-30.4-30.4-71.2-47.2-113.6-47.2s-83.2,16.8-113.6,47.2c-4,4-4,10.4,0,14.4
		s10.4,4,14.4,0c26.4-26.4,62.4-41.6,100-41.6s72.8,14.4,100,41.6c1.6,1.6,4.8,3.2,7.2,3.2c2.4,0,4.8-0.8,7.2-3.2
		C365.6,307.2,365.6,300.8,361.6,296.8z"/>
</g>
<g>
	<path style="fill:#FFFFFF;" d="M208,337.6c-4,4-4,10.4,0,14.4s10.4,4,14.4,0c14.4-14.4,36.8-14.4,51.2,0c1.6,1.6,4.8,3.2,7.2,3.2
		c2.4,0,4.8-0.8,7.2-3.2c4-4,4-10.4,0-14.4C265.6,316,230.4,316,208,337.6z"/>
	<path style="fill:#FFFFFF;" d="M248,273.6c-28.8,0-56,11.2-76,31.2c-4,4-4,10.4,0,14.4s10.4,4,14.4,0
		c16.8-16.8,38.4-25.6,62.4-25.6s45.6,8.8,62.4,25.6c1.6,1.6,4.8,3.2,7.2,3.2c2.4,0,4.8-0.8,7.2-3.2c4-4,4-10.4,0-14.4
		C304,284.8,276.8,273.6,248,273.6z"/>
	<path style="fill:#FFFFFF;" d="M361.6,276c-30.4-30.4-71.2-47.2-113.6-47.2s-83.2,16.8-113.6,47.2c-4,4-4,10.4,0,14.4
		s10.4,4,14.4,0c26.4-26.4,62.4-41.6,100-41.6s72.8,14.4,100,41.6c1.6,1.6,4.8,3.2,7.2,3.2c2.4,0,4.8-0.8,7.2-3.2
		C365.6,285.6,365.6,279.2,361.6,276z"/>
</g>
<g>
</g>
<g>
</g>
<g>
</g>
<g>
</g>
<g>
</g>
<g>
</g>
<g>
</g>
<g>
</g>
<g>
</g>
<g>
</g>
<g>
</g>
<g>
</g>
<g>
</g>
<g>
</g>
<g>
</g>
</svg>
