<?xml version="1.0" encoding="iso-8859-1"?>
<!-- Generator: Adobe Illustrator 19.0.0, SVG Export Plug-In . SVG Version: 6.00 Build 0)  -->
<svg version="1.1" id="Layer_1" xmlns="http://www.w3.org/2000/svg" xmlns:xlink="http://www.w3.org/1999/xlink" x="0px" y="0px"
	 viewBox="0 0 496 496" style="enable-background:new 0 0 496 496;" xml:space="preserve">
<path style="fill:#6D6D6D;" d="M484.8,47.6H287.2c-6.4,0-12,1.6-18.4,11.2l-10.4,16H24.8C11.2,74.8,0,86,0,99.6V414
	c0,13.6,11.2,24.8,24.8,24.8h446.4c13.6,0,24.8-11.2,24.8-24.8V170V99.6V58C496,52.4,491.2,47.6,484.8,47.6z"/>
<path style="fill:#565656;" d="M485.6,371.6c6.4-4.8,10.4-12,10.4-20V170V99.6V58c0-6.4-4.8-11.2-11.2-11.2H287.2
	c-6.4,0-12,1.6-18.4,11.2l-10.4,16H24.8C12,74,1.6,83.6,0,95.6L485.6,371.6z"/>
<path style="fill:#262523;" d="M20.8,107.6l464.8,264c6.4-4.8,10.4-12,10.4-20V170v-44.8l-30.4-17.6
	C465.6,107.6,20.8,107.6,20.8,107.6z"/>
<rect x="36" y="107.6" style="fill:#FFFFFF;" width="424" height="296.8"/>
<rect x="258.4" y="107.6" style="fill:#EFEFEF;" width="201.6" height="296.8"/>
<path style="fill:#09CEBB;" d="M496,424.4c0,13.6-11.2,24.8-24.8,24.8H24.8C11.2,449.2,0,438.8,0,424.4l8-252
	c0-13.6,11.2-24.8,24.8-24.8H464c13.6,0,24.8,11.2,24.8,24.8L496,424.4z"/>
<path style="fill:#09D6B9;" d="M492.8,437.2L9.6,162.8C8.8,166,8,169.2,8,172.4l-8,252c0,13.6,11.2,24.8,24.8,24.8h446.4
	C480,449.2,488,444.4,492.8,437.2z"/>
<path style="fill:#09CEBB;" d="M315.2,256.4h-84v-8c0-4-3.2-8-8-8h-42.4c-4,0-8,3.2-8,8v8.8c-11.2,3.2-20,12.8-20,24.8v72.8
	c0,14.4,12,25.6,27.2,25.6h134.4c15.2,0,27.2-11.2,27.2-25.6V282C342.4,267.6,330.4,256.4,315.2,256.4z M248,350
	c-17.6,0-32-14.4-32-32s14.4-32,32-32s32,14.4,32,32S265.6,350,248,350z"/>
<path style="fill:#FFFFFF;" d="M315.2,233.2h-84v-8c0-4-3.2-8-8-8h-42.4c-4,0-8,3.2-8,8v8.8c-11.2,3.2-20,12.8-20,24.8v72.8
	c0,14.4,12,25.6,27.2,25.6h134.4c15.2,0,27.2-11.2,27.2-25.6v-72.8C342.4,244.4,330.4,233.2,315.2,233.2z M248,326.8
	c-17.6,0-32-14.4-32-32s14.4-32,32-32s32,14.4,32,32S265.6,326.8,248,326.8z"/>
<g>
</g>
<g>
</g>
<g>
</g>
<g>
</g>
<g>
</g>
<g>
</g>
<g>
</g>
<g>
</g>
<g>
</g>
<g>
</g>
<g>
</g>
<g>
</g>
<g>
</g>
<g>
</g>
<g>
</g>
</svg>
