<?xml version="1.0" encoding="iso-8859-1"?>
<!-- Generator: Adobe Illustrator 19.0.0, SVG Export Plug-In . SVG Version: 6.00 Build 0)  -->
<svg version="1.1" id="Capa_1" xmlns="http://www.w3.org/2000/svg" xmlns:xlink="http://www.w3.org/1999/xlink" x="0px" y="0px"
	 viewBox="0 0 512.003 512.003" style="enable-background:new 0 0 512.003 512.003;" xml:space="preserve">
<path style="fill:#FF4C4C;" d="M269.877,5.311l16.56,14.853c5.893,5.286,14.278,6.764,21.624,3.813l20.642-8.293
	c9.841-3.954,21.081,0.137,26.078,9.492l10.482,19.621c3.73,6.983,11.103,11.24,19.016,10.979l22.233-0.733
	c10.6-0.35,19.763,7.339,21.259,17.839l3.139,22.023c1.117,7.837,6.59,14.359,14.114,16.82l21.143,6.915
	c10.08,3.297,16.061,13.656,13.876,24.034l-4.583,21.768c-1.631,7.747,1.281,15.747,7.51,20.633l17.503,13.73
	c8.345,6.546,10.422,18.325,4.819,27.33l-11.751,18.888c-4.182,6.722-4.182,15.236,0,21.957l11.751,18.888
	c5.603,9.005,3.526,20.784-4.819,27.33l-17.503,13.73c-6.229,4.886-9.141,12.886-7.51,20.633l4.583,21.768
	c2.185,10.378-3.796,20.737-13.876,24.034l-21.143,6.915c-7.524,2.461-12.997,8.983-14.114,16.82l-3.139,22.023
	c-1.496,10.5-10.659,18.188-21.259,17.839l-22.233-0.733c-7.912-0.261-15.285,3.996-19.016,10.979l-10.482,19.621
	c-4.997,9.355-16.237,13.446-26.078,9.492l-20.642-8.293c-7.346-2.951-15.73-1.473-21.624,3.813l-16.56,14.853
	c-7.895,7.081-19.857,7.081-27.752,0l-16.56-14.853c-5.893-5.286-14.278-6.764-21.624-3.813l-20.642,8.293
	c-9.841,3.954-21.081-0.137-26.078-9.492l-10.482-19.621c-3.73-6.983-11.103-11.24-19.016-10.979l-22.233,0.733
	c-10.6,0.35-19.763-7.339-21.259-17.839l-3.139-22.023c-1.117-7.837-6.59-14.359-14.114-16.82l-21.143-6.915
	c-10.08-3.297-16.061-13.656-13.876-24.034l4.583-21.768c1.631-7.747-1.281-15.747-7.51-20.633l-17.503-13.73
	c-8.345-6.546-10.422-18.325-4.819-27.33l11.752-18.888c4.182-6.722,4.182-15.236,0-21.957l-11.751-18.89
	c-5.603-9.005-3.526-20.785,4.819-27.33l17.503-13.73c6.229-4.886,9.141-12.886,7.51-20.633l-4.583-21.768
	c-2.185-10.378,3.796-20.737,13.876-24.034l21.143-6.915c7.524-2.461,12.997-8.983,14.114-16.82l3.139-22.023
	c1.496-10.5,10.659-18.188,21.259-17.839l22.233,0.733c7.912,0.261,15.285-3.996,19.016-10.979l10.482-19.621
	c4.997-9.355,16.237-13.446,26.078-9.492l20.642,8.293c7.346,2.951,15.73,1.473,21.624-3.813l16.56-14.853
	C250.02-1.77,261.982-1.77,269.877,5.311z"/>
<path style="fill:#F33939;" d="M493.539,266.979c-4.182-6.722-4.182-15.236,0-21.957l11.752-18.888
	c5.603-9.005,3.526-20.784-4.819-27.33l-17.503-13.73c-6.229-4.886-9.141-12.886-7.51-20.633l4.583-21.768
	c2.185-10.378-3.796-20.737-13.876-24.034l-21.143-6.915c-7.524-2.461-12.997-8.983-14.114-16.82l-3.139-22.023
	c-1.496-10.5-10.659-18.188-21.259-17.839l-22.233,0.733c-7.912,0.261-15.285-3.996-19.016-10.979l-10.481-19.621
	c-4.997-9.355-16.237-13.446-26.078-9.492l-20.089,8.071c0.296,0.462,0.584,0.93,0.847,1.421l10.482,19.621
	c3.73,6.983,11.103,11.239,19.016,10.979l22.233-0.733c10.6-0.35,19.763,7.339,21.259,17.839l3.139,22.023
	c1.117,7.837,6.59,14.359,14.114,16.82l21.143,6.915c10.08,3.297,16.061,13.656,13.876,24.034l-4.583,21.768
	c-1.631,7.747,1.281,15.747,7.51,20.633l17.503,13.73c8.345,6.546,10.422,18.325,4.819,27.33l-11.752,18.888
	c-4.182,6.722-4.182,15.236,0,21.957l11.752,18.888c5.603,9.005,3.526,20.785-4.819,27.33l-17.503,13.73
	c-6.229,4.886-9.141,12.886-7.51,20.633l4.583,21.768c2.185,10.378-3.796,20.737-13.876,24.034l-21.143,6.915
	c-7.524,2.461-12.997,8.983-14.114,16.82l-3.139,22.023c-1.496,10.5-10.659,18.188-21.259,17.839l-22.233-0.733
	c-7.912-0.261-15.285,3.996-19.016,10.979l-10.482,19.621c-0.262,0.491-0.551,0.959-0.847,1.421l20.089,8.071
	c9.841,3.954,21.081-0.137,26.078-9.492l10.482-19.621c3.73-6.983,11.103-11.24,19.016-10.979l22.233,0.733
	c10.6,0.35,19.763-7.339,21.259-17.839l3.139-22.023c1.117-7.837,6.59-14.359,14.114-16.82l21.143-6.915
	c10.08-3.297,16.061-13.656,13.876-24.034l-4.583-21.768c-1.631-7.747,1.281-15.747,7.51-20.633l17.503-13.73
	c8.345-6.546,10.422-18.325,4.819-27.33L493.539,266.979z"/>
<circle style="fill:#FFB125;" cx="256.001" cy="256" r="192.64"/>
<path style="fill:#FF901D;" d="M256.001,63.362c-7.668,0-15.226,0.462-22.66,1.333C329.051,75.912,403.319,157.277,403.319,256
	s-74.268,180.088-169.978,191.305c7.434,0.871,14.992,1.333,22.66,1.333c106.391,0,192.638-86.247,192.638-192.638
	S362.392,63.362,256.001,63.362z"/>
<path style="fill:#FFFFFF;" d="M146.353,226.115v-44.032c0-26.776,17.256-36.594,40.165-36.594c22.611,0,40.165,9.818,40.165,36.594
	v44.032c0,26.776-17.553,36.595-40.165,36.595C163.609,262.71,146.353,252.892,146.353,226.115z M205.261,182.083
	c0-12.198-7.141-17.553-18.744-17.553s-18.446,5.355-18.446,17.553v44.032c0,12.198,6.843,17.554,18.446,17.554
	s18.744-5.355,18.744-17.554V182.083z M318.912,145.191c0,1.785-0.297,3.273-0.893,4.76L208.831,367.733
	c-1.785,3.57-5.95,5.653-10.115,5.653c-6.843,0-11.604-5.653-11.604-11.008c0-1.487,0.298-2.975,1.19-4.462l109.189-218.675
	c1.785-3.868,5.355-5.355,8.926-5.355C312.367,133.885,318.912,138.348,318.912,145.191z M277.855,327.271v-44.032
	c0-26.776,17.256-36.594,40.165-36.594c22.611,0,40.165,9.818,40.165,36.594v44.032c0,26.777-17.553,36.595-40.165,36.595
	C295.111,363.865,277.855,354.047,277.855,327.271z M336.763,283.238c0-12.198-7.141-17.553-18.744-17.553
	s-18.446,5.355-18.446,17.553v44.032c0,12.198,6.843,17.554,18.446,17.554s18.744-5.355,18.744-17.554V283.238z"/>
<g>
</g>
<g>
</g>
<g>
</g>
<g>
</g>
<g>
</g>
<g>
</g>
<g>
</g>
<g>
</g>
<g>
</g>
<g>
</g>
<g>
</g>
<g>
</g>
<g>
</g>
<g>
</g>
<g>
</g>
</svg>
