<?xml version="1.0" encoding="iso-8859-1"?>
<!-- Generator: Adobe Illustrator 19.0.0, SVG Export Plug-In . SVG Version: 6.00 Build 0)  -->
<svg version="1.1" id="Layer_1" xmlns="http://www.w3.org/2000/svg" xmlns:xlink="http://www.w3.org/1999/xlink" x="0px" y="0px"
	 viewBox="0 0 460 460" style="enable-background:new 0 0 460 460;" xml:space="preserve">
<g id="XMLID_463_">
	<path id="XMLID_464_" style="fill:#466289;" d="M30,430c0,16.568,13.431,30,30,30l10-30l-10-30C43.431,400,30,413.432,30,430z"/>
	<path id="XMLID_466_" style="fill:#354A67;" d="M60,400v60c16.568,0,30-13.432,30-30S76.568,400,60,400z"/>
	<path id="XMLID_467_" style="fill:#354A67;" d="M320,430c0,16.568,13.431,30,30,30l10-30l-10-30C333.431,400,320,413.432,320,430z"
		/>
	<path id="XMLID_468_" style="fill:#233145;" d="M350,400v60c16.568,0,30-13.432,30-30S366.568,400,350,400z"/>
	<polygon id="XMLID_469_" style="fill:#FFB739;" points="160,90 30,90 30,152.5 90,162.5 150,152.5 	"/>
	<polygon id="XMLID_470_" style="fill:#FB992D;" points="30,152.5 30,215 90,225 150,215 160,152.5 	"/>
	<polygon id="XMLID_472_" style="fill:#FFD488;" points="160,215 30,215 30,277.5 90,287.5 150,277.5 	"/>
	<polygon id="XMLID_473_" style="fill:#FFB739;" points="30,277.5 30,340 160,350 160,277.5 	"/>
	<polygon id="XMLID_474_" style="fill:#F67A21;" points="350,90 150,90 150,215 250,225 350,215 	"/>
	<rect id="XMLID_475_" x="150" y="215" style="fill:#FB992D;" width="200" height="135"/>
	<polygon id="XMLID_476_" style="fill:#466289;" points="390,340 0,340 0,370 410,370 	"/>
	<polygon id="XMLID_477_" style="fill:#354A67;" points="380,0 380,340 410,370 410,30 460,30 460,0 	"/>
</g>
<g>
</g>
<g>
</g>
<g>
</g>
<g>
</g>
<g>
</g>
<g>
</g>
<g>
</g>
<g>
</g>
<g>
</g>
<g>
</g>
<g>
</g>
<g>
</g>
<g>
</g>
<g>
</g>
<g>
</g>
</svg>
