<?xml version="1.0" encoding="iso-8859-1"?>
<!-- Generator: Adobe Illustrator 19.0.0, SVG Export Plug-In . SVG Version: 6.00 Build 0)  -->
<svg version="1.1" id="Capa_1" xmlns="http://www.w3.org/2000/svg" xmlns:xlink="http://www.w3.org/1999/xlink" x="0px" y="0px"
	 viewBox="0 0 512 512" style="enable-background:new 0 0 512 512;" xml:space="preserve">
<path style="fill:#17ACE8;" d="M467,61H105c-24.901,0-45,20.099-45,45v240c0,24.899,20.099,45,45,45h362c24.901,0,45-20.101,45-45
	V106C512,81.099,491.901,61,467,61z"/>
<path style="fill:#1689FC;" d="M512,106v240c0,24.899-20.099,45-45,45H287V61h180C491.901,61,512,81.099,512,106z"/>
<path style="fill:#B7E0F6;" d="M4.94,145.926C1.884,151.998,0,158.751,0,166v240c0,6.348,1.353,12.372,3.735,17.855l50.59-8.123
	l92.091-102.193l6.546-48.823L4.94,145.926z"/>
<path style="fill:#CAE8F9;" d="M449.599,420.099C443.301,438.999,425.9,451,407,451H45c-16.5,0-33.9-10.201-41.4-27.001
	l149.399-159.3c23.701,18.9,15.401,11.7,62.501,49.2c2.699,2.699,6.599,4.2,10.499,4.2s7.8-1.501,10.499-4.2
	c49.801-39.6,39.401-30.601,65.2-51.301L449.599,420.099z"/>
<path style="fill:#1DE8F1;" d="M447.201,145.899L258.8,335.2c-8.399,8.399-20.799,13.198-32.8,13.198s-23.401-4.799-31.8-13.198
	L4.799,145.899C12.9,130,28.801,121,45,121h362C423.199,121,439.1,130,447.201,145.899z"/>
<path style="fill:#A4D9F5;" d="M447.06,145.926L301.597,262.671l6.53,48.838l92.82,102.446l48.615,6.002
	c1.456-4.42,2.439-9.055,2.439-13.956V166C452,158.751,450.116,151.996,447.06,145.926z"/>
<path style="fill:#B7E0F6;" d="M449.599,420.099C443.301,438.999,425.9,451,407,451H226V318.1c3.9,0,7.8-1.501,10.499-4.2
	c49.801-39.6,39.401-30.601,65.2-51.301L449.599,420.099z"/>
<path style="fill:#1BD9DE;" d="M447.201,145.899L258.8,335.2c-8.399,8.399-20.799,13.198-32.8,13.198V121h181
	C423.199,121,439.1,130,447.201,145.899z"/>
<g>
</g>
<g>
</g>
<g>
</g>
<g>
</g>
<g>
</g>
<g>
</g>
<g>
</g>
<g>
</g>
<g>
</g>
<g>
</g>
<g>
</g>
<g>
</g>
<g>
</g>
<g>
</g>
<g>
</g>
</svg>
