<?xml version="1.0" encoding="iso-8859-1"?>
<!-- Generator: Adobe Illustrator 19.0.0, SVG Export Plug-In . SVG Version: 6.00 Build 0)  -->
<svg version="1.1" id="Layer_1" xmlns="http://www.w3.org/2000/svg" xmlns:xlink="http://www.w3.org/1999/xlink" x="0px" y="0px"
	 viewBox="0 0 460 460" style="enable-background:new 0 0 460 460;" xml:space="preserve">
<g id="XMLID_964_">
	<path id="XMLID_965_" style="fill:#233145;" d="M392.63,67.37C434.26,108.99,460,166.49,460,230c0,127.02-102.98,230-230,230
		c-26.553,0-52.059-4.507-75.79-12.788c-19.231-6.711-84.025-57.397-84.025-57.397L392.63,67.37z"/>
	<path id="XMLID_966_" style="fill:#466289;" d="M392.63,67.37L237.071,237.071L70.185,389.815c0,0-50.686-64.794-57.397-84.026
		C4.506,282.058,0,256.552,0,230C0,102.98,102.98,0,230,0C293.51,0,351.01,25.74,392.63,67.37z"/>
	<path id="XMLID_967_" style="fill:#FB7B46;" d="M364.292,95.708L237.071,237.071L95.708,364.292C61.309,329.883,40,282.383,40,230
		c0-104.766,85.234-190,190-190C282.383,40,329.883,61.308,364.292,95.708z"/>
	<path id="XMLID_968_" style="fill:#FA6121;" d="M364.292,95.708C398.691,130.117,420,177.617,420,230c0,104.766-85.234,190-190,190
		c-52.383,0-99.883-21.309-134.292-55.708L364.292,95.708z"/>
	<path id="XMLID_969_" style="fill:#FFB739;" d="M247.607,226.535l-84.853-70.711L12.795,305.783
		c5.832,16.712,13.534,32.545,22.857,47.245L0,460L247.607,226.535z"/>
	<path id="XMLID_970_" style="fill:#FB992D;" d="M304.175,297.246l-63.64-77.782L9.769,450.231L0,460l106.973-35.651
		c14.699,9.322,30.532,17.023,47.243,22.855L304.175,297.246z"/>
	<polygon id="XMLID_971_" style="fill:#FFEAC3;" points="162.754,155.824 259.373,132.094 307.782,166.36 233.465,226.535 	"/>
	<polygon id="XMLID_972_" style="fill:#FFD488;" points="233.465,226.535 300.711,159.289 327.906,200.627 304.176,297.246 	"/>
	<polygon id="XMLID_973_" style="fill:#466289;" points="259.373,132.094 350.208,109.792 328.995,145.147 293.64,166.36 	"/>
	<polygon id="XMLID_974_" style="fill:#233145;" points="293.64,166.36 350.208,109.792 327.906,200.627 	"/>
</g>
<g>
</g>
<g>
</g>
<g>
</g>
<g>
</g>
<g>
</g>
<g>
</g>
<g>
</g>
<g>
</g>
<g>
</g>
<g>
</g>
<g>
</g>
<g>
</g>
<g>
</g>
<g>
</g>
<g>
</g>
</svg>
