<?xml version="1.0" encoding="iso-8859-1"?>
<!-- Generator: Adobe Illustrator 19.0.0, SVG Export Plug-In . SVG Version: 6.00 Build 0)  -->
<svg version="1.1" id="Layer_1" xmlns="http://www.w3.org/2000/svg" xmlns:xlink="http://www.w3.org/1999/xlink" x="0px" y="0px"
	 viewBox="0 0 512 512" style="enable-background:new 0 0 512 512;" xml:space="preserve">
<g>
	<polygon style="fill:#6C2027;" points="0,512 141.241,512 141.241,17.655 0,17.655 	"/>
	<polygon style="fill:#DD342E;" points="512,485.517 370.759,512 284.628,24.523 423.724,0 	"/>
	<g>
		<polygon style="fill:#FFFFFF;" points="35.31,220.69 105.931,220.69 105.931,79.448 35.31,79.448 		"/>
		<path style="fill:#FFFFFF;" d="M105.931,441.379c0-19.5-15.81-35.31-35.31-35.31s-35.31,15.81-35.31,35.31
			c0,19.5,15.81,35.31,35.31,35.31S105.931,460.879,105.931,441.379"/>
	</g>
	<g>
		<polygon style="fill:#CCD0D2;" points="35.31,194.207 105.931,194.207 105.931,176.552 35.31,176.552 		"/>
		<polygon style="fill:#CCD0D2;" points="35.31,158.897 105.931,158.897 105.931,141.241 35.31,141.241 		"/>
		<polygon style="fill:#CCD0D2;" points="35.31,123.586 105.931,123.586 105.931,105.931 35.31,105.931 		"/>
	</g>
	<polygon style="fill:#B12621;" points="141.241,512 282.483,512 282.483,17.655 141.241,17.655 	"/>
	<g>
		<polygon style="fill:#FFFFFF;" points="176.552,220.69 247.172,220.69 247.172,79.448 176.552,79.448 		"/>
		<path style="fill:#FFFFFF;" d="M247.172,441.379c0-19.5-15.81-35.31-35.31-35.31s-35.31,15.81-35.31,35.31
			c0,19.5,15.81,35.31,35.31,35.31S247.172,460.879,247.172,441.379"/>
	</g>
	<g>
		<polygon style="fill:#CCD0D2;" points="176.552,194.207 247.172,194.207 247.172,176.552 176.552,176.552 		"/>
		<polygon style="fill:#CCD0D2;" points="176.552,158.897 247.172,158.897 247.172,141.241 176.552,141.241 		"/>
		<polygon style="fill:#CCD0D2;" points="176.552,123.586 247.172,123.586 247.172,105.931 176.552,105.931 		"/>
	</g>
	<g>
		<polygon style="fill:#FFFFFF;" points="424.207,206.082 354.663,218.343 330.131,79.247 399.684,66.985 		"/>
		<path style="fill:#FFFFFF;" d="M462.529,423.419c-3.39-19.209-21.698-32.026-40.907-28.646
			c-19.2,3.39-32.027,21.707-28.637,40.907c3.381,19.209,21.698,32.026,40.898,28.646
			C453.093,460.936,465.919,442.628,462.529,423.419"/>
	</g>
	<g>
		<polygon style="fill:#CCD0D2;" points="350.056,192.259 346.993,174.877 416.537,162.624 419.609,179.997 		"/>
		<polygon style="fill:#CCD0D2;" points="343.926,157.482 340.863,140.101 410.407,127.848 413.479,145.221 		"/>
		<polygon style="fill:#CCD0D2;" points="337.797,122.716 334.725,105.334 404.278,93.073 407.341,110.445 		"/>
	</g>
</g>
<g>
</g>
<g>
</g>
<g>
</g>
<g>
</g>
<g>
</g>
<g>
</g>
<g>
</g>
<g>
</g>
<g>
</g>
<g>
</g>
<g>
</g>
<g>
</g>
<g>
</g>
<g>
</g>
<g>
</g>
</svg>
