<?xml version="1.0" encoding="iso-8859-1"?>
<!-- Generator: Adobe Illustrator 19.0.0, SVG Export Plug-In . SVG Version: 6.00 Build 0)  -->
<svg version="1.1" id="Capa_1" xmlns="http://www.w3.org/2000/svg" xmlns:xlink="http://www.w3.org/1999/xlink" x="0px" y="0px"
	 viewBox="0 0 511.2 511.2" style="enable-background:new 0 0 511.2 511.2;" xml:space="preserve">
<g>
	<polygon style="fill:#ADB3BA;" points="238.933,465.595 203.733,327.995 209.067,325.862 244.267,464.528 	"/>
	<polygon style="fill:#ADB3BA;" points="106.667,465.595 101.333,464.528 122.667,316.262 128,317.328 	"/>
	<polygon style="fill:#ADB3BA;" points="267.733,465.595 231.467,327.995 236.8,325.862 273.067,464.528 	"/>
	<polygon style="fill:#ADB3BA;" points="135.467,465.595 130.133,464.528 150.4,316.262 155.733,317.328 	"/>
</g>
<path style="fill:#66C6B9;" d="M100.267,311.995c0,1.067,19.2,16,52.267,22.4c33.067,6.4,115.2-6.4,130.133-17.067
	c14.933-10.667,0-66.133-11.733-75.733c-11.733-9.6-21.333-5.333-34.133-25.6c-11.733-20.267-88.533-35.2-112-22.4
	S69.333,253.328,100.267,311.995z"/>
<path style="fill:#E8EAE9;" d="M144,431.462c0,0,1.067-12.8,1.067-22.4c0-9.6,25.6-18.133,25.6-18.133s2.133,38.4,4.267,45.867
	s2.133,7.467,2.133,7.467S150.4,455.995,144,431.462z"/>
<path style="fill:#344A5E;" d="M144,427.195c0,0,2.133,8.533,10.667,11.733c8.533,2.133,18.133-7.467,19.2-9.6
	c0,0,2.133,14.933,9.6,20.267c7.467,5.333,18.133,18.133,18.133,18.133s-7.467,8.533-20.267,7.467
	c-12.8-1.067-30.933-12.8-34.133-18.133C144,451.728,138.667,446.395,144,427.195"/>
<path style="fill:#415A6B;" d="M250.667,463.462l-2.133,3.2v4.267l12.8,3.2v-2.133c0,0,6.4-1.067,11.733,3.2
	c5.333,4.267,10.667,8.533,18.133,8.533c6.4,0,14.933-1.067,16-5.333C309.333,475.195,268.8,463.462,250.667,463.462z"/>
<path style="fill:#344A5E;" d="M249.6,466.662c0,0-3.2-16,3.2-23.467c0,0-1.067,3.2,2.133,4.267c2.133,1.067,7.467-2.133,16-6.4
	c8.533-4.267,16,0,16,0s8.533,14.933,11.733,18.133c4.267,3.2,23.467,11.733,28.8,11.733c5.333,0,1.067,14.933-11.733,13.867
	c-12.8-1.067-30.933-4.267-38.4-10.667C268.8,467.728,249.6,466.662,249.6,466.662z"/>
<path style="fill:#CED6E0;" d="M494.933,496.528h-176c-5.333,0-9.6-2.133-12.8-6.4c-3.2-3.2-4.267-8.533-4.267-13.867l22.4-147.2
	l103.467,2.133L508.8,469.862c3.2,5.333,3.2,11.733,0,17.067C506.667,493.328,501.333,496.528,494.933,496.528z M328.533,334.395
	L307.2,477.328c0,3.2,0,7.467,3.2,9.6c2.133,3.2,5.333,4.267,9.6,4.267h176c4.267,0,8.533-2.133,10.667-6.4
	c2.133-4.267,2.133-8.533,0-11.733l-80-136.533L328.533,334.395z"/>
<ellipse style="fill:#344A5E;" cx="108.8" cy="191.462" rx="12.8" ry="19.2"/>
<path style="fill:#2A3F4F;" d="M104.533,302.395c0,0,17.067,23.467,27.733,25.6c0,0-6.4,17.067,0,40.533
	c6.4,23.467,12.8,46.933,12.8,46.933s8.533-1.067,14.933-2.133c6.4-1.067,17.067-6.4,17.067-13.867s0-26.667,0-39.467
	c0-12.8-1.067-20.267,1.067-25.6c2.133-4.267-1.067-8.533,8.533-10.667c9.6-2.133,42.667-2.133,42.667-2.133l46.933,6.4
	c0,0-9.6,60.8-10.667,67.2c0,0,4.267-1.067,11.733,3.2s19.2,7.467,19.2,7.467s17.067-35.2,20.267-45.867
	c3.2-10.667,16-43.733,18.133-54.4c3.2-10.667,3.2-28.8-16-36.267s-37.333-7.467-37.333-7.467L128,253.328L104.533,302.395z"/>
<g>
	<path style="fill:#FFD15C;" d="M153.6,108.262c0,0,3.2,9.6,4.267,12.8c1.067,3.2,5.333,25.6,5.333,25.6l25.6,5.333l7.467-17.067
		c0,0,4.267-2.133,5.333-11.733c1.067-9.6,1.067-18.133,1.067-25.6s-2.133-19.2-2.133-19.2S198.4,67.728,195.2,63.462
		s-44.8,5.333-46.933,13.867S152.533,105.062,153.6,108.262L153.6,108.262z"/>
	<path style="fill:#FFD15C;" d="M161.067,137.062c-1.067-6.4-2.133-12.8-3.2-14.933c-1.067-2.133-2.133-7.467-3.2-10.667
		c1.067,2.133,1.067,4.267,2.133,7.467C157.867,124.262,160,130.661,161.067,137.062z"/>
</g>
<path style="fill:#F7B64C;" d="M188.8,151.995l6.4-14.933c0,0-7.467,5.333-17.067,2.133s-20.267-16-20.267-16
	S169.6,144.528,188.8,151.995z"/>
<path style="fill:#8AD7F8;" d="M178.133,143.462h3.2l21.333-2.133l33.067,115.2c0,0-23.467,23.467-44.8,24.533
	S134.4,269.328,128,266.128c-5.333-3.2,25.6-125.867,25.6-125.867L178.133,143.462z"/>
<g>
	<path style="fill:#E8EAE9;" d="M181.333,156.262l3.2,3.2c0,0,2.133,7.467,3.2,9.6c0,2.133,18.133,125.867,18.133,125.867
		L195.2,309.862l-13.867-11.733c0,0-10.667-108.8-8.533-118.4c1.067-9.6,4.267-19.2,4.267-19.2L181.333,156.262z"/>
	<path style="fill:#E8EAE9;" d="M173.867,145.595l4.267-1.067h3.2l7.467,3.2c0,0-4.267,8.533-3.2,12.8
		c-3.2-1.067-5.333-1.067-8.533,1.067c0,0-2.133-9.6-5.333-11.733C167.467,147.728,173.867,145.595,173.867,145.595z"/>
</g>
<path style="fill:#344A5E;" d="M151.467,106.128c0,0-6.4,1.067-16,3.2c-9.6,2.133-29.867,4.267-29.867,4.267
	s5.333,8.533,4.267,21.333c0,13.867,7.467,25.6,7.467,34.133s-13.867,86.4-22.4,103.467S81.067,297.061,80,311.995
	c-2.133,14.933-6.4,37.333,0,41.6c6.4,4.267,14.933-16,26.667-33.067c11.733-17.067,44.8-81.067,48-99.2
	C157.867,202.128,151.467,106.128,151.467,106.128z"/>
<path style="fill:#ADB3BA;" d="M124.8,226.662l6.4,3.2c0,0,7.467,2.133,4.267-23.467c0,0-6.4,2.133-8.533,4.267
	C124.8,212.795,124.8,226.662,124.8,226.662z"/>
<g>
	<path style="fill:#415A6B;" d="M162.133,146.661v17.067c0,11.733-8.533,57.6-8.533,57.6s1.067-24.533-2.133-32
		c-2.133-7.467-14.933-37.333-14.933-37.333l8.533-5.333l-6.4-4.267l11.733-35.2c0,0,1.067,0,1.067,1.067v1.067l0,0
		c0,0,3.2,9.6,4.267,12.8C157.867,124.262,162.133,142.395,162.133,146.661z"/>
	<path style="fill:#415A6B;" d="M162.133,162.661v1.067c0,11.733-8.533,57.6-8.533,57.6s1.067-24.533-2.133-32
		c-2.133-7.467-14.933-37.333-14.933-37.333l8.533-5.333l-6.4-4.267l11.733-35.2c1.067,1.067,2.133,2.133,2.133,4.267
		c1.067,2.133,1.067,4.267,2.133,7.467c2.133,6.4,3.2,11.733,4.267,18.133l0,0C162.133,145.595,162.133,154.128,162.133,162.661z"/>
</g>
<g>
	<path style="fill:#FFD15C;" d="M129.067,209.595c0,0,8.533,1.067,8.533,0c0-2.133,1.067-3.2,3.2-5.333
		c2.133-1.067,4.267-1.067,6.4-1.067c3.2,0,9.6,0,10.667,2.133c2.133,2.133,0,5.333-3.2,4.267c-3.2,0-5.333,0-6.4,1.067
		s-1.067,1.067-1.067,1.067s7.467,2.133,10.667,1.067c3.2-1.067,9.6-1.067,12.8-1.067c3.2,1.067,6.4,2.133,5.333,4.267
		c0,0,2.133,1.067,1.067,3.2c-1.067,2.133-6.4,4.267-12.8,4.267c-7.467,0-18.133,2.133-24.533,1.067c-6.4,0-16-2.133-24.533-3.2
		c-8.533,0-8.533,0-8.533,0L129.067,209.595z"/>
	<path style="fill:#FFD15C;" d="M157.867,102.928c2.133,5.333,2.133,10.667,0,11.733c-3.2,1.067-6.4-2.133-9.6-7.467
		c-2.133-5.333-2.133-10.667,0-11.733C151.467,94.395,154.667,97.595,157.867,102.928z"/>
</g>
<path style="fill:#415A6B;" d="M280.533,202.128c0,7.467-2.133,12.8-2.133,12.8l-16,2.133c0,0-1.067-21.333-20.267-25.6
	c-1.067-7.467-2.133-13.867-2.133-18.133c0-17.067,13.867-52.267,13.867-52.267s6.4,4.267,5.333,11.733
	c-1.067,7.467,4.267,10.667,4.267,14.933s-1.067,5.333,0,9.6C265.6,160.528,281.6,194.662,280.533,202.128z"/>
<path style="fill:#344A5E;" d="M280.533,261.862c0,0-19.2,2.133-26.667,3.2c-8.533,1.067-12.8,1.067-16-2.133
	c-4.267-3.2-22.4-40.533-22.4-40.533s-6.4-29.867-7.467-57.6c0-18.133-4.267-38.4-6.4-50.133c0-3.2,0-6.4,0-9.6
	c4.267,1.067,16,4.267,24.533,6.4c10.667,3.2,28.8,7.467,28.8,7.467s-13.867,35.2-13.867,52.267s10.667,75.733,14.933,80
	C261.333,257.595,280.533,261.862,280.533,261.862z"/>
<path style="fill:#CED6E0;" d="M241.067,214.928c0,0-7.467-1.067-4.267-24.533c0,0,4.267-2.133,9.6,1.067
	c5.333,3.2,9.6,12.8,7.467,17.067C251.733,212.795,243.2,214.928,241.067,214.928z"/>
<path style="fill:#415A6B;" d="M228.267,250.128c-1.067-1.067-14.933-19.2-21.333-42.667c-4.267-16-7.467-50.133-9.6-72.533
	c1.067-2.133,2.133-4.267,3.2-9.6c0-4.267,1.067-7.467,1.067-11.733l14.933,26.667l-3.2,6.4l9.6,1.067c0,0-5.333,42.667-4.267,54.4
	C219.733,212.795,228.267,247.995,228.267,250.128z"/>
<g>
	<path style="fill:#FFD15C;" d="M241.067,189.328l-4.267,1.067c0,0-5.333,0-8.533-1.067c-3.2-1.067-9.6-4.267-12.8-2.133
		c-3.2,1.067-9.6,12.8-9.6,12.8l25.6,13.867c0,0,3.2-1.067,4.267-2.133c1.067-1.067,6.4,2.133,13.867,0
		c8.533-1.067,8.533-1.067,8.533-1.067s-4.267-10.667-6.4-14.933C249.6,191.462,244.267,190.395,241.067,189.328z"/>
	<path style="fill:#FFD15C;" d="M364.8,66.661l8.533,6.4v2.133L355.2,122.128c0,0-5.333-6.4-9.6-7.467
		c-4.267-1.067-11.733,6.4-17.067,5.333c-5.333-1.067-7.467-3.2-8.533-5.333c-1.067-3.2-9.6-3.2-5.333-7.467
		c0,0-3.2,1.067-3.2-2.133c0-3.2-3.2-4.267-3.2-4.267s-9.6,2.133-8.533-3.2c1.067-5.333,3.2-11.733,3.2-11.733
		s-1.067-1.067-3.2-2.133c-2.133-1.067-10.667-11.733-9.6-21.333c1.067-9.6,38.4-20.267,53.333-19.2
		C357.333,45.328,364.8,66.661,364.8,66.661z"/>
</g>
<path style="fill:#E8EAE9;" d="M324.267,388.795c0,0,10.667,25.6,20.267,30.933c9.6,5.333,12.8,10.667,12.8,10.667l-41.6,18.133
	c0,0,0-14.933-5.333-25.6c-5.333-11.733-18.133-23.467-18.133-23.467L324.267,388.795z"/>
<path style="fill:#344A5E;" d="M317.867,459.195c0,0-12.8,7.467-21.333,9.6s-18.133,5.333-18.133,11.733
	c0,6.4,10.667,9.6,21.333,9.6c10.667,0,28.8-3.2,34.133-9.6c5.333-6.4,13.867-12.8,13.867-12.8l4.267,4.267
	c0,0,21.333-10.667,23.467-17.067c3.2-6.4,1.067-6.4,1.067-6.4l-5.333-7.467L317.867,459.195z"/>
<path style="fill:#415A6B;" d="M313.6,441.061c0,0,6.4-6.4,18.133-6.4s22.4-8.533,22.4-8.533s8.533,2.133,17.067,13.867
	c0,0-13.867,6.4-22.4,12.8c-8.533,7.467-12.8,10.667-20.267,12.8c-8.533,3.2-44.8,4.267-50.133,14.933c0,0-1.067-4.267,8.533-8.533
	c9.6-5.333,20.267-8.533,22.4-13.867C312.533,450.662,313.6,441.061,313.6,441.061z"/>
<path style="fill:#344A5E;" d="M283.733,286.395c0,0-42.667,5.333-51.2,11.733c-8.533,6.4-9.6,19.2-7.467,26.667
	c2.133,6.4,71.467,87.467,77.867,90.667c0,0,5.333-7.467,13.867-12.8c8.533-5.333,10.667-12.8,10.667-12.8
	s-28.8-34.133-37.333-45.867s-11.733-12.8-11.733-12.8l42.667-22.4L283.733,286.395z"/>
<path style="fill:#ADB3BA;" d="M469.333,483.728H305.067c-4.267,0-8.533-2.133-11.733-5.333c-3.2-3.2-4.267-8.533-3.2-12.8
	l20.267-137.6l97.067,2.133L483.2,459.195c3.2,5.333,3.2,10.667,0,16C480,480.528,474.667,483.728,469.333,483.728z
	 M314.667,333.328L294.4,466.662c0,3.2,0,6.4,2.133,8.533c2.133,2.133,5.333,4.267,8.533,4.267h164.267
	c4.267,0,7.467-2.133,9.6-5.333c2.133-3.2,2.133-7.467,0-11.733l-74.667-126.933L314.667,333.328z"/>
<path style="fill:#415A6B;" d="M202.667,411.195c0,0,2.133,6.4,14.933,8.533c11.733,2.133,26.667,10.667,26.667,10.667
	s30.933-58.667,34.133-70.4c3.2-11.733,5.333-28.8,5.333-28.8s35.2-4.267,70.4-2.133c35.2,2.133,85.333-18.133,90.667-29.867
	c5.333-11.733,8.533-37.333,8.533-37.333L342.4,270.395c0,0-4.267,7.467-13.867,8.533c-10.667,1.067-53.333,2.133-62.933,6.4
	c-9.6,3.2-19.2,4.267-23.467,22.4C237.867,325.862,218.667,373.862,202.667,411.195z"/>
<path style="fill:#CED6E0;" d="M373.333,75.195c0,0-19.2,18.133-23.467,46.933l17.067,13.867L387.2,90.128L373.333,75.195z"/>
<path style="fill:#344A5E;" d="M452.267,237.328l-12.8,60.8c0,0-98.133-6.4-104.533-18.133s2.133-61.867,5.333-73.6
	c3.2-10.667,13.867-37.333,20.267-66.133c6.4-28.8,26.667-52.267,26.667-52.267l6.4,1.067c0,0,18.133,9.6,24.533,13.867
	c6.4,4.267,21.333,22.4,24.533,30.933C443.733,143.462,452.267,237.328,452.267,237.328z"/>
<path style="fill:#415A6B;" d="M381.867,80.528c0,0-7.467,4.267-13.867,26.667c-7.467,22.4-12.8,49.067-16,58.667
	c-3.2,9.6-11.733,40.533-11.733,40.533s14.933-37.333,19.2-52.267c3.2-14.933,10.667-50.133,34.133-65.067L381.867,80.528z"/>
<path style="fill:#66C6B9;" d="M297.6,333.328c0,0,13.867-11.733,23.467-24.533c9.6-12.8,38.4-50.133,65.067-60.8
	c26.667-10.667,99.2-25.6,99.2-25.6s-11.733,46.933-13.867,66.133c-2.133,19.2-14.933,52.267-53.333,55.467
	C379.733,346.128,297.6,333.328,297.6,333.328z"/>
<path style="fill:#415A6B;" d="M373.333,73.062c-3.2,3.2-16,5.333-19.2,1.067c-3.2-5.333-13.867-8.533-18.133-4.267
	c-4.267,5.333-1.067,12.8-1.067,12.8l-5.333,2.133c0,0-1.067-3.2-3.2-5.333c-2.133-3.2-9.6-4.267-9.6-8.533
	c0-4.267-4.267-11.733-10.667-12.8c-6.4-1.067-14.933,3.2-14.933,3.2s-7.467-2.133-5.333-8.533
	c2.133-6.4,17.067-30.933,36.267-37.333c19.2-4.267,40.533,9.6,45.867,21.333C372.267,48.528,373.333,73.062,373.333,73.062z"/>
<path style="fill:#F7B64C;" d="M338.133,116.795L338.133,116.795c3.2-1.067,5.333-3.2,7.467-2.133c1.067,0,2.133,1.067,3.2,1.067
	c3.2-13.867,1.067-29.867,1.067-29.867C349.867,98.661,338.133,116.795,338.133,116.795z"/>
<path style="fill:#F3F3F3;" d="M236.8,190.395c0,0,8.533-1.067,11.733,3.2c3.2,4.267,3.2,18.133-7.467,21.333h22.4
	c0,0,2.133-12.8-4.267-19.2C252.8,189.328,246.4,188.262,236.8,190.395z"/>
<path style="fill:#415A6B;" d="M265.6,165.862v35.2c-2.133,1.067-4.267,2.133-5.333,4.267c-3.2-5.333-7.467-12.8-17.067-14.933
	c-1.067-7.467-2.133-12.8-2.133-17.067c0-2.133,0-4.267,0-6.4H265.6V165.862z"/>
<path style="fill:#FFD15C;" d="M301.867,224.528c0,0-4.267-1.067-9.6-1.067c-5.333,0-9.6,2.133-13.867,0
	c-3.2-2.133-4.267-3.2-7.467-2.133c-2.133,1.067-3.2,2.133-4.267,2.133c-1.067,0-2.133,1.067-2.133,0
	c-1.067-1.067-3.2-2.133-3.2-3.2c0,0-2.133-2.133-1.067-3.2c0,0-1.067-2.133-1.067-3.2c0,0-4.267-1.067-2.133-5.333
	c2.133-4.267,7.467-6.4,9.6-8.533c3.2-2.133,5.333-3.2,7.467-2.133c3.2,1.067,12.8,6.4,14.933,6.4
	c2.133,1.067,30.933,1.067,30.933,1.067l-1.067,19.2H301.867z"/>
<path style="fill:#F3F3F3;" d="M314.667,202.128H304c0,0-4.267,17.067-2.133,27.733l19.2,3.2L314.667,202.128z"/>
<path style="fill:#415A6B;" d="M369.067,165.862c0,0-5.333-30.933,2.133-45.867s29.867-14.933,39.467-5.333
	c9.6,9.6,17.067,32,16,45.867s-9.6,27.733-9.6,38.4s-3.2,14.933-7.467,19.2c-3.2,4.267-9.6,12.8-13.867,14.933
	c-4.267,1.067-84.267,6.4-83.2,5.333c1.067-1.067-3.2-27.733-2.133-36.267c0,0,26.667-1.067,30.933-1.067
	c4.267,1.067,6.4,0,9.6-2.133c3.2-1.067,3.2-2.133,5.333-1.067c2.133,1.067,6.4,1.067,8.533,0c2.133-1.067,4.267-4.267,4.267-4.267
	s-3.2-13.867-1.067-17.067C370.133,173.328,369.067,165.862,369.067,165.862z"/>
<g>
	<path style="fill:#FFFFFF;" d="M198.4,144.528l-6.4,16l-10.667-17.067c11.733-3.2,17.067-9.6,17.067-9.6
		C198.4,137.062,198.4,140.262,198.4,144.528z"/>
	<path style="fill:#FFFFFF;" d="M178.133,143.462c0,0-4.267,3.2-6.4,7.467c-2.133,4.267-4.267,7.467-4.267,7.467l-5.333-10.667
		c-1.067-9.6-2.133-18.133-4.267-27.733C157.867,122.128,168.533,140.262,178.133,143.462z"/>
</g>
<path style="fill:#415A6B;" d="M152.533,106.128h2.133c0,0-4.267-6.4-2.133-10.667s-4.267-17.067,3.2-14.933
	c7.467,2.133,25.6-4.267,30.933-9.6c5.333-5.333,7.467-5.333,9.6-3.2c2.133,2.133,4.267,10.667,4.267,10.667
	s-2.133-8.533-4.267-13.867c-2.133-5.333,2.133-10.667-16-16s-34.133,2.133-39.467,16s1.067,27.733,5.333,32
	C149.333,99.728,152.533,106.128,152.533,106.128z"/>
<path style="fill:#F3F3F3;" d="M115.2,205.328l19.2,1.067c0,0-6.4,3.2-6.4,12.8c0,9.6,2.133,9.6,2.133,9.6l-32-5.333
	C99.2,224.528,113.067,205.328,115.2,205.328z"/>
<path style="fill:#415A6B;" d="M129.067,205.328c-11.733,5.333-16,9.6-18.133,22.4l-54.4-3.2c0,0,1.067-22.4,2.133-28.8
	S64,178.661,70.4,172.261c5.333-6.4,17.067-22.4,18.133-25.6c1.067-3.2,4.267-6.4,5.333-8.533c1.067-2.133,3.2-9.6,4.267-16
	c1.067-7.467,7.467-8.533,7.467-8.533s5.333,8.533,4.267,21.333c0,13.867,7.467,25.6,7.467,34.133c0,2.133-1.067,6.4-1.067,12.8l0,0
	l-8.533,19.2l3.2,1.067L129.067,205.328z"/>
<g>
	<rect x="150.4" y="241.595" style="fill:#F3705A;" width="17.067" height="217.6"/>
	<path style="fill:#F3705A;" d="M311.467,239.462h-304c-4.267,0-7.467-3.2-7.467-7.467l0,0c0-4.267,3.2-7.467,7.467-7.467h304
		c4.267,0,7.467,3.2,7.467,7.467l0,0C318.933,236.262,315.733,239.462,311.467,239.462z"/>
</g>
<path style="fill:#F05540;" d="M311.467,239.462c-99.2,7.467-200.533,6.4-304,0H311.467z"/>
<path style="fill:#F3705A;" d="M248.533,473.061h-179.2c0-7.467,6.4-13.867,13.867-13.867h151.467
	C242.133,459.195,248.533,465.595,248.533,473.061z"/>
<path style="fill:#E8EAE9;" d="M231.467,462.395l-21.333,7.467l-14.933-19.2c0,0,8.533-8.533,12.8-17.067
	c2.133-4.267,5.333-9.6,7.467-13.867h1.067c9.6,2.133,21.333,7.467,24.533,10.667C237.867,435.728,230.4,451.728,231.467,462.395z"
	/>
<path style="fill:#344A5E;" d="M145.067,477.328H137.6c0,0-3.2,4.267-2.133,5.333c1.067,1.067,23.467,9.6,38.4,12.8
	c13.867,3.2,33.067-2.133,36.267-5.333v5.333h21.333c3.2,0,5.333-2.133,5.333-5.333v-7.467l-7.467-5.333H145.067z"/>
<path style="fill:#415A6B;" d="M196.267,448.528c0,0,5.333,0,8.533,5.333c3.2,5.333,8.533,8.533,12.8,9.6
	c4.267,1.067,13.867-3.2,14.933-6.4c0,0,4.267,18.133,3.2,25.6c0,0-17.067,0-28.8,5.333c-12.8,4.267-17.067,7.467-30.933,4.267
	c-13.867-3.2-36.267-11.733-38.4-14.933c0,0,9.6-1.067,19.2-2.133s19.2-11.733,25.6-17.067
	C188.8,451.728,196.267,448.528,196.267,448.528z"/>
<path style="fill:#CED6E0;" d="M235.733,165.862H134.4c-3.2,0-5.333,2.133-5.333,5.333l7.467,53.333h96L240,171.195
	C241.067,169.062,237.867,165.862,235.733,165.862z"/>
<ellipse style="fill:#ADB3BA;" cx="185.6" cy="195.728" rx="5.333" ry="3.2"/>
<g>
</g>
<g>
</g>
<g>
</g>
<g>
</g>
<g>
</g>
<g>
</g>
<g>
</g>
<g>
</g>
<g>
</g>
<g>
</g>
<g>
</g>
<g>
</g>
<g>
</g>
<g>
</g>
<g>
</g>
</svg>
