<?xml version="1.0" encoding="iso-8859-1"?>
<!-- Generator: Adobe Illustrator 19.0.0, SVG Export Plug-In . SVG Version: 6.00 Build 0)  -->
<svg version="1.1" id="Capa_1" xmlns="http://www.w3.org/2000/svg" xmlns:xlink="http://www.w3.org/1999/xlink" x="0px" y="0px"
	 viewBox="0 0 512 512" style="enable-background:new 0 0 512 512;" xml:space="preserve">
<circle style="fill:#FF4F6F;" cx="256" cy="255.999" r="255.999"/>
<path style="fill:#474F70;" d="M450.337,24.87V422.64C403.39,477.341,333.737,512,255.997,512s-147.393-34.659-194.34-89.359V24.87
	c0-13.73,11.128-24.869,24.869-24.869h338.943C439.199,0.001,450.337,11.14,450.337,24.87z"/>
<path style="fill:#F7F7F7;" d="M430.753,85.461v357.605c-6.416,5.987-13.134,11.661-20.135,16.98
	c-42.956,32.601-96.527,51.952-154.613,51.952s-111.658-19.351-154.613-51.952c-7.001-5.319-13.719-10.992-20.135-16.98V85.461
	c0-8.192,6.635-14.827,14.827-14.827h319.843c0.899,0,1.776,0.084,2.623,0.24C425.486,72.107,430.753,78.168,430.753,85.461z"/>
<path style="fill:#323B5B;" d="M321.822,45.555h-131.65c-6.059,0-10.97-4.912-10.97-10.97l0,0c0-6.059,4.912-10.97,10.97-10.97
	h131.651c6.059,0,10.97,4.912,10.97,10.97l0,0C332.794,40.643,327.882,45.555,321.822,45.555z"/>
<path style="fill:#BFBFBF;" d="M318.992,163.08H124.053c-10.802,0-19.559,8.757-19.559,19.559v59.102
	c0,10.802,8.757,19.559,19.559,19.559h8.653v20.898l30.986-20.898H318.99c10.802,0,19.559-8.757,19.559-19.559v-59.102
	C338.55,171.837,329.794,163.08,318.992,163.08z"/>
<g>
	<path style="fill:#323B5B;" d="M163.073,214.683h-18.976v24.206c0,2.278-2.784,3.459-5.483,3.459c-2.784,0-5.483-1.181-5.483-3.459
		v-54.823c0-2.361,2.699-3.374,5.483-3.374c2.699,0,5.483,1.011,5.483,3.374v22.014h18.976v-22.014c0-2.361,2.699-3.374,5.483-3.374
		c2.699,0,5.483,1.011,5.483,3.374v54.823c0,2.278-2.784,3.459-5.483,3.459c-2.784,0-5.483-1.181-5.483-3.459V214.683z"/>
	<path style="fill:#323B5B;" d="M195.123,207.177h12.82c2.194,0,3.459,2.109,3.459,4.385c0,1.939-1.096,4.217-3.459,4.217h-12.82
		v16.952h23.869c2.193,0,3.459,2.278,3.459,4.892c0,2.278-1.096,4.724-3.459,4.724h-30.025c-2.446,0-4.809-1.181-4.809-3.459V184.15
		c0-2.277,2.363-3.458,4.809-3.458h30.025c2.363,0,3.459,2.446,3.459,4.723c0,2.614-1.265,4.892-3.459,4.892h-23.869V207.177z"/>
	<path style="fill:#323B5B;" d="M233.667,242.348c-2.446,0-4.809-1.181-4.809-3.459v-54.823c0-2.361,2.699-3.374,5.483-3.374
		c2.699,0,5.483,1.011,5.483,3.374v48.666h20.579c2.193,0,3.288,2.361,3.288,4.808c0,2.361-1.096,4.808-3.288,4.808H233.667z"/>
	<path style="fill:#323B5B;" d="M269.681,184.067c0-1.771,1.603-3.374,4.134-3.374h16.952c10.712,0,19.146,5.145,19.146,18.977
		v0.506c0,13.832-8.686,19.146-19.821,19.146h-9.446v19.568c0,2.278-2.784,3.459-5.483,3.459c-2.784,0-5.483-1.181-5.483-3.459
		L269.681,184.067L269.681,184.067z M280.646,190.308v20.411h9.446c5.483,0,8.857-3.121,8.857-9.7v-1.012
		c0-6.579-3.374-9.7-8.857-9.7h-9.446V190.308z"/>
</g>
<path style="fill:#55CEED;" d="M193.451,303.769H388.39c10.802,0,19.559,8.757,19.559,19.559v59.102
	c0,10.802-8.757,19.559-19.559,19.559h-8.653v20.898l-30.986-20.898h-155.3c-10.802,0-19.559-8.757-19.559-19.559v-59.102
	C173.892,312.526,182.649,303.769,193.451,303.769z"/>
<path style="fill:#C2C2C2;" d="M430.753,85.461v47.522H81.256V85.461c0-8.192,6.635-14.827,14.827-14.827h319.843
	c0.899,0,1.776,0.084,2.623,0.24C425.486,72.107,430.753,78.168,430.753,85.461z"/>
<g>
	<path style="fill:#323B5B;" d="M274.806,379.639c0,3.214-2.767,6.071-5.981,6.071c-3.482,0-6.071-2.857-6.071-6.071
		c0-3.303,2.589-6.071,6.071-6.071C272.039,373.569,274.806,376.336,274.806,379.639z"/>
	<path style="fill:#323B5B;" d="M296.946,379.639c0,3.214-2.767,6.071-5.982,6.071c-3.481,0-6.07-2.857-6.07-6.071
		c0-3.303,2.589-6.071,6.07-6.071C294.178,373.569,296.946,376.336,296.946,379.639z"/>
	<path style="fill:#323B5B;" d="M319.086,379.639c0,3.214-2.767,6.071-5.981,6.071c-3.482,0-6.071-2.857-6.071-6.071
		c0-3.303,2.589-6.071,6.071-6.071C316.319,373.569,319.086,376.336,319.086,379.639z"/>
</g>
<g>
</g>
<g>
</g>
<g>
</g>
<g>
</g>
<g>
</g>
<g>
</g>
<g>
</g>
<g>
</g>
<g>
</g>
<g>
</g>
<g>
</g>
<g>
</g>
<g>
</g>
<g>
</g>
<g>
</g>
</svg>
