<?xml version="1.0" encoding="iso-8859-1"?>
<!-- Generator: Adobe Illustrator 19.0.0, SVG Export Plug-In . SVG Version: 6.00 Build 0)  -->
<svg version="1.1" id="Layer_1" xmlns="http://www.w3.org/2000/svg" xmlns:xlink="http://www.w3.org/1999/xlink" x="0px" y="0px"
	 viewBox="0 0 512 512" style="enable-background:new 0 0 512 512;" xml:space="preserve">
<circle style="fill:#0575A5;" cx="256" cy="256" r="256"/>
<path style="fill:#025E90;" d="M509.084,294.705L372.106,157.727l-0.038-0.036h-54.013l-23.368-23.37h-77.384v43.702h-77.389v81.009
	h-4.754c-1.825,0-3.653,0.691-5.043,2.086c-1.426,1.382-2.122,3.218-2.122,5.043v104.335c0,1.869,0.694,3.694,2.122,5.084
	l136.159,136.159C389.855,506.852,490.923,414.415,509.084,294.705z"/>
<g>
	<g>
		<polygon style="fill:#34495E;" points="217.295,454.438 139.901,454.426 139.901,178.017 217.295,178.03 		"/>
		<path style="fill:#FFFFFF;" d="M198.874,410.952c-0.005,11.187-9.088,20.268-20.268,20.283c-11.2,0-20.275-9.096-20.275-20.283
			c0.005-11.195,9.073-20.27,20.275-20.27C189.793,390.682,198.861,399.757,198.874,410.952z"/>
		<path style="fill:#283A4D;" d="M195.187,410.952c0.008,9.165-7.421,16.594-16.581,16.573c-9.165,0.023-16.589-7.409-16.594-16.573
			c0.005-9.16,7.429-16.576,16.586-16.589C187.748,394.378,195.187,401.792,195.187,410.952z"/>
		<path style="fill:#FFFFFF;" d="M204.401,363.789c0,2.025-1.656,3.686-3.681,3.686h-44.237c-2.022,0-3.674-1.661-3.674-3.686
			l-0.008-164.621c0-2.03,1.651-3.681,3.681-3.681h44.224c2.028,0,3.694,1.651,3.694,3.686V363.789z"/>
		<g>
			<polygon style="fill:#E1EFFA;" points="197.955,251.594 159.25,251.602 159.25,249.024 197.939,249.024 			"/>
			<polygon style="fill:#E1EFFA;" points="197.939,267.082 159.25,267.082 159.25,264.504 197.955,264.504 			"/>
			<rect x="159.258" y="279.987" style="fill:#E1EFFA;" width="38.707" height="2.586"/>
			<rect x="159.258" y="295.475" style="fill:#E1EFFA;" width="38.707" height="2.56"/>
			<rect x="159.258" y="310.938" style="fill:#E1EFFA;" width="38.707" height="2.586"/>
			<rect x="159.258" y="326.4" style="fill:#E1EFFA;" width="38.707" height="2.586"/>
		</g>
		<g>
			<rect x="159.258" y="205.158" style="fill:#E1EFFA;" width="38.707" height="30.1"/>
			<rect x="159.258" y="342.758" style="fill:#E1EFFA;" width="38.707" height="15.058"/>
		</g>
		<rect x="217.293" y="134.323" style="fill:#FF8E31;" width="77.414" height="276.403"/>
		<path style="fill:#FFFFFF;" d="M276.27,367.247c0,11.2-9.068,20.267-20.278,20.267c-11.187,0-20.268-9.068-20.268-20.267
			c0-11.203,9.08-20.283,20.268-20.283C267.203,346.964,276.27,356.045,276.27,367.247z"/>
		<path style="fill:#283A4D;" d="M272.576,367.247c0,9.149-7.416,16.581-16.584,16.581c-9.152,0-16.581-7.429-16.581-16.581
			c0-9.165,7.429-16.589,16.581-16.589C265.157,350.659,272.576,358.083,272.576,367.247z"/>
		<path style="fill:#FFFFFF;" d="M281.802,320.079c0,2.015-1.664,3.692-3.707,3.692h-44.211c-2.022,0-3.681-1.677-3.681-3.692
			V155.469c0-2.03,1.656-3.694,3.681-3.694h44.211c2.043,0,3.707,1.664,3.707,3.694V320.079L281.802,320.079z"/>
		<g>
			<rect x="236.646" y="205.312" style="fill:#E1EFFA;" width="38.682" height="2.586"/>
			<rect x="236.646" y="220.8" style="fill:#E1EFFA;" width="38.682" height="2.56"/>
			<rect x="236.646" y="236.262" style="fill:#E1EFFA;" width="38.682" height="2.596"/>
			<rect x="236.646" y="251.725" style="fill:#E1EFFA;" width="38.682" height="2.586"/>
			<rect x="236.646" y="267.213" style="fill:#E1EFFA;" width="38.682" height="2.56"/>
			<rect x="236.646" y="282.701" style="fill:#E1EFFA;" width="38.682" height="2.586"/>
		</g>
		<g>
			<rect x="236.646" y="161.434" style="fill:#E1EFFA;" width="38.682" height="30.108"/>
			<rect x="236.646" y="299.034" style="fill:#E1EFFA;" width="38.682" height="15.05"/>
		</g>
		<rect x="294.707" y="157.696" style="fill:#C1D354;" width="77.389" height="276.403"/>
		<path style="fill:#FFFFFF;" d="M353.661,390.633c0,11.19-9.073,20.262-20.268,20.262c-11.187,0-20.27-9.073-20.27-20.262
			c0-11.2,9.083-20.283,20.27-20.283C344.589,370.35,353.661,379.433,353.661,390.633z"/>
		<path style="fill:#283A4D;" d="M349.978,390.633c0,9.144-7.424,16.576-16.584,16.576c-9.16,0-16.589-7.429-16.589-16.576
			c0-9.165,7.432-16.586,16.589-16.586S349.978,381.468,349.978,390.633z"/>
		<path style="fill:#FFFFFF;" d="M359.191,343.452c0,2.03-1.651,3.694-3.681,3.694h-44.224c-2.028,0-3.684-1.664-3.684-3.694
			V178.839c0-2.022,1.656-3.676,3.684-3.676h44.224c2.03,0,3.681,1.654,3.681,3.676V343.452z"/>
		<g>
			<rect x="314.035" y="228.685" style="fill:#E1EFFA;" width="38.707" height="2.586"/>
			<rect x="314.035" y="244.173" style="fill:#E1EFFA;" width="38.707" height="2.586"/>
			<rect x="314.035" y="259.635" style="fill:#E1EFFA;" width="38.707" height="2.593"/>
			<rect x="314.035" y="275.123" style="fill:#E1EFFA;" width="38.707" height="2.586"/>
			<rect x="314.035" y="290.611" style="fill:#E1EFFA;" width="38.707" height="2.56"/>
			<rect x="314.035" y="306.074" style="fill:#E1EFFA;" width="38.707" height="2.586"/>
		</g>
		<g>
			<rect x="314.035" y="184.832" style="fill:#E1EFFA;" width="38.707" height="30.098"/>
			<rect x="314.035" y="322.432" style="fill:#E1EFFA;" width="38.707" height="15.043"/>
		</g>
	</g>
</g>
<path style="fill:#E1EFFA;" d="M381.919,261.12c-1.418-1.413-3.246-2.102-5.069-2.102h-56.627c-1.498,0-3,0.458-4.293,1.416
	c-1.285,0.955-2.14,2.26-2.57,3.692l-4.262,14.188H202.906l-4.262-14.188c-0.415-1.434-1.293-2.737-2.57-3.692
	c-1.285-0.957-2.788-1.416-4.27-1.416h-56.635c-1.833,0-3.666,0.691-5.064,2.102c-1.413,1.39-2.107,3.218-2.107,5.059v104.343
	c0,1.833,0.694,3.658,2.107,5.069c1.398,1.39,3.231,2.092,5.064,2.092h241.679c1.825,0,3.653-0.701,5.069-2.092
	c1.377-1.413,2.081-3.238,2.081-5.069V266.179C383.997,264.338,383.296,262.51,381.919,261.12z"/>
<path style="fill:#34495E;" d="M307.197,329.646c0,2.481-2.022,4.495-4.488,4.495h-93.427c-2.473,0-4.488-2.015-4.488-4.495v-3.308
	c0-2.473,2.015-4.483,4.488-4.483h93.427c2.465,0,4.488,2.01,4.488,4.483V329.646z"/>
<g>
</g>
<g>
</g>
<g>
</g>
<g>
</g>
<g>
</g>
<g>
</g>
<g>
</g>
<g>
</g>
<g>
</g>
<g>
</g>
<g>
</g>
<g>
</g>
<g>
</g>
<g>
</g>
<g>
</g>
</svg>
