<?xml version="1.0" encoding="iso-8859-1"?>
<!-- Generator: Adobe Illustrator 19.0.0, SVG Export Plug-In . SVG Version: 6.00 Build 0)  -->
<svg version="1.1" id="Layer_1" xmlns="http://www.w3.org/2000/svg" xmlns:xlink="http://www.w3.org/1999/xlink" x="0px" y="0px"
	 viewBox="0 0 512 512" style="enable-background:new 0 0 512 512;" xml:space="preserve">
<circle style="fill:#0575A5;" cx="256" cy="256" r="256"/>
<path style="fill:#025E90;" d="M506.872,307.164L382.659,182.956v-0.044l-2.045-2.058c-1.874-1.272-4.654-1.869-8.3-1.869
	c-7.283,0-17.761,2.317-30.5,6.538l-0.015-0.013l-75.036-75.036c-0.1-0.125-0.205-0.22-0.31-0.32l-0.046-0.031
	c-0.087-0.092-0.179-0.187-0.269-0.233c-0.179-0.092-0.371-0.136-0.55-0.136c-5.389,0-8.428,43.156-9.748,89.219l-0.013-0.01
	c-0.044,1.825-0.084,3.694-0.133,5.517c-2.253,0.015-4.46,0.2-6.636,0.492c-0.724,0.095-1.418,0.259-2.135,0.387
	c-1.446,0.259-2.872,0.543-4.265,0.919c-0.814,0.218-1.608,0.481-2.409,0.737c-1.208,0.387-2.388,0.806-3.546,1.285
	c-0.942,0.374-1.848,0.778-2.747,1.208c-0.366,0.177-0.75,0.307-1.116,0.492c-1.18,0.545-2.368,1.229-3.505,1.915
	c0.317-0.182,0.632-0.41,0.955-0.589c-39.629-19.93-73.741-32.338-90.568-32.338c-5.386,0-8.806,1.324-10.358,3.927
	c-3.597,6.246,5.752,19.151,24.174,35.341c-1.644,2.099-2.598,4.744-2.598,7.621c0,0.788,0.092,1.559,0.23,2.317
	c0.056,0.276,0.141,0.548,0.212,0.829c0.113,0.443,0.246,0.886,0.399,1.313c0.125,0.325,0.266,0.65,0.415,0.968
	c0.154,0.323,0.33,0.63,0.512,0.934c0.21,0.358,0.415,0.719,0.66,1.057c0.013,0.018,0.02,0.038,0.036,0.059l0.056,0.064
	c0.765,1.024,1.672,1.93,2.696,2.685l0.028,0.031l31.281,31.283l0.013,0.008c-39.78,27.999-63.503,52.242-58.117,61.652
	c0.182,0.315,0.415,0.589,0.64,0.868c0.274,0.32,0.548,0.591,0.87,0.822l176.133,176.136
	C407.414,486.605,486.513,407.552,506.872,307.164z"/>
<path style="fill:#FF8E31;" d="M307.5,255.992c0,28.431-23.06,51.492-51.5,51.492c-28.444,0-51.494-23.06-51.494-51.492
	c0-28.444,23.05-51.5,51.494-51.5C284.439,204.493,307.5,227.548,307.5,255.992z"/>
<path style="fill:#FFCD59;" d="M246.871,223.222c5.064,5.066,3.876,14.464-2.647,20.997c-6.525,6.525-15.921,7.703-20.984,2.637
	c-5.071-5.071-3.884-14.461,2.639-20.984C232.402,219.343,241.807,218.153,246.871,223.222z"/>
<g>
	<path style="fill:#FFFFFF;" d="M265.587,400.704c-3.287-1.121-6.948-37.612-8.415-93.24c-0.415-15.734-0.612-32.991-0.612-51.466
		s0.197-35.776,0.612-51.515c1.467-55.675,5.128-92.224,8.415-93.181c3.466,1.011,7.171,38.93,8.54,96.435
		c0.502,0.197,1.004,0.407,1.516,0.607c-1.165-49.388-4.214-98.565-10.056-98.565c-5.632,0-8.668,46.641-9.889,94.707
		c-0.456,17.761-0.66,35.679-0.66,51.515c0,15.841,0.205,33.761,0.66,51.466c1.224,48.069,4.257,94.766,9.889,94.766
		c5.842,0,8.891-49.283,10.056-98.668c-0.512,0.253-1.014,0.458-1.516,0.607C272.758,361.62,269.056,399.588,265.587,400.704z"/>
	<path style="fill:#FFFFFF;" d="M307.523,255.852V256c0,0.614,0,1.224-0.056,1.774c47.613,31.419,79.386,61.015,73.859,70.554
		c-1.219,2.081-4.27,3.146-9.037,3.146c-16.548,0-50.048-12.132-89.129-31.775c-12.831-6.4-26.281-13.647-39.936-21.514
		c-13.665-7.921-26.701-15.941-38.682-23.905c-47.616-31.47-79.383-61.066-73.848-70.602c1.208-2.076,4.262-3.146,9.024-3.146
		c16.553,0,49.943,12.132,89.032,31.78c0.507-0.358,1.011-0.673,1.518-0.968c-39.631-19.953-73.743-32.33-90.55-32.33
		c-5.379,0-8.827,1.313-10.35,3.909c-6.139,10.662,25.277,40.502,75.118,73.236c11.73,7.662,24.463,15.48,37.96,23.296
		c13.407,7.764,26.555,14.876,39.191,21.166c39.69,20.004,73.792,32.387,90.647,32.387c5.384,0,8.827-1.329,10.353-3.907
		C388.769,318.428,357.358,288.586,307.523,255.852z"/>
	<path style="fill:#FFFFFF;" d="M382.635,182.917c-1.526-2.596-4.969-3.909-10.353-3.909c-16.855,0-50.906,12.378-90.55,32.33
		c0.512,0.294,1.014,0.612,1.533,0.968c39.03-19.645,72.474-31.78,89.016-31.78c4.767,0,7.823,1.07,9.037,3.146
		c5.525,9.539-26.245,39.132-73.856,70.554c-11.978,7.964-25.014,16.033-38.674,23.903c-13.647,7.864-27.103,15.122-39.99,21.571
		c-39.091,19.64-72.53,31.77-89.083,31.77c-4.762,0-7.816-1.065-9.024-3.146c-5.535-9.541,26.232-39.13,73.841-70.551
		c-0.051-0.556-0.051-1.165-0.051-1.777v-0.148c-49.843,32.737-81.257,62.574-75.118,73.239c1.523,2.588,4.972,3.909,10.35,3.909
		c16.855,0,50.967-12.383,90.655-32.387c12.636-6.292,25.782-13.394,39.183-21.166c13.496-7.816,26.245-15.631,37.967-23.296
		C357.358,223.419,388.769,193.58,382.635,182.917z"/>
</g>
<path style="fill:#283A4D;" d="M378.749,210.161c0,6.991-5.676,12.692-12.677,12.692c-6.996,0-12.682-5.701-12.682-12.692
	c0-7.022,5.686-12.685,12.682-12.685C373.074,197.476,378.749,203.139,378.749,210.161z"/>
<path style="fill:#768EA6;" d="M365.486,202.772c1.516,1.508,1.226,4.27-0.655,6.147c-1.879,1.882-4.641,2.184-6.159,0.663
	c-1.523-1.521-1.221-4.285,0.666-6.167C361.216,201.536,363.96,201.244,365.486,202.772z"/>
<path style="fill:#283A4D;" d="M176.31,225.892c0,7.002-5.688,12.692-12.685,12.692c-7.017,0-12.692-5.693-12.692-12.692
	c0-7.014,5.676-12.677,12.692-12.677C170.619,213.215,176.31,218.88,176.31,225.892z"/>
<path style="fill:#768EA6;" d="M163.041,218.504c1.516,1.51,1.216,4.28-0.676,6.152c-1.866,1.889-4.636,2.173-6.152,0.666
	c-1.51-1.531-1.216-4.283,0.668-6.167C158.758,217.28,161.51,216.986,163.041,218.504z"/>
<path style="fill:#283A4D;" d="M270.833,350.131c0,6.994-5.699,12.685-12.69,12.685c-7.002,0-12.692-5.691-12.692-12.685
	c0-7.02,5.688-12.685,12.692-12.685C265.134,337.441,270.833,343.104,270.833,350.131z"/>
<path style="fill:#768EA6;" d="M257.559,342.74c1.516,1.505,1.216,4.273-0.666,6.147c-1.869,1.882-4.636,2.179-6.152,0.668
	c-1.518-1.531-1.224-4.288,0.668-6.17C253.276,341.504,256.036,341.215,257.559,342.74z"/>
<g>
</g>
<g>
</g>
<g>
</g>
<g>
</g>
<g>
</g>
<g>
</g>
<g>
</g>
<g>
</g>
<g>
</g>
<g>
</g>
<g>
</g>
<g>
</g>
<g>
</g>
<g>
</g>
<g>
</g>
</svg>
