<?xml version="1.0" encoding="iso-8859-1"?>
<!-- Generator: Adobe Illustrator 19.0.0, SVG Export Plug-In . SVG Version: 6.00 Build 0)  -->
<svg version="1.1" id="Layer_1" xmlns="http://www.w3.org/2000/svg" xmlns:xlink="http://www.w3.org/1999/xlink" x="0px" y="0px"
	 viewBox="0 0 512 512" style="enable-background:new 0 0 512 512;" xml:space="preserve">
<circle style="fill:#34495E;" cx="256" cy="256" r="256"/>
<path style="fill:#203549;" d="M393.139,154.624H118.853v202.752l154.01,154.007c127.933-8.328,230.19-110.574,238.52-238.513
	L393.139,154.624z"/>
<rect x="118.861" y="184.499" style="fill:#CEE2F2;" width="274.278" height="172.877"/>
<rect x="132.9" y="198.784" style="fill:#FFFFFF;" width="246.195" height="144.563"/>
<rect x="118.861" y="154.624" style="fill:#0575A5;" width="274.278" height="30.124"/>
<g>
	<path style="fill:#FFFFFF;" d="M379.072,169.664c0,2.363-1.887,4.252-4.206,4.252H216.824c-2.365,0-4.262-1.889-4.262-4.252
		c0-2.322,1.897-4.211,4.262-4.211h158.042C377.185,165.453,379.072,167.345,379.072,169.664z"/>
	<path style="fill:#FFFFFF;" d="M154.488,169.687c0,2.332-1.897,4.234-4.234,4.234c-2.337,0-4.227-1.905-4.227-4.234
		c0-2.337,1.889-4.224,4.227-4.224C152.591,165.463,154.488,167.35,154.488,169.687z"/>
	<path style="fill:#FFFFFF;" d="M177.777,169.687c0,2.332-1.889,4.234-4.221,4.234c-2.345,0-4.234-1.905-4.234-4.234
		c0-2.337,1.889-4.224,4.234-4.224C175.887,165.46,177.777,167.35,177.777,169.687z"/>
	<path style="fill:#FFFFFF;" d="M201.073,169.687c0,2.332-1.882,4.234-4.221,4.234s-4.227-1.905-4.227-4.234
		c0-2.337,1.889-4.224,4.227-4.224C199.188,165.463,201.073,167.35,201.073,169.687z"/>
</g>
<g>
	<path style="fill:#FF8E31;" d="M268.096,292.815c-2.732-6.661-10.332-9.853-17.019-7.119c-6.643,2.719-9.83,10.322-7.107,16.988
		c2.724,6.659,10.324,9.841,16.968,7.122C267.63,307.08,270.82,299.471,268.096,292.815z M251.21,299.725
		c-1.096-2.673,0.182-5.711,2.824-6.797c2.675-1.085,5.716,0.184,6.812,2.862c1.091,2.657-0.187,5.696-2.857,6.779
		C255.332,303.654,252.291,302.387,251.21,299.725z"/>
	<polygon style="fill:#FF8E31;" points="299.052,282.417 261.54,289.262 265.917,299.983 	"/>
	<path style="fill:#FF8E31;" d="M189.701,321.395l-8.609,9.851l6.973,12.096h33.943c-13.914-10.381-22.958-26.911-22.958-45.588
		c0-31.427,25.48-56.909,56.986-56.909c31.427,0,56.906,25.482,56.906,56.909c0,18.678-9.037,35.208-22.943,45.588h33.935
		l6.968-12.096l-8.609-9.851c1.242-3.517,2.245-7.196,2.913-10.988l12.398-4.219v-16.878l-12.398-4.219
		c-0.668-3.779-1.669-7.429-2.913-10.985l8.609-9.846l-8.435-14.602l-12.867,2.514c-1.27-1.441-2.542-2.847-3.848-4.157
		c-1.341-1.341-2.752-2.642-4.188-3.884l2.542-12.826l-14.6-8.44l-9.882,8.607c-3.517-1.272-7.171-2.248-10.947-2.947l-4.221-12.36
		h-16.911l-4.219,12.36c-3.786,0.699-7.437,1.674-10.985,2.947l-9.846-8.607l-14.607,8.44l2.55,12.826
		c-1.441,1.242-2.88,2.542-4.186,3.884c-1.377,1.341-2.675,2.78-3.919,4.257l0.036-0.1l-12.833-2.514l-8.44,14.602l8.609,9.846
		c-1.236,3.556-2.24,7.235-2.941,10.985l-12.36,4.219v16.878l12.36,4.219C187.461,314.199,188.465,317.878,189.701,321.395z"/>
</g>
<g>
</g>
<g>
</g>
<g>
</g>
<g>
</g>
<g>
</g>
<g>
</g>
<g>
</g>
<g>
</g>
<g>
</g>
<g>
</g>
<g>
</g>
<g>
</g>
<g>
</g>
<g>
</g>
<g>
</g>
</svg>
