<?xml version="1.0" encoding="iso-8859-1"?>
<!-- Generator: Adobe Illustrator 19.0.0, SVG Export Plug-In . SVG Version: 6.00 Build 0)  -->
<svg version="1.1" id="Layer_1" xmlns="http://www.w3.org/2000/svg" xmlns:xlink="http://www.w3.org/1999/xlink" x="0px" y="0px"
	 viewBox="0 0 512.003 512.003" style="enable-background:new 0 0 512.003 512.003;" xml:space="preserve">
<circle style="fill:#0575A5;" cx="256.001" cy="256" r="256"/>
<path style="fill:#025E90;" d="M502.619,324.623L396.922,218.941c-0.261-0.32-0.579-0.625-0.893-0.899l-104.924-88.072
	c-3.633-3.049-9.055-2.557-12.06,1.07l-19.715,23.488l-56.428-20.529c-4.398-1.608-9.37,0.673-10.985,5.112l-10.486,28.823h-60.017
	c-4.71,0-8.561,3.855-8.561,8.558v196.943c0,1.656,0.494,3.231,1.344,4.531l2.778,2.78L248.019,511.8
	c2.657,0.082,5.307,0.202,7.977,0.202C373.603,512,472.616,432.668,502.619,324.623z"/>
<path style="fill:#B8D1E6;" d="M270.524,380.961c-3.034,3.617-8.456,4.088-12.063,1.06L153.507,293.96
	c-3.607-3.036-4.081-8.456-1.052-12.065l126.589-150.861c3.028-3.617,8.456-4.088,12.065-1.06l104.947,88.059
	c3.61,3.039,4.088,8.461,1.055,12.073L270.524,380.961z"/>
<path style="fill:#E1EFFA;" d="M269.436,376.904c-1.615,4.431-6.554,6.735-10.975,5.12l-128.742-46.866
	c-4.426-1.6-6.728-6.538-5.12-10.97l67.359-185.065c1.608-4.421,6.548-6.728,10.975-5.112l128.745,46.853
	c4.426,1.608,6.728,6.546,5.12,10.982L269.436,376.904z"/>
<path style="fill:#FFFFFF;" d="M267.022,373.455c0,4.713-3.85,8.568-8.561,8.568H121.455c-4.708,0-8.563-3.855-8.563-8.568V176.515
	c0-4.703,3.855-8.561,8.563-8.561h137.006c4.71,0,8.561,3.858,8.561,8.561V373.455z"/>
<g>
	<path style="fill:#FF8E31;" d="M212.146,258.634c-7.475-9.7-22.188-3.983-22.188,5.885c0-9.866-14.715-15.583-22.188-5.885
		c-7.734,10.035-0.113,27.612,22.188,37.719C212.259,286.246,219.872,268.669,212.146,258.634z"/>
	<path style="fill:#FF8E31;" d="M142.148,209.805c-2.547-3.313-7.562-1.357-7.562,2.012c0-3.366-5.018-5.325-7.565-2.012
		c-2.642,3.42-0.038,9.413,7.565,12.851C142.186,219.218,144.785,213.225,142.148,209.805z"/>
</g>
<path style="fill:#5D6D7E;" d="M140.604,199.314l-1.58-3.986h-8.883l-1.58,3.986h-2.54l7.199-17.853h2.757l7.171,17.853H140.604z
	 M134.586,183.744l-3.776,9.633h7.575L134.586,183.744z"/>
<path style="fill:#FF8E31;" d="M237.764,340.173c2.55,3.308,7.565,1.354,7.565-2.002c0,3.359,5.015,5.309,7.565,2.002
	c2.642-3.42,0.044-9.413-7.565-12.854C237.725,330.76,235.13,336.753,237.764,340.173z"/>
<path style="fill:#5D6D7E;" d="M239.307,350.666l1.58,3.983h8.881l1.58-3.983h2.54l-7.196,17.846h-2.757l-7.171-17.846H239.307z
	 M245.329,366.228l3.771-9.62h-7.572L245.329,366.228z"/>
<g>
</g>
<g>
</g>
<g>
</g>
<g>
</g>
<g>
</g>
<g>
</g>
<g>
</g>
<g>
</g>
<g>
</g>
<g>
</g>
<g>
</g>
<g>
</g>
<g>
</g>
<g>
</g>
<g>
</g>
</svg>
