<?xml version="1.0" encoding="iso-8859-1"?>
<!-- Generator: Adobe Illustrator 19.0.0, SVG Export Plug-In . SVG Version: 6.00 Build 0)  -->
<svg version="1.1" id="Layer_1" xmlns="http://www.w3.org/2000/svg" xmlns:xlink="http://www.w3.org/1999/xlink" x="0px" y="0px"
	 viewBox="0 0 512 512" style="enable-background:new 0 0 512 512;" xml:space="preserve">
<circle style="fill:#34495E;" cx="256" cy="256" r="256"/>
<g>
	<path style="fill:#203549;" d="M456.778,414.723l-183.255-183.26l-15.946-9.213l-10.711,9.331l-16.645-16.648v0.008h-18.47
		l-4.608,13.491c-4.134,0.765-8.118,1.83-11.996,3.215l-10.752-9.395l-15.946,9.213l2.78,14.008
		c-1.574,1.357-3.146,2.778-4.572,4.247c-1.498,1.459-2.926,3.034-4.278,4.641l0.036-0.108l-14.003-2.742l-9.219,15.941
		l9.395,10.752c-1.352,3.878-2.447,7.9-3.215,12.001l-13.494,4.608v18.427l2.813,0.963l13.117,13.112
		c0.264,0.842,0.492,1.7,0.783,2.527l-9.395,10.752l9.219,15.977l151.58,151.588C363.256,497.188,418.534,463.035,456.778,414.723z"
		/>
	<path style="fill:#203549;" d="M368.604,144.276l-13.896-13.934l-11.082-6.4l-7.437,6.497l-11.579-11.581v0.003h-12.8l-3.218,9.395
		c-2.854,0.512-5.632,1.247-8.34,2.235l-7.457-6.548l-11.082,6.4l1.902,9.728h0.069c-1.129,0.916-2.189,1.938-3.218,2.964
		c-1.06,1.021-2.045,2.084-2.962,3.22v-0.074l-9.728-1.905l-6.397,11.08l6.546,7.468c-0.988,2.703-1.72,5.486-2.232,8.335
		l-9.398,3.22v12.8l11.579,11.576l-6.495,7.437l6.397,11.082l192.717,192.714c26.67-35.361,44.337-77.867,49.715-124.127
		L368.604,144.276z"/>
</g>
<path style="fill:#FF8E31;" d="M380.122,187.172v-12.805l-9.4-3.205v0.013c-0.52-2.872-1.267-5.658-2.225-8.343l6.528-7.473
	l-6.403-11.092l-9.738,1.923l0.033,0.056c-0.947-1.116-1.94-2.186-2.967-3.215c-1.032-1.032-2.107-2.022-3.22-2.972l0.054,0.033
	l1.923-9.738l-11.09-6.408l-7.48,6.536c-2.688-0.955-5.468-1.708-8.333-2.235h0.008l-3.203-9.388h-12.815l-3.2,9.388h0.008
	c-2.865,0.527-5.652,1.28-8.343,2.235l-7.473-6.536l-11.09,6.408l1.925,9.738l0.054-0.033c-1.116,0.95-2.189,1.938-3.223,2.972
	c-1.032,1.029-2.02,2.099-2.964,3.215l0.036-0.056l-9.743-1.923l-6.403,11.095l6.531,7.468c-0.957,2.685-1.705,5.471-2.227,8.34
	v-0.01l-9.398,3.205v12.81l9.398,3.203v-0.008c0.522,2.87,1.27,5.65,2.227,8.335l-6.531,7.475l6.405,11.098l9.741-1.928
	l-0.036-0.054c0.945,1.114,1.94,2.186,2.964,3.213c1.032,1.032,2.107,2.022,3.215,2.967l-1.974,9.708l11.098,6.415l7.465-6.538
	c2.691,0.96,5.471,1.708,8.34,2.23h-0.005l3.2,9.393h12.815l3.203-9.393H327.8c2.872-0.525,5.652-1.272,8.34-2.23l7.473,6.538
	l11.092-6.415l-1.925-9.733l-0.054,0.028c1.114-0.945,2.189-1.933,3.22-2.967c1.027-1.027,2.02-2.099,2.962-3.213l-0.028,0.054
	l9.738,1.92l6.405-11.09l-6.531-7.475c0.957-2.685,1.705-5.468,2.225-8.335v0.008L380.122,187.172z M318.205,207.096
	c-14.543,0-26.327-11.786-26.327-26.327c0-14.538,11.786-26.327,26.327-26.327c14.538,0,26.324,11.789,26.324,26.327
	C344.53,195.31,332.744,207.096,318.205,207.096z"/>
<path style="fill:#FF9D4D;" d="M318.205,148.116c-18.038,0-32.655,14.618-32.655,32.653s14.618,32.653,32.655,32.653
	c18.035,0,32.658-14.618,32.658-32.653S336.241,148.116,318.205,148.116z M318.205,205.865c-13.865,0-25.096-11.231-25.096-25.093
	c0-13.86,11.231-25.093,25.096-25.093c13.86,0,25.093,11.233,25.093,25.093C343.299,194.634,332.065,205.865,318.205,205.865z"/>
<path style="fill:#FFFFFF;" d="M310.093,313.236v-18.435l-13.535-4.608c-0.73-4.129-1.825-8.118-3.18-11.996l9.4-10.752
	l-9.216-15.944l-14.044,2.742c-1.388-1.574-2.778-3.11-4.206-4.536c-1.462-1.462-2.998-2.885-4.57-4.239l2.78-14.008l-15.949-9.213
	l-10.785,9.393c-3.845-1.382-7.826-2.447-11.96-3.213l-4.608-13.499h-18.468l-4.613,13.499c-4.129,0.765-8.115,1.83-11.988,3.213
	l-10.755-9.393l-15.946,9.213l2.78,14.008c-1.574,1.352-3.146,2.778-4.572,4.239c-1.498,1.467-2.921,3.039-4.278,4.649l0.036-0.11
	l-14.003-2.742l-9.221,15.944l9.4,10.752c-1.352,3.878-2.447,7.9-3.215,11.996l-13.494,4.608v18.435l13.494,4.608
	c0.768,4.129,1.866,8.156,3.215,11.996l-9.4,10.752l9.221,15.977l14.003-2.78c1.357,1.572,2.78,3.11,4.242,4.572
	c1.462,1.467,3.039,2.893,4.608,4.242l-2.816,13.975l15.982,9.249l10.721-9.398c3.873,1.354,7.898,2.45,11.988,3.182l4.613,13.524
	h18.468l4.608-13.524c4.134-0.732,8.115-1.828,11.996-3.226l10.749,9.441l15.949-9.249l-2.78-14.013
	c1.572-1.354,3.108-2.772,4.57-4.206c1.428-1.462,2.852-3,4.206-4.572l14.044,2.78l9.216-15.977l-9.4-10.752
	c1.354-3.84,2.45-7.864,3.18-11.996L310.093,313.236z M221.005,329.91c-14.333,0-25.928-11.587-25.928-25.884
	c0-14.308,11.594-25.894,25.928-25.894c14.298,0,25.894,11.587,25.894,25.894C246.897,318.323,235.302,329.91,221.005,329.91z"/>
<path style="fill:#FF9D4D;" d="M221.005,264.681c-21.765,0-39.378,17.615-39.378,39.345c0,21.727,17.613,39.37,39.378,39.37
	c21.729,0,39.345-17.643,39.345-39.37C260.347,282.294,242.734,264.681,221.005,264.681z M221.005,324.841
	c-11.528,0-20.854-9.321-20.854-20.815c0-11.497,9.326-20.826,20.854-20.826c11.497,0,20.815,9.329,20.815,20.826
	C241.82,315.52,232.499,324.841,221.005,324.841z"/>
<path style="fill:#F28124;" d="M221.007,252.8c-28.326,0-51.259,22.93-51.259,51.218c0,28.288,22.932,51.254,51.259,51.254
	c28.288,0,51.213-22.968,51.213-51.254C272.22,275.727,249.295,252.8,221.007,252.8z M221.007,333.519
	c-16.335,0-29.542-13.21-29.542-29.501c0-16.287,13.207-29.504,29.542-29.504c16.289,0,29.499,13.217,29.499,29.504
	C250.506,320.31,237.297,333.519,221.007,333.519z"/>
<g>
</g>
<g>
</g>
<g>
</g>
<g>
</g>
<g>
</g>
<g>
</g>
<g>
</g>
<g>
</g>
<g>
</g>
<g>
</g>
<g>
</g>
<g>
</g>
<g>
</g>
<g>
</g>
<g>
</g>
</svg>
