<?xml version="1.0" encoding="iso-8859-1"?>
<!-- Generator: Adobe Illustrator 19.0.0, SVG Export Plug-In . SVG Version: 6.00 Build 0)  -->
<svg version="1.1" id="Layer_1" xmlns="http://www.w3.org/2000/svg" xmlns:xlink="http://www.w3.org/1999/xlink" x="0px" y="0px"
	 viewBox="0 0 512 512" style="enable-background:new 0 0 512 512;" xml:space="preserve">
<circle style="fill:#FF8E31;" cx="256" cy="256" r="256"/>
<path style="fill:#ED7425;" d="M500.595,331.758L281.382,112.571c-0.077-0.108-0.148-0.187-0.225-0.256l-3.983-3.986
	c-0.077-0.074-0.182-0.148-0.261-0.22c-4.326-3.579-9.564-6.057-15.304-7.048c-0.225-0.038-0.458-0.054-0.691-0.09
	c-0.681-0.108-1.37-0.21-2.066-0.274c-0.94-0.079-1.894-0.123-2.857-0.123c-18.14,0-32.916,14.738-32.916,32.878
	c0,0.973,0.044,1.946,0.125,2.9c0.008,0.074,0.028,0.148,0.036,0.225c0.077,0.878,0.189,1.754,0.346,2.609
	c0,0.018,0.005,0.038,0.005,0.054c0.161,0.916,0.366,1.815,0.596,2.701c0.005,0.026,0.02,0.054,0.028,0.074
	c0.233,0.873,0.499,1.736,0.801,2.578c0.154,0.422,0.343,0.829,0.512,1.242c0.174,0.428,0.33,0.863,0.527,1.285
	c2.099,4.593,5.253,8.602,9.116,11.771l10.099,10.099c-62.001,5.443-110.769,57.572-110.769,120.95
	c0,31.744,12.216,60.672,32.22,82.317l6.945,6.953l128.566,128.545C396.483,490.55,472.732,421.814,500.595,331.758z"/>
<path style="fill:#34495E;" d="M256,166.364c-18.14,0-32.896-14.758-32.896-32.893c0-18.143,14.756-32.901,32.896-32.901
	c18.14,0,32.899,14.756,32.899,32.901C288.899,151.606,274.14,166.364,256,166.364z M256,108.065
	c-14.003,0-25.403,11.395-25.403,25.405c0,14.008,11.4,25.398,25.403,25.398c14.006,0,25.403-11.392,25.403-25.398
	C281.403,119.462,270.006,108.065,256,108.065z"/>
<rect x="248.73" y="148.992" style="fill:#5D6D7E;" width="14.564" height="23.514"/>
<g>
	<path style="fill:#34495E;" d="M266.406,144.893c0-0.686-0.561-1.249-1.242-1.249H246.84c-0.694,0-1.257,0.566-1.257,1.249v7.437
		c0,0.684,0.561,1.249,1.257,1.249h18.324c0.684,0,1.242-0.566,1.242-1.249V144.893z"/>
	<path style="fill:#34495E;" d="M255.992,168.474c-66.988,0-121.482,54.482-121.482,121.469s54.497,121.485,121.482,121.485
		c66.995,0,121.492-54.497,121.492-121.485C377.485,222.953,322.988,168.474,255.992,168.474z"/>
</g>
<g>
	<path style="fill:#FFFFFF;" d="M255.992,182.607c-59.274,0-107.338,48.056-107.338,107.336
		c0,59.282,48.061,107.343,107.338,107.343c59.29,0,107.343-48.059,107.343-107.343
		C363.336,230.664,315.282,182.607,255.992,182.607z"/>
	<polygon style="fill:#FFFFFF;" points="295.905,250.045 255.992,281.403 255.992,289.943 264.54,289.943 	"/>
</g>
<g>
	<polygon style="fill:#5D6D7E;" points="295.905,250.045 255.992,289.943 264.54,289.943 	"/>
	<path style="fill:#5D6D7E;" d="M293.891,252.052L264.387,289.6h-8.054v-8.041L293.891,252.052L293.891,252.052z M295.905,250.045
		l-39.913,31.357v8.54h8.548L295.905,250.045L295.905,250.045z"/>
</g>
<polygon style="fill:#FFFFFF;" points="216.087,329.856 255.992,298.499 255.992,289.943 247.447,289.943 "/>
<g>
	<polygon style="fill:#5D6D7E;" points="216.087,329.856 255.992,289.943 247.447,289.943 	"/>
	<path style="fill:#5D6D7E;" d="M218.097,327.841l29.519-37.56h8.041v8.036L218.097,327.841L218.097,327.841z M216.087,329.856
		l39.905-31.357v-8.556h-8.545L216.087,329.856L216.087,329.856z"/>
</g>
<polygon style="fill:#FFFFFF;" points="295.905,329.856 264.54,289.943 255.992,289.943 255.992,298.499 "/>
<g>
	<polygon style="fill:#5D6D7E;" points="295.905,329.856 255.992,289.943 255.992,298.499 	"/>
	<path style="fill:#5D6D7E;" d="M293.891,327.841l-37.56-29.524v-8.036h8.049L293.891,327.841L293.891,327.841z M295.905,329.856
		l-31.365-39.913h-8.548v8.556L295.905,329.856L295.905,329.856z"/>
</g>
<polygon style="fill:#FFFFFF;" points="216.087,250.045 247.447,289.943 255.992,289.943 255.992,281.375 "/>
<g>
	<polygon style="fill:#5D6D7E;" points="216.087,250.045 255.992,289.943 255.992,281.375 	"/>
	<path style="fill:#5D6D7E;" d="M218.104,252.04l37.553,29.517v8.041h-8.041L218.104,252.04L218.104,252.04z M216.087,250.045
		l31.36,39.895h8.545v-8.568L216.087,250.045L216.087,250.045z"/>
</g>
<polygon style="fill:#FFFFFF;" points="255.992,216.044 248.084,282.028 255.992,289.943 263.923,282.028 "/>
<g>
	<polygon style="fill:#5D6D7E;" points="255.992,216.044 255.992,289.943 263.923,282.028 	"/>
	<path style="fill:#5D6D7E;" d="M255.992,219.763l7.46,62.103l-7.46,7.444l-7.444-7.444L255.992,219.763L255.992,219.763z
		 M255.992,216.044l-7.908,65.984l7.908,7.916l7.931-7.916L255.992,216.044L255.992,216.044z"/>
</g>
<polygon style="fill:#FFFFFF;" points="255.992,363.848 263.923,297.859 255.992,289.943 248.084,297.859 "/>
<g>
	<polygon style="fill:#5D6D7E;" points="255.992,363.848 255.992,289.943 248.084,297.859 	"/>
	<path style="fill:#5D6D7E;" d="M255.992,360.11l-7.444-62.09l7.444-7.452l7.46,7.444L255.992,360.11L255.992,360.11z
		 M255.992,363.848l7.931-65.989l-7.931-7.916l-7.908,7.916L255.992,363.848L255.992,363.848z"/>
</g>
<polygon style="fill:#FFFFFF;" points="329.889,289.943 263.923,282.028 255.992,289.943 263.923,297.859 "/>
<g>
	<polygon style="fill:#5D6D7E;" points="329.889,289.943 255.992,289.943 263.923,297.859 	"/>
	<path style="fill:#5D6D7E;" d="M326.175,289.943l-62.106,7.452l-7.452-7.452l7.452-7.444L326.175,289.943L326.175,289.943z
		 M329.889,289.943l-65.969-7.916l-7.931,7.916l7.931,7.916L329.889,289.943L329.889,289.943z"/>
</g>
<polygon style="fill:#FFFFFF;" points="182.088,289.943 248.084,297.859 255.992,289.943 248.084,282.028 "/>
<g>
	<polygon style="fill:#5D6D7E;" points="182.088,289.943 255.992,289.943 248.084,282.028 	"/>
	<path style="fill:#5D6D7E;" d="M185.818,289.943l62.098-7.444l7.452,7.444l-7.452,7.452L185.818,289.943L185.818,289.943z
		 M182.088,289.943l65.997,7.916l7.908-7.916l-7.908-7.916L182.088,289.943L182.088,289.943z"/>
	<path style="fill:#5D6D7E;" d="M255.992,250.045c-22.036,0-39.905,17.859-39.905,39.895c0,22.044,17.866,39.913,39.905,39.913
		s39.913-17.866,39.913-39.913C295.905,267.904,278.031,250.045,255.992,250.045L255.992,250.045z"/>
</g>
<path style="fill:#FFFFFF;" d="M255.992,252.833c20.465,0,37.11,16.637,37.11,37.11c0,20.457-16.645,37.11-37.11,37.11
	c-20.457,0-37.097-16.653-37.097-37.11C218.895,269.471,235.535,252.833,255.992,252.833L255.992,252.833z"/>
<g>
	<path style="fill:#5D6D7E;" d="M255.992,398.062c-59.62,0-108.114-48.507-108.114-108.119c0-59.615,48.494-108.111,108.114-108.111
		s108.122,48.499,108.122,108.111C364.114,349.555,315.612,398.062,255.992,398.062z M255.992,186.332
		c-13.983,0-27.551,2.742-40.32,8.146c-12.334,5.215-23.409,12.677-32.94,22.208c-9.516,9.513-16.983,20.59-22.2,32.934
		c-5.396,12.777-8.148,26.34-8.148,40.32c0,13.99,2.749,27.553,8.148,40.328c5.217,12.332,12.685,23.414,22.2,32.937
		c9.523,9.51,20.59,16.975,32.94,22.193c12.759,5.407,26.33,8.148,40.32,8.148c14.006,0,27.574-2.739,40.328-8.148
		c12.339-5.217,23.429-12.682,32.937-22.193c9.526-9.523,16.991-20.613,22.2-32.937c5.402-12.774,8.148-26.353,8.148-40.328
		c0-13.97-2.744-27.538-8.148-40.32c-5.21-12.337-12.675-23.421-22.2-32.929c-9.523-9.523-20.605-16.998-32.937-22.213
		C283.553,189.074,269.99,186.332,255.992,186.332z"/>
	<rect x="255.002" y="185.344" style="fill:#5D6D7E;" width="2.015" height="6.472"/>
	
		<rect x="229.78" y="188.518" transform="matrix(0.9688 -0.2478 0.2478 0.9688 -40.3187 63.1693)" style="fill:#5D6D7E;" width="2.007" height="6.469"/>
	
		<rect x="206.15" y="197.867" transform="matrix(0.8753 -0.4836 0.4836 0.8753 -71.4194 125.255)" style="fill:#5D6D7E;" width="1.997" height="6.472"/>
	
		<rect x="185.606" y="212.824" transform="matrix(0.7289 -0.6846 0.6846 0.7289 -97.3273 186.325)" style="fill:#5D6D7E;" width="2.004" height="6.466"/>
	<polygon style="fill:#5D6D7E;" points="172.59,238.205 173.67,236.518 168.205,233.05 167.137,234.742 	"/>
	
		<rect x="158.592" y="255.388" transform="matrix(0.3115 -0.9502 0.9502 0.3115 -135.8789 329.7056)" style="fill:#5D6D7E;" width="1.994" height="6.469"/>
	<polygon style="fill:#5D6D7E;" points="157.993,284.787 158.124,282.793 151.665,282.386 151.524,284.396 	"/>
	<polygon style="fill:#5D6D7E;" points="159.78,309.327 159.411,307.346 153.062,308.554 153.428,310.543 	"/>
	<polygon style="fill:#5D6D7E;" points="167.626,332.657 166.774,330.829 160.922,333.586 161.782,335.396 	"/>
	
		<rect x="176.89" y="351.351" transform="matrix(-0.6342 -0.7732 0.7732 -0.6342 16.556 717.0091)" style="fill:#5D6D7E;" width="2.015" height="6.474"/>
	<polygon style="fill:#5D6D7E;" points="199.135,369.958 197.504,368.75 193.705,373.988 195.333,375.176 	"/>
	<polygon style="fill:#5D6D7E;" points="220.813,381.581 218.939,380.823 216.55,386.839 218.435,387.576 	"/>
	<polygon style="fill:#5D6D7E;" points="244.7,387.453 242.714,387.192 241.884,393.597 243.886,393.859 	"/>
	
		<rect x="267.683" y="387.297" transform="matrix(-0.9922 0.1243 -0.1243 -0.9922 583.8562 744.6277)" style="fill:#5D6D7E;" width="2.03" height="6.464"/>
	
		<rect x="292.3" y="381.004" transform="matrix(-0.929 0.3701 -0.3701 -0.929 708.0013 632.6198)" style="fill:#5D6D7E;" width="2.028" height="6.449"/>
	
		<rect x="314.604" y="368.705" transform="matrix(-0.811 0.5851 -0.5851 -0.811 789.1871 488.9047)" style="fill:#5D6D7E;" width="2.025" height="6.462"/>
	<polygon style="fill:#5D6D7E;" points="332.265,351.718 330.972,353.285 335.956,357.399 337.242,355.848 	"/>
	<polygon style="fill:#5D6D7E;" points="345.249,330.819 344.366,332.649 350.223,335.391 351.086,333.563 	"/>
	<polygon style="fill:#5D6D7E;" points="352.594,307.341 352.218,309.327 358.559,310.543 358.953,308.547 	"/>
	<polygon style="fill:#5D6D7E;" points="353.882,282.765 354.007,284.787 360.471,284.396 360.343,282.358 	"/>
	
		<rect x="351.394" y="255.403" transform="matrix(0.3069 0.9517 -0.9517 0.3069 490.4081 -156.1328)" style="fill:#5D6D7E;" width="2.02" height="6.482"/>
	
		<rect x="340.581" y="232.374" transform="matrix(0.5331 0.8461 -0.8461 0.5331 358.8339 -178.9978)" style="fill:#5D6D7E;" width="2.017" height="6.464"/>
	<polygon style="fill:#5D6D7E;" points="322.452,217.708 323.912,219.095 328.353,214.382 326.879,213 	"/>
	<polygon style="fill:#5D6D7E;" points="302.403,203.443 304.159,204.431 307.274,198.771 305.521,197.793 	"/>
	<polygon style="fill:#5D6D7E;" points="279.421,194.629 281.375,195.136 282.998,188.877 281.029,188.372 	"/>
</g>
<polygon style="fill:#0684BA;" points="246.372,280.32 255.992,289.943 312.1,233.836 312.115,233.81 "/>
<polygon style="fill:#03628A;" points="265.628,299.558 256.008,289.928 312.115,233.81 312.143,233.795 "/>
<polygon style="fill:#FF9D4D;" points="246.385,280.32 256.008,289.935 199.898,346.058 199.872,346.066 "/>
<polygon style="fill:#F28124;" points="265.615,299.576 255.987,289.958 199.872,346.066 199.849,346.084 "/>
<g>
</g>
<g>
</g>
<g>
</g>
<g>
</g>
<g>
</g>
<g>
</g>
<g>
</g>
<g>
</g>
<g>
</g>
<g>
</g>
<g>
</g>
<g>
</g>
<g>
</g>
<g>
</g>
<g>
</g>
</svg>
