<?xml version="1.0" encoding="iso-8859-1"?>
<!-- Generator: Adobe Illustrator 19.0.0, SVG Export Plug-In . SVG Version: 6.00 Build 0)  -->
<svg version="1.1" id="Layer_1" xmlns="http://www.w3.org/2000/svg" xmlns:xlink="http://www.w3.org/1999/xlink" x="0px" y="0px"
	 viewBox="0 0 512 512" style="enable-background:new 0 0 512 512;" xml:space="preserve">
<circle style="fill:#E1EFFA;" cx="256" cy="256" r="256"/>
<path style="fill:#BCD4E8;" d="M493.297,352.049L262.172,120.945c0-0.087-0.09-0.136-0.23-0.23
	c-0.753-0.376-3.146-0.653-5.962-0.653c-3.382,0-6.198,0.422-6.198,0.886l-17.562,50.708l-15.158,43.697c0,0,0,0,0,0.051
	l-10.138,29.248l-14.932,42.949l-0.236,0.758l-10.701,30.886l-62.254,20.283v7.649h0.051l163.469,163.484
	C378.253,500.861,458.45,438.06,493.297,352.049z"/>
<polygon style="fill:#FF8E31;" points="255.997,294.81 118.828,339.533 255.997,384.269 393.17,339.533 "/>
<path style="fill:#FF9D4D;" d="M262.2,120.955H249.8l-75.779,218.578c0,6.292,36.71,11.384,81.976,11.384
	s81.976-5.092,81.976-11.384L262.2,120.955z"/>
<g>
	<path style="fill:#FFFFFF;" d="M320.233,288.381l-0.253-0.75l-14.902-42.98c0,3.761-21.975,6.812-49.08,6.812
		c-27.1,0-49.07-3.052-49.07-6.812l-14.909,42.98l-0.253,0.75c-0.01,0.015-0.01,0.036-0.01,0.056c0,4.931,28.769,8.924,64.243,8.924
		s64.251-3.996,64.251-8.924C320.248,288.417,320.248,288.397,320.233,288.381z"/>
	<path style="fill:#FFFFFF;" d="M294.93,215.386l-15.15-43.702c-0.113,1.81-10.724,3.277-23.782,3.277
		c-13.046,0-23.665-1.467-23.785-3.277l-15.142,43.702c-0.015,0.008-0.015,0.008-0.015,0.018v0.054
		c0,2.982,17.428,5.402,38.94,5.402c21.514,0,38.938-2.419,38.938-5.402v-0.054C294.935,215.393,294.935,215.393,294.93,215.386z"/>
</g>
<g>
	<path style="fill:#F28124;" d="M262.195,120.955c0,0.466-2.78,0.852-6.198,0.852c-3.412,0-6.188-0.387-6.188-0.852
		c0-0.476,2.775-0.86,6.188-0.86C259.415,120.092,262.195,120.479,262.195,120.955z"/>
	<polygon style="fill:#F28124;" points="255.997,391.905 393.17,347.203 393.17,339.533 255.997,384.269 	"/>
	<polygon style="fill:#F28124;" points="255.997,391.905 118.828,347.203 118.828,339.533 255.997,384.269 	"/>
</g>
<g>
	<path style="fill:#FFBF69;" d="M234.071,250.739l4.526-30.456c-7.081-0.492-12.943-1.27-16.748-2.232l-8.876,29.875
		C217.766,249.137,225.149,250.12,234.071,250.739z"/>
	<path style="fill:#FFBF69;" d="M199.662,292.731l-15.534,52.288c8.01,2.022,20.324,3.681,35.233,4.705l7.921-53.299
		C215.596,295.611,205.939,294.318,199.662,292.731z"/>
	<path style="fill:#FFBF69;" d="M245.384,174.61l7.857-52.867c-1.137-0.074-2.058-0.205-2.668-0.369l-15.414,51.873
		C237.489,173.834,241.068,174.308,245.384,174.61z"/>
</g>
<g>
</g>
<g>
</g>
<g>
</g>
<g>
</g>
<g>
</g>
<g>
</g>
<g>
</g>
<g>
</g>
<g>
</g>
<g>
</g>
<g>
</g>
<g>
</g>
<g>
</g>
<g>
</g>
<g>
</g>
</svg>
