<?xml version="1.0" encoding="iso-8859-1"?>
<!-- Generator: Adobe Illustrator 19.0.0, SVG Export Plug-In . SVG Version: 6.00 Build 0)  -->
<svg version="1.1" id="Layer_1" xmlns="http://www.w3.org/2000/svg" xmlns:xlink="http://www.w3.org/1999/xlink" x="0px" y="0px"
	 viewBox="0 0 512 512" style="enable-background:new 0 0 512 512;" xml:space="preserve">
<path style="fill:#0575A5;" d="M512,256.003c0,141.381-114.614,255.995-256,255.995c-141.384,0-256-114.614-256-255.995
	c0-141.389,114.616-256,256-256C397.386,0.003,512,114.614,512,256.003z"/>
<path style="fill:#025E90;" d="M411.425,203.049l-62.953,33.116L256,143.69l-45.604,78.996c10.092,5.85,16.896,16.75,16.896,29.258
	c0,12.972-7.332,24.215-18.076,29.868l-45.599-45.594l-63.045-33.17l36.682,136.847l1.718,6.474l161.669,161.672
	c105.866-18.632,189.266-102.249,207.549-208.228L411.425,203.049z"/>
<path style="fill:#FF9D4D;" d="M256,143.683L210.386,222.7c10.092,5.842,16.899,16.73,16.899,29.23
	c0,18.66-15.124,33.782-33.789,33.782c-18.647,0-33.769-15.122-33.769-33.782c0-5.681,1.423-11.026,3.894-15.726l-63.048-33.162
	l38.403,143.334c33.057-6.7,73.421-10.655,117.025-10.655l0,0V143.683z"/>
<path style="fill:#FF8E31;" d="M256,143.683l45.617,79.017c-10.089,5.842-16.901,16.73-16.901,29.23
	c0,18.66,15.127,33.782,33.787,33.782c18.647,0,33.774-15.122,33.774-33.782c0-5.681-1.423-11.026-3.894-15.726l63.045-33.162
	l-38.4,143.334c-33.068-6.7-73.423-10.655-117.03-10.655l0,0V143.683H256z"/>
<path style="fill:#F28124;" d="M256,328.968c-41.065,0-83.167,3.715-118.761,10.913l1.736,6.497
	c33.065-6.7,73.421-10.655,117.025-10.655c43.599,0,83.947,3.948,117.005,10.655h0.026l1.736-6.497
	C339.172,332.682,297.065,328.968,256,328.968z"/>
<polygon style="fill:#FFFFFF;" points="256,251.53 238.774,283.625 256,283.625 "/>
<g>
	<polygon style="fill:#E1EFFA;" points="256,251.53 273.226,283.625 256,283.625 	"/>
	<polygon style="fill:#E1EFFA;" points="256,315.72 238.774,283.625 256,283.625 	"/>
</g>
<polygon style="fill:#CEE2F2;" points="256,315.72 273.226,283.625 256,283.625 "/>
<g>
</g>
<g>
</g>
<g>
</g>
<g>
</g>
<g>
</g>
<g>
</g>
<g>
</g>
<g>
</g>
<g>
</g>
<g>
</g>
<g>
</g>
<g>
</g>
<g>
</g>
<g>
</g>
<g>
</g>
</svg>
