<?xml version="1.0" encoding="iso-8859-1"?>
<!-- Generator: Adobe Illustrator 19.0.0, SVG Export Plug-In . SVG Version: 6.00 Build 0)  -->
<svg version="1.1" id="Layer_1" xmlns="http://www.w3.org/2000/svg" xmlns:xlink="http://www.w3.org/1999/xlink" x="0px" y="0px"
	 viewBox="0 0 512 512" style="enable-background:new 0 0 512 512;" xml:space="preserve">
<circle style="fill:#0575A5;" cx="256" cy="256" r="256"/>
<path style="fill:#025E90;" d="M492.895,353.083c-25.29,61.647-73.923,111.224-134.925,137.754L120.358,253.22l24.23-24.23
	l-12.201-12.193v-0.036l-13.53-13.535l11.374-2.12l2.156-11.379l13.499,13.499h0.036l12.214,12.214l19.018-19.018h15.759
	l-19.82-19.82l-27.136-27.136l22.784-4.311l4.355-22.82l27.136,27.131l46.961,46.958h89.047l56.87,56.873L492.895,353.083z
	 M497.751,340.234c3.489-10.015,6.397-20.296,8.63-30.825L353.866,156.887l-3.105,16.602l-16.645,3.11l19.75,19.75L497.751,340.234z
	"/>
<polygon style="fill:#C1D354;" points="302.203,253.276 256.717,389.686 211.254,253.276 "/>
<g>
	<polygon style="fill:#D0E070;" points="211.254,253.276 256.717,389.686 120.323,253.276 	"/>
	<polygon style="fill:#D0E070;" points="302.203,253.276 256.717,389.686 393.144,253.276 	"/>
</g>
<polygon style="fill:#C1D354;" points="120.323,253.276 177.152,196.429 211.254,253.276 "/>
<polygon style="fill:#D0E070;" points="211.254,253.276 256.717,196.429 302.203,253.276 "/>
<g>
	<polygon style="fill:#A6B83D;" points="177.152,196.429 211.254,253.276 256.717,196.429 	"/>
	<polygon style="fill:#A6B83D;" points="336.307,196.429 302.203,253.276 256.717,196.429 	"/>
</g>
<g>
	<polygon style="fill:#C1D354;" points="393.144,253.276 336.307,196.429 302.203,253.276 	"/>
	<polygon style="fill:#C1D354;" points="177.393,153.784 200.241,149.458 177.393,145.16 173.089,122.322 168.748,145.16 
		145.935,149.458 168.748,153.784 173.089,176.625 	"/>
	<polygon style="fill:#C1D354;" points="134.554,205.404 145.935,203.236 134.554,201.093 132.383,189.714 130.24,201.093 
		118.856,203.236 130.24,205.404 132.383,216.783 	"/>
	<polygon style="fill:#C1D354;" points="357.015,179.75 373.609,176.625 357.015,173.486 353.866,156.89 350.74,173.486 
		334.134,176.625 350.74,179.75 353.866,196.344 	"/>
</g>
<g>
</g>
<g>
</g>
<g>
</g>
<g>
</g>
<g>
</g>
<g>
</g>
<g>
</g>
<g>
</g>
<g>
</g>
<g>
</g>
<g>
</g>
<g>
</g>
<g>
</g>
<g>
</g>
<g>
</g>
</svg>
