<?xml version="1.0" encoding="iso-8859-1"?>
<!-- Generator: Adobe Illustrator 19.0.0, SVG Export Plug-In . SVG Version: 6.00 Build 0)  -->
<svg version="1.1" id="Layer_1" xmlns="http://www.w3.org/2000/svg" xmlns:xlink="http://www.w3.org/1999/xlink" x="0px" y="0px"
	 viewBox="0 0 512 512" style="enable-background:new 0 0 512 512;" xml:space="preserve">
<circle style="fill:#E1EFFA;" cx="256" cy="256" r="256"/>
<path style="fill:#BCD4E8;" d="M511.329,273.579L385.795,148.047c-0.074-0.077-0.113-0.113-0.182-0.182l-21.471-21.471
	c-0.069-0.069-0.148-0.148-0.218-0.182c-2.378-2.268-5.632-3.694-9.18-3.694c-3.661,0-6.986,1.503-9.398,3.876l-9.403,9.398
	l-6.694,6.692l-72.589,72.599l-7.46-7.468v-0.036l-1.134-1.096l-83.968-83.968l-41.58,41.587l92.562,92.557l-72.448,72.451
	l-12.255,36.751l-7.859,23.626l122.225,122.225C248.479,511.872,252.221,512,256,512C391.47,512,502.287,406.758,511.329,273.579z"
	/>
<path style="fill:#0684BA;" d="M122.511,164.104l225.38,225.38l41.592-41.592l-225.38-225.38L122.511,164.104z M161.8,161.812
	c-2.591,2.593-6.792,2.593-9.39-0.005c-2.58-2.586-2.58-6.792,0-9.385c2.598-2.583,6.799-2.583,9.39,0
	C164.398,155.016,164.398,159.222,161.8,161.812z"/>
<path style="fill:#03628A;" d="M143.301,143.322l9.108,9.101c2.598-2.583,6.799-2.583,9.39,0c2.598,2.593,2.598,6.799,0,9.39
	l206.881,206.881l20.803-20.803l-225.38-225.38L143.301,143.322z"/>
<g>
	
		<rect x="186.78" y="148.742" transform="matrix(-0.7071 -0.7071 0.7071 -0.7071 210.3331 397.9023)" style="fill:#FFFFFF;" width="1.59" height="13.297"/>
	
		<rect x="205.568" y="167.522" transform="matrix(-0.7067 -0.7075 0.7075 -0.7067 228.9841 443.2639)" style="fill:#FFFFFF;" width="1.6" height="13.297"/>
	
		<rect x="224.324" y="186.298" transform="matrix(-0.7059 -0.7083 0.7083 -0.7059 247.3828 488.6046)" style="fill:#FFFFFF;" width="1.608" height="13.294"/>
	
		<rect x="243.117" y="205.092" transform="matrix(-0.7059 -0.7083 0.7083 -0.7059 266.1199 533.9688)" style="fill:#FFFFFF;" width="1.595" height="13.289"/>
	
		<rect x="261.885" y="223.887" transform="matrix(-0.7059 -0.7083 0.7083 -0.7059 284.8329 579.3296)" style="fill:#FFFFFF;" width="1.605" height="13.291"/>
	
		<rect x="280.679" y="242.625" transform="matrix(-0.7071 -0.7071 0.7071 -0.7071 304.25 624.569)" style="fill:#FFFFFF;" width="1.597" height="13.294"/>
	
		<rect x="299.485" y="261.414" transform="matrix(-0.7087 -0.7055 0.7055 -0.7087 323.9717 669.8829)" style="fill:#FFFFFF;" width="1.59" height="13.291"/>
	
		<rect x="318.237" y="280.233" transform="matrix(-0.7063 -0.7079 0.7079 -0.7063 341.2883 715.3506)" style="fill:#FFFFFF;" width="1.597" height="13.291"/>
	
		<rect x="337.051" y="298.989" transform="matrix(-0.7079 -0.7063 0.7063 -0.7079 361.1466 760.6269)" style="fill:#FFFFFF;" width="1.603" height="13.297"/>
	
		<rect x="355.838" y="317.774" transform="matrix(-0.7095 -0.7047 0.7047 -0.7095 381.0409 805.9165)" style="fill:#FFFFFF;" width="1.585" height="13.294"/>
	
		<rect x="374.581" y="336.569" transform="matrix(-0.7055 -0.7087 0.7087 -0.7055 396.9707 851.3909)" style="fill:#FFFFFF;" width="1.595" height="13.297"/>
	
		<rect x="367.697" y="328.142" transform="matrix(-0.7071 -0.7071 0.7071 -0.7071 394.4584 826.3112)" style="fill:#FFFFFF;" width="1.334" height="6.638"/>
	
		<rect x="348.925" y="309.372" transform="matrix(-0.7081 -0.7062 0.7062 -0.7081 376.2961 780.955)" style="fill:#FFFFFF;" width="1.313" height="6.641"/>
	
		<rect x="330.133" y="290.591" transform="matrix(-0.7052 -0.709 0.709 -0.7052 355.6898 735.7147)" style="fill:#FFFFFF;" width="1.326" height="6.641"/>
	
		<rect x="311.347" y="271.819" transform="matrix(-0.7081 -0.7062 0.7062 -0.7081 338.633 690.2839)" style="fill:#FFFFFF;" width="1.321" height="6.646"/>
	
		<rect x="292.582" y="253" transform="matrix(-0.709 -0.7052 0.7052 -0.709 320.4002 644.848)" style="fill:#FFFFFF;" width="1.326" height="6.638"/>
	
		<rect x="273.779" y="234.227" transform="matrix(-0.7057 -0.7085 0.7085 -0.7057 299.8167 599.6277)" style="fill:#FFFFFF;" width="1.329" height="6.638"/>
	
		<rect x="255" y="215.449" transform="matrix(-0.7099 -0.7043 0.7043 -0.7099 283.0859 554.1458)" style="fill:#FFFFFF;" width="1.336" height="6.646"/>
	
		<rect x="236.229" y="196.651" transform="matrix(-0.7076 -0.7066 0.7066 -0.7076 263.2123 508.8619)" style="fill:#FFFFFF;" width="1.321" height="6.643"/>
	
		<rect x="217.427" y="177.891" transform="matrix(-0.7066 -0.7076 0.7076 -0.7066 243.9617 463.5783)" style="fill:#FFFFFF;" width="1.321" height="6.643"/>
	
		<rect x="198.673" y="159.12" transform="matrix(-0.7081 -0.7062 0.7062 -0.7081 225.7671 418.2201)" style="fill:#FFFFFF;" width="1.324" height="6.641"/>
	<polygon style="fill:#FFFFFF;" points="142.641,329.119 122.514,389.484 182.881,369.359 	"/>
</g>
<rect x="227.611" y="123.969" transform="matrix(-0.7071 -0.7071 0.7071 -0.7071 256.1651 617.9534)" style="fill:#5D6D7E;" width="56.908" height="263.908"/>
<g>
	
		<rect x="233.843" y="108.89" transform="matrix(-0.7071 -0.7072 0.7072 -0.7071 241.0122 581.5475)" style="fill:#34495E;" width="14.234" height="263.927"/>
	
		<rect x="264.04" y="139.076" transform="matrix(-0.707 -0.7072 0.7072 -0.707 271.1911 654.4125)" style="fill:#34495E;" width="14.231" height="263.908"/>
</g>
<g>
	<polygon style="fill:#E1EFFA;" points="142.641,329.119 152.704,339.182 122.514,389.484 	"/>
	<polygon style="fill:#E1EFFA;" points="182.881,369.359 172.82,359.296 122.514,389.484 	"/>
</g>
<polygon style="fill:#5D6D7E;" points="130.396,365.85 122.514,389.484 146.158,381.614 "/>
<g>
	<polygon style="fill:#34495E;" points="130.396,365.85 122.514,389.484 134.339,369.782 	"/>
	<polygon style="fill:#34495E;" points="142.218,377.667 122.514,389.484 146.158,381.614 	"/>
</g>
<rect x="324.288" y="154.552" transform="matrix(-0.7072 -0.7071 0.7071 -0.7072 489.5588 521.3526)" style="fill:#FFFFFF;" width="56.912" height="9.488"/>
<g>
	
		<rect x="330.529" y="139.456" transform="matrix(-0.7075 -0.7068 0.7068 -0.7075 474.6007 484.8479)" style="fill:#E1EFFA;" width="14.232" height="9.488"/>
	
		<rect x="360.693" y="169.649" transform="matrix(-0.7071 -0.7072 0.7072 -0.7071 504.5438 557.8041)" style="fill:#E1EFFA;" width="14.232" height="9.496"/>
</g>
<path style="fill:#0684BA;" d="M364.134,126.408c-2.401-2.409-5.727-3.891-9.398-3.891c-3.666,0-6.986,1.482-9.39,3.891l-9.39,9.39
	l40.248,40.243l9.385-9.39c2.404-2.401,3.896-5.716,3.894-9.39c0-3.666-1.482-6.986-3.886-9.388L364.134,126.408z"/>
<path style="fill:#61C1DF;" d="M344.678,135.132c-1.114-1.119-1.106-2.924,0-4.024l2.688-2.691c1.966-1.966,4.585-3.054,7.365-3.054
	c2.798,0,5.414,1.083,7.391,3.054l4.022,4.024c1.111,1.116,1.111,2.921,0,4.032c-1.114,1.103-2.911,1.108-4.029,0l-4.017-4.024
	c-0.906-0.906-2.081-1.39-3.364-1.39c-1.254,0-2.452,0.484-3.346,1.385l-2.683,2.683
	C347.594,136.236,345.787,136.241,344.678,135.132z"/>
<g>
</g>
<g>
</g>
<g>
</g>
<g>
</g>
<g>
</g>
<g>
</g>
<g>
</g>
<g>
</g>
<g>
</g>
<g>
</g>
<g>
</g>
<g>
</g>
<g>
</g>
<g>
</g>
<g>
</g>
</svg>
