<?xml version="1.0" encoding="iso-8859-1"?>
<!-- Generator: Adobe Illustrator 19.0.0, SVG Export Plug-In . SVG Version: 6.00 Build 0)  -->
<svg version="1.1" id="Layer_1" xmlns="http://www.w3.org/2000/svg" xmlns:xlink="http://www.w3.org/1999/xlink" x="0px" y="0px"
	 viewBox="0 0 512 512" style="enable-background:new 0 0 512 512;" xml:space="preserve">
<circle style="fill:#C1D354;" cx="256" cy="256" r="256"/>
<path style="fill:#9DB138;" d="M265.579,511.757L118.828,365.02V186.401l19.717-19.722l19.763-19.717h71.06l14.756,14.756
	l3.52,3.512l18.268-18.258l32.435,32.435l10.621-10.624l47.916,47.918l4.326-4.326L495.45,346.611
	C459.927,440.428,370.895,507.878,265.579,511.757z M393.185,190.579l-3.95,3.95l-47.562-47.557l-21.801,21.793L496.084,344.98
	c4.808-12.961,8.563-26.424,11.231-40.276L393.185,190.579z"/>
<g>
	<rect x="251.187" y="234.189" style="fill:#FFFFFF;" width="21.804" height="21.804"/>
	<path style="fill:#FFFFFF;" d="M251.18,234.196v-21.804h21.804v-21.801H251.18v-21.804h-21.801v-21.804H158.28l-39.452,39.444
		V365.02h88.75v-21.809h21.801v21.809h43.604v-21.809H251.18v-21.806h-21.801v-21.798h43.604v-21.804H251.18V256h-21.801v21.809
		h-21.801V256h21.801v-21.804H251.18z M207.578,212.393h-21.806v-21.801h21.806V212.393z"/>
</g>
<polygon style="fill:#CEE2F2;" points="158.28,186.429 138.557,166.707 118.828,186.429 118.828,225.884 "/>
<g>
	<polygon style="fill:#03628A;" points="118.828,186.429 158.28,186.429 158.28,146.988 	"/>
	<rect x="263.654" y="256" style="fill:#03628A;" width="21.809" height="21.809"/>
	<rect x="220.39" y="343.219" style="fill:#03628A;" width="21.804" height="21.809"/>
	<rect x="290.688" y="234.189" style="fill:#03628A;" width="21.804" height="21.804"/>
	<rect x="244.096" y="299.597" style="fill:#03628A;" width="21.798" height="21.798"/>
	<rect x="339.379" y="212.393" style="fill:#03628A;" width="21.809" height="21.804"/>
	<rect x="371.379" y="190.592" style="fill:#03628A;" width="21.804" height="21.801"/>
	<rect x="287.155" y="168.791" style="fill:#03628A;" width="21.798" height="21.804"/>
	<rect x="244.096" y="146.995" style="fill:#03628A;" width="21.798" height="21.804"/>
	<rect x="319.872" y="146.995" style="fill:#03628A;" width="21.798" height="21.804"/>
	<rect x="317.594" y="256" style="fill:#03628A;" width="21.804" height="21.809"/>
	<rect x="287.155" y="299.597" style="fill:#03628A;" width="21.798" height="21.798"/>
	<rect x="330.752" y="321.408" style="fill:#03628A;" width="21.806" height="21.806"/>
</g>
<g>
</g>
<g>
</g>
<g>
</g>
<g>
</g>
<g>
</g>
<g>
</g>
<g>
</g>
<g>
</g>
<g>
</g>
<g>
</g>
<g>
</g>
<g>
</g>
<g>
</g>
<g>
</g>
<g>
</g>
</svg>
