<?xml version="1.0" encoding="iso-8859-1"?>
<!-- Generator: Adobe Illustrator 19.0.0, SVG Export Plug-In . SVG Version: 6.00 Build 0)  -->
<svg version="1.1" id="Layer_1" xmlns="http://www.w3.org/2000/svg" xmlns:xlink="http://www.w3.org/1999/xlink" x="0px" y="0px"
	 viewBox="0 0 512 512" style="enable-background:new 0 0 512 512;" xml:space="preserve">
<circle style="fill:#E1EFFA;" cx="256" cy="256" r="256"/>
<path style="fill:#BCD4E8;" d="M500.721,331.31L304.586,135.173l-6.454-6.446c-1.974-1.713-4.032-3.292-6.231-4.739
	c18.913,20.093,15.224,43.694,1.579,57.646c-6.881,7.048-11.377,13.384-14.321,19.103l-8.358-8.358
	c-8.689,8.993-12.065,17.638-13.036,25.708h-47.027v3.295l-3.287-3.295h-79.757v32.686l3.287,3.295H91.497v32.686l39.35,39.342
	h-39.35v32.686l152.922,152.922c3.84,0.172,7.698,0.294,11.581,0.294C371.172,512,468.554,435.94,500.721,331.31z"/>
<g>
	<rect x="127.675" y="290.074" style="fill:#34495E;" width="79.744" height="32.686"/>
	<rect x="210.765" y="290.074" style="fill:#34495E;" width="79.77" height="32.686"/>
	<rect x="293.837" y="290.074" style="fill:#34495E;" width="79.77" height="32.686"/>
	<rect x="127.675" y="218.061" style="fill:#34495E;" width="79.744" height="32.678"/>
	<rect x="210.765" y="218.061" style="fill:#34495E;" width="79.77" height="32.678"/>
	<rect x="293.837" y="218.061" style="fill:#34495E;" width="79.77" height="32.678"/>
	<rect x="91.484" y="326.067" style="fill:#34495E;" width="79.77" height="32.681"/>
	<rect x="174.566" y="326.067" style="fill:#34495E;" width="79.77" height="32.681"/>
	<rect x="257.664" y="326.067" style="fill:#34495E;" width="79.77" height="32.681"/>
	<rect x="340.736" y="326.067" style="fill:#34495E;" width="79.77" height="32.681"/>
	<rect x="91.484" y="254.08" style="fill:#34495E;" width="79.77" height="32.678"/>
	<rect x="174.566" y="254.08" style="fill:#34495E;" width="79.77" height="32.678"/>
	<rect x="257.664" y="254.08" style="fill:#34495E;" width="79.77" height="32.678"/>
	<rect x="340.736" y="254.08" style="fill:#34495E;" width="79.77" height="32.678"/>
</g>
<path style="fill:#FF9D4D;" d="M288.973,358.761c53.207,0,74.714-44.408,69.844-76.357c-2.877-18.747-11.082-30.856-20.344-42.437
	c-11.791-14.71-10.324-35.244,2.627-48.192c-23.585,10.565-41.05,32.776-20.193,90.885c-9.894,4.731-36.493,11.666-46.387,10.491
	c-5.885-24.236-12.029-60.547-41.444-62.497c16.013,8.358,8.274,26.015,5.683,29.844c-6.413,9.472-14.413,21.028-14.413,39.025
	C224.346,337.994,255.206,358.761,288.973,358.761z"/>
<path style="fill:#F28124;" d="M238.871,301.353c-1.866,30.185,17.208,57.408,50.102,57.408c32.041,0,60.746-31.293,52.513-74.14
	c-8.351-43.474-48.064-38.564-27.763-93.844c10.481-28.529-1.444-53.281-21.819-66.785c18.929,20.052,15.199,43.684,1.58,57.62
	c-24.586,25.172-19.059,41.331-19.313,52.301c-0.858-14.461-15.311-16.937-3.387-41.531c-25.239,26.199-5.599,49.587-11.884,63.7
	C251.625,272.44,240.225,279.524,238.871,301.353z"/>
<path style="fill:#FF9D4D;" d="M290.826,358.717c25.234,0,42.04-27.136,37.169-51.343c-6.835-33.915-44.396-40.031-30.136-73.413
	c-23.429,27.748-7.03,48.814-10.929,59.584c-0.939-12.675-8.23-27.948-16.863-32.614c9.016,16.218-7.972,27.564-13.604,51.63
	C251.448,334.07,264.238,358.717,290.826,358.717z"/>
<g>
</g>
<g>
</g>
<g>
</g>
<g>
</g>
<g>
</g>
<g>
</g>
<g>
</g>
<g>
</g>
<g>
</g>
<g>
</g>
<g>
</g>
<g>
</g>
<g>
</g>
<g>
</g>
<g>
</g>
</svg>
