<?xml version="1.0" encoding="iso-8859-1"?>
<!-- Generator: Adobe Illustrator 19.0.0, SVG Export Plug-In . SVG Version: 6.00 Build 0)  -->
<svg version="1.1" id="Layer_1" xmlns="http://www.w3.org/2000/svg" xmlns:xlink="http://www.w3.org/1999/xlink" x="0px" y="0px"
	 viewBox="0 0 512 512" style="enable-background:new 0 0 512 512;" xml:space="preserve">
<path style="fill:#34495E;" d="M512,256.003c0,141.381-114.616,255.995-256,255.995c-141.389,0-256-114.614-256-255.995
	c0-141.389,114.611-256,256-256C397.384,0.003,512,114.614,512,256.003z"/>
<path style="fill:#203549;" d="M283.243,113.884l-1.684-1.679c-2.158-1.792-4.938-2.885-7.972-2.885
	c-0.282,0-0.548,0.061-0.827,0.077l-17.126-17.121c-1.61-1.651-3.881-2.668-6.4-2.668c-5.007,0-9.07,4.058-9.07,9.068
	c0,2.199,0.771,4.173,2.086,5.745l1.208,1.244c0.069,0.036,0.108,0.069,0.143,0.105l17.572,17.572
	c0.287,2.452,1.231,4.698,2.724,6.533l1.684,1.684l26.821,26.821c-0.118-0.008-0.225-0.056-0.343-0.056h-12.142h-6.774
	l-17.846-17.846l-0.765-0.765c-0.988-0.878-2.23-1.354-3.617-1.354c-3.146,0-5.709,2.557-5.709,5.704
	c0,1.39,0.479,2.634,1.357,3.625l0.765,0.765l9.874,9.874h-37.266c-4.352,0-7.898,3.546-7.898,7.867c0,0.52,0.059,1.024,0.151,1.523
	c0.023,0.1,0.056,0.189,0.079,0.294c0.095,0.399,0.215,0.794,0.369,1.172c0.028,0.069,0.059,0.141,0.092,0.205
	c0.182,0.415,0.397,0.814,0.645,1.188c0.015,0.02,0.02,0.036,0.036,0.056c0.138,0.205,0.261,0.415,0.415,0.604
	c0.156,0.169,0.325,0.33,0.492,0.492c0.028,0.028,0.056,0.056,0.082,0.084c0.169,0.161,0.32,0.335,0.486,0.484l4.503,4.503v91.863
	l-61.481,106.427c-2.885,5.084-3.103,11.517,0,16.932c0.699,1.203,1.539,2.304,2.452,3.254l0.66,0.625l115.243,115.236
	c106.189-8.323,194.179-81.37,224.445-179.771L283.243,113.884z"/>
<path style="fill:#F2F9FF;" d="M299.95,166.19c0,4.347-3.546,7.895-7.885,7.895h-72.128c-4.347,0-7.89-3.548-7.89-7.895l0,0
	c0-4.332,3.543-7.887,7.89-7.887h72.128C296.404,158.305,299.95,161.859,299.95,166.19L299.95,166.19z"/>
<path style="fill:#E1EFFA;" d="M172.572,400.456c-5.844,0-11.512-3.036-14.643-8.448c-3.136-5.422-2.911-11.85,0-16.911L256,205.233
	l98.071,169.861c2.908,5.064,3.133,11.489,0,16.911c-3.136,5.412-8.804,8.448-14.646,8.448H172.572V400.456z"/>
<path style="fill:#FF8E31;" d="M347.231,379.041l-34.44-59.671h-25.073c-1.618-2.268-4.265-3.763-7.27-3.763
	c-2.993,0-5.64,1.495-7.255,3.763h-15.647c-3.144-5.043-8.701-8.404-15.071-8.404c-6.356,0-11.932,3.361-15.076,8.404h-28.188
	l-34.442,59.671c-1.608,2.78-1.608,6.236,0,9.016c1.595,2.772,4.582,4.508,7.803,4.508h166.853c3.22,0,6.211-1.736,7.805-4.508
	C348.838,385.277,348.838,381.821,347.231,379.041z"/>
<rect x="219.366" y="174.08" style="fill:#CEE2F2;" width="73.249" height="94.579"/>
<circle style="fill:#FF8E31;" cx="249.216" cy="98.67" r="9.07"/>
<path style="fill:#FFDEA7;" d="M247.601,92.892c0.888,0.886,0.668,2.542-0.479,3.686c-1.147,1.144-2.806,1.362-3.689,0.471
	c-0.888-0.886-0.663-2.534,0.479-3.694C245.059,92.211,246.715,92.001,247.601,92.892z"/>
<path style="fill:#FF8E31;" d="M286.131,121.869c0,6.938-5.627,12.557-12.549,12.557c-6.932,0-12.557-5.619-12.557-12.557
	c0-6.925,5.624-12.544,12.557-12.544C280.502,109.325,286.131,114.944,286.131,121.869z"/>
<path style="fill:#FFDEA7;" d="M271.567,113.848c1.27,1.285,0.98,3.666-0.684,5.33c-1.667,1.651-4.055,1.961-5.332,0.681
	c-1.28-1.293-0.978-3.674,0.673-5.33C267.896,112.865,270.277,112.563,271.567,113.848z"/>
<path style="fill:#FF8E31;" d="M256.604,144.054c0,3.146-2.557,5.696-5.688,5.696c-3.146,0-5.693-2.55-5.693-5.696
	c0-3.141,2.547-5.688,5.693-5.688C254.047,138.365,256.604,140.915,256.604,144.054z"/>
<path style="fill:#FFDEA7;" d="M250.002,140.419c0.579,0.576,0.43,1.664-0.31,2.414c-0.763,0.75-1.838,0.886-2.417,0.31
	c-0.584-0.584-0.453-1.664,0.31-2.422C248.328,139.968,249.418,139.835,250.002,140.419z"/>
<path style="fill:#E1EFFA;" d="M283.73,324.508c0,1.812-1.469,3.279-3.282,3.279c-1.805,0-3.261-1.467-3.261-3.279
	c0-1.805,1.457-3.259,3.261-3.259C282.26,321.247,283.73,322.703,283.73,324.508z"/>
<path style="fill:#FFFFFF;" d="M279.928,322.419c0.338,0.338,0.251,0.963-0.172,1.393c-0.438,0.428-1.06,0.512-1.393,0.174
	c-0.338-0.33-0.259-0.955,0.182-1.382C278.973,322.168,279.59,322.084,279.928,322.419z"/>
<path style="fill:#E1EFFA;" d="M249.943,328.714c0,4.122-3.346,7.465-7.468,7.465c-4.129,0-7.473-3.343-7.473-7.465
	c0-4.129,3.343-7.467,7.473-7.467C246.597,321.247,249.943,324.585,249.943,328.714z"/>
<path style="fill:#FFFFFF;" d="M241.265,323.93c0.773,0.768,0.594,2.191-0.392,3.167c-0.993,0.998-2.406,1.18-3.182,0.415
	c-0.748-0.758-0.584-2.184,0.415-3.174C239.094,323.348,240.509,323.164,241.265,323.93z"/>
<path style="fill:#E1EFFA;" d="M231.57,363.331c0,5.604-4.539,10.15-10.132,10.15c-5.612,0-10.153-4.544-10.153-10.15
	c0-5.601,4.539-10.148,10.153-10.148C227.031,353.183,231.57,357.727,231.57,363.331z"/>
<path style="fill:#FFFFFF;" d="M219.799,356.844c1.047,1.032,0.801,2.97-0.543,4.306c-1.344,1.339-3.261,1.587-4.314,0.548
	c-1.021-1.032-0.786-2.965,0.548-4.298C216.84,356.047,218.772,355.794,219.799,356.844z"/>
<path style="fill:#E1EFFA;" d="M287.337,350.963c0,8.589-6.971,15.565-15.56,15.565c-8.596,0-15.557-6.976-15.557-15.565
	c0-8.586,6.958-15.542,15.557-15.542C280.369,335.419,287.337,342.374,287.337,350.963z"/>
<path style="fill:#FFFFFF;" d="M269.274,341.025c1.595,1.587,1.213,4.552-0.837,6.595c-2.056,2.058-5.005,2.437-6.6,0.842
	c-1.585-1.58-1.219-4.541,0.837-6.602C264.73,339.809,267.692,339.425,269.274,341.025z"/>
<circle style="fill:#E1EFFA;" cx="298.266" cy="376.832" r="4.506"/>
<path style="fill:#FFFFFF;" d="M297.544,373.957c0.468,0.463,0.351,1.321-0.243,1.917c-0.596,0.589-1.449,0.701-1.923,0.238
	c-0.448-0.456-0.353-1.321,0.248-1.91C296.223,373.604,297.091,373.499,297.544,373.957z"/>
<g>
</g>
<g>
</g>
<g>
</g>
<g>
</g>
<g>
</g>
<g>
</g>
<g>
</g>
<g>
</g>
<g>
</g>
<g>
</g>
<g>
</g>
<g>
</g>
<g>
</g>
<g>
</g>
<g>
</g>
</svg>
