<?xml version="1.0" encoding="iso-8859-1"?>
<!-- Generator: Adobe Illustrator 19.0.0, SVG Export Plug-In . SVG Version: 6.00 Build 0)  -->
<svg version="1.1" id="Layer_1" xmlns="http://www.w3.org/2000/svg" xmlns:xlink="http://www.w3.org/1999/xlink" x="0px" y="0px"
	 viewBox="0 0 512 512" style="enable-background:new 0 0 512 512;" xml:space="preserve">
<circle style="fill:#C1D354;" cx="256" cy="256" r="256"/>
<path style="fill:#9DB138;" d="M510.792,280.686L352.617,122.54c-0.353-0.445-0.796-0.888-1.277-1.28
	c-1.687-1.416-3.773-2.217-6.111-2.217H343.9c-5.309,0-9.608,4.337-9.608,9.608v25.536c-9.124,2.847-16.52,9.459-20.572,17.981
	l-49.582-49.587c0,0-0.044,0-0.044-0.044l-1.285-1.28c-0.044,0-0.044-0.046-0.044-0.046c-1.684-1.37-3.804-2.171-6.067-2.171h-1.37
	c-5.268,0-9.608,4.337-9.608,9.608v64.125l-70.108-70.106c-0.044-0.044-0.044-0.087-0.084-0.131l-1.285-1.28
	c-0.092-0.046-0.133-0.092-0.174-0.133c-1.638-1.334-3.674-2.081-5.926-2.081h-1.377c-5.268,0-9.556,4.337-9.556,9.608v82.368
	c-13.898,4.337-23.992,17.308-23.992,32.627c0,15.314,10.092,28.321,23.992,32.66v107.021c0,2.171,0.709,4.165,1.946,5.801
	l1.546,1.595c0.044,0.09,0.141,0.141,0.225,0.182l119.877,119.877C402.417,499.085,499.146,402.319,510.792,280.686z"/>
<path style="fill:#FFFFFF;" d="M177.72,383.342c0,5.281-4.314,9.595-9.587,9.595h-1.37c-5.281,0-9.58-4.314-9.58-9.595V128.648
	c0-5.271,4.298-9.587,9.58-9.587h1.37c5.274,0,9.587,4.316,9.587,9.587V383.342z"/>
<circle style="fill:#FF8E31;" cx="167.45" cy="243.686" r="34.235"/>
<path style="fill:#34495E;" d="M167.444,257.375c-7.565,0-13.688-6.149-13.688-13.699c0-7.557,6.124-13.696,13.688-13.696
	c7.557,0,13.696,6.136,13.696,13.696C181.14,251.226,175.002,257.375,167.444,257.375z"/>
<path style="fill:#FFFFFF;" d="M266.276,383.342c0,5.281-4.321,9.595-9.6,9.595h-1.354c-5.274,0-9.595-4.314-9.595-9.595V128.648
	c0-5.271,4.321-9.587,9.595-9.587h1.354c5.281,0,9.6,4.316,9.6,9.587V383.342z"/>
<path style="fill:#FF8E31;" d="M290.23,331.308c0,18.908-15.324,34.24-34.23,34.24c-18.898,0-34.237-15.332-34.237-34.24
	c0-18.898,15.34-34.237,34.237-34.237C274.906,297.07,290.23,312.41,290.23,331.308z"/>
<path style="fill:#34495E;" d="M256,345.011c-7.549,0-13.696-6.152-13.696-13.704c0-7.542,6.144-13.681,13.696-13.681
	c7.557,0,13.688,6.136,13.688,13.681C269.688,338.857,263.557,345.011,256,345.011z"/>
<path style="fill:#FFFFFF;" d="M354.824,383.342c0,5.281-4.321,9.595-9.587,9.595h-1.367c-5.276,0-9.587-4.314-9.587-9.595V128.648
	c0-5.271,4.314-9.587,9.587-9.587h1.367c5.268,0,9.587,4.316,9.587,9.587V383.342z"/>
<path style="fill:#FF8E31;" d="M378.785,186.852c0,18.903-15.329,34.232-34.237,34.232c-18.9,0-34.23-15.327-34.23-34.232
	c0-18.913,15.329-34.235,34.23-34.235C363.456,152.617,378.785,167.939,378.785,186.852z"/>
<path style="fill:#34495E;" d="M344.548,200.54c-7.542,0-13.696-6.144-13.696-13.688c0-7.557,6.152-13.691,13.696-13.691
	c7.557,0,13.704,6.134,13.704,13.691C358.249,194.396,352.105,200.54,344.548,200.54z"/>
<g>
</g>
<g>
</g>
<g>
</g>
<g>
</g>
<g>
</g>
<g>
</g>
<g>
</g>
<g>
</g>
<g>
</g>
<g>
</g>
<g>
</g>
<g>
</g>
<g>
</g>
<g>
</g>
<g>
</g>
</svg>
