<?xml version="1.0" encoding="iso-8859-1"?>
<!-- Generator: Adobe Illustrator 19.0.0, SVG Export Plug-In . SVG Version: 6.00 Build 0)  -->
<svg version="1.1" id="Layer_1" xmlns="http://www.w3.org/2000/svg" xmlns:xlink="http://www.w3.org/1999/xlink" x="0px" y="0px"
	 viewBox="0 0 512 512" style="enable-background:new 0 0 512 512;" xml:space="preserve">
<circle style="fill:#34495E;" cx="256" cy="256" r="256"/>
<path style="fill:#203549;" d="M510.336,284.879L368.75,143.286c-27.684-27.684-72.561-27.684-100.211-0.036
	c-25.124,25.129-27.464,64.402-6.986,92.157l-26.143,26.148c-27.756-20.472-67.036-18.132-92.122,6.986
	c-27.684,27.651-27.684,72.522,0,100.209l141.586,141.586C403.169,497.047,497.047,403.182,510.336,284.879z"/>
<g>
	<path style="fill:#FFFFFF;" d="M143.27,268.531c-27.671,27.671-27.671,72.535,0,100.214c27.666,27.666,72.535,27.666,100.206-0.008
		c27.674-27.671,27.674-72.535,0-100.206C215.805,240.858,170.936,240.852,143.27,268.531z M228.444,353.713
		c-19.331,19.336-50.808,19.328-70.144-0.008c-19.341-19.341-19.338-50.806,0-70.139c19.341-19.336,50.806-19.341,70.144,0
		C247.782,302.899,247.782,334.369,228.444,353.713z"/>
	<path style="fill:#FFFFFF;" d="M268.526,143.265c-27.671,27.671-27.671,72.54,0.005,100.214c27.663,27.674,72.535,27.674,100.206,0
		c27.674-27.679,27.674-72.54,0.008-100.206C341.066,115.594,296.197,115.594,268.526,143.265z M353.713,228.454
		c-19.336,19.336-50.816,19.328-70.149-0.005c-19.346-19.343-19.338-50.813,0-70.147c19.338-19.333,50.808-19.341,70.149,0
		C373.046,177.636,373.048,209.114,353.713,228.454z"/>
</g>
<path style="fill:#FF8E31;" d="M306.606,206.403c3.86,3.855,3.86,10.171,0.008,14.026l-86.185,86.18
	c-3.85,3.858-10.173,3.858-14.026,0l-0.998-1.004c-3.868-3.858-3.863-10.179-0.005-14.026l86.185-86.182
	c3.845-3.855,10.166-3.863,14.024,0.005L306.606,206.403z"/>
<g>
</g>
<g>
</g>
<g>
</g>
<g>
</g>
<g>
</g>
<g>
</g>
<g>
</g>
<g>
</g>
<g>
</g>
<g>
</g>
<g>
</g>
<g>
</g>
<g>
</g>
<g>
</g>
<g>
</g>
</svg>
