<?xml version="1.0" encoding="iso-8859-1"?>
<!-- Generator: Adobe Illustrator 19.0.0, SVG Export Plug-In . SVG Version: 6.00 Build 0)  -->
<svg version="1.1" id="Layer_1" xmlns="http://www.w3.org/2000/svg" xmlns:xlink="http://www.w3.org/1999/xlink" x="0px" y="0px"
	 viewBox="0 0 512 512" style="enable-background:new 0 0 512 512;" xml:space="preserve">
<circle style="fill:#C1D354;" cx="256" cy="256" r="256"/>
<path style="fill:#9DB138;" d="M345.667,170.204v-0.036l-28.119-28.086l-22.382-12.951l-14.986,13.107l-23.38-23.38h-25.892
	l-6.433,18.947c-5.78,1.096-11.412,2.591-16.822,4.531l-15.107-13.204l-22.38,12.951l3.873,19.635
	c-2.191,1.938-4.347,3.878-6.397,5.926c-2.086,2.086-4.06,4.278-5.962,6.51l0.036-0.113l-19.638-3.878l-12.946,22.382l13.202,15.099
	c-1.94,5.414-3.471,11.013-4.498,16.794l-18.98,6.469v25.859l23.391,23.396l-13.115,14.999l12.946,22.382l28.088,28.086
	l156.424,156.426c84.603-24.23,151.24-90.857,175.473-175.465L345.667,170.204z"/>
<polygon style="fill:#5D6D7E;" points="297.664,311.293 303.501,317.138 310.326,323.919 312.947,326.566 326.566,312.942 
	311.299,297.659 "/>
<path style="fill:#FF8E31;" d="M340.444,312.86l46.981,46.971c3.533,3.517,5.724,8.412,5.719,13.793
	c0,5.394-2.186,10.284-5.719,13.814c-3.523,3.52-8.407,5.696-13.796,5.696c-5.389,0-10.266-2.176-13.798-5.706l-46.981-46.973
	L340.444,312.86z"/>
<path style="fill:#FEC979;" d="M333.965,319.347L333.965,319.347l3.812-3.827l46.986,46.986c2.975,2.972,4.608,6.917,4.6,11.118
	c0,4.221-1.633,8.174-4.6,11.141c-0.535,0.527-1.226,0.786-1.91,0.786c-0.694,0-1.388-0.259-1.917-0.794
	c-1.047-1.052-1.047-2.76,0-3.807c1.961-1.953,3.031-4.564,3.031-7.329c0.003-2.755-1.068-5.345-3.023-7.291L333.965,319.347z"/>
<g>
	<path style="fill:#34495E;" d="M312.852,340.452l27.592-27.592l-2.058-2.066c-1.242-1.249-2.941-2.01-4.831-2.01
		c-1.897,0-3.597,0.76-4.833,1.994l-17.94,17.953c-1.231,1.221-2.002,2.929-2.002,4.826c0,1.879,0.771,3.602,2.002,4.826
		L312.852,340.452z"/>
	<path style="fill:#34495E;" d="M155.653,243.858c0-48.712,39.491-88.212,88.21-88.212c48.717,0,88.212,39.498,88.205,88.212
		c0.008,48.719-39.491,88.202-88.205,88.218C195.146,332.06,155.653,292.577,155.653,243.858z"/>
</g>
<path style="fill:#5D6D7E;" d="M243.863,322.522c43.43,0,78.656-35.22,78.656-78.666c0-43.43-35.226-78.661-78.656-78.661
	c-43.441,0-78.666,35.228-78.666,78.661C165.197,287.304,200.42,322.522,243.863,322.522z"/>
<path style="fill:#E1EFFA;" d="M243.863,316.221c39.951,0,72.364-32.389,72.364-72.366c0-39.954-32.412-72.361-72.364-72.361
	c-39.962,0-72.364,32.404-72.364,72.361C171.502,283.832,203.899,316.221,243.863,316.221z"/>
<g>
	<path style="fill:#FFFFFF;" d="M245.76,183.373c-1.229-1.825-3.343-2.972-5.676-2.836c-9.989,0.604-19.425,3.42-28.055,8.422
		c-3.039,1.784-4.078,5.704-2.312,8.745c1.769,3.021,5.688,4.093,8.719,2.296c6.884-3.968,14.413-6.223,22.4-6.707
		c3.507-0.182,6.208-3.208,5.983-6.715C246.787,185.354,246.38,184.266,245.76,183.373z"/>
	<path style="fill:#FFFFFF;" d="M204.795,204.352c-0.338-0.515-0.781-0.975-1.27-1.385c-2.742-2.24-6.758-1.805-8.975,0.927
		c-6.518,8.005-11,17.615-12.982,27.832c-2.34,12.137-1.116,24.553,3.535,35.953c1.359,3.279,5.089,4.818,8.343,3.474
		c3.269-1.329,4.82-5.043,3.487-8.328c-3.715-9.075-4.677-18.998-2.796-28.677c1.546-8.161,5.128-15.823,10.332-22.208
		C206.277,209.725,206.326,206.6,204.795,204.352z"/>
</g>
<path style="fill:#34495E;" d="M263.252,349.885c0.005,0,0.005,0,0.013,0v-14.044c-6.264,1.321-12.749,2.015-19.402,2.015
	c-51.914,0-94.003-42.081-94.003-93.998c0-51.901,42.089-93.998,94.003-93.998c51.917,0,94.001,42.097,94.001,93.998
	c0,6.651-0.696,13.133-2.012,19.382h14.095l18.921-6.467v-25.846l-18.975-6.474v0.02c-1.047-5.788-2.563-11.407-4.498-16.835
	l13.176-15.078l-12.918-22.397l-19.663,3.884l0.061,0.105c-1.917-2.24-3.909-4.411-5.99-6.49c-2.089-2.092-4.252-4.086-6.497-5.998
	l0.108,0.069l3.884-19.663l-22.392-12.931l-15.094,13.181c-5.425-1.938-11.044-3.436-16.832-4.508h0.018l-6.464-18.954h-25.864
	l-6.464,18.954h0.018c-5.78,1.073-11.42,2.57-16.85,4.508l-15.078-13.181l-22.39,12.931l3.884,19.663l0.113-0.069
	c-2.25,1.912-4.426,3.904-6.505,5.998c-2.089,2.081-4.081,4.25-5.996,6.49l0.074-0.105l-19.671-3.884l-12.931,22.397l13.189,15.078
	c-1.925,5.43-3.448,11.046-4.503,16.835v-0.02l-18.962,6.474v25.853l18.962,6.482v-0.023c1.055,5.796,2.578,11.412,4.503,16.827
	l-13.189,15.094l12.938,22.397l19.663-3.878l-0.074-0.113c1.915,2.248,3.912,4.413,5.996,6.497c2.079,2.081,4.25,4.073,6.49,5.97
	l-3.981,19.607l22.397,12.938l15.071-13.189c5.43,1.94,11.054,3.443,16.832,4.495l0,0l6.464,18.97h25.866l6.472-18.97
	L263.252,349.885L263.252,349.885z"/>
<g>
</g>
<g>
</g>
<g>
</g>
<g>
</g>
<g>
</g>
<g>
</g>
<g>
</g>
<g>
</g>
<g>
</g>
<g>
</g>
<g>
</g>
<g>
</g>
<g>
</g>
<g>
</g>
<g>
</g>
</svg>
