<?xml version="1.0" encoding="iso-8859-1"?>
<!-- Generator: Adobe Illustrator 19.0.0, SVG Export Plug-In . SVG Version: 6.00 Build 0)  -->
<svg version="1.1" id="Layer_1" xmlns="http://www.w3.org/2000/svg" xmlns:xlink="http://www.w3.org/1999/xlink" x="0px" y="0px"
	 viewBox="0 0 512 512" style="enable-background:new 0 0 512 512;" xml:space="preserve">
<circle style="fill:#C1D354;" cx="256" cy="256" r="256"/>
<path style="fill:#9DB138;" d="M493.455,351.654l-247.288-247.27h-37.911v7.59l2.135,2.135v27.369h-6.868v64.197v30.6l-0.008,0.008
	l5.962,5.962l-20.398-8.166l-3.354,8.371l7.086,6.748l-13.084,13.724c-0.817,0.878-1.313,2.079-1.295,3.392
	c0.01,0.307,0.054,0.617,0.115,0.906c0.02,0.092,0.054,0.174,0.077,0.266c0.056,0.197,0.118,0.399,0.205,0.589
	c0.036,0.077,0.074,0.148,0.113,0.218c0.097,0.202,0.205,0.392,0.33,0.584c0.036,0.044,0.069,0.1,0.105,0.141
	c0.069,0.1,0.133,0.205,0.215,0.294c0.095,0.1,0.218,0.218,0.32,0.317l0.02,0.028l29.581,29.576h-31.36v9.487l70.459,70.461h-82.644
	c-1.219,0-2.435,0.471-3.359,1.39c-0.937,0.927-1.393,2.143-1.393,3.359v4.744h-5.22c-1.674,0-3.395,0.653-4.692,1.953
	c-1.28,1.277-1.938,2.977-1.938,4.677v12.319l104.312,104.323c0.776,0.003,1.541,0.054,2.322,0.054
	C363.561,512,455.557,445.645,493.455,351.654z"/>
<rect x="203.52" y="141.466" style="fill:#FFFFFF;" width="47.393" height="94.797"/>
<path style="fill:#E1EFFA;" d="M250.908,179.32v56.937c6.502-9.782,15.496-15.836,25.444-15.836
	c19.804,0,35.858,24.041,35.858,53.691c0,21.673-8.573,40.335-20.933,48.824h-9.446v-14.223h-30.922v7.114h8.538v52.595
	c41.8-4.895,74.404-45.243,74.404-94.313C333.852,221.763,296.719,179.32,250.908,179.32z"/>
<rect x="214.426" y="317.005" style="fill:#283A4D;" width="25.585" height="18.954"/>
<g>
	<rect x="203.52" y="322.944" style="fill:#34495E;" width="78.313" height="7.099"/>
	<rect x="178.15" y="299.238" style="fill:#34495E;" width="103.68" height="9.48"/>
</g>
<g>
	<rect x="210.381" y="236.262" style="fill:#E1EFFA;" width="33.649" height="29.512"/>
	<rect x="210.381" y="111.969" style="fill:#E1EFFA;" width="33.649" height="29.496"/>
</g>
<rect x="208.256" y="104.384" style="fill:#34495E;" width="37.914" height="7.585"/>
<path style="fill:#FFFFFF;" d="M234.319,284.726c0,1.216-0.471,2.422-1.398,3.343c-0.919,0.94-2.125,1.398-3.341,1.39h-4.736
	c-1.216,0-2.429-0.451-3.356-1.39c-0.932-0.919-1.39-2.135-1.39-3.343v-18.954h14.223v18.954H234.319z"/>
<polygon style="fill:#34495E;" points="244.04,265.769 185.72,242.432 189.056,234.066 247.383,257.398 "/>
<polygon style="fill:#283A4D;" points="185.72,242.432 210.194,265.769 244.04,265.769 "/>
<path style="fill:#FFFFFF;" d="M190.031,272.735c-0.842,0.886-2.012,1.436-3.315,1.475c-1.298,0.036-2.496-0.479-3.377-1.321
	l-3.433-3.264c-0.886-0.835-1.446-2.002-1.48-3.307c-0.028-1.316,0.474-2.522,1.303-3.4l13.084-13.722L203.1,259L190.031,272.735z"
	/>
<g>
	<path style="fill:#34495E;" d="M333.852,379.177h-67.965V345.06c0-3.405,1.3-6.797,3.904-9.39c2.573-2.591,5.978-3.891,9.37-3.891
		h0.32c1.656,0,3.354,0.307,4.977,0.97c1.641,0.653,3.052,1.62,4.247,2.76L333.852,379.177z"/>
	<path style="fill:#34495E;" d="M155.991,388.667c-1.687,0-3.392,0.645-4.698,1.946c-1.285,1.285-1.935,2.985-1.935,4.677v12.324
		h23.7l0,0c0-0.709,0.279-1.446,0.835-2.007c0.563-0.556,1.285-0.837,2.02-0.837h160.189c0.735,0,1.452,0.282,2.004,0.837
		c0.566,0.561,0.845,1.298,0.845,2.007l0,0h23.69V395.29c0-1.692-0.643-3.392-1.933-4.677c-1.3-1.3-3.005-1.946-4.69-1.946H155.991z
		"/>
</g>
<path style="fill:#283A4D;" d="M350.794,388.667H161.213v-4.746c0-1.216,0.453-2.424,1.388-3.346
	c0.927-0.932,2.135-1.398,3.351-1.398h180.106c1.213,0,2.419,0.466,3.343,1.398c0.934,0.919,1.395,2.13,1.395,3.346v4.746H350.794z"
	/>
<path style="fill:#FFFFFF;" d="M282.954,345.06c0,2.092-1.708,3.791-3.791,3.791c-2.099,0-3.791-1.7-3.791-3.791
	c0-2.099,1.692-3.791,3.791-3.791C281.247,341.268,282.954,342.961,282.954,345.06z"/>
<path style="fill:#34495E;" d="M272.187,179.32c0,11.758-9.544,21.281-21.279,21.281c-11.761,0-21.284-9.523-21.284-21.281
	c0-11.756,9.523-21.281,21.284-21.281C262.646,158.042,272.187,167.565,272.187,179.32z"/>
<path style="fill:#FFFFFF;" d="M259.878,179.32c0,4.959-4.006,8.975-8.968,8.975c-4.966,0-8.991-4.017-8.991-8.975
	s4.024-8.968,8.991-8.968C255.869,170.353,259.878,174.364,259.878,179.32z"/>
<g>
</g>
<g>
</g>
<g>
</g>
<g>
</g>
<g>
</g>
<g>
</g>
<g>
</g>
<g>
</g>
<g>
</g>
<g>
</g>
<g>
</g>
<g>
</g>
<g>
</g>
<g>
</g>
<g>
</g>
</svg>
