<?xml version="1.0" encoding="iso-8859-1"?>
<!-- Generator: Adobe Illustrator 19.0.0, SVG Export Plug-In . SVG Version: 6.00 Build 0)  -->
<svg version="1.1" id="Layer_1" xmlns="http://www.w3.org/2000/svg" xmlns:xlink="http://www.w3.org/1999/xlink" x="0px" y="0px"
	 viewBox="0 0 512 512" style="enable-background:new 0 0 512 512;" xml:space="preserve">
<circle style="fill:#0575A5;" cx="256" cy="256" r="256"/>
<path style="fill:#025E90;" d="M324.301,136.735l-5.322,10.76l-10.747-10.744h-6.559v26.898l-10.506,7.002h-0.796l0.31,0.312
	l-6.956,4.639l-56.701-56.699L216.2,142.211l-10.57-1.915l38.241,38.239h-6.682v3.013l-30.976-20.652l-79.636,53.046l49.812,33.193
	l-49.812,33.239l49.812,49.807l4.933,4.933l-4.923,4.92l159.263,159.26c83.392-27.287,147.899-96.218,168.952-182.246
	L324.301,136.735z"/>
<polygon style="fill:#B8D1E6;" points="176.407,247.15 256.008,300.216 256.008,194.084 "/>
<polygon style="fill:#CEE2F2;" points="335.608,247.15 256.008,300.216 256.008,194.084 "/>
<polygon style="fill:#FF9D4D;" points="176.407,247.15 176.407,340.032 256.008,393.103 256.008,300.216 "/>
<polygon style="fill:#F28124;" points="335.608,247.15 335.608,340.032 290.977,369.8 256.008,393.103 256.008,300.216 "/>
<g>
	<polygon style="fill:#F2F9FF;" points="305.83,160.878 256.008,194.084 335.608,247.15 385.426,213.942 	"/>
	<polygon style="fill:#F2F9FF;" points="256.008,300.216 206.211,333.437 126.6,280.363 176.407,247.15 	"/>
	<polygon style="fill:#F2F9FF;" points="256.008,194.084 176.407,247.15 126.577,213.942 206.211,160.878 	"/>
	<polygon style="fill:#F2F9FF;" points="385.426,280.363 305.823,333.437 256.008,300.216 335.608,247.15 	"/>
</g>
<g>
	<polygon style="fill:#34495E;" points="274.813,234.972 274.813,178.552 237.192,178.552 237.192,234.972 218.391,234.972 
		256.008,272.591 293.614,234.972 	"/>
	<polygon style="fill:#34495E;" points="324.308,170.655 324.308,136.727 301.678,136.727 301.678,170.655 290.371,170.655 
		312.993,193.283 335.608,170.655 	"/>
	<polygon style="fill:#34495E;" points="227.031,140.298 227.031,118.894 212.772,118.894 212.772,140.298 205.637,140.298 
		219.901,154.555 234.166,140.298 	"/>
</g>
<g>
</g>
<g>
</g>
<g>
</g>
<g>
</g>
<g>
</g>
<g>
</g>
<g>
</g>
<g>
</g>
<g>
</g>
<g>
</g>
<g>
</g>
<g>
</g>
<g>
</g>
<g>
</g>
<g>
</g>
</svg>
