<?xml version="1.0" encoding="iso-8859-1"?>
<!-- Generator: Adobe Illustrator 19.0.0, SVG Export Plug-In . SVG Version: 6.00 Build 0)  -->
<svg version="1.1" id="Layer_1" xmlns="http://www.w3.org/2000/svg" xmlns:xlink="http://www.w3.org/1999/xlink" x="0px" y="0px"
	 viewBox="0 0 512 512" style="enable-background:new 0 0 512 512;" xml:space="preserve">
<circle style="fill:#C1D354;" cx="256" cy="256" r="256"/>
<path style="fill:#9DB138;" d="M509.998,287.488L384.66,162.156l-1.83-1.83c-2.268-1.861-5.156-2.998-8.335-2.998H137.513
	c-7.24,0-13.169,5.924-13.169,13.169V315.32c0,2.849,0.916,5.519,2.524,7.675l2.962,2.964l180.244,180.27
	C415.452,483.558,496.673,396.047,509.998,287.488z"/>
<g>
	<rect x="251.597" y="328.474" style="fill:#E1EFFA;" width="8.781" height="26.33"/>
	<rect x="173.714" y="353.715" style="fill:#E1EFFA;" width="164.557" height="8.778"/>
</g>
<path style="fill:#FFFFFF;" d="M267.187,358.098c0,6.185-5.007,11.195-11.187,11.195c-6.18,0-11.192-5.01-11.192-11.195
	c0-6.175,5.012-11.182,11.192-11.182C262.18,346.916,267.187,351.923,267.187,358.098z"/>
<path style="fill:#0575A5;" d="M387.656,315.325c0,7.237-5.926,13.161-13.169,13.161H137.508c-7.245,0-13.164-5.921-13.164-13.161
	V170.493c0-7.245,5.921-13.161,13.164-13.161h236.979c7.24,0,13.169,5.916,13.169,13.161V315.325z"/>
<path style="fill:#3C93B9;" d="M374.487,157.332H137.508c-7.245,0-13.164,5.916-13.164,13.161v72.404h263.309v-72.404
	C387.656,163.249,381.727,157.332,374.487,157.332z"/>
<polygon style="fill:#E1EFFA;" points="223.084,204.9 288.909,242.898 223.084,280.916 "/>
<g>
</g>
<g>
</g>
<g>
</g>
<g>
</g>
<g>
</g>
<g>
</g>
<g>
</g>
<g>
</g>
<g>
</g>
<g>
</g>
<g>
</g>
<g>
</g>
<g>
</g>
<g>
</g>
<g>
</g>
</svg>
