<?xml version="1.0" encoding="iso-8859-1"?>
<!-- Generator: Adobe Illustrator 19.0.0, SVG Export Plug-In . SVG Version: 6.00 Build 0)  -->
<svg version="1.1" id="Layer_1" xmlns="http://www.w3.org/2000/svg" xmlns:xlink="http://www.w3.org/1999/xlink" x="0px" y="0px"
	 viewBox="0 0 512 512" style="enable-background:new 0 0 512 512;" xml:space="preserve">
<circle style="fill:#E1EFFA;" cx="256" cy="256" r="256"/>
<path style="fill:#BCD4E8;" d="M492.567,353.9L262.011,123.343l-0.458-0.451h-11.538v22.541l2.985,11.73h1.516v1.208
	c-11.835,0.758-21.202,10.616-21.202,22.651c0,1.761,0.212,3.466,0.589,5.107l-0.645,0.108c-1.966,0.348-3.891,0.745-5.814,1.193
	c-6.124,1.4-12.073,3.269-17.818,5.535c-1.917,0.758-3.807,1.551-5.676,2.401c-0.261,0.113-0.527,0.246-0.786,0.374l-1.193,0.568
	c-1.188,0.548-2.381,1.134-3.546,1.72c-1.6,0.822-3.182,1.692-4.754,2.583c-0.064,0.044-0.125,0.077-0.197,0.113l-1.382,0.799
	c-0.563,0.302-1.111,0.64-1.656,0.98c-1.736,1.039-3.464,2.153-5.14,3.287c-0.415,0.289-0.85,0.566-1.265,0.896l-1.096,0.748
	c-2.606,1.833-5.14,3.779-7.598,5.821l-1.229,1.021l0.018,0.018c-2.435,2.061-4.795,4.211-7.063,6.461l-0.479,0.489l-0.466,0.453
	c-0.55,0.568-1.096,1.137-1.649,1.7c-1.398,1.48-2.772,2.972-4.076,4.518c-0.264,0.264-0.497,0.548-0.742,0.829l-1.037,1.231
	c-0.056,0.074-0.131,0.151-0.187,0.225c-1.966,2.396-3.837,4.854-5.632,7.363c-0.266,0.364-0.512,0.719-0.758,1.085
	c-0.64,0.924-1.28,1.869-1.902,2.831c-1.341,2.043-2.614,4.114-3.822,6.216c-0.013,0.018-0.013,0.018-0.013,0.018
	c-0.077,0.133-0.159,0.246-0.212,0.381c-0.435,0.773-0.87,1.528-1.29,2.278c-0.96,1.802-1.905,3.615-2.772,5.443
	c-0.453,0.929-0.886,1.871-1.324,2.798c-1.183,2.614-2.25,5.312-3.249,8.031l-0.55,1.492h0.01c-0.236,0.65-0.489,1.29-0.707,1.946
	c-3.139,9.183-5.212,18.857-6.124,28.864l-0.113,1.341c-0.246,2.89-0.399,5.806-0.415,8.748h-0.02v1.608h-19.95v45l0.251,0.248
	l155.866,155.86C368.215,507.932,455.296,443.873,492.567,353.9z"/>
<path style="fill:#FF9D4D;" d="M256,229.445c44.772,0,81.203,36.426,81.203,81.203h45.256c0-69.839-56.62-126.454-126.456-126.454
	s-126.459,56.614-126.459,126.454h45.258C174.799,265.869,211.228,229.445,256,229.445z"/>
<path style="fill:#F28124;" d="M256.013,184.189c-69.86,0-126.451,56.62-126.451,126.454h18.632
	c0-59.453,48.348-107.822,107.82-107.822c59.443,0,107.82,48.369,107.82,107.822h18.639
	C382.472,240.809,325.844,184.189,256.013,184.189z"/>
<rect x="109.578" y="310.656" style="fill:#FF9D4D;" width="292.838" height="45.253"/>
<rect x="109.578" y="337.254" style="fill:#F28124;" width="292.838" height="18.634"/>
<g>
	<rect x="388.326" y="342.579" style="fill:#34495E;" width="1.587" height="13.315"/>
	<rect x="361.677" y="342.579" style="fill:#34495E;" width="1.592" height="13.315"/>
	<rect x="335.078" y="342.579" style="fill:#34495E;" width="1.587" height="13.315"/>
	<rect x="308.429" y="342.579" style="fill:#34495E;" width="1.6" height="13.315"/>
	<rect x="281.83" y="342.579" style="fill:#34495E;" width="1.587" height="13.315"/>
	<rect x="255.206" y="342.579" style="fill:#34495E;" width="1.6" height="13.315"/>
	<rect x="228.582" y="342.579" style="fill:#34495E;" width="1.595" height="13.315"/>
	<rect x="201.964" y="342.579" style="fill:#34495E;" width="1.587" height="13.315"/>
	<rect x="175.334" y="342.579" style="fill:#34495E;" width="1.595" height="13.315"/>
	<rect x="148.71" y="342.579" style="fill:#34495E;" width="1.595" height="13.315"/>
	<rect x="122.094" y="342.579" style="fill:#34495E;" width="1.597" height="13.315"/>
	<rect x="135.537" y="349.235" style="fill:#34495E;" width="1.331" height="6.656"/>
	<rect x="162.15" y="349.235" style="fill:#34495E;" width="1.336" height="6.656"/>
	<rect x="188.774" y="349.235" style="fill:#34495E;" width="1.329" height="6.656"/>
	<rect x="215.398" y="349.235" style="fill:#34495E;" width="1.329" height="6.656"/>
	<rect x="242.022" y="349.235" style="fill:#34495E;" width="1.329" height="6.656"/>
	<rect x="268.646" y="349.235" style="fill:#34495E;" width="1.324" height="6.656"/>
	<rect x="295.27" y="349.235" style="fill:#34495E;" width="1.334" height="6.656"/>
	<rect x="321.894" y="349.235" style="fill:#34495E;" width="1.329" height="6.656"/>
	<rect x="348.518" y="349.235" style="fill:#34495E;" width="1.334" height="6.656"/>
	<rect x="375.142" y="349.235" style="fill:#34495E;" width="1.329" height="6.656"/>
	<rect x="129.541" y="309.043" style="fill:#34495E;" width="13.317" height="1.603"/>
	
		<rect x="137.205" y="283.193" transform="matrix(-0.1763 0.9843 -0.9843 -0.1763 447.6402 205.1083)" style="fill:#34495E;" width="1.595" height="13.309"/>
	
		<rect x="142.607" y="262.995" transform="matrix(-0.3444 0.9388 -0.9388 -0.3444 445.9511 227.8871)" style="fill:#34495E;" width="1.6" height="13.312"/>
	<polygon style="fill:#34495E;" points="158.42,253.381 157.612,254.761 146.086,248.1 146.895,246.723 	"/>
	
		<rect x="163.44" y="226.962" transform="matrix(-0.6403 0.7681 -0.7681 -0.6403 448.8474 257.0582)" style="fill:#34495E;" width="1.595" height="13.317"/>
	
		<rect x="178.189" y="212.213" transform="matrix(-0.7655 0.6434 -0.6434 -0.7655 456.8226 271.264)" style="fill:#34495E;" width="1.587" height="13.319"/>
	<polygon style="fill:#34495E;" points="200.123,212.268 198.74,213.059 192.09,201.526 193.472,200.722 	"/>
	
		<rect x="214.249" y="191.403" transform="matrix(-0.9389 0.3442 -0.3442 -0.9389 485.1328 309.9961)" style="fill:#34495E;" width="1.603" height="13.312"/>
	
		<rect x="234.434" y="185.998" transform="matrix(-0.9847 0.1745 -0.1745 -0.9847 500.4659 341.3011)" style="fill:#34495E;" width="1.59" height="13.307"/>
	<rect x="255.206" y="184.184" style="fill:#34495E;" width="1.595" height="13.312"/>
	
		<rect x="276.006" y="186.016" transform="matrix(-0.9856 -0.169 0.169 -0.9856 517.0656 429.3561)" style="fill:#34495E;" width="1.597" height="13.314"/>
	
		<rect x="296.194" y="191.435" transform="matrix(-0.9396 -0.3424 0.3424 -0.9396 508.2117 485.9061)" style="fill:#34495E;" width="1.6" height="13.323"/>
	
		<rect x="315.109" y="200.217" transform="matrix(-0.8682 -0.4961 0.4961 -0.8682 487.5503 543.2341)" style="fill:#34495E;" width="1.592" height="13.327"/>
	<polygon style="fill:#34495E;" points="329.349,224.481 328.128,223.462 336.689,213.261 337.902,214.292 	"/>
	
		<rect x="347.02" y="226.971" transform="matrix(-0.6437 -0.7653 0.7653 -0.6437 392.9084 650.1918)" style="fill:#34495E;" width="1.592" height="13.315"/>
	
		<rect x="358.958" y="244.096" transform="matrix(-0.5002 -0.8659 0.8659 -0.5002 322.5749 687.6917)" style="fill:#34495E;" width="1.59" height="13.312"/>
	
		<rect x="367.793" y="263.003" transform="matrix(-0.3463 -0.9381 0.9381 -0.3463 243.2527 708.8293)" style="fill:#34495E;" width="1.587" height="13.322"/>
	
		<rect x="373.196" y="283.195" transform="matrix(-0.1771 -0.9842 0.9842 -0.1771 154.9564 709.2667)" style="fill:#34495E;" width="1.595" height="13.315"/>
	<rect x="369.126" y="309.043" style="fill:#34495E;" width="13.322" height="1.597"/>
	
		<rect x="132.68" y="296.583" transform="matrix(-0.0876 0.9962 -0.9962 -0.0876 443.7832 193.3502)" style="fill:#34495E;" width="1.329" height="6.656"/>
	
		<rect x="136.428" y="275.47" transform="matrix(-0.258 0.9661 -0.9661 -0.258 441.8233 218.2698)" style="fill:#34495E;" width="1.334" height="6.656"/>
	
		<rect x="143.759" y="255.296" transform="matrix(-0.4201 0.9075 -0.9075 -0.4201 439.7984 236.2082)" style="fill:#34495E;" width="1.336" height="6.661"/>
	
		<rect x="154.48" y="236.714" transform="matrix(-0.5718 0.8204 -0.8204 -0.5718 440.783 250.0206)" style="fill:#34495E;" width="1.326" height="6.659"/>
	
		<rect x="168.253" y="220.245" transform="matrix(-0.7057 0.7085 -0.7085 -0.7057 446.5295 261.6687)" style="fill:#34495E;" width="1.334" height="6.656"/>
	
		<rect x="184.709" y="206.424" transform="matrix(-0.8193 0.5733 -0.5733 -0.8193 457.5187 275.3298)" style="fill:#34495E;" width="1.336" height="6.658"/>
	
		<rect x="203.329" y="195.72" transform="matrix(-0.9096 0.4155 -0.4155 -0.9096 472.2547 295.3335)" style="fill:#34495E;" width="1.336" height="6.648"/>
	
		<rect x="223.481" y="188.356" transform="matrix(-0.9642 0.2651 -0.2651 -0.9642 491.0988 317.0941)" style="fill:#34495E;" width="1.339" height="6.664"/>
	
		<rect x="244.615" y="184.66" transform="matrix(-0.9963 0.0863 -0.0863 -0.9963 505.8682 354.1107)" style="fill:#34495E;" width="1.331" height="6.659"/>
	
		<rect x="266.077" y="184.651" transform="matrix(-0.9962 -0.0868 0.0868 -0.9962 516.1549 398.413)" style="fill:#34495E;" width="1.326" height="6.666"/>
	
		<rect x="287.2" y="188.396" transform="matrix(-0.9639 -0.2663 0.2663 -0.9639 514.2838 453.18)" style="fill:#34495E;" width="1.334" height="6.654"/>
	
		<rect x="307.375" y="195.706" transform="matrix(-0.9068 -0.4215 0.4215 -0.9068 503.4821 509.37)" style="fill:#34495E;" width="1.331" height="6.661"/>
	
		<rect x="325.949" y="206.471" transform="matrix(-0.8162 -0.5778 0.5778 -0.8162 471.9688 569.744)" style="fill:#34495E;" width="1.326" height="6.654"/>
	
		<rect x="342.402" y="220.263" transform="matrix(-0.7038 -0.7104 0.7104 -0.7038 425.6776 624.6628)" style="fill:#34495E;" width="1.326" height="6.651"/>
	
		<rect x="356.191" y="236.68" transform="matrix(-0.5689 -0.8224 0.8224 -0.5689 362.4926 670.0258)" style="fill:#34495E;" width="1.331" height="6.651"/>
	<polygon style="fill:#34495E;" points="364.872,260.621 364.303,259.412 370.342,256.599 370.898,257.805 	"/>
	
		<rect x="374.278" y="275.448" transform="matrix(-0.2536 -0.9673 0.9673 -0.2536 200.3647 712.1641)" style="fill:#34495E;" width="1.331" height="6.661"/>
	
		<rect x="378" y="296.565" transform="matrix(-0.0844 -0.9964 0.9964 -0.0844 111.8028 702.5193)" style="fill:#34495E;" width="1.331" height="6.656"/>
</g>
<rect x="254.515" y="150.203" style="fill:#F2F9FF;" width="2.998" height="10.486"/>
<rect x="253.875" y="159.923" style="fill:#5D6D7E;" width="4.283" height="4.275"/>
<rect x="208.896" y="260.71" style="fill:#34495E;" width="94.244" height="2.995"/>
<rect x="253.875" y="249.344" style="fill:#F2F9FF;" width="4.283" height="25.702"/>
<path style="fill:#34495E;" d="M256.013,203.717c-12.524,0-22.705-10.184-22.705-22.702c0-12.516,10.184-22.7,22.705-22.7
	c12.516,0,22.692,10.184,22.692,22.7C278.705,193.533,268.531,203.717,256.013,203.717z M256.013,160.886
	c-11.103,0-20.142,9.021-20.142,20.127c0,11.103,9.039,20.137,20.142,20.137c11.095,0,20.129-9.032,20.129-20.137
	C276.142,169.907,267.11,160.886,256.013,160.886z"/>
<path style="fill:#5D6D7E;" d="M308.301,389.064c0.136,0.059,0.261,0.059,0.387,0.026l0.338-0.087
	c0.125-0.036,0.238-0.108,0.33-0.22c0.077-0.11,0.125-0.236,0.125-0.366l-0.049-3.827l-3.302,0.886l1.882,3.338
	C308.07,388.92,308.168,389.007,308.301,389.064z"/>
<polygon style="fill:#34495E;" points="307.41,377.009 304.108,377.907 306.13,385.472 309.432,384.586 "/>
<path style="fill:#F2F9FF;" d="M303.921,354.752l5.926,22.134c0.287,1.055,0.166,2.222-0.43,3.251
	c-0.589,1.016-1.539,1.713-2.598,1.992l-0.407,0.113c-0.535,0.138-1.119,0.077-1.638-0.218c-0.504-0.294-0.85-0.773-0.991-1.3
	l-6.49-24.205L303.921,354.752z"/>
<polygon style="fill:#5D6D7E;" points="277.33,281.974 286.341,315.63 298.749,312.305 264.745,185.352 260.39,186.514 
	256.013,202.435 267.343,244.736 271.654,243.587 281.636,280.822 "/>
<polygon style="fill:#34495E;" points="286.341,315.63 303.091,378.168 306.222,377.334 310.077,354.555 298.749,312.305 "/>
<circle style="fill:#F2F9FF;" cx="306.278" cy="356.966" r="8.568"/>
<path style="fill:#5D6D7E;" d="M308.349,356.401c0.31,1.144-0.366,2.312-1.518,2.621c-1.144,0.305-2.309-0.374-2.616-1.518
	c-0.31-1.139,0.371-2.309,1.516-2.619C306.867,354.588,308.047,355.261,308.349,356.401z"/>
<rect x="289.159" y="292.909" transform="matrix(0.9646 -0.2636 0.2636 0.9646 -69.7864 87.1326)" style="fill:#34495E;" width="1.28" height="21.421"/>
<g>
	
		<rect x="295.917" y="292.841" transform="matrix(-0.9659 0.259 -0.259 -0.9659 664.0026 515.3376)" style="fill:#F2F9FF;" width="4.275" height="17.134"/>
	
		<rect x="281.878" y="303.363" transform="matrix(-0.9661 0.2582 -0.2582 -0.9661 634.7711 527.645)" style="fill:#F2F9FF;" width="1.723" height="4.28"/>
</g>
<polygon style="fill:#E1EFFA;" points="205.609,377.285 203.382,385.608 203.325,389.087 205.033,386.048 207.265,377.728 "/>
<path style="fill:#F2F9FF;" d="M206.044,369.052l-2.655,9.925c-0.177,0.637-0.105,1.339,0.253,1.951
	c0.351,0.622,0.919,1.032,1.559,1.201c0.632,0.164,1.334,0.1,1.946-0.256c0.617-0.358,1.032-0.929,1.201-1.562l2.655-9.933
	L206.044,369.052z"/>
<polygon style="fill:#5D6D7E;" points="230.387,280.822 240.366,243.587 244.68,244.736 256.013,202.435 251.625,186.514 
	247.283,185.352 201.951,354.555 205.791,377.334 208.916,378.168 234.698,281.974 "/>
<path style="fill:#F2F9FF;" d="M264.576,202.435c0,4.731-3.835,8.568-8.561,8.568c-4.741,0-8.568-3.837-8.568-8.568
	c0-4.731,3.827-8.566,8.568-8.566C260.741,193.869,264.576,197.701,264.576,202.435z"/>
<path style="fill:#5D6D7E;" d="M258.156,202.435c0,1.183-0.968,2.138-2.143,2.138c-1.185,0-2.14-0.96-2.14-2.138
	c0-1.183,0.955-2.143,2.14-2.143C257.188,200.292,258.156,201.252,258.156,202.435z"/>
<g>
	<circle style="fill:#34495E;" cx="231.117" cy="262.195" r="2.138"/>
	<circle style="fill:#34495E;" cx="280.883" cy="262.195" r="2.138"/>
</g>
<g>
	<rect x="221.824" y="260.07" style="fill:#F2F9FF;" width="4.283" height="4.28"/>
	<rect x="285.901" y="260.07" style="fill:#F2F9FF;" width="4.285" height="4.28"/>
</g>
<polygon style="fill:#5D6D7E;" points="262.006,145.436 259.005,157.156 253.01,157.156 250.017,145.436 "/>
<rect x="250.01" y="122.906" style="fill:#34495E;" width="11.988" height="22.541"/>
<g>
</g>
<g>
</g>
<g>
</g>
<g>
</g>
<g>
</g>
<g>
</g>
<g>
</g>
<g>
</g>
<g>
</g>
<g>
</g>
<g>
</g>
<g>
</g>
<g>
</g>
<g>
</g>
<g>
</g>
</svg>
