<?xml version="1.0" encoding="iso-8859-1"?>
<!-- Generator: Adobe Illustrator 19.0.0, SVG Export Plug-In . SVG Version: 6.00 Build 0)  -->
<svg version="1.1" id="Layer_1" xmlns="http://www.w3.org/2000/svg" xmlns:xlink="http://www.w3.org/1999/xlink" x="0px" y="0px"
	 viewBox="0 0 512 512" style="enable-background:new 0 0 512 512;" xml:space="preserve">
<circle style="fill:#E1EFFA;" cx="256" cy="256" r="256"/>
<path style="fill:#BCD4E8;" d="M355.763,163.843v-0.036c-13.012,2.796-26.552,5.084-40.53,6.828l-40.108-40.108
	c-0.294-0.294-0.586-0.584-0.881-0.878c-0.141-0.133-0.3-0.246-0.448-0.379c-0.443-0.399-0.906-0.794-1.388-1.172
	c-0.243-0.189-0.479-0.387-0.735-0.576c-0.653-0.484-1.344-0.947-2.066-1.39c-0.113-0.072-0.218-0.148-0.333-0.218
	c-1.743-1.052-3.656-1.958-5.691-2.719c-0.246-0.092-0.499-0.169-0.755-0.261c-0.758-0.266-1.528-0.512-2.317-0.73
	c-0.335-0.1-0.686-0.182-1.032-0.274c-0.73-0.182-1.475-0.343-2.232-0.484c-0.374-0.077-0.755-0.154-1.142-0.21
	c-0.783-0.133-1.577-0.233-2.381-0.317c-0.361-0.036-0.712-0.084-1.07-0.113c-1.167-0.092-2.34-0.156-3.535-0.156
	c-17.336,0-31.38,10.022-31.38,22.382c0,0.983,0.115,1.953,0.292,2.908c0.056,0.31,0.146,0.612,0.218,0.914
	c0.154,0.645,0.34,1.277,0.576,1.902c0.123,0.346,0.261,0.676,0.404,1.006c0.271,0.604,0.576,1.193,0.909,1.777
	c0.169,0.289,0.317,0.584,0.499,0.863c0.548,0.845,1.144,1.664,1.825,2.452c0.074,0.108,0.182,0.212,0.287,0.323l1.103,1.103
	c0.2,0.197,0.381,0.399,0.589,0.589c0.01,0.005,0.013,0.013,0.026,0.02l8.806,8.771c0.074,0.415,0.156,0.822,0.156,1.249
	c0,3.625-2.673,6.659-6.185,7.171c-5.332-0.225-10.588-0.584-15.823-0.963c-2.852-0.205-5.67-0.456-8.489-0.709
	c-3.11-0.274-6.205-0.576-9.277-0.906c-2.575-0.282-5.14-0.568-7.69-0.886c-3.448-0.428-6.861-0.899-10.26-1.398
	c-2.115-0.31-4.252-0.596-6.349-0.927c-5.458-0.87-10.86-1.805-16.164-2.844c-5.153,24.061-8.594,49.884-10.02,76.946
	c0.218,0.548,0.512,1.024,0.878,1.495l0.1,0.105c0.243,0.31,0.54,0.561,0.829,0.829l0.499,0.499l41.928,41.928
	c-3.786,4.096-8.52,6.561-13.66,6.561c-7.022,0-13.238-4.495-17.334-11.482c-0.182-0.287-0.33-0.512-0.435-0.801h-0.041
	c0-0.043,0-0.043,0-0.043c-1.313-2.01-3.548-3.364-6.141-3.364c-3.656,0-6.728,2.783-7.165,6.336
	c0.765,29.217,3.873,57.19,8.96,83.195l141.617,141.622c104.732-15.255,188.836-93.906,212.224-195.763L355.763,163.843z"/>
<path style="fill:#0575A5;" d="M376.251,239.109c-6.94,0-13.115,4.411-17.226,11.3c0,0.005-0.008,0.005-0.008,0.02
	c-0.256,0.415-0.494,0.842-0.73,1.285c0,0.005-0.008,0.013-0.008,0.028c-1.306,1.833-3.489,3.049-5.921,3.049
	c-3.738,0-6.828-2.824-7.204-6.469c0.077-1.684,0.131-3.364,0.225-5.043c0.02-0.379,0.041-0.75,0.061-1.132
	c1.446-27.574,5.02-53.896,10.337-78.316v-0.036h-0.02c-26.184,5.619-54.5,9.221-84.229,10.388c-3.768-0.253-6.756-3.4-6.756-7.235
	c0-2.578,1.344-4.826,3.343-6.118c0.015-0.005,0.028-0.028,0.044-0.028c0.01,0,0.01,0,0.021,0c0.274-0.141,0.548-0.289,0.814-0.451
	c6.999-4.093,11.482-10.345,11.482-17.326c0-12.355-14.044-22.382-31.365-22.382c-17.324,0-31.355,10.028-31.355,22.382
	c0,6.932,4.408,13.112,11.287,17.229c0,0,0.01,0.013,0.02,0.013c0.428,0.246,0.858,0.484,1.288,0.717
	c0.008,0,0.02,0.008,0.028,0.013c1.861,1.306,3.062,3.484,3.062,5.921c0,3.625-2.685,6.643-6.188,7.163
	c-25.933-1.108-50.78-4.081-74.051-8.637c-5.176,24.046-8.614,49.884-10.022,76.946c1.088,2.591,3.674,4.403,6.656,4.403
	c2.44,0,4.621-1.224,5.924-3.062l0.008-0.013c0.225-0.451,0.479-0.878,0.722-1.3c0-0.005,0.003-0.005,0.003-0.02
	c4.119-6.884,10.307-11.287,17.244-11.287c12.334,0,22.377,14.031,22.377,31.357c0,17.321-10.043,31.337-22.377,31.337
	c-6.994,0-13.245-4.48-17.339-11.489c-0.161-0.266-0.305-0.512-0.443-0.788c0-0.005-0.005-0.005-0.005-0.013
	c0-0.015-0.01-0.036-0.02-0.051c-1.295-1.999-3.553-3.336-6.124-3.336c-3.674,0-6.725,2.752-7.178,6.321
	c0.765,29.23,3.866,57.198,8.968,83.203c23.731,4.744,49.149,7.834,75.661,8.963c3.502-0.52,6.188-3.54,6.188-7.165
	c0-2.429-1.201-4.605-3.062-5.906c-0.008-0.008-0.02-0.023-0.028-0.023c-0.43-0.218-0.86-0.471-1.288-0.714
	c-0.01,0-0.01-0.008-0.01-0.008c-6.889-4.129-11.297-10.301-11.297-17.242c0-12.344,14.031-22.382,31.355-22.382
	c17.321,0,31.365,10.038,31.365,22.382c0,6.994-4.483,13.24-11.482,17.334c-0.266,0.166-0.54,0.307-0.814,0.448
	c-0.01,0-0.01,0-0.021,0c-0.015,0-0.028,0.008-0.044,0.015c-1.997,1.3-3.343,3.553-3.343,6.134c0,3.832,2.988,6.973,6.746,7.232
	c28.946-1.152,56.556-4.585,82.158-9.938c-4.145-21.315-6.932-43.958-8.187-67.512c0-0.008,0-0.008,0-0.008
	c-0.049-0.701-0.09-1.37-0.133-2.058c0-0.015,0-0.015,0-0.031c-0.079-1.592-0.125-3.18-0.202-4.803
	c0.489-3.525,3.52-6.244,7.163-6.244c2.57,0,4.841,1.334,6.136,3.346c0.008,0.008,0.015,0.036,0.015,0.044
	c0,0.005,0.015,0.005,0.015,0.02c0.125,0.266,0.271,0.512,0.438,0.788c4.099,6.999,10.342,11.489,17.331,11.489
	c12.347,0,22.374-14.031,22.374-31.352C398.625,253.148,388.598,239.109,376.251,239.109z"/>
<g>
</g>
<g>
</g>
<g>
</g>
<g>
</g>
<g>
</g>
<g>
</g>
<g>
</g>
<g>
</g>
<g>
</g>
<g>
</g>
<g>
</g>
<g>
</g>
<g>
</g>
<g>
</g>
<g>
</g>
</svg>
