<?xml version="1.0" encoding="iso-8859-1"?>
<!-- Generator: Adobe Illustrator 19.0.0, SVG Export Plug-In . SVG Version: 6.00 Build 0)  -->
<svg version="1.1" id="Layer_1" xmlns="http://www.w3.org/2000/svg" xmlns:xlink="http://www.w3.org/1999/xlink" x="0px" y="0px"
	 viewBox="0 0 512 512" style="enable-background:new 0 0 512 512;" xml:space="preserve">
<circle style="fill:#E1EFFA;" cx="256" cy="256" r="256"/>
<path style="fill:#BCD4E8;" d="M294.479,509.112c97.981-14.771,177.754-85.077,206.251-177.833L291.505,122.051l-60.751-12.283
	l-22.82,22.495c-10.22,9.979-18.309,22.397-23.345,36.751c-5.036,14.4-6.351,29.176-4.659,43.295l1.836,14.917l11.863,96.33
	l6.868,7.908l7.388,8.563h-5.885c-0.937,0-1.93,0.374-2.634,1.08c-0.75,0.753-1.129,1.692-1.129,2.685
	c0,0.991,0.379,1.93,1.129,2.683l3.436,3.433c-1.175,10.309-9.833,18.401-20.518,18.401v9.789c0,1.37,0.517,2.675,1.508,3.715
	l0.049,0.049l3.763,3.766v1.551h-0.049c-1.316,0-2.683,0.52-3.715,1.51c-1.039,1.075-1.556,2.396-1.556,3.766v0.745
	c0,1.27,0.476,2.542,1.413,3.579c0.049,0.044,0.095,0.143,0.143,0.182c0.095,0.051,0.141,0.148,0.23,0.189l4.329,4.334l-0.799,0.75
	L294.479,509.112z"/>
<path style="fill:#34495E;" d="M272.307,136.553c19.177-14.523,19.177-14.523,19.177-14.523l-60.733-12.262l-22.833,22.477
	c-10.191,9.981-18.299,22.418-23.332,36.769c-5.02,14.377-6.374,29.153-4.641,43.305L193.6,323.54
	C193.603,323.54,216.425,161.185,272.307,136.553z"/>
<path style="fill:#5D6D7E;" d="M238.09,136.451l34.217,0.102l15.987,14.728c0.65,0.576,1.224,1.293,1.674,2.109
	c0.451,0.776,0.745,1.626,0.932,2.511l0.886,4.347l24.492,30.743l3.766,2.335c0.919,0.538,1.615,1.4,1.938,2.478
	c0.333,1.096,0.236,2.222-0.233,3.167l-10.04,21.466c0,0-20.362,3.361-31.734-3.766c0.881-8.425-2.959-14.021-4.895-16.161
	c-11.384,6.612-27.602,3.599-34.522,1.349c6.042,68.006,90.161,113.249,90.161,113.249s-4.874,16.822-23.526,24.906
	c-33.539,0-99.302,0-99.302,0l-14.29-16.479l1.198-105.024c0.161-13.683,3.105-27.576,9.208-40.794
	c6.118-13.228,14.787-24.489,25.093-33.48L238.09,136.451z"/>
<path style="fill:#34495E;" d="M316.828,306.56c0,0-4.869,16.827-23.501,24.909c-27.172,0-75.505,0-92.854,0l7.416,8.548
	c0,0,65.764,0,99.302,0c18.652-8.082,23.526-24.906,23.526-24.906L316.828,306.56z"/>
<path style="fill:#283A4D;" d="M274.058,157.67c0,1.93,1.58,3.515,3.538,3.515c1.94,0,3.512-1.585,3.512-3.515
	c0-1.961-1.572-3.54-3.512-3.54C275.638,154.132,274.058,155.712,274.058,157.67z"/>
<g>
	<path style="fill:#5D6D7E;" d="M316.828,343.795c0,0.963-0.374,1.905-1.103,2.662c-0.722,0.753-1.697,1.111-2.675,1.111H202.015
		c-0.97,0-1.928-0.358-2.668-1.111c-0.735-0.758-1.111-1.7-1.111-2.662l0,0c0-0.991,0.374-1.946,1.111-2.691
		c0.74-0.707,1.7-1.088,2.668-1.088h111.037c0.978,0,1.953,0.379,2.675,1.088C316.452,341.85,316.828,342.804,316.828,343.795
		L316.828,343.795z"/>
	<path style="fill:#5D6D7E;" d="M182.298,368.284v9.805c0,1.382,0.525,2.739,1.539,3.743c1.029,1.06,2.396,1.567,3.735,1.567
		h139.919c1.365,0,2.703-0.507,3.735-1.567c1.037-1.004,1.546-2.36,1.546-3.743v-9.805H182.298z"/>
</g>
<path style="fill:#34495E;" d="M312.038,347.569h-109c0,11.433-9.288,20.718-20.741,20.718h150.474
	C321.316,368.284,312.038,358.999,312.038,347.569z"/>
<g>
	<rect x="187.597" y="383.411" style="fill:#283A4D;" width="139.843" height="3.771"/>
	<rect x="187.597" y="398.464" style="fill:#283A4D;" width="139.843" height="3.779"/>
</g>
<g>
	<path style="fill:#5D6D7E;" d="M332.772,393.198c0,1.347-0.507,2.691-1.546,3.743c-1.032,1.016-2.371,1.518-3.735,1.518H187.574
		c-1.341,0-2.708-0.499-3.735-1.518c-1.014-1.052-1.539-2.396-1.539-3.743v-0.768c0-1.334,0.525-2.691,1.539-3.743
		c1.029-1.006,2.396-1.518,3.735-1.518h139.919c1.365,0,2.703,0.512,3.735,1.518c1.037,1.052,1.546,2.409,1.546,3.743v0.768H332.772
		z"/>
	<polygon style="fill:#5D6D7E;" points="233.925,140.05 242.048,142.139 254.141,136.451 251.512,119.014 	"/>
</g>
<polygon style="fill:#283A4D;" points="240.66,137.879 249.019,127.88 249.999,134.254 "/>
<g>
</g>
<g>
</g>
<g>
</g>
<g>
</g>
<g>
</g>
<g>
</g>
<g>
</g>
<g>
</g>
<g>
</g>
<g>
</g>
<g>
</g>
<g>
</g>
<g>
</g>
<g>
</g>
<g>
</g>
</svg>
