<?xml version="1.0" encoding="iso-8859-1"?>
<!-- Generator: Adobe Illustrator 19.0.0, SVG Export Plug-In . SVG Version: 6.00 Build 0)  -->
<svg version="1.1" id="Layer_1" xmlns="http://www.w3.org/2000/svg" xmlns:xlink="http://www.w3.org/1999/xlink" x="0px" y="0px"
	 viewBox="0 0 512 512" style="enable-background:new 0 0 512 512;" xml:space="preserve">
<circle style="fill:#34495E;" cx="256" cy="256" r="256"/>
<path style="fill:#203549;" d="M487.281,365.932c-33.428,70.182-97.866,122.772-175.619,140.001L185.344,379.615
	c-2.486-5.268-0.366-9.293,2.342-11.3l-57.052-57.093c-0.036,0-0.069-0.036-0.108-0.105h-0.036
	c-0.038-0.036-0.074-0.077-0.108-0.113c-0.55-0.471-1.098-0.983-1.61-1.495c-0.402-0.407-0.804-0.842-1.17-1.285
	c-0.148-0.108-0.256-0.22-0.366-0.366c-0.768-0.837-1.462-1.759-2.086-2.67c-0.182-0.218-0.366-0.479-0.512-0.694
	c-0.435-0.617-0.804-1.242-1.17-1.897c-0.074-0.077-0.108-0.148-0.146-0.225c-2.854-4.936-4.462-10.639-4.462-16.714
	c0-9.247,3.802-17.697,9.91-23.841l0.84-0.835c-0.366-0.077-0.73-0.294-1.019-0.589c-0.443-0.435-0.66-1.024-0.66-1.61v-58.476
	c0-4.536,0.66-9.144,2.081-13.716c1.428-4.572,3.551-8.745,6.144-12.472l6.62-9.467l1.539-2.196
	c0.179-0.289,0.471-0.548,0.765-0.732c0.366-0.148,0.694-0.253,1.06-0.253h6.51c0.402,0,0.771,0.141,1.062,0.435l90.002,89.999
	l48.051,48.059l31.892-31.928l-86.707-86.715c-0.955-0.878-1.866-1.789-2.747-2.739c-4.388-4.79-8.046-10.422-10.716-16.786
	c-3.51-8.448-4.859-17.262-4.314-25.823l0.622-3.617l3.108,1.027c11.264,4.347,22.272,9.83,32.804,16.594
	c10.606,6.771,20.188,14.41,28.854,22.825l59.61,58.186l26.189,22.748c4.275,1.495,8.154,3.799,11.443,6.728l2.783,2.772
	L487.281,365.932z"/>
<path style="fill:#FFFFFF;" d="M162.168,240.051c0-1.805,1.454-3.251,3.254-3.251v-4.193c0-0.484-0.028-0.983-0.1-1.482
	c-0.056-0.504-0.154-0.998-0.284-1.467l-1.536-5.926c-0.077-0.31-0.253-0.589-0.525-0.806c-0.274-0.212-0.591-0.323-0.922-0.323
	h-1.385c-0.389,0-0.771,0.156-1.068,0.451c-0.289,0.287-0.435,0.673-0.435,1.06v6.449c-5.565-0.694-12.5-4.227-12.5-12.698
	c0-8.561,1.044-14.333,4.895-24.899c0.095-0.274,1.784-4.713,1.784-4.713c0.266-0.694,0.471-1.411,0.617-2.176
	c0.138-0.758,0.205-1.51,0.205-2.263v-20.831c0-0.379-0.148-0.765-0.438-1.055c-0.292-0.294-0.676-0.443-1.065-0.443h-6.525
	c-0.351,0-0.712,0.084-1.047,0.261c-0.323,0.169-0.594,0.415-0.801,0.701l-8.151,11.686c-2.604,3.722-4.687,7.9-6.124,12.46
	c-1.426,4.564-2.104,9.172-2.104,13.724v58.481c0,0.576,0.218,1.152,0.653,1.587c0.44,0.451,1.016,0.668,1.597,0.668h33.006
	c0.568,0,1.142-0.218,1.587-0.668c0.445-0.435,0.66-1.014,0.66-1.587v-15.501C163.622,243.295,162.168,241.841,162.168,240.051z"/>
<path style="fill:#B8D1E6;" d="M133.903,206.915c0-5.591-1.006-10.724-2.673-14.812v29.617
	C132.9,217.641,133.903,212.498,133.903,206.915z"/>
<path style="fill:#FFFFFF;" d="M284.57,172.797c-8.663-8.392-18.271-16.061-28.849-22.82c-10.555-6.756-21.563-12.255-32.812-16.589
	l-3.128-1.024l-0.602,3.597c-0.548,8.568,0.801,17.388,4.324,25.851c3.535,8.463,8.858,15.621,15.334,21.258l74.491,63.798
	c0.594,0.52,1.267,0.963,2.01,1.293c0.755,0.351,1.531,0.568,2.304,0.681l3.894,0.54l23.475-17.58L284.57,172.797z"/>
<path style="fill:#E1EFFA;" d="M374.147,257.068l-30.362-26.455l-22.244,18.772l-0.509,2.486c-0.082,0.428-0.074,0.886,0.077,1.313
	c0.148,0.451,0.404,0.822,0.735,1.103l31.104,27.108L374.147,257.068z"/>
<g>
	<polygon style="fill:#B8D1E6;" points="343.785,230.612 321.541,249.385 317.645,248.845 	"/>
	<path style="fill:#B8D1E6;" d="M269.553,170.703c6.579,5.732,13.512,10.002,19.804,12.508l-34.895-30.41
		C257.795,158.679,262.966,164.966,269.553,170.703z"/>
</g>
<path style="fill:#FFFFFF;" d="M295.094,315.5l-0.545,0.279c-0.323,0.177-0.87,0.474-1.523,0.955
	c-1.262,0.906-3.039,2.55-4.406,5.225c-0.722,1.421-1.249,2.98-1.572,4.631c-0.174,0.899-0.292,1.825-0.353,2.767l-0.031,0.737
	l-0.008,0.21c0,0.189,0,0.392,0,0.548l0.038,1.277c0.013,0.274,0,0.52-0.02,0.73c-0.018-0.02-0.051-0.041-0.079-0.069
	c-0.302-0.218-0.622-0.481-1.024-0.835c-0.346-0.294-0.899-0.745-1.444-1.152c-2.225-1.623-4.628-2.719-7.137-3.246
	c-2.903-0.594-5.788-0.358-8.33,0.691c-0.233,0.09-0.471,0.189-0.694,0.302c-1.093,0.517-2.125,1.201-3.018,1.974
	c-1.121,0.97-2.094,2.127-2.898,3.448c-1.523,2.522-2.396,5.586-2.509,8.85c-0.01,0.374-0.02,0.886-0.01,1.195l0.028,1.011
	c0.015,0.392,0,0.717-0.018,0.991c-0.381-0.266-0.832-0.645-1.303-1.052c-1.265-1.096-2.642-2.015-4.065-2.752
	c-3.141-1.61-6.574-2.22-9.679-1.731c-1.27,0.197-2.522,0.579-3.699,1.139c-1.861,0.891-3.51,2.209-4.777,3.804
	c-1.984,2.481-3.21,5.683-3.528,9.257c-0.038,0.415-0.067,0.835-0.074,1.242c-0.015,0.156-0.015,0.315-0.02,0.484v0.182l0.005,0.563
	l0.036,1.037c0,0.289,0,0.556-0.02,0.796c0,0.061-0.015,0.113-0.02,0.166c-0.266-0.174-0.586-0.42-0.975-0.758l-0.842-0.701
	c-0.31-0.261-0.637-0.504-0.965-0.753c-0.65-0.471-1.336-0.911-2.04-1.298c-2.911-1.654-6.162-2.429-9.144-2.212
	c-1.567,0.118-3.092,0.489-4.508,1.121c-0.1,0.051-0.215,0.1-0.323,0.156c-1.249,0.589-2.429,1.405-3.423,2.353
	c-2.051,1.946-3.535,4.564-4.298,7.578c-0.346,1.362-0.54,2.775-0.586,4.188c-0.02,0.33-0.02,0.765-0.02,1.068l0.028,0.911
	c0.02,0.556,0.01,0.991-0.028,1.334c0,0.054-0.008,0.097-0.008,0.148c-0.069-0.044-0.133-0.077-0.197-0.12
	c-0.266-0.182-0.568-0.415-0.975-0.76l-0.205-0.174c-0.338-0.287-0.707-0.609-1.068-0.899c-0.998-0.781-1.915-1.421-2.816-1.948
	l-0.169-0.097c-1.964-1.152-5.619-3.287-10.726-0.858c-3.292,1.58-6.689,6.021-3.74,12.193c-0.612-4.347,2.437-6.84,4.572-7.857
	c0.701-0.338,1.436-0.527,2.117-0.543c3.548-0.077,5.862,2.199,6.976,3.295c0.207,0.21,0.379,0.379,0.497,0.471
	c0.364,0.294,0.694,0.571,1.114,0.942c0.428,0.358,0.927,0.778,1.546,1.185c0.468,0.325,1.229,0.796,2.227,1.098
	c0.822,0.246,2.074,0.42,3.359-0.136l0.187-0.077l0.236-0.118c0.049-0.031,0.1-0.051,0.22-0.143
	c0.292-0.161,0.532-0.351,0.812-0.609l0.225-0.233c0.077-0.054,0.136-0.141,0.197-0.225l0.118-0.154
	c0.108-0.148,0.389-0.586,0.479-0.796c0.479-0.947,0.625-1.861,0.709-2.619c0.092-0.814,0.082-1.58,0.069-2.135l-0.018-0.855
	c0-0.294,0-0.466,0.008-0.724c0.038-0.991,0.189-1.966,0.417-2.908c0.512-1.961,1.457-3.638,2.747-4.846
	c0.617-0.571,1.28-1.024,2.03-1.39c0.079-0.038,0.166-0.072,0.246-0.113c0.829-0.361,1.761-0.589,2.685-0.648
	c1.887-0.125,3.976,0.399,5.901,1.482c0.479,0.279,0.955,0.589,1.408,0.919c0.233,0.174,0.461,0.346,0.676,0.527l0.765,0.653
	c0.589,0.504,1.293,1.068,2.184,1.58c0.54,0.294,1.039,0.52,1.577,0.676c0.366,0.097,0.678,0.161,0.96,0.195
	c0.148,0.023,0.302,0.023,0.453,0.023l0.276,0.008l0.343-0.031c0.072,0,0.161-0.013,0.323-0.044c0.125-0.02,0.253-0.049,0.397-0.082
	c0.179-0.056,0.356-0.105,0.53-0.182l0.274-0.113l0.133-0.077l0.205-0.105l0.251-0.143c0.212-0.133,0.369-0.259,0.494-0.366
	c0.148-0.113,0.282-0.253,0.415-0.392l0.015-0.02c0.123-0.105,0.207-0.212,0.266-0.317l0.069-0.09l0,0
	c0.036-0.056,0.108-0.141,0.161-0.241l0.161-0.246c0.095-0.161,0.143-0.266,0.205-0.387l0.046-0.09
	c0.082-0.161,0.131-0.31,0.177-0.451c0.131-0.302,0.2-0.596,0.266-0.858c0.12-0.479,0.195-0.968,0.233-1.516
	c0.031-0.415,0.041-0.837,0.041-1.341l-0.02-1.272c-0.01-0.105-0.01-0.218-0.01-0.292l0.01-0.422c0.01-0.287,0.028-0.576,0.059-0.87
	c0.225-2.348,1.037-4.495,2.291-6.034c0.745-0.94,1.72-1.713,2.798-2.225c0.712-0.338,1.449-0.563,2.227-0.684
	c1.902-0.294,4.063,0.12,6.08,1.167c0.983,0.489,1.92,1.137,2.806,1.902l0.067,0.069c0.512,0.435,1.134,0.978,1.882,1.475
	c0.819,0.548,1.774,1.096,3.092,1.313l0.079,0.008c0.156,0.023,0.302,0.044,0.468,0.044l0.246,0.008l0.174,0.008l0.261-0.023
	c0.069-0.008,0.148-0.013,0.397-0.049c0.133-0.031,0.251-0.051,0.407-0.092l0.233-0.077c0.189-0.049,0.34-0.12,0.502-0.189
	l0.133-0.054l0.148-0.077l0.225-0.12l0.148-0.097l0.243-0.156l0.079-0.061c0.138-0.105,0.269-0.21,0.428-0.366l0.205-0.197
	l0.12-0.141l0.133-0.161l0.11-0.156c0.018-0.02,0.046-0.061,0.079-0.105c0.113-0.174,0.22-0.351,0.348-0.568l0.197-0.422
	c0.212-0.504,0.374-1.016,0.486-1.631c0.174-0.996,0.184-1.853,0.174-2.66l-0.02-1.014c-0.008-0.351,0-0.532,0.01-0.819
	c0.079-2.186,0.658-4.201,1.641-5.814c0.489-0.796,1.075-1.482,1.743-2.045c0.525-0.463,1.091-0.822,1.705-1.119
	c0.161-0.077,0.323-0.148,0.492-0.21c0.737-0.302,1.587-0.492,2.388-0.54c0.809-0.056,1.654,0.013,2.509,0.189
	c1.605,0.351,3.215,1.096,4.682,2.171c0.358,0.261,0.681,0.54,1.011,0.819c0.433,0.374,0.893,0.768,1.405,1.152
	c0.458,0.338,1.078,0.758,1.889,1.137c0.369,0.161,0.781,0.33,1.226,0.43c0.248,0.069,0.489,0.097,0.717,0.133
	c0.105,0.015,0.225,0.015,0.33,0.02l0.351,0.008c0.1,0.008,0.205,0,0.282-0.013l0.184-0.015c0.131-0.015,0.353-0.056,0.52-0.092
	c0.164-0.041,0.264-0.069,0.371-0.097l0.069-0.02c0.125-0.044,0.261-0.092,0.374-0.136l0.236-0.105l0.312-0.166
	c0.166-0.1,0.497-0.287,0.73-0.492c0.115-0.097,0.233-0.197,0.34-0.315l0.179-0.189c0.095-0.077,0.182-0.182,0.253-0.294
	l0.125-0.182l0.118-0.169c0.079-0.125,0.148-0.246,0.236-0.392c0.051-0.085,0.084-0.166,0.148-0.294
	c0.095-0.197,0.166-0.384,0.238-0.596c0.299-0.819,0.394-1.551,0.458-2.092c0.054-0.668,0.061-1.257,0.054-1.692l-0.02-1.293
	c-0.008-0.12,0-0.218,0-0.302v-0.166l0.02-0.504c0.041-0.64,0.128-1.265,0.248-1.864c0.21-1.068,0.556-2.066,1.011-2.962
	c0.668-1.272,1.536-2.304,2.601-3.069c0.238-0.166,0.443-0.294,0.602-0.392l1.526,3.18l11.743-5.599l-4.419-9.247L295.094,315.5z
	 M232.947,360.328v-0.005l0.174,0.351L232.947,360.328z"/>
<path style="fill:#FF8E31;" d="M393.144,285.673c0,18.563-15.186,33.754-33.754,33.754H152.609
	c-18.57,0-33.754-15.191-33.754-33.754l0,0c0-18.563,15.183-33.754,33.754-33.754h206.781
	C377.961,251.919,393.144,267.11,393.144,285.673L393.144,285.673z"/>
<g>
	<path style="fill:#FFCA7A;" d="M239.26,263.171c0,2.473-2.028,4.503-4.503,4.503h-36.856c-2.47,0-4.493-2.03-4.493-4.503
		s2.022-4.495,4.493-4.495h36.856C237.235,258.675,239.26,260.698,239.26,263.171z"/>
	<path style="fill:#FFCA7A;" d="M130.107,290.176c-2.493,0-4.503-2.015-4.503-4.503c0-14.881,12.122-26.998,27.005-26.998h24.932
		c2.481,0,4.495,2.01,4.495,4.495c0,2.488-2.015,4.503-4.495,4.503h-24.932c-9.923,0-18.002,8.077-18.002,17.999
		C134.61,288.161,132.6,290.176,130.107,290.176z"/>
</g>
<g>
	<path style="fill:#FFFFFF;" d="M130.499,311.109h9.485v-8.75h-16.678C125.202,305.667,127.649,308.626,130.499,311.109z"/>
	<circle style="fill:#FFFFFF;" cx="359.398" cy="285.645" r="8.228"/>
</g>
<g>
</g>
<g>
</g>
<g>
</g>
<g>
</g>
<g>
</g>
<g>
</g>
<g>
</g>
<g>
</g>
<g>
</g>
<g>
</g>
<g>
</g>
<g>
</g>
<g>
</g>
<g>
</g>
<g>
</g>
</svg>
