<?xml version="1.0" encoding="iso-8859-1"?>
<!-- Generator: Adobe Illustrator 19.0.0, SVG Export Plug-In . SVG Version: 6.00 Build 0)  -->
<svg version="1.1" id="Layer_1" xmlns="http://www.w3.org/2000/svg" xmlns:xlink="http://www.w3.org/1999/xlink" x="0px" y="0px"
	 viewBox="0 0 512 512" style="enable-background:new 0 0 512 512;" xml:space="preserve">
<circle style="fill:#E1EFFA;" cx="256" cy="256" r="256"/>
<path style="fill:#BCD4E8;" d="M512,256c0-4.908-0.166-9.761-0.44-14.595L379.459,109.307h-5.704v15.286l-4.79-4.787h-5.668v15.322
	l-4.833-4.828h-5.704v23.224l-9.469,9.472c-22.858-21.432-53.542-34.596-87.296-34.596c-70.364,0-127.596,57.231-127.596,127.634
	c0,34.045,13.422,65.019,35.249,87.949c1.426,1.5,2.893,2.931,4.355,4.355l154.78,154.806C431.775,473.761,512,374.264,512,256z"/>
<path style="fill:#0575A5;" d="M256.008,383.601c-70.364,0-127.603-57.234-127.603-127.578c0-70.39,57.239-127.626,127.603-127.626
	c70.344,0,127.603,57.234,127.603,127.626C383.611,326.364,326.349,383.601,256.008,383.601z"/>
<path style="fill:#FFFFFF;" d="M256.008,364.362c-59.753,0-108.372-48.586-108.372-108.342c0-59.768,48.62-108.388,108.372-108.388
	c59.745,0,108.36,48.62,108.36,108.388C364.367,315.776,315.753,364.362,256.008,364.362z"/>
<path style="fill:#FF8E31;" d="M256,285.292c-16.146,0-29.294-13.135-29.294-29.279c0-16.169,13.148-29.299,29.294-29.299
	c16.154,0,29.286,13.13,29.286,29.299C285.286,272.159,272.154,285.292,256,285.292z"/>
<g>
	<rect x="255.13" y="151.526" style="fill:#0575A5;" width="1.761" height="11.725"/>
	
		<rect x="244.825" y="152.079" transform="matrix(0.9947 -0.1024 0.1024 0.9947 -14.882 25.9915)" style="fill:#0575A5;" width="1.759" height="11.722"/>
	<polygon style="fill:#0575A5;" points="235.871,165.453 237.578,165.1 235.146,153.631 233.428,154.002 	"/>
	
		<rect x="224.661" y="156.364" transform="matrix(0.9503 -0.3113 0.3113 0.9503 -39.2931 78.271)" style="fill:#0575A5;" width="1.751" height="11.714"/>
	<polygon style="fill:#0575A5;" points="217.485,171.625 219.082,170.918 214.326,160.207 212.721,160.927 	"/>
	
		<rect x="205.83" y="164.736" transform="matrix(0.8667 -0.4989 0.4989 0.8667 -57.5453 125.8678)" style="fill:#0575A5;" width="1.754" height="11.712"/>
	
		<rect x="197.175" y="170.355" transform="matrix(0.8105 -0.5857 0.5857 0.8105 -65.6836 149.3882)" style="fill:#0575A5;" width="1.746" height="11.714"/>
	
		<rect x="189.173" y="176.879" transform="matrix(0.745 -0.6671 0.6671 0.745 -73.4351 173.3784)" style="fill:#0575A5;" width="1.749" height="11.715"/>
	<polygon style="fill:#0575A5;" points="186.509,194.583 187.679,193.283 178.97,185.439 177.797,186.752 	"/>
	
		<rect x="175.393" y="192.187" transform="matrix(0.5846 -0.8113 0.8113 0.5846 -87.4519 225.2738)" style="fill:#0575A5;" width="1.754" height="11.707"/>
	<polygon style="fill:#0575A5;" points="175.258,210.371 176.133,208.858 165.99,203 165.115,204.529 	"/>
	
		<rect x="165.06" y="210.032" transform="matrix(0.404 -0.9148 0.9148 0.404 -98.5865 280.4655)" style="fill:#0575A5;" width="1.754" height="11.712"/>
	
		<rect x="161.373" y="219.643" transform="matrix(0.3072 -0.9516 0.9516 0.3072 -102.1937 310.6252)" style="fill:#0575A5;" width="1.748" height="11.717"/>
	
		<rect x="158.68" y="229.65" transform="matrix(0.205 -0.9788 0.9788 0.205 -103.6537 343.3918)" style="fill:#0575A5;" width="1.749" height="11.705"/>
	<polygon style="fill:#0575A5;" points="163.692,247.165 163.863,245.412 152.223,244.183 152.044,245.937 	"/>
	<rect x="151.552" y="255.104" style="fill:#0575A5;" width="11.712" height="1.756"/>
	
		<rect x="157.091" y="260.427" transform="matrix(-0.1081 -0.9941 0.9941 -0.1081 -89.6714 452.1111)" style="fill:#0575A5;" width="1.759" height="11.706"/>
	
		<rect x="158.713" y="270.623" transform="matrix(-0.2108 -0.9775 0.9775 -0.2108 -77.0254 490.7714)" style="fill:#0575A5;" width="1.766" height="11.712"/>
	<polygon style="fill:#0575A5;" points="168.087,285.463 167.539,283.812 156.398,287.421 156.938,289.091 	"/>
	
		<rect x="165.053" y="290.221" transform="matrix(-0.4068 -0.9135 0.9135 -0.4068 -37.0418 568.1033)" style="fill:#0575A5;" width="1.751" height="11.714"/>
	<polygon style="fill:#0575A5;" points="176.141,303.096 175.258,301.596 165.115,307.438 165.99,308.959 	"/>
	<polygon style="fill:#0575A5;" points="181.499,311.188 180.475,309.775 170.993,316.652 172.024,318.093 	"/>
	
		<rect x="181.877" y="316.085" transform="matrix(-0.6693 -0.743 0.743 -0.6693 65.8612 673.2018)" style="fill:#0575A5;" width="1.746" height="11.717"/>
	<polygon style="fill:#0575A5;" points="194.604,325.466 193.308,324.316 185.467,333.002 186.77,334.185 	"/>
	
		<rect x="197.194" y="329.877" transform="matrix(-0.8077 -0.5896 0.5896 -0.8077 160.0959 723.6822)" style="fill:#0575A5;" width="1.743" height="11.712"/>
	<polygon style="fill:#0575A5;" points="210.396,336.707 208.881,335.849 203.018,345.989 204.544,346.862 	"/>
	<polygon style="fill:#0575A5;" points="219.082,341.033 217.492,340.329 212.716,351.037 214.326,351.752 	"/>
	<polygon style="fill:#0575A5;" points="228.168,344.435 226.516,343.898 222.892,355.041 224.566,355.584 	"/>
	<polygon style="fill:#0575A5;" points="237.571,346.844 235.871,346.501 233.428,357.949 235.146,358.336 	"/>
	<polygon style="fill:#0575A5;" points="247.168,348.273 245.443,348.106 244.206,359.759 245.957,359.949 	"/>
	<polygon style="fill:#0575A5;" points="256.863,348.698 255.132,348.705 255.119,360.42 256.886,360.422 	"/>
	<polygon style="fill:#0575A5;" points="266.555,348.091 264.827,348.298 266.04,359.944 267.791,359.759 	"/>
	<polygon style="fill:#0575A5;" points="276.119,346.486 274.435,346.862 276.854,358.321 278.582,357.962 	"/>
	<polygon style="fill:#0575A5;" points="285.473,343.887 283.832,344.443 287.434,355.579 289.121,355.041 	"/>
	<polygon style="fill:#0575A5;" points="294.5,340.314 292.928,341.043 297.672,351.752 299.29,351.037 	"/>
	<polygon style="fill:#0575A5;" points="303.104,335.834 301.617,336.719 307.456,346.862 308.989,345.989 	"/>
	<polygon style="fill:#0575A5;" points="311.191,330.465 309.806,331.512 316.677,340.989 318.111,339.955 	"/>
	<polygon style="fill:#0575A5;" points="318.682,324.283 317.402,325.471 325.23,334.185 326.546,333.002 	"/>
	<polygon style="fill:#0575A5;" points="325.473,317.361 324.334,318.676 333.03,326.515 334.218,325.204 	"/>
	<polygon style="fill:#0575A5;" points="331.505,309.765 330.511,311.201 339.976,318.093 341.018,316.652 	"/>
	<polygon style="fill:#0575A5;" points="336.717,301.581 335.875,303.099 346.012,308.959 346.893,307.428 	"/>
	<polygon style="fill:#0575A5;" points="341.041,292.892 340.37,294.508 351.055,299.261 351.767,297.654 	"/>
	<polygon style="fill:#0575A5;" points="344.435,283.786 343.933,285.476 355.059,289.091 355.602,287.409 	"/>
	<polygon style="fill:#0575A5;" points="346.857,274.401 346.534,276.127 357.983,278.556 358.346,276.831 	"/>
	<polygon style="fill:#0575A5;" points="348.285,264.801 348.142,266.555 359.78,267.779 359.962,266.017 	"/>
	<polygon style="fill:#0575A5;" points="348.703,255.114 348.746,256.87 360.445,256.855 360.445,255.101 	"/>
	<polygon style="fill:#0575A5;" points="348.104,245.43 348.321,247.165 359.962,245.937 359.78,244.183 	"/>
	<polygon style="fill:#0575A5;" points="346.493,235.85 346.9,237.563 358.346,235.123 357.983,233.395 	"/>
	<polygon style="fill:#0575A5;" points="343.895,226.504 344.479,228.168 355.602,224.543 355.059,222.858 	"/>
	<polygon style="fill:#0575A5;" points="340.332,217.475 341.084,219.062 351.767,214.303 351.055,212.692 	"/>
	<polygon style="fill:#0575A5;" points="335.844,208.868 336.763,210.386 346.893,204.529 346.012,202.995 	"/>
	<polygon style="fill:#0575A5;" points="330.488,200.781 331.556,202.189 341.012,195.308 339.983,193.866 	"/>
	<polygon style="fill:#0575A5;" points="324.308,193.306 325.517,194.583 334.203,186.742 333.033,185.439 	"/>
	<polygon style="fill:#0575A5;" points="317.389,186.499 318.717,187.651 326.541,178.952 325.24,177.766 	"/>
	<polygon style="fill:#0575A5;" points="309.791,180.475 311.227,181.468 318.106,171.996 316.687,170.964 	"/>
	<polygon style="fill:#0575A5;" points="301.604,175.263 303.14,176.113 308.989,165.965 307.466,165.092 	"/>
	<polygon style="fill:#0575A5;" points="292.92,170.936 294.531,171.625 299.29,160.927 297.682,160.205 	"/>
	<polygon style="fill:#0575A5;" points="283.83,167.544 285.499,168.046 289.121,156.913 287.442,156.378 	"/>
	<polygon style="fill:#0575A5;" points="274.427,165.12 276.15,165.453 278.582,154.002 276.856,153.631 	"/>
	<polygon style="fill:#0575A5;" points="264.827,163.684 266.586,163.843 267.791,152.195 266.051,152.013 	"/>
</g>
<path style="fill:#B8742C;" d="M279.373,273.638c-1.638,2.153-3.581,4.099-5.734,5.734l-20.506-20.506l5.734-5.734L279.373,273.638z
	"/>
<path style="fill:#B8D1E6;" d="M335.411,329.677c-1.843,1.994-3.763,3.891-5.732,5.732l-56.041-56.038
	c2.153-1.638,4.099-3.581,5.734-5.734L335.411,329.677z"/>
<path style="fill:#046095;" d="M349.005,343.27c-0.922,1.001-1.869,1.974-2.816,2.921c-0.947,0.945-1.92,1.892-2.921,2.816
	l-13.594-13.596c1.971-1.843,3.891-3.738,5.732-5.732L349.005,343.27z"/>
<g>
	<polygon style="fill:#FF8E31;" points="402.685,138.243 373.77,138.243 373.77,109.312 379.471,109.312 379.471,132.524 
		402.685,132.524 	"/>
	<polygon style="fill:#FF8E31;" points="392.182,148.728 363.284,148.728 363.284,119.808 368.968,119.808 368.968,143.032 
		392.182,143.032 	"/>
	<polygon style="fill:#FF8E31;" points="381.704,159.214 352.778,159.214 352.778,130.299 358.482,130.299 358.482,153.533 
		381.704,153.533 	"/>
</g>
<path style="fill:#34495E;" d="M384.909,121.367L253.146,253.14c-1.59,1.577-1.59,4.155,0,5.74c1.592,1.574,4.134,1.574,5.711,0
	l131.758-131.786L384.909,121.367z"/>
<g>
</g>
<g>
</g>
<g>
</g>
<g>
</g>
<g>
</g>
<g>
</g>
<g>
</g>
<g>
</g>
<g>
</g>
<g>
</g>
<g>
</g>
<g>
</g>
<g>
</g>
<g>
</g>
<g>
</g>
</svg>
