<?xml version="1.0" encoding="iso-8859-1"?>
<!-- Generator: Adobe Illustrator 19.0.0, SVG Export Plug-In . SVG Version: 6.00 Build 0)  -->
<svg version="1.1" id="Layer_1" xmlns="http://www.w3.org/2000/svg" xmlns:xlink="http://www.w3.org/1999/xlink" x="0px" y="0px"
	 viewBox="0 0 512 512" style="enable-background:new 0 0 512 512;" xml:space="preserve">
<circle style="fill:#C1D354;" cx="256" cy="256" r="256"/>
<path style="fill:#9DB138;" d="M307.689,506.775c101.568-20.826,181.14-101.829,199.99-204.106L339.302,134.298l-9.224,9.221
	L299.41,112.85c-0.225-0.228-0.497-0.456-0.73-0.686c-1.82-1.457-4.052-2.23-6.285-2.23h-72.832c-2.506,0-5.056,1.001-7.022,2.913
	c-1.953,1.961-2.916,4.508-2.916,7.058v6.653h-3.412c-0.863,0-1.728,0.317-2.365,0.952c-0.64,0.645-0.963,1.51-0.963,2.373v3.412
	h-6.651v1.009h-23.549l16.899,41.446l6.651,6.651v35.853l3.553,3.553h-3.553v1.001h-23.549l16.899,41.5l6.651,6.651v35.804
	l3.553,3.553h-3.553v0.998h-23.549l16.899,41.5l6.651,6.653v35.845L307.689,506.775z"/>
<path style="fill:#5D6D7E;" d="M206.213,126.543c-0.855,0-1.7,0.328-2.353,0.963c-0.64,0.66-0.975,1.503-0.975,2.353v268.879
	c0,0.85,0.338,1.7,0.975,2.332c0.653,0.66,1.495,0.983,2.353,0.983h99.581c0.842,0,1.692-0.323,2.337-0.983
	c0.66-0.632,0.978-1.482,0.978-2.332V129.859c0-0.85-0.317-1.692-0.978-2.353c-0.645-0.635-1.495-0.963-2.337-0.963
	C305.795,126.543,206.213,126.543,206.213,126.543z"/>
<g>
	<path style="fill:#283A4D;" d="M302.359,126.543h-92.718v-6.636c0-2.55,0.963-5.1,2.916-7.045c1.953-1.948,4.495-2.913,7.043-2.913
		h72.796c2.563,0,5.112,0.965,7.043,2.913c1.953,1.946,2.924,4.495,2.924,7.045v6.636H302.359z"/>
	<rect x="309.12" y="133.299" style="fill:#283A4D;" width="6.636" height="84.966"/>
	<rect x="309.12" y="221.824" style="fill:#283A4D;" width="6.636" height="84.966"/>
	<rect x="309.12" y="310.323" style="fill:#283A4D;" width="6.636" height="84.966"/>
</g>
<path style="fill:#C1D354;" d="M289.193,352.812c0,18.332-14.863,33.185-33.193,33.185c-18.337,0-33.19-14.853-33.19-33.185
	c0-18.337,14.853-33.19,33.19-33.19C274.33,319.624,289.193,334.474,289.193,352.812z"/>
<path style="fill:#FF9D4D;" d="M289.193,264.294c0,18.342-14.863,33.19-33.193,33.19c-18.337,0-33.19-14.848-33.19-33.19
	c0-18.337,14.853-33.193,33.19-33.193C274.33,231.101,289.193,245.96,289.193,264.294z"/>
<path style="fill:#F28124;" d="M289.193,175.777c0,18.342-14.863,33.203-33.193,33.203c-18.337,0-33.19-14.861-33.19-33.203
	c0-18.327,14.853-33.19,33.19-33.19C274.33,142.584,289.193,157.45,289.193,175.777z"/>
<g>
	<path style="fill:#34495E;" d="M297.492,352.812h-3.323c0-21.056-17.121-38.177-38.17-38.177s-38.172,17.121-38.172,38.177h-3.313
		c0-22.881,18.604-41.492,41.485-41.492S297.492,329.933,297.492,352.812z"/>
	<path style="fill:#34495E;" d="M297.492,264.294h-3.323c0-21.043-17.121-38.167-38.17-38.167s-38.172,17.121-38.172,38.167h-3.313
		c0-22.879,18.604-41.495,41.485-41.495C278.881,222.799,297.492,241.418,297.492,264.294z"/>
	<path style="fill:#34495E;" d="M297.492,175.777h-3.323c0-21.046-17.121-38.172-38.17-38.172s-38.172,17.126-38.172,38.172h-3.313
		c0-22.881,18.604-41.482,41.485-41.482C278.881,134.292,297.492,152.896,297.492,175.777z"/>
	<polygon style="fill:#34495E;" points="322.383,175.777 315.745,175.777 315.745,134.292 339.315,134.292 	"/>
	<polygon style="fill:#34495E;" points="322.383,264.294 315.745,264.294 315.745,222.799 339.315,222.799 	"/>
	<polygon style="fill:#34495E;" points="322.383,352.812 315.745,352.812 315.745,311.319 339.315,311.319 	"/>
</g>
<g>
	<rect x="196.25" y="133.299" style="fill:#283A4D;" width="6.63" height="84.966"/>
	<rect x="196.25" y="221.824" style="fill:#283A4D;" width="6.63" height="84.966"/>
	<rect x="196.25" y="310.323" style="fill:#283A4D;" width="6.63" height="84.966"/>
</g>
<g>
	<polygon style="fill:#34495E;" points="189.609,175.777 196.255,175.777 196.255,134.292 172.685,134.292 	"/>
	<polygon style="fill:#34495E;" points="189.609,264.294 196.255,264.294 196.255,222.799 172.685,222.799 	"/>
	<polygon style="fill:#34495E;" points="189.609,352.812 196.255,352.812 196.255,311.319 172.685,311.319 	"/>
</g>
<ellipse transform="matrix(-0.7072 -0.7071 0.7071 -0.7072 299.6233 449.318)" style="fill:#FAAD46;" cx="242.859" cy="162.611" rx="9.729" ry="11.708"/>
<ellipse transform="matrix(-0.707 -0.7072 0.7072 -0.707 236.9297 600.4326)" style="fill:#FFCF66;" cx="242.843" cy="251.137" rx="9.725" ry="11.709"/>
<path style="fill:#DBEBA0;" d="M251.118,331.364c3.799,3.807,3.167,10.586-1.405,15.155c-4.564,4.572-11.356,5.204-15.155,1.398
	c-3.799-3.791-3.174-10.583,1.403-15.147C240.535,328.189,247.319,327.572,251.118,331.364z"/>
<g>
</g>
<g>
</g>
<g>
</g>
<g>
</g>
<g>
</g>
<g>
</g>
<g>
</g>
<g>
</g>
<g>
</g>
<g>
</g>
<g>
</g>
<g>
</g>
<g>
</g>
<g>
</g>
<g>
</g>
</svg>
