<?xml version="1.0" encoding="iso-8859-1"?>
<!-- Generator: Adobe Illustrator 19.0.0, SVG Export Plug-In . SVG Version: 6.00 Build 0)  -->
<svg version="1.1" id="Layer_1" xmlns="http://www.w3.org/2000/svg" xmlns:xlink="http://www.w3.org/1999/xlink" x="0px" y="0px"
	 viewBox="0 0 512 512" style="enable-background:new 0 0 512 512;" xml:space="preserve">
<circle style="fill:#FF8E31;" cx="256" cy="256" r="256"/>
<path style="fill:#ED7425;" d="M506.506,308.844L370.65,172.987l-31.631-31.631l-25.234-14.561l-16.888,14.748L270.561,115.2
	h-29.117l-7.314,21.358c-6.51,1.208-12.838,2.893-18.944,5.084l-16.963-14.848l-25.239,14.561l4.39,22.124l0.108-0.036
	c-2.524,2.122-4.972,4.388-7.314,6.728c-2.301,2.304-4.534,4.721-6.689,7.206l-22.131-4.39l-14.554,25.234l14.848,16.968
	c-2.194,6.111-3.876,12.436-5.084,18.941l-21.358,7.316v29.112l26.34,26.335l-14.746,16.893l14.554,25.231l31.634,31.631
	l135.854,135.854C407.813,485.74,485.732,407.821,506.506,308.844z"/>
<circle style="fill:#FFFFFF;" cx="255.949" cy="256" r="92.954"/>
<path style="fill:#0684BA;" d="M255.936,350.239c-0.776,0-1.539,0-2.296-0.031l-1.859-0.061
	c-22.646-0.998-44.193-10.163-60.669-25.818c-1.17-1.08-2.312-2.225-3.4-3.384c-16.154-16.952-25.359-39.183-25.928-62.582
	c-0.018-0.781-0.028-1.567-0.028-2.353c0-0.794,0.01-1.582,0.028-2.36c0.568-23.409,9.777-45.637,25.933-62.597
	c1.05-1.116,2.156-2.22,3.392-3.384c16.481-15.654,38.026-24.819,60.687-25.802c0.586-0.036,1.19-0.051,1.795-0.072
	c0.806-0.02,1.569-0.028,2.345-0.028c0.893,0,1.651,0.008,2.412,0.028c0.65,0.02,1.252,0.036,1.853,0.072
	c22.651,0.991,44.214,10.148,60.677,25.81c1.224,1.16,2.337,2.26,3.395,3.377c16.148,16.96,25.359,39.196,25.933,62.597
	c0.015,0.786,0.036,1.567,0.036,2.36c0,0.778-0.02,1.567-0.036,2.345c-0.573,23.404-9.784,45.629-25.933,62.597
	c-1.052,1.119-2.173,2.225-3.395,3.377c-16.463,15.654-38.019,24.819-60.682,25.818l-1.782,0.061
	c-0.829,0.031-1.587,0.031-2.36,0.031H255.936z M224.74,309.806c7.037,13.801,16.801,25.569,28.319,34.117v-38.129
	C243.397,306.025,233.884,307.374,224.74,309.806z M258.934,343.895c11.466-8.463,21.263-20.255,28.314-34.089
	c-9.149-2.437-18.668-3.781-28.314-4.009V343.895z M292.977,311.483c-6.211,12.503-14.318,23.247-24.11,31.928
	c17.362-2.522,33.364-10.099,46.454-22.003C308.39,317.348,300.882,314.004,292.977,311.483z M196.662,321.408
	c13.092,11.901,29.089,19.479,46.459,22.003c-9.797-8.689-17.9-19.425-24.118-31.928
	C211.123,314.004,203.615,317.34,196.662,321.408z M295.485,306.109c8.576,2.803,16.707,6.525,24.2,11.062
	c15.178-15.795,23.905-36.429,24.617-58.23h-38.572C305.344,275.3,301.814,291.584,295.485,306.109z M167.683,258.941
	c0.717,21.786,9.441,42.427,24.609,58.23c7.457-4.531,15.593-8.253,24.21-11.062c-6.328-14.546-9.871-30.825-10.24-47.168H167.683z
	 M258.934,299.901c10.519,0.238,20.91,1.756,30.889,4.508c6.167-13.932,9.631-29.629,10.015-45.468h-40.906v40.96H258.934z
	 M212.145,258.941c0.379,15.823,3.843,31.521,10.028,45.468c9.979-2.752,20.365-4.262,30.886-4.508v-40.96H212.145z
	 M344.302,253.064c-0.717-21.814-9.441-42.44-24.617-58.235c-7.511,4.552-15.642,8.266-24.2,11.062
	c6.328,14.538,9.861,30.817,10.245,47.173H344.302z M299.837,253.064c-0.384-15.816-3.837-31.514-10.015-45.468
	c-9.974,2.747-20.37,4.265-30.889,4.503v40.965H299.837z M253.059,253.064v-40.965c-10.524-0.238-20.908-1.756-30.894-4.503
	c-6.177,13.949-9.638,29.645-10.02,45.468H253.059z M206.262,253.064c0.374-16.343,3.912-32.622,10.24-47.173
	c-8.568-2.796-16.696-6.51-24.202-11.062c-15.176,15.8-23.9,36.436-24.617,58.235H206.262z M258.934,206.205
	c9.669-0.233,19.182-1.58,28.321-4.004c-7.037-13.814-16.801-25.592-28.321-34.138L258.934,206.205L258.934,206.205z
	 M224.732,202.202c9.142,2.424,18.662,3.771,28.324,4.004v-38.141C241.549,176.596,231.777,188.372,224.732,202.202z
	 M196.654,190.595c6.922,4.058,14.428,7.404,22.341,9.93c6.231-12.508,14.333-23.247,24.125-31.941
	C225.751,171.118,209.738,178.696,196.654,190.595z M268.872,168.584c9.779,8.689,17.894,19.418,24.125,31.933
	c7.859-2.514,15.375-5.85,22.331-9.93C302.234,178.696,286.213,171.118,268.872,168.584z"/>
<path style="fill:#34495E;" d="M396.8,270.554v-29.12l-21.373-7.291v0.028c-1.185-6.525-2.885-12.859-5.066-18.97l14.845-16.988
	l-14.556-25.226l-22.147,4.383l0.072,0.12c-2.153-2.529-4.403-4.972-6.746-7.319c-2.353-2.345-4.79-4.6-7.316-6.74l0.118,0.061
	l4.378-22.144l-25.226-14.566l-17.001,14.861c-6.111-2.184-12.436-3.884-18.957-5.076h0.02l-7.281-21.358h-29.135l-7.281,21.358
	h0.018c-6.51,1.193-12.854,2.893-18.97,5.076l-16.991-14.861l-25.216,14.566l4.372,22.144l0.125-0.061
	c-2.54,2.14-4.984,4.396-7.324,6.74c-2.353,2.348-4.6,4.79-6.751,7.319l0.077-0.12l-22.152-4.375l-14.561,25.226l14.851,16.98
	c-2.171,6.111-3.878,12.444-5.064,18.962v-0.02l-21.363,7.291v29.125l21.366,7.291v-0.015c1.185,6.518,2.893,12.854,5.064,18.947
	l-14.851,17.006l14.569,25.226l22.144-4.375l-0.077-0.12c2.156,2.529,4.408,4.966,6.751,7.319c2.342,2.337,4.782,4.585,7.306,6.728
	l-4.48,22.08l25.231,14.579l16.975-14.861c6.116,2.186,12.436,3.878,18.959,5.064h-0.008l7.281,21.366h29.138l7.286-21.366h-0.013
	c6.523-1.185,12.851-2.893,18.959-5.069l16.986,14.868l25.226-14.579l-4.38-22.141l-0.118,0.061c2.527-2.143,4.972-4.39,7.316-6.728
	c2.342-2.353,4.593-4.79,6.743-7.319l-0.069,0.113l22.147,4.378l14.561-25.221l-14.853-17.006
	c2.184-6.095,3.884-12.429,5.066-18.947v0.015L396.8,270.554z M256,361.879c-58.476,0-105.876-47.406-105.876-105.879
	c0-58.468,47.404-105.874,105.876-105.874S361.876,197.532,361.876,256C361.876,314.476,314.476,361.879,256,361.879z"/>
<g>
</g>
<g>
</g>
<g>
</g>
<g>
</g>
<g>
</g>
<g>
</g>
<g>
</g>
<g>
</g>
<g>
</g>
<g>
</g>
<g>
</g>
<g>
</g>
<g>
</g>
<g>
</g>
<g>
</g>
</svg>
