<?xml version="1.0" encoding="iso-8859-1"?>
<!-- Generator: Adobe Illustrator 19.0.0, SVG Export Plug-In . SVG Version: 6.00 Build 0)  -->
<svg version="1.1" id="Layer_1" xmlns="http://www.w3.org/2000/svg" xmlns:xlink="http://www.w3.org/1999/xlink" x="0px" y="0px"
	 viewBox="0 0 512 512" style="enable-background:new 0 0 512 512;" xml:space="preserve">
<circle style="fill:#E1EFFA;" cx="256" cy="256" r="256"/>
<path style="fill:#BCD4E8;" d="M495.777,345.761L347.461,197.445l-14.994-14.996c-20.001-16.75-45.018-26.511-71.165-27.681
	c-0.773-0.038-1.503-0.038-2.301-0.074c-0.584-0.02-1.16-0.028-1.759-0.033l-15.695-15.695c-1.769-2.033-3.681-3.945-5.716-5.716
	l-0.056-0.059c-0.056-0.049-0.12-0.087-0.177-0.138c-1.152-0.993-2.345-1.938-3.569-2.839c-0.169-0.115-0.323-0.236-0.484-0.356
	c-1.229-0.881-2.493-1.72-3.791-2.511c-0.118-0.069-0.23-0.151-0.351-0.22c-2.852-1.702-5.85-3.174-8.988-4.383
	c-0.246-0.092-0.492-0.169-0.732-0.256c-1.257-0.463-2.527-0.888-3.82-1.265c-0.471-0.138-0.955-0.264-1.434-0.389
	c-1.103-0.292-2.204-0.548-3.328-0.781c-0.548-0.108-1.088-0.218-1.644-0.312c-1.137-0.197-2.291-0.351-3.448-0.479
	c-0.504-0.059-1.011-0.133-1.523-0.174c-1.664-0.143-3.336-0.23-5.036-0.23c-32.371,0-58.588,26.22-58.588,58.583
	c0,14.228,5.084,27.284,13.527,37.45c-9.692,16.97-15.135,36.173-15.613,56.028c-0.036,0.983-0.036,1.974-0.036,2.998
	c0,0.993,0,1.974,0.036,2.964c0.696,27.389,10.719,53.537,28.416,74.235L318.379,504.31
	C400.297,483.794,466.54,423.834,495.777,345.761z"/>
<path style="fill:#FFFFFF;" d="M369.974,273.902c0,62.94-51.026,113.966-113.966,113.966c-62.948,0-113.966-51.026-113.966-113.966
	c0-62.95,51.016-113.966,113.966-113.966C318.948,159.936,369.974,210.952,369.974,273.902z"/>
<path style="fill:#0575A5;" d="M255.923,393.139c-0.983,0-1.958-0.013-2.913-0.036l-2.332-0.077
	c-28.669-1.262-55.946-12.854-76.762-32.663c-1.495-1.362-2.936-2.819-4.319-4.301c-20.424-21.435-32.082-49.567-32.804-79.186
	c-0.036-0.975-0.036-1.979-0.036-2.97c0-1.006,0-2.002,0.036-2.972c0.722-29.624,12.38-57.769,32.812-79.222
	c1.334-1.416,2.732-2.806,4.291-4.285c20.838-19.804,48.115-31.404,76.785-32.658c0.75-0.036,1.523-0.046,2.284-0.084
	c1.006-0.013,1.981-0.028,2.964-0.028c1.119,0,2.092,0.015,3.062,0.028c0.814,0.038,1.559,0.049,2.324,0.084
	c28.675,1.254,55.946,12.859,76.777,32.658c1.546,1.48,2.962,2.87,4.298,4.285c20.436,21.468,32.087,49.597,32.804,79.222
	c0.02,0.97,0.054,1.969,0.054,2.972c0,0.991-0.036,1.979-0.054,2.962c-0.717,29.624-12.367,57.759-32.804,79.222
	c-1.329,1.403-2.752,2.801-4.298,4.27c-20.833,19.804-48.102,31.401-76.777,32.663l-2.248,0.077
	c-1.047,0.023-2.022,0.036-2.993,0.036h-0.151V393.139z M216.453,341.978c8.906,17.467,21.258,32.356,35.832,43.169v-48.241
	C240.056,337.203,228.012,338.908,216.453,341.978z M259.707,385.108c14.502-10.706,26.9-25.628,35.832-43.131
	c-11.587-3.069-23.626-4.79-35.832-5.069V385.108z M302.794,344.105c-7.859,15.818-18.112,29.404-30.515,40.404
	c21.983-3.195,42.214-12.797,58.79-27.84C322.294,351.521,312.776,347.295,302.794,344.105z M180.931,356.669
	c16.553,15.043,36.8,24.645,58.775,27.84c-12.403-11-22.643-24.586-30.508-40.404C199.217,347.279,189.716,351.516,180.931,356.669z
	 M305.964,337.321c10.857,3.54,21.141,8.241,30.62,13.978c19.21-19.983,30.249-46.085,31.147-73.672H318.93
	C318.451,298.322,313.974,318.912,305.964,337.321z M144.264,277.624c0.899,27.574,11.932,53.686,31.127,73.672
	c9.439-5.732,19.735-10.437,30.636-13.978c-8.013-18.419-12.48-39.012-12.951-59.694H144.264z M259.707,329.462
	c13.309,0.302,26.465,2.212,39.094,5.704c7.808-17.644,12.178-37.501,12.682-57.541h-51.776V329.462z M200.509,277.624
	c0.484,20.022,4.867,39.885,12.692,57.541c12.628-3.489,25.761-5.399,39.084-5.704v-51.837H200.509z M367.731,270.188
	c-0.906-27.604-11.937-53.709-31.148-73.692c-9.503,5.755-19.797,10.465-30.62,13.993c8.013,18.399,12.488,38.996,12.964,59.699
	H367.731z M311.483,270.188c-0.504-20.019-4.867-39.887-12.669-57.536c-12.636,3.479-25.795,5.394-39.104,5.696v51.84H311.483z
	 M252.285,270.188v-51.84c-13.322-0.302-26.455-2.217-39.091-5.696c-7.816,17.651-12.198,37.504-12.685,57.536H252.285z
	 M193.073,270.188c0.471-20.68,4.938-41.277,12.951-59.689c-10.829-3.538-21.125-8.233-30.62-14.003
	c-19.208,19.991-30.241,46.1-31.14,73.692H193.073L193.073,270.188z M259.707,210.893c12.25-0.292,24.271-1.992,35.84-5.061
	c-8.899-17.482-21.268-32.387-35.84-43.192V210.893z M216.445,205.832c11.566,3.069,23.603,4.774,35.84,5.061v-48.266
	C237.727,173.435,225.357,188.334,216.445,205.832z M180.902,191.132c8.765,5.138,18.268,9.367,28.291,12.575
	c7.872-15.834,18.132-29.422,30.515-40.422C217.723,166.497,197.476,176.082,180.902,191.132z M272.279,163.287
	c12.383,10.998,22.656,24.573,30.543,40.415c9.938-3.185,19.433-7.414,28.247-12.57
	C314.496,176.082,294.236,166.497,272.279,163.287z"/>
<path style="fill:#FF8E31;" d="M256,177.439c0-32.366-26.217-58.58-58.565-58.58c-32.356,0-58.58,26.214-58.58,58.58
	c0,23.135,13.414,43.144,32.904,52.659l25.677,43.804l25.669-43.804C242.586,220.582,256,200.573,256,177.439z"/>
<path style="fill:#FFFFFF;" d="M232.22,177.439c0,19.208-15.578,34.796-34.785,34.796c-19.223,0-34.798-15.588-34.798-34.796
	c0-19.215,15.575-34.798,34.798-34.798C216.643,142.638,232.22,158.223,232.22,177.439z"/>
<g>
</g>
<g>
</g>
<g>
</g>
<g>
</g>
<g>
</g>
<g>
</g>
<g>
</g>
<g>
</g>
<g>
</g>
<g>
</g>
<g>
</g>
<g>
</g>
<g>
</g>
<g>
</g>
<g>
</g>
</svg>
