<?xml version="1.0" encoding="iso-8859-1"?>
<!-- Generator: Adobe Illustrator 19.0.0, SVG Export Plug-In . SVG Version: 6.00 Build 0)  -->
<svg version="1.1" id="Layer_1" xmlns="http://www.w3.org/2000/svg" xmlns:xlink="http://www.w3.org/1999/xlink" x="0px" y="0px"
	 viewBox="0 0 512 512" style="enable-background:new 0 0 512 512;" xml:space="preserve">
<circle style="fill:#0575A5;" cx="256" cy="256" r="256"/>
<path style="fill:#025E90;" d="M511.716,267.195L387.661,143.137H172.692l-24.174,24.174l-24.172,24.21v129.536h0.036
	l185.247,185.27C421.732,482.424,506.634,385.17,511.716,267.195z"/>
<polygon style="fill:#FFFFFF;" points="124.344,191.506 124.344,321.042 281.431,321.042 329.231,368.855 329.231,321.042 
	387.656,321.042 387.656,143.137 172.703,143.137 "/>
<polygon style="fill:#E1EFFA;" points="124.344,239.859 172.703,191.506 148.534,167.309 124.344,191.506 "/>
<polygon style="fill:#FF8E31;" points="172.703,191.506 124.344,191.506 172.703,143.137 "/>
<g>
	<path style="fill:#5D6D7E;" d="M257.518,299.382h-75.182c-0.584,0-1.062-0.466-1.062-1.06c0-0.586,0.479-1.068,1.062-1.068h75.182
		c0.584,0,1.06,0.481,1.06,1.068C258.578,298.918,258.099,299.382,257.518,299.382z"/>
	<path style="fill:#5D6D7E;" d="M217.359,287.841l15.485-26.954l-13.14-13.141l-26.962,15.468
		c0.177,11.715-3.182,23.493-10.099,33.556c-0.102,0.028-0.197,0.069-0.243,0.125c-0.159,0.143-0.159,0.407,0,0.556
		c0.143,0.156,0.389,0.156,0.543,0.008l22.551-23.59c-0.223-0.689-0.056-1.467,0.481-1.994c0.765-0.781,1.976-0.773,2.742,0
		c0.755,0.737,0.755,1.994,0.013,2.744c-0.532,0.563-1.321,0.709-2.002,0.474l-23.611,22.551c-0.133,0.141-0.148,0.399,0.005,0.576
		c0.161,0.143,0.422,0.143,0.571,0c0.084-0.074,0.097-0.174,0.128-0.266C193.866,291.018,205.627,287.652,217.359,287.841z"/>
</g>
<path style="fill:#34495E;" d="M183.826,297.951c-0.031,0.069-0.046,0.189-0.11,0.253c-0.164,0.156-0.428,0.156-0.586,0
	c-0.166-0.161-0.141-0.422-0.005-0.563l23.611-22.551c0.681,0.238,1.454,0.069,1.994-0.479c0.748-0.745,0.748-2.002-0.008-2.739
	l17.572-17.559l6.523,6.556l-15.457,26.975C205.665,287.66,193.866,291.018,183.826,297.951z"/>
<path style="fill:#F15540;" d="M316.672,163.904L316.672,163.904L316.672,163.904z"/>
<path style="fill:#FF8E31;" d="M321.592,175.78c-0.003-4.641-1.882-8.835-4.92-11.876c-3.041-3.041-7.24-4.915-11.876-4.915
	c-4.641,0-8.835,1.876-11.878,4.915l-60.093,60.104l23.736,23.736l60.285-60.265C319.89,184.445,321.59,180.416,321.592,175.78z"/>
<g>
	<path style="fill:#FFC87C;" d="M256.036,207.99c-0.794-0.801-0.794-2.094,0-2.88l27.172-27.172c0.794-0.801,2.081-0.801,2.872,0
		c0.801,0.801,0.801,2.086,0,2.885l-27.162,27.167C258.122,208.776,256.829,208.776,256.036,207.99z"/>
	<path style="fill:#FFC87C;" d="M298.363,166.651c-0.166-0.161-0.299-0.366-0.407-0.576c-0.479-1.011-0.046-2.227,0.97-2.719
		c1.864-0.878,3.843-1.313,5.873-1.313c3.666,0,7.119,1.418,9.713,4.017c0.794,0.794,0.794,2.079,0.008,2.88
		c-0.796,0.801-2.086,0.801-2.888,0.005c-1.825-1.841-4.25-2.844-6.833-2.844c-1.431,0-2.821,0.323-4.129,0.942
		C299.873,167.421,298.949,167.24,298.363,166.651z"/>
</g>
<polygon style="fill:#FF9D4D;" points="233.654,261.683 218.911,246.945 234.903,226.094 254.505,245.688 "/>
<polygon style="fill:#34495E;" points="311.629,192.694 287.877,168.947 290.757,166.06 314.509,189.819 "/>
<polygon style="fill:#F28124;" points="252.052,247.557 254.505,245.688 234.903,226.094 233.027,228.531 "/>
<path style="fill:#5D6D7E;" d="M290.757,166.06l-0.701-0.709c-1.155-1.16-2.698-1.784-4.332-1.784
	c-1.641,0.013-3.174,0.645-4.326,1.812l-23.404,23.626c-0.794,0.781-0.786,2.079,0.005,2.872h0.003
	c0.801,0.794,2.086,0.786,2.88-0.013l23.411-23.619c0.381-0.394,0.899-0.604,1.441-0.604c0.548,0,1.06,0.205,1.444,0.596
	l0.701,0.709L290.757,166.06z"/>
<g>
</g>
<g>
</g>
<g>
</g>
<g>
</g>
<g>
</g>
<g>
</g>
<g>
</g>
<g>
</g>
<g>
</g>
<g>
</g>
<g>
</g>
<g>
</g>
<g>
</g>
<g>
</g>
<g>
</g>
</svg>
