<?xml version="1.0" encoding="iso-8859-1"?>
<!-- Generator: Adobe Illustrator 19.0.0, SVG Export Plug-In . SVG Version: 6.00 Build 0)  -->
<svg version="1.1" id="Capa_1" xmlns="http://www.w3.org/2000/svg" xmlns:xlink="http://www.w3.org/1999/xlink" x="0px" y="0px"
	 viewBox="0 0 512 512" style="enable-background:new 0 0 512 512;" xml:space="preserve">
<path style="fill:#FE4234;" d="M256,0c-77.903,0-139.386,111.526-139.99,253.917c-0.04,2.836-0.037,2.363,0.001-0.086
	C116.953,165.134,177.91,91,256,91c78.871,0,140,75.474,140,165c0,89.528-61.133,165-140,165
	c-78.084,0-139.047-74.114-139.989-162.901c-0.001-0.094-0.002-0.153,0-0.017C116.614,400.474,178.097,512,256,512
	c141.491,0,256-114.497,256-256C512,114.509,397.503,0,256,0z"/>
<g>
	<path style="fill:#E33745;" d="M256,0v91c78.871,0,140,75.474,140,165c0,89.528-61.133,165-140,165v91
		c141.491,0,256-114.497,256-256C512,114.509,397.503,0,256,0z"/>
	<path style="fill:#E33745;" d="M512,256c0,141.288-114.276,256-256,256v-91c78.899,0,140-75.516,140-165
		c0-89.508-61.122-165-140-165V0C397.495,0,512,114.497,512,256z"/>
</g>
<path style="fill:#FF6D4A;" d="M0,256c0,141.491,114.497,256,256,256v-30c-27.354,0-53.904-21.982-74.761-61.898
	c-6.188-11.843-11.616-24.799-16.245-38.637c-65.166-65.884-65.53-184.679,0-250.93C179.464,87.281,210.697,30,256,30V0
	C114.509,0,0,114.497,0,256z"/>
<g>
</g>
<g>
</g>
<g>
</g>
<g>
</g>
<g>
</g>
<g>
</g>
<g>
</g>
<g>
</g>
<g>
</g>
<g>
</g>
<g>
</g>
<g>
</g>
<g>
</g>
<g>
</g>
<g>
</g>
</svg>
