<?xml version="1.0" encoding="iso-8859-1"?>
<!-- Generator: Adobe Illustrator 19.0.0, SVG Export Plug-In . SVG Version: 6.00 Build 0)  -->
<svg version="1.1" id="Capa_1" xmlns="http://www.w3.org/2000/svg" xmlns:xlink="http://www.w3.org/1999/xlink" x="0px" y="0px"
	 viewBox="0 0 512 512" style="enable-background:new 0 0 512 512;" xml:space="preserve">
<circle style="fill:#175D76;" cx="256" cy="256" r="256"/>
<path style="fill:#00263F;" d="M512,256c0-7.929-0.38-15.767-1.085-23.512L399.864,121.437L109.889,388.135l122.797,122.797
	C240.366,511.626,248.139,512,256,512C397.385,512,512,397.385,512,256z"/>
<circle style="fill:#FFFFFF;" cx="256" cy="256" r="197"/>
<path style="fill:#E0E0E0;" d="M256,59c-0.111,0-0.222,0.004-0.333,0.004v393.992c0.111,0,0.222,0.004,0.333,0.004
	c108.8,0,197-88.2,197-197S364.8,59,256,59z"/>
<circle style="fill:#00BAFF;" cx="256" cy="256" r="175"/>
<path style="fill:#008CC3;" d="M256,81c-0.111,0-0.222,0.004-0.333,0.004v349.992c0.111,0,0.222,0.004,0.333,0.004
	c96.65,0,175-78.35,175-175S352.65,81,256,81z"/>
<rect x="246" y="89.06" style="fill:#B9EAFF;" width="20" height="30.435"/>
<rect x="255.67" y="89.06" style="fill:#35CCFF;" width="10.333" height="30.435"/>
<rect x="246" y="392.67" style="fill:#B9EAFF;" width="20" height="30.435"/>
<g>
	<rect x="255.67" y="392.67" style="fill:#35CCFF;" width="10.333" height="30.435"/>
	<rect x="392.59" y="246.09" style="fill:#35CCFF;" width="30.435" height="20"/>
</g>
<rect x="88.977" y="246.09" style="fill:#B9EAFF;" width="30.435" height="20"/>
<rect x="348.134" y="353.424" transform="matrix(-0.7071 -0.7071 0.7071 -0.7071 363.3003 877.3326)" style="fill:#35CCFF;" width="30.435" height="20"/>
<rect x="133.444" y="138.74" transform="matrix(-0.7071 -0.7071 0.7071 -0.7071 148.6064 359.0343)" style="fill:#B9EAFF;" width="30.435" height="20"/>
<rect x="353.328" y="133.53" transform="matrix(-0.7071 -0.7071 0.7071 -0.7071 515.0602 510.839)" style="fill:#35CCFF;" width="20" height="30.435"/>
<rect x="138.658" y="348.207" transform="matrix(-0.7071 -0.7071 0.7071 -0.7071 -3.2047 725.5207)" style="fill:#B9EAFF;" width="20" height="30.435"/>
<polygon style="fill:#FFFFFF;" points="236.087,235.96 372.801,138.88 277.057,276.485 139.007,373.565 "/>
<polygon style="fill:#E0E0E0;" points="372.801,138.88 255.667,222.057 255.667,291.527 277.057,276.485 "/>
<polygon style="fill:#F1333F;" points="236.087,235.96 372.801,138.88 277.057,276.485 "/>
<polygon style="fill:#AE283F;" points="372.801,138.88 255.667,222.057 255.667,255.327 277.057,276.485 "/>
<g>
</g>
<g>
</g>
<g>
</g>
<g>
</g>
<g>
</g>
<g>
</g>
<g>
</g>
<g>
</g>
<g>
</g>
<g>
</g>
<g>
</g>
<g>
</g>
<g>
</g>
<g>
</g>
<g>
</g>
</svg>
